<svg width="2552" height="1130" viewBox="0 0 2552 1130" fill="none" xmlns="http://www.w3.org/2000/svg">
<rect width="2552" height="1130" fill="#FF7B00" fill-opacity="0.08"/>
<mask id="mask0" mask-type="alpha" maskUnits="userSpaceOnUse" x="0" y="0" width="2552" height="1130">
<rect width="2552" height="1130" fill="#676767"/>
</mask>
<g mask="url(#mask0)">
<line y1="-1.5" x2="5017.06" y2="-1.5" transform="matrix(0.646104 -0.800957 0.902216 -0.369122 115.282 3418.29)" stroke="#FF7B00" stroke-opacity="0.5" stroke-width="3"/>
<line y1="-1.5" x2="5017.06" y2="-1.5" transform="matrix(0.646104 -0.800957 0.902216 -0.369122 130.93 3455.15)" stroke="#FF7B00" stroke-opacity="0.5" stroke-width="3"/>
<line y1="-1.5" x2="5017.06" y2="-1.5" transform="matrix(0.646104 -0.800957 0.902216 -0.369122 146.577 3492)" stroke="#FF7B00" stroke-opacity="0.5" stroke-width="3"/>
<line y1="-1.5" x2="5017.06" y2="-1.5" transform="matrix(0.646104 -0.800957 0.902216 -0.369122 162.225 3528.86)" stroke="#FF7B00" stroke-opacity="0.5" stroke-width="3"/>
<line y1="-1.5" x2="5017.06" y2="-1.5" transform="matrix(0.646104 -0.800957 0.902216 -0.369122 177.873 3565.72)" stroke="#FF7B00" stroke-opacity="0.5" stroke-width="3"/>
<line y1="-1.5" x2="5017.06" y2="-1.5" transform="matrix(0.646104 -0.800957 0.902216 -0.369122 193.52 3602.58)" stroke="#FF7B00" stroke-opacity="0.5" stroke-width="3"/>
<line y1="-1.5" x2="5017.06" y2="-1.5" transform="matrix(0.646104 -0.800957 0.902216 -0.369122 209.169 3639.44)" stroke="#FF7B00" stroke-opacity="0.5" stroke-width="3"/>
<line y1="-1.5" x2="5017.06" y2="-1.5" transform="matrix(0.646104 -0.800957 0.902216 -0.369122 224.816 3676.3)" stroke="#FF7B00" stroke-opacity="0.5" stroke-width="3"/>
<line y1="-1.5" x2="5017.06" y2="-1.5" transform="matrix(0.646104 -0.800957 0.902216 -0.369122 240.464 3713.16)" stroke="#FF7B00" stroke-opacity="0.5" stroke-width="3"/>
<line y1="-1.5" x2="5017.06" y2="-1.5" transform="matrix(0.646104 -0.800957 0.902216 -0.369122 256.112 3750.02)" stroke="#FF7B00" stroke-opacity="0.5" stroke-width="3"/>
<line y1="-1.5" x2="5017.06" y2="-1.5" transform="matrix(0.646104 -0.800957 0.902216 -0.369122 271.76 3786.88)" stroke="#FF7B00" stroke-opacity="0.5" stroke-width="3"/>
<line y1="-1.5" x2="5017.06" y2="-1.5" transform="matrix(0.646104 -0.800957 0.902216 -0.369122 287.408 3823.74)" stroke="#FF7B00" stroke-opacity="0.5" stroke-width="3"/>
<line y1="-1.5" x2="5017.06" y2="-1.5" transform="matrix(0.646104 -0.800957 0.902216 -0.369122 303.055 3860.6)" stroke="#FF7B00" stroke-opacity="0.5" stroke-width="3"/>
<line y1="-1.5" x2="5017.06" y2="-1.5" transform="matrix(0.646104 -0.800957 0.902216 -0.369122 318.703 3897.46)" stroke="#FF7B00" stroke-opacity="0.5" stroke-width="3"/>
<line y1="-1.5" x2="5017.06" y2="-1.5" transform="matrix(0.646104 -0.800957 0.902216 -0.369122 334.351 3934.31)" stroke="#FF7B00" stroke-opacity="0.5" stroke-width="3"/>
<line y1="-1.5" x2="5017.06" y2="-1.5" transform="matrix(0.646104 -0.800957 0.902216 -0.369122 349.998 3971.17)" stroke="#FF7B00" stroke-opacity="0.5" stroke-width="3"/>
<line y1="-1.5" x2="5017.06" y2="-1.5" transform="matrix(0.646104 -0.800957 0.902216 -0.369122 365.647 4008.03)" stroke="#FF7B00" stroke-opacity="0.5" stroke-width="3"/>
<line y1="-1.5" x2="5017.06" y2="-1.5" transform="matrix(0.646104 -0.800957 0.902216 -0.369122 381.294 4044.89)" stroke="#FF7B00" stroke-opacity="0.5" stroke-width="3"/>
<line y1="-1.5" x2="5017.06" y2="-1.5" transform="matrix(0.646104 -0.800957 0.902216 -0.369122 396.941 4081.75)" stroke="#FF7B00" stroke-opacity="0.5" stroke-width="3"/>
<line y1="-1.5" x2="5017.06" y2="-1.5" transform="matrix(0.646104 -0.800957 0.902216 -0.369122 412.589 4118.61)" stroke="#FF7B00" stroke-opacity="0.5" stroke-width="3"/>
<line y1="-1.5" x2="5017.06" y2="-1.5" transform="matrix(0.646104 -0.800957 0.902216 -0.369122 428.237 4155.47)" stroke="#FF7B00" stroke-opacity="0.5" stroke-width="3"/>
<line y1="-1.5" x2="5017.06" y2="-1.5" transform="matrix(0.646104 -0.800957 0.902216 -0.369122 443.885 4192.33)" stroke="#FF7B00" stroke-opacity="0.5" stroke-width="3"/>
<line y1="-1.5" x2="5017.06" y2="-1.5" transform="matrix(0.646104 -0.800957 0.902216 -0.369122 459.533 4229.19)" stroke="#FF7B00" stroke-opacity="0.5" stroke-width="3"/>
<line y1="-1.5" x2="5017.06" y2="-1.5" transform="matrix(0.646104 -0.800957 0.902216 -0.369122 475.18 4266.05)" stroke="#FF7B00" stroke-opacity="0.5" stroke-width="3"/>
<line y1="-1.5" x2="5017.06" y2="-1.5" transform="matrix(0.646104 -0.800957 0.902216 -0.369122 490.828 4302.91)" stroke="#FF7B00" stroke-opacity="0.5" stroke-width="3"/>
<line y1="-1.5" x2="5017.06" y2="-1.5" transform="matrix(0.646104 -0.800957 0.902216 -0.369121 506.475 4339.77)" stroke="#FF7B00" stroke-opacity="0.5" stroke-width="3"/>
<line y1="-1.5" x2="5017.06" y2="-1.5" transform="matrix(0.646104 -0.800957 0.902216 -0.369122 522.124 4376.62)" stroke="#FF7B00" stroke-opacity="0.5" stroke-width="3"/>
<line y1="-1.5" x2="5017.06" y2="-1.5" transform="matrix(0.646104 -0.800957 0.902216 -0.369122 537.771 4413.48)" stroke="#FF7B00" stroke-opacity="0.5" stroke-width="3"/>
<line y1="-1.5" x2="5017.06" y2="-1.5" transform="matrix(0.646104 -0.800957 0.902216 -0.369122 553.419 4450.34)" stroke="#FF7B00" stroke-opacity="0.5" stroke-width="3"/>
<line y1="-1.5" x2="5017.06" y2="-1.5" transform="matrix(0.646104 -0.800957 0.902216 -0.369122 99.6345 3381.43)" stroke="#FF7B00" stroke-opacity="0.5" stroke-width="3"/>
<line y1="-1.5" x2="5017.06" y2="-1.5" transform="matrix(0.646104 -0.800957 0.902216 -0.369122 584.492 4523.54)" stroke="#FF7B00" stroke-opacity="0.5" stroke-width="3"/>
<line y1="-1.5" x2="5017.06" y2="-1.5" transform="matrix(0.646104 -0.800957 0.902216 -0.369122 600.141 4560.4)" stroke="#FF7B00" stroke-opacity="0.5" stroke-width="3"/>
<line y1="-1.5" x2="5017.06" y2="-1.5" transform="matrix(0.646104 -0.800957 0.902216 -0.369122 615.788 4597.26)" stroke="#FF7B00" stroke-opacity="0.5" stroke-width="3"/>
<line y1="-1.5" x2="5017.06" y2="-1.5" transform="matrix(0.646104 -0.800957 0.902216 -0.369122 631.436 4634.12)" stroke="#FF7B00" stroke-opacity="0.5" stroke-width="3"/>
<line y1="-1.5" x2="5017.06" y2="-1.5" transform="matrix(0.646104 -0.800957 0.902216 -0.369122 647.084 4670.98)" stroke="#FF7B00" stroke-opacity="0.5" stroke-width="3"/>
<line y1="-1.5" x2="5017.06" y2="-1.5" transform="matrix(0.646104 -0.800957 0.902216 -0.369121 662.73 4707.83)" stroke="#FF7B00" stroke-opacity="0.5" stroke-width="3"/>
<line y1="-1.5" x2="5017.06" y2="-1.5" transform="matrix(0.646104 -0.800957 0.902216 -0.369122 678.379 4744.7)" stroke="#FF7B00" stroke-opacity="0.5" stroke-width="3"/>
<line y1="-1.5" x2="5017.06" y2="-1.5" transform="matrix(0.646104 -0.800957 0.902216 -0.369122 694.026 4781.55)" stroke="#FF7B00" stroke-opacity="0.5" stroke-width="3"/>
<line y1="-1.5" x2="5017.06" y2="-1.5" transform="matrix(0.646104 -0.800957 0.902216 -0.369122 709.675 4818.41)" stroke="#FF7B00" stroke-opacity="0.5" stroke-width="3"/>
<line y1="-1.5" x2="5017.06" y2="-1.5" transform="matrix(0.646104 -0.800957 0.902216 -0.369122 725.323 4855.27)" stroke="#FF7B00" stroke-opacity="0.5" stroke-width="3"/>
<line y1="-1.5" x2="5017.06" y2="-1.5" transform="matrix(0.646104 -0.800957 0.902216 -0.369122 740.969 4892.13)" stroke="#FF7B00" stroke-opacity="0.5" stroke-width="3"/>
<line y1="-1.5" x2="5017.06" y2="-1.5" transform="matrix(0.646104 -0.800957 0.902216 -0.369122 756.618 4928.99)" stroke="#FF7B00" stroke-opacity="0.5" stroke-width="3"/>
<line y1="-1.5" x2="5017.06" y2="-1.5" transform="matrix(0.646104 -0.800957 0.902216 -0.369122 772.265 4965.85)" stroke="#FF7B00" stroke-opacity="0.5" stroke-width="3"/>
<line y1="-1.5" x2="5017.06" y2="-1.5" transform="matrix(0.646104 -0.800957 0.902216 -0.369122 787.913 5002.71)" stroke="#FF7B00" stroke-opacity="0.5" stroke-width="3"/>
<line y1="-1.5" x2="5017.06" y2="-1.5" transform="matrix(0.646104 -0.800957 0.902216 -0.369122 803.562 5039.57)" stroke="#FF7B00" stroke-opacity="0.5" stroke-width="3"/>
<line y1="-1.5" x2="5017.06" y2="-1.5" transform="matrix(0.646104 -0.800957 0.902216 -0.369122 819.208 5076.43)" stroke="#FF7B00" stroke-opacity="0.5" stroke-width="3"/>
<line y1="-1.5" x2="5017.06" y2="-1.5" transform="matrix(0.646104 -0.800957 0.902216 -0.369121 834.856 5113.29)" stroke="#FF7B00" stroke-opacity="0.5" stroke-width="3"/>
<line y1="-1.5" x2="5017.06" y2="-1.5" transform="matrix(0.646104 -0.800957 0.902216 -0.369122 568.844 4486.68)" stroke="#FF7B00" stroke-opacity="0.5" stroke-width="3"/>
<line y1="-1.5" x2="5017.06" y2="-1.5" transform="matrix(0.646104 -0.800957 0.902216 -0.369122 -1320.85 134.95)" stroke="#FF7B00" stroke-opacity="0.5" stroke-width="3"/>
<line y1="-1.5" x2="5017.06" y2="-1.5" transform="matrix(0.646104 -0.800957 0.902216 -0.369122 -1305.2 171.81)" stroke="#FF7B00" stroke-opacity="0.5" stroke-width="3"/>
<line y1="-1.5" x2="5017.06" y2="-1.5" transform="matrix(0.646104 -0.800957 0.902216 -0.369122 -1289.56 208.669)" stroke="#FF7B00" stroke-opacity="0.5" stroke-width="3"/>
<line y1="-1.5" x2="5017.06" y2="-1.5" transform="matrix(0.646104 -0.800957 0.902216 -0.369122 -1273.91 245.527)" stroke="#FF7B00" stroke-opacity="0.5" stroke-width="3"/>
<line y1="-1.5" x2="5017.06" y2="-1.5" transform="matrix(0.646104 -0.800957 0.902216 -0.369122 -1258.26 282.388)" stroke="#FF7B00" stroke-opacity="0.5" stroke-width="3"/>
<line y1="-1.5" x2="5017.06" y2="-1.5" transform="matrix(0.646104 -0.800957 0.902216 -0.369122 -1242.61 319.248)" stroke="#FF7B00" stroke-opacity="0.5" stroke-width="3"/>
<line y1="-1.5" x2="5017.06" y2="-1.5" transform="matrix(0.646104 -0.800957 0.902216 -0.369122 -1226.97 356.106)" stroke="#FF7B00" stroke-opacity="0.5" stroke-width="3"/>
<line y1="-1.5" x2="5017.06" y2="-1.5" transform="matrix(0.646104 -0.800957 0.902216 -0.369122 -1211.32 392.967)" stroke="#FF7B00" stroke-opacity="0.5" stroke-width="3"/>
<line y1="-1.5" x2="5017.06" y2="-1.5" transform="matrix(0.646104 -0.800957 0.902216 -0.369122 -1195.67 429.826)" stroke="#FF7B00" stroke-opacity="0.5" stroke-width="3"/>
<line y1="-1.5" x2="5017.06" y2="-1.5" transform="matrix(0.646104 -0.800957 0.902216 -0.369122 -1180.02 466.685)" stroke="#FF7B00" stroke-opacity="0.5" stroke-width="3"/>
<line y1="-1.5" x2="5017.06" y2="-1.5" transform="matrix(0.646104 -0.800957 0.902216 -0.369122 -1164.37 503.544)" stroke="#FF7B00" stroke-opacity="0.5" stroke-width="3"/>
<line y1="-1.5" x2="5017.06" y2="-1.5" transform="matrix(0.646104 -0.800957 0.902216 -0.369122 -1148.73 540.405)" stroke="#FF7B00" stroke-opacity="0.5" stroke-width="3"/>
<line y1="-1.5" x2="5017.06" y2="-1.5" transform="matrix(0.646104 -0.800957 0.902216 -0.369122 -1133.08 577.266)" stroke="#FF7B00" stroke-opacity="0.5" stroke-width="3"/>
<line y1="-1.5" x2="5017.06" y2="-1.5" transform="matrix(0.646104 -0.800957 0.902216 -0.369122 -1117.43 614.125)" stroke="#FF7B00" stroke-opacity="0.5" stroke-width="3"/>
<line y1="-1.5" x2="5017.06" y2="-1.5" transform="matrix(0.646104 -0.800957 0.902216 -0.369122 -1101.78 650.99)" stroke="#FF7B00" stroke-opacity="0.5" stroke-width="3"/>
<line y1="-1.5" x2="5017.06" y2="-1.5" transform="matrix(0.646104 -0.800957 0.902216 -0.369122 -1086.13 687.851)" stroke="#FF7B00" stroke-opacity="0.5" stroke-width="3"/>
<line y1="-1.5" x2="5017.06" y2="-1.5" transform="matrix(0.646104 -0.800957 0.902216 -0.369122 -1070.48 724.707)" stroke="#FF7B00" stroke-opacity="0.5" stroke-width="3"/>
<line y1="-1.5" x2="5017.06" y2="-1.5" transform="matrix(0.646104 -0.800957 0.902216 -0.369122 -1054.84 761.569)" stroke="#FF7B00" stroke-opacity="0.5" stroke-width="3"/>
<line y1="-1.5" x2="5017.06" y2="-1.5" transform="matrix(0.646104 -0.800957 0.902216 -0.369122 -1039.19 798.429)" stroke="#FF7B00" stroke-opacity="0.5" stroke-width="3"/>
<line y1="-1.5" x2="5017.06" y2="-1.5" transform="matrix(0.646104 -0.800957 0.902216 -0.369122 -1023.54 835.287)" stroke="#FF7B00" stroke-opacity="0.5" stroke-width="3"/>
<line y1="-1.5" x2="5017.06" y2="-1.5" transform="matrix(0.646104 -0.800957 0.902216 -0.369122 -1007.89 872.147)" stroke="#FF7B00" stroke-opacity="0.5" stroke-width="3"/>
<line y1="-1.5" x2="5017.06" y2="-1.5" transform="matrix(0.646104 -0.800957 0.902216 -0.369122 -992.245 909.005)" stroke="#FF7B00" stroke-opacity="0.5" stroke-width="3"/>
<line y1="-1.5" x2="5017.06" y2="-1.5" transform="matrix(0.646104 -0.800957 0.902216 -0.369122 -976.597 945.868)" stroke="#FF7B00" stroke-opacity="0.5" stroke-width="3"/>
<line y1="-1.5" x2="5017.06" y2="-1.5" transform="matrix(0.646104 -0.800957 0.902216 -0.369122 -960.949 982.726)" stroke="#FF7B00" stroke-opacity="0.5" stroke-width="3"/>
<line y1="-1.5" x2="5017.06" y2="-1.5" transform="matrix(0.646104 -0.800957 0.902216 -0.369122 -945.301 1019.58)" stroke="#FF7B00" stroke-opacity="0.5" stroke-width="3"/>
<line y1="-1.5" x2="5017.06" y2="-1.5" transform="matrix(0.646104 -0.800957 0.902216 -0.369122 -929.654 1056.45)" stroke="#FF7B00" stroke-opacity="0.5" stroke-width="3"/>
<line y1="-1.5" x2="5017.06" y2="-1.5" transform="matrix(0.646104 -0.800957 0.902216 -0.369122 -914.006 1093.3)" stroke="#FF7B00" stroke-opacity="0.5" stroke-width="3"/>
<line y1="-1.5" x2="5017.06" y2="-1.5" transform="matrix(0.646104 -0.800957 0.902216 -0.369122 -898.358 1130.16)" stroke="#FF7B00" stroke-opacity="0.5" stroke-width="3"/>
<line y1="-1.5" x2="5017.06" y2="-1.5" transform="matrix(0.646104 -0.800957 0.902216 -0.369122 -882.71 1167.02)" stroke="#FF7B00" stroke-opacity="0.5" stroke-width="3"/>
<line y1="-1.5" x2="5017.06" y2="-1.5" transform="matrix(0.646104 -0.800957 0.902216 -0.369122 -1336.5 98.0904)" stroke="#FF7B00" stroke-opacity="0.5" stroke-width="3"/>
<line y1="-1.5" x2="5017.06" y2="-1.5" transform="matrix(0.646104 -0.800957 0.902216 -0.369122 -851.636 1240.22)" stroke="#FF7B00" stroke-opacity="0.5" stroke-width="3"/>
<line y1="-1.5" x2="5017.06" y2="-1.5" transform="matrix(0.646104 -0.800957 0.902216 -0.369122 -835.988 1277.08)" stroke="#FF7B00" stroke-opacity="0.5" stroke-width="3"/>
<line y1="-1.5" x2="5017.06" y2="-1.5" transform="matrix(0.646104 -0.800957 0.902216 -0.369122 -820.34 1313.94)" stroke="#FF7B00" stroke-opacity="0.5" stroke-width="3"/>
<line y1="-1.5" x2="5017.06" y2="-1.5" transform="matrix(0.646104 -0.800957 0.902216 -0.369122 -804.692 1350.8)" stroke="#FF7B00" stroke-opacity="0.5" stroke-width="3"/>
<line y1="-1.5" x2="5017.06" y2="-1.5" transform="matrix(0.646104 -0.800957 0.902216 -0.369122 -789.044 1387.66)" stroke="#FF7B00" stroke-opacity="0.5" stroke-width="3"/>
<line y1="-1.5" x2="5017.06" y2="-1.5" transform="matrix(0.646104 -0.800957 0.902216 -0.369122 -773.397 1424.52)" stroke="#FF7B00" stroke-opacity="0.5" stroke-width="3"/>
<line y1="-1.5" x2="5017.06" y2="-1.5" transform="matrix(0.646104 -0.800957 0.902216 -0.369122 -757.748 1461.38)" stroke="#FF7B00" stroke-opacity="0.5" stroke-width="3"/>
<line y1="-1.5" x2="5017.06" y2="-1.5" transform="matrix(0.646104 -0.800957 0.902216 -0.369122 -742.102 1498.24)" stroke="#FF7B00" stroke-opacity="0.5" stroke-width="3"/>
<line y1="-1.5" x2="5017.06" y2="-1.5" transform="matrix(0.646104 -0.800957 0.902216 -0.369122 -726.453 1535.1)" stroke="#FF7B00" stroke-opacity="0.5" stroke-width="3"/>
<line y1="-1.5" x2="5017.06" y2="-1.5" transform="matrix(0.646104 -0.800957 0.902216 -0.369122 -710.805 1571.96)" stroke="#FF7B00" stroke-opacity="0.5" stroke-width="3"/>
<line y1="-1.5" x2="5017.06" y2="-1.5" transform="matrix(0.646104 -0.800957 0.902216 -0.369122 -695.158 1608.82)" stroke="#FF7B00" stroke-opacity="0.5" stroke-width="3"/>
<line y1="-1.5" x2="5017.06" y2="-1.5" transform="matrix(0.646104 -0.800957 0.902216 -0.369122 -679.509 1645.68)" stroke="#FF7B00" stroke-opacity="0.5" stroke-width="3"/>
<line y1="-1.5" x2="5017.06" y2="-1.5" transform="matrix(0.646104 -0.800957 0.902216 -0.369122 -663.862 1682.53)" stroke="#FF7B00" stroke-opacity="0.5" stroke-width="3"/>
<line y1="-1.5" x2="5017.06" y2="-1.5" transform="matrix(0.646104 -0.800957 0.902216 -0.369122 -648.217 1719.38)" stroke="#FF7B00" stroke-opacity="0.5" stroke-width="3"/>
<line y1="-1.5" x2="5017.06" y2="-1.5" transform="matrix(0.646104 -0.800957 0.902216 -0.369122 -632.569 1756.25)" stroke="#FF7B00" stroke-opacity="0.5" stroke-width="3"/>
<line y1="-1.5" x2="5017.06" y2="-1.5" transform="matrix(0.646104 -0.800957 0.902216 -0.369122 -616.922 1793.1)" stroke="#FF7B00" stroke-opacity="0.5" stroke-width="3"/>
<line y1="-1.5" x2="5017.06" y2="-1.5" transform="matrix(0.646104 -0.800957 0.902216 -0.369122 -601.274 1829.96)" stroke="#FF7B00" stroke-opacity="0.5" stroke-width="3"/>
<line y1="-1.5" x2="5017.06" y2="-1.5" transform="matrix(0.646104 -0.800957 0.902216 -0.369122 -585.626 1866.82)" stroke="#FF7B00" stroke-opacity="0.5" stroke-width="3"/>
<line y1="-1.5" x2="5017.06" y2="-1.5" transform="matrix(0.646104 -0.800957 0.902216 -0.369122 -569.978 1903.68)" stroke="#FF7B00" stroke-opacity="0.5" stroke-width="3"/>
<line y1="-1.5" x2="5017.06" y2="-1.5" transform="matrix(0.646104 -0.800957 0.902216 -0.369122 -554.331 1940.54)" stroke="#FF7B00" stroke-opacity="0.5" stroke-width="3"/>
<line y1="-1.5" x2="5017.06" y2="-1.5" transform="matrix(0.646104 -0.800957 0.902216 -0.369122 -538.683 1977.4)" stroke="#FF7B00" stroke-opacity="0.5" stroke-width="3"/>
<line y1="-1.5" x2="5017.06" y2="-1.5" transform="matrix(0.646104 -0.800957 0.902216 -0.369122 -523.035 2014.26)" stroke="#FF7B00" stroke-opacity="0.5" stroke-width="3"/>
<line y1="-1.5" x2="5017.06" y2="-1.5" transform="matrix(0.646104 -0.800957 0.902216 -0.369122 -507.386 2051.12)" stroke="#FF7B00" stroke-opacity="0.5" stroke-width="3"/>
<line y1="-1.5" x2="5017.06" y2="-1.5" transform="matrix(0.646104 -0.800957 0.902216 -0.369122 -491.739 2087.98)" stroke="#FF7B00" stroke-opacity="0.5" stroke-width="3"/>
<line y1="-1.5" x2="5017.06" y2="-1.5" transform="matrix(0.646104 -0.800957 0.902216 -0.369122 -476.092 2124.84)" stroke="#FF7B00" stroke-opacity="0.5" stroke-width="3"/>
<line y1="-1.5" x2="5017.06" y2="-1.5" transform="matrix(0.646104 -0.800957 0.902216 -0.369122 -460.443 2161.7)" stroke="#FF7B00" stroke-opacity="0.5" stroke-width="3"/>
<line y1="-1.5" x2="5017.06" y2="-1.5" transform="matrix(0.646104 -0.800957 0.902216 -0.369122 -444.795 2198.56)" stroke="#FF7B00" stroke-opacity="0.5" stroke-width="3"/>
<line y1="-1.5" x2="5017.06" y2="-1.5" transform="matrix(0.646104 -0.800957 0.902216 -0.369122 -429.148 2235.42)" stroke="#FF7B00" stroke-opacity="0.5" stroke-width="3"/>
<line y1="-1.5" x2="5017.06" y2="-1.5" transform="matrix(0.646104 -0.800957 0.902216 -0.369122 -413.5 2272.28)" stroke="#FF7B00" stroke-opacity="0.5" stroke-width="3"/>
<line y1="-1.5" x2="5017.06" y2="-1.5" transform="matrix(0.646104 -0.800957 0.902216 -0.369122 -867.283 1203.36)" stroke="#FF7B00" stroke-opacity="0.5" stroke-width="3"/>
<line y1="-1.5" x2="5017.06" y2="-1.5" transform="matrix(0.646104 -0.800957 0.902216 -0.369122 -382.425 2345.47)" stroke="#FF7B00" stroke-opacity="0.5" stroke-width="3"/>
<line y1="-1.5" x2="5017.06" y2="-1.5" transform="matrix(0.646104 -0.800957 0.902216 -0.369122 -366.779 2382.33)" stroke="#FF7B00" stroke-opacity="0.5" stroke-width="3"/>
<line y1="-1.5" x2="5017.06" y2="-1.5" transform="matrix(0.646104 -0.800957 0.902216 -0.369122 -351.13 2419.19)" stroke="#FF7B00" stroke-opacity="0.5" stroke-width="3"/>
<line y1="-1.5" x2="5017.06" y2="-1.5" transform="matrix(0.646104 -0.800957 0.902216 -0.369122 -335.481 2456.05)" stroke="#FF7B00" stroke-opacity="0.5" stroke-width="3"/>
<line y1="-1.5" x2="5017.06" y2="-1.5" transform="matrix(0.646104 -0.800957 0.902216 -0.369122 -319.835 2492.91)" stroke="#FF7B00" stroke-opacity="0.5" stroke-width="3"/>
<line y1="-1.5" x2="5017.06" y2="-1.5" transform="matrix(0.646104 -0.800957 0.902216 -0.369122 -304.187 2529.77)" stroke="#FF7B00" stroke-opacity="0.5" stroke-width="3"/>
<line y1="-1.5" x2="5017.06" y2="-1.5" transform="matrix(0.646104 -0.800957 0.902216 -0.369122 -288.538 2566.63)" stroke="#FF7B00" stroke-opacity="0.5" stroke-width="3"/>
<line y1="-1.5" x2="5017.06" y2="-1.5" transform="matrix(0.646104 -0.800957 0.902216 -0.369122 -272.891 2603.49)" stroke="#FF7B00" stroke-opacity="0.5" stroke-width="3"/>
<line y1="-1.5" x2="5017.06" y2="-1.5" transform="matrix(0.646104 -0.800957 0.902216 -0.369122 -257.244 2640.35)" stroke="#FF7B00" stroke-opacity="0.5" stroke-width="3"/>
<line y1="-1.5" x2="5017.06" y2="-1.5" transform="matrix(0.646104 -0.800957 0.902216 -0.369122 -241.596 2677.21)" stroke="#FF7B00" stroke-opacity="0.5" stroke-width="3"/>
<line y1="-1.5" x2="5017.06" y2="-1.5" transform="matrix(0.646104 -0.800957 0.902216 -0.369122 -225.948 2714.07)" stroke="#FF7B00" stroke-opacity="0.5" stroke-width="3"/>
<line y1="-1.5" x2="5017.06" y2="-1.5" transform="matrix(0.646104 -0.800957 0.902216 -0.369122 -210.3 2750.93)" stroke="#FF7B00" stroke-opacity="0.5" stroke-width="3"/>
<line y1="-1.5" x2="5017.06" y2="-1.5" transform="matrix(0.646104 -0.800957 0.902216 -0.369122 -194.652 2787.79)" stroke="#FF7B00" stroke-opacity="0.5" stroke-width="3"/>
<line y1="-1.5" x2="5017.06" y2="-1.5" transform="matrix(0.646104 -0.800957 0.902216 -0.369122 -179.004 2824.65)" stroke="#FF7B00" stroke-opacity="0.5" stroke-width="3"/>
<line y1="-1.5" x2="5017.06" y2="-1.5" transform="matrix(0.646104 -0.800957 0.902216 -0.369122 -163.356 2861.51)" stroke="#FF7B00" stroke-opacity="0.5" stroke-width="3"/>
<line y1="-1.5" x2="5017.06" y2="-1.5" transform="matrix(0.646104 -0.800957 0.902216 -0.369122 -147.709 2898.36)" stroke="#FF7B00" stroke-opacity="0.5" stroke-width="3"/>
<line y1="-1.5" x2="5017.06" y2="-1.5" transform="matrix(0.646104 -0.800957 0.902216 -0.369122 -132.061 2935.22)" stroke="#FF7B00" stroke-opacity="0.5" stroke-width="3"/>
<line y1="-1.5" x2="5017.06" y2="-1.5" transform="matrix(0.646104 -0.800957 0.902216 -0.369122 -116.413 2972.09)" stroke="#FF7B00" stroke-opacity="0.5" stroke-width="3"/>
<line y1="-1.5" x2="5017.06" y2="-1.5" transform="matrix(0.646104 -0.800957 0.902216 -0.369122 -100.765 3008.94)" stroke="#FF7B00" stroke-opacity="0.5" stroke-width="3"/>
<line y1="-1.5" x2="5017.06" y2="-1.5" transform="matrix(0.646104 -0.800957 0.902216 -0.369122 -85.1167 3045.8)" stroke="#FF7B00" stroke-opacity="0.5" stroke-width="3"/>
<line y1="-1.5" x2="5017.06" y2="-1.5" transform="matrix(0.646104 -0.800957 0.902216 -0.369122 -69.4689 3082.66)" stroke="#FF7B00" stroke-opacity="0.5" stroke-width="3"/>
<line y1="-1.5" x2="5017.06" y2="-1.5" transform="matrix(0.646104 -0.800957 0.902216 -0.369122 -53.8203 3119.52)" stroke="#FF7B00" stroke-opacity="0.5" stroke-width="3"/>
<line y1="-1.5" x2="5017.06" y2="-1.5" transform="matrix(0.646104 -0.800957 0.902216 -0.369122 -38.1723 3156.38)" stroke="#FF7B00" stroke-opacity="0.5" stroke-width="3"/>
<line y1="-1.5" x2="5017.06" y2="-1.5" transform="matrix(0.646104 -0.800957 0.902216 -0.369122 -22.5255 3193.24)" stroke="#FF7B00" stroke-opacity="0.5" stroke-width="3"/>
<line y1="-1.5" x2="5017.06" y2="-1.5" transform="matrix(0.646104 -0.800957 0.902216 -0.369122 -6.87753 3230.1)" stroke="#FF7B00" stroke-opacity="0.5" stroke-width="3"/>
<line y1="-1.5" x2="5017.06" y2="-1.5" transform="matrix(0.646104 -0.800957 0.902216 -0.369122 8.77011 3266.96)" stroke="#FF7B00" stroke-opacity="0.5" stroke-width="3"/>
<line y1="-1.5" x2="5017.06" y2="-1.5" transform="matrix(0.646104 -0.800957 0.902216 -0.369122 24.4172 3303.82)" stroke="#FF7B00" stroke-opacity="0.5" stroke-width="3"/>
<line y1="-1.5" x2="5017.06" y2="-1.5" transform="matrix(0.646104 -0.800957 0.902216 -0.369122 40.0663 3340.68)" stroke="#FF7B00" stroke-opacity="0.5" stroke-width="3"/>
<line y1="-1.5" x2="5017.06" y2="-1.5" transform="matrix(0.646104 -0.800957 0.902216 -0.369122 55.7148 3377.54)" stroke="#FF7B00" stroke-opacity="0.5" stroke-width="3"/>
<line y1="-1.5" x2="5017.06" y2="-1.5" transform="matrix(0.646104 -0.800957 0.902216 -0.369122 -398.073 2308.62)" stroke="#FF7B00" stroke-opacity="0.5" stroke-width="3"/>
</g>
</svg>
