<svg width="495" height="659" viewBox="0 0 495 659" fill="none" xmlns="http://www.w3.org/2000/svg">
<mask id="mask0" mask-type="alpha" maskUnits="userSpaceOnUse" x="0" y="0" width="495" height="659">
<rect x="0.570312" width="494.25" height="659" fill="#676767"/>
</mask>
<g mask="url(#mask0)">
<line y1="-2.47125" x2="3475.19" y2="-2.47125" transform="matrix(0.491369 -0.674353 0.993643 -0.303735 61.2993 1977.02)" stroke="#FFCC9D" stroke-width="4.9425"/>
<line y1="-2.47125" x2="3475.19" y2="-2.47125" transform="matrix(0.491369 -0.674353 0.993643 -0.303735 69.5425 1998.52)" stroke="#FFCC9D" stroke-width="4.9425"/>
<line y1="-2.47125" x2="3475.19" y2="-2.47125" transform="matrix(0.491369 -0.674353 0.993643 -0.303735 77.7847 2020.01)" stroke="#FFCC9D" stroke-width="4.9425"/>
<line y1="-2.47125" x2="3475.19" y2="-2.47125" transform="matrix(0.491369 -0.674353 0.993643 -0.303735 86.0288 2041.51)" stroke="#FFCC9D" stroke-width="4.9425"/>
<line y1="-2.47125" x2="3475.19" y2="-2.47125" transform="matrix(0.491369 -0.674353 0.993642 -0.303735 94.271 2063)" stroke="#FFCC9D" stroke-width="4.9425"/>
<line y1="-2.47125" x2="3475.19" y2="-2.47125" transform="matrix(0.491369 -0.674353 0.993643 -0.303735 102.514 2084.5)" stroke="#FFCC9D" stroke-width="4.9425"/>
<line y1="-2.47125" x2="3475.19" y2="-2.47125" transform="matrix(0.491369 -0.674353 0.993643 -0.303735 110.758 2106)" stroke="#FFCC9D" stroke-width="4.9425"/>
<line y1="-2.47125" x2="3475.19" y2="-2.47125" transform="matrix(0.491369 -0.674353 0.993643 -0.303735 119 2127.49)" stroke="#FFCC9D" stroke-width="4.9425"/>
<line y1="-2.47125" x2="3475.19" y2="-2.47125" transform="matrix(0.491369 -0.674353 0.993643 -0.303735 127.244 2148.99)" stroke="#FFCC9D" stroke-width="4.9425"/>
<line y1="-2.47125" x2="3475.19" y2="-2.47125" transform="matrix(0.491369 -0.674353 0.993642 -0.303735 135.487 2170.48)" stroke="#FFCC9D" stroke-width="4.9425"/>
<line y1="-2.47125" x2="3475.19" y2="-2.47125" transform="matrix(0.491369 -0.674353 0.993643 -0.303735 143.73 2191.98)" stroke="#FFCC9D" stroke-width="4.9425"/>
<line y1="-2.47125" x2="3475.19" y2="-2.47125" transform="matrix(0.491369 -0.674353 0.993642 -0.303735 151.973 2213.48)" stroke="#FFCC9D" stroke-width="4.9425"/>
<line y1="-2.47125" x2="3475.19" y2="-2.47125" transform="matrix(0.491369 -0.674353 0.993643 -0.303735 160.215 2234.97)" stroke="#FFCC9D" stroke-width="4.9425"/>
<line y1="-2.47125" x2="3475.19" y2="-2.47125" transform="matrix(0.491369 -0.674353 0.993643 -0.303735 168.458 2256.47)" stroke="#FFCC9D" stroke-width="4.9425"/>
<line y1="-2.47125" x2="3475.19" y2="-2.47125" transform="matrix(0.491369 -0.674353 0.993642 -0.303735 176.702 2277.96)" stroke="#FFCC9D" stroke-width="4.9425"/>
<line y1="-2.47125" x2="3475.19" y2="-2.47125" transform="matrix(0.491369 -0.674353 0.993643 -0.303735 184.945 2299.46)" stroke="#FFCC9D" stroke-width="4.9425"/>
<line y1="-2.47125" x2="3475.19" y2="-2.47125" transform="matrix(0.491369 -0.674353 0.993643 -0.303735 193.188 2320.95)" stroke="#FFCC9D" stroke-width="4.9425"/>
<line y1="-2.47125" x2="3475.19" y2="-2.47125" transform="matrix(0.491369 -0.674353 0.993642 -0.303735 201.431 2342.45)" stroke="#FFCC9D" stroke-width="4.9425"/>
<line y1="-2.47125" x2="3475.19" y2="-2.47125" transform="matrix(0.491369 -0.674353 0.993643 -0.303735 209.674 2363.94)" stroke="#FFCC9D" stroke-width="4.9425"/>
<line y1="-2.47125" x2="3475.19" y2="-2.47125" transform="matrix(0.491369 -0.674353 0.993643 -0.303735 217.917 2385.44)" stroke="#FFCC9D" stroke-width="4.9425"/>
<line y1="-2.47125" x2="3475.19" y2="-2.47125" transform="matrix(0.491369 -0.674353 0.993642 -0.303735 226.16 2406.94)" stroke="#FFCC9D" stroke-width="4.9425"/>
<line y1="-2.47125" x2="3475.19" y2="-2.47125" transform="matrix(0.491369 -0.674353 0.993642 -0.303736 234.403 2428.43)" stroke="#FFCC9D" stroke-width="4.9425"/>
<line y1="-2.47125" x2="3475.19" y2="-2.47125" transform="matrix(0.491369 -0.674353 0.993643 -0.303735 242.646 2449.93)" stroke="#FFCC9D" stroke-width="4.9425"/>
<line y1="-2.47125" x2="3475.19" y2="-2.47125" transform="matrix(0.491369 -0.674353 0.993643 -0.303735 250.889 2471.42)" stroke="#FFCC9D" stroke-width="4.9425"/>
<line y1="-2.47125" x2="3475.19" y2="-2.47125" transform="matrix(0.491369 -0.674353 0.993643 -0.303735 259.132 2492.92)" stroke="#FFCC9D" stroke-width="4.9425"/>
<line y1="-2.47125" x2="3475.19" y2="-2.47125" transform="matrix(0.491369 -0.674353 0.993643 -0.303735 267.375 2514.41)" stroke="#FFCC9D" stroke-width="4.9425"/>
<line y1="-2.47125" x2="3475.19" y2="-2.47125" transform="matrix(0.491369 -0.674353 0.993643 -0.303735 275.618 2535.91)" stroke="#FFCC9D" stroke-width="4.9425"/>
<line y1="-2.47125" x2="3475.19" y2="-2.47125" transform="matrix(0.491369 -0.674353 0.993643 -0.303735 283.861 2557.41)" stroke="#FFCC9D" stroke-width="4.9425"/>
<line y1="-2.47125" x2="3475.19" y2="-2.47125" transform="matrix(0.491369 -0.674353 0.993643 -0.303735 292.104 2578.9)" stroke="#FFCC9D" stroke-width="4.9425"/>
<line y1="-2.47125" x2="3475.19" y2="-2.47125" transform="matrix(0.491369 -0.674353 0.993642 -0.303735 53.0562 1955.52)" stroke="#FFCC9D" stroke-width="4.9425"/>
<line y1="-2.47125" x2="3475.19" y2="-2.47125" transform="matrix(0.491369 -0.674353 0.993643 -0.303735 308.474 2621.59)" stroke="#FFCC9D" stroke-width="4.9425"/>
<line y1="-2.47125" x2="3475.19" y2="-2.47125" transform="matrix(0.491369 -0.674353 0.993643 -0.303735 316.716 2643.09)" stroke="#FFCC9D" stroke-width="4.9425"/>
<line y1="-2.47125" x2="3475.19" y2="-2.47125" transform="matrix(0.491369 -0.674353 0.993642 -0.303736 324.959 2664.58)" stroke="#FFCC9D" stroke-width="4.9425"/>
<line y1="-2.47125" x2="3475.19" y2="-2.47125" transform="matrix(0.491369 -0.674353 0.993642 -0.303735 333.202 2686.08)" stroke="#FFCC9D" stroke-width="4.9425"/>
<line y1="-2.47125" x2="3475.19" y2="-2.47125" transform="matrix(0.491369 -0.674353 0.993642 -0.303735 341.445 2707.57)" stroke="#FFCC9D" stroke-width="4.9425"/>
<line y1="-2.47125" x2="3475.19" y2="-2.47125" transform="matrix(0.49137 -0.674352 0.993643 -0.303735 349.688 2729.07)" stroke="#FFCC9D" stroke-width="4.9425"/>
<line y1="-2.47125" x2="3475.19" y2="-2.47125" transform="matrix(0.491369 -0.674353 0.993643 -0.303735 357.932 2750.56)" stroke="#FFCC9D" stroke-width="4.9425"/>
<line y1="-2.47125" x2="3475.19" y2="-2.47125" transform="matrix(0.491369 -0.674353 0.993643 -0.303735 366.174 2772.06)" stroke="#FFCC9D" stroke-width="4.9425"/>
<line y1="-2.47125" x2="3475.19" y2="-2.47125" transform="matrix(0.491369 -0.674353 0.993643 -0.303735 374.417 2793.56)" stroke="#FFCC9D" stroke-width="4.9425"/>
<line y1="-2.47125" x2="3475.19" y2="-2.47125" transform="matrix(0.491369 -0.674353 0.993642 -0.303736 382.66 2815.05)" stroke="#FFCC9D" stroke-width="4.9425"/>
<line y1="-2.47125" x2="3475.19" y2="-2.47125" transform="matrix(0.491369 -0.674353 0.993643 -0.303735 390.903 2836.55)" stroke="#FFCC9D" stroke-width="4.9425"/>
<line y1="-2.47125" x2="3475.19" y2="-2.47125" transform="matrix(0.491369 -0.674353 0.993643 -0.303735 399.146 2858.04)" stroke="#FFCC9D" stroke-width="4.9425"/>
<line y1="-2.47125" x2="3475.19" y2="-2.47125" transform="matrix(0.491369 -0.674353 0.993643 -0.303735 407.39 2879.54)" stroke="#FFCC9D" stroke-width="4.9425"/>
<line y1="-2.47125" x2="3475.19" y2="-2.47125" transform="matrix(0.491369 -0.674353 0.993642 -0.303735 415.632 2901.03)" stroke="#FFCC9D" stroke-width="4.9425"/>
<line y1="-2.47125" x2="3475.19" y2="-2.47125" transform="matrix(0.491369 -0.674353 0.993642 -0.303736 423.876 2922.53)" stroke="#FFCC9D" stroke-width="4.9425"/>
<line y1="-2.47125" x2="3475.19" y2="-2.47125" transform="matrix(0.491369 -0.674353 0.993643 -0.303735 432.118 2944.03)" stroke="#FFCC9D" stroke-width="4.9425"/>
<line y1="-2.47125" x2="3475.19" y2="-2.47125" transform="matrix(0.491369 -0.674353 0.993643 -0.303735 440.361 2965.52)" stroke="#FFCC9D" stroke-width="4.9425"/>
<line y1="-2.47125" x2="3475.19" y2="-2.47125" transform="matrix(0.491369 -0.674353 0.993643 -0.303735 448.604 2987.02)" stroke="#FFCC9D" stroke-width="4.9425"/>
<line y1="-2.47125" x2="3475.19" y2="-2.47125" transform="matrix(0.49137 -0.674352 0.993643 -0.303735 300.23 2600.09)" stroke="#FFCC9D" stroke-width="4.9425"/>
<line y1="-2.47125" x2="3475.19" y2="-2.47125" transform="matrix(0.491369 -0.674353 0.993642 -0.303735 -695.238 62.226)" stroke="#FFCC9D" stroke-width="4.9425"/>
<line y1="-2.47125" x2="3475.19" y2="-2.47125" transform="matrix(0.491369 -0.674353 0.993642 -0.303736 -686.995 83.7224)" stroke="#FFCC9D" stroke-width="4.9425"/>
<line y1="-2.47125" x2="3475.19" y2="-2.47125" transform="matrix(0.491369 -0.674353 0.993643 -0.303735 -678.751 105.218)" stroke="#FFCC9D" stroke-width="4.9425"/>
<line y1="-2.47125" x2="3475.19" y2="-2.47125" transform="matrix(0.491369 -0.674353 0.993643 -0.303735 -670.508 126.713)" stroke="#FFCC9D" stroke-width="4.9425"/>
<line y1="-2.47125" x2="3475.19" y2="-2.47125" transform="matrix(0.491369 -0.674353 0.993643 -0.303735 -662.265 148.21)" stroke="#FFCC9D" stroke-width="4.9425"/>
<line y1="-2.47125" x2="3475.19" y2="-2.47125" transform="matrix(0.491369 -0.674353 0.993643 -0.303735 -654.022 169.706)" stroke="#FFCC9D" stroke-width="4.9425"/>
<line y1="-2.47125" x2="3475.19" y2="-2.47125" transform="matrix(0.491369 -0.674353 0.993643 -0.303735 -645.779 191.202)" stroke="#FFCC9D" stroke-width="4.9425"/>
<line y1="-2.47125" x2="3475.19" y2="-2.47125" transform="matrix(0.491369 -0.674353 0.993643 -0.303735 -637.536 212.698)" stroke="#FFCC9D" stroke-width="4.9425"/>
<line y1="-2.47125" x2="3475.19" y2="-2.47125" transform="matrix(0.491369 -0.674353 0.993643 -0.303735 -629.293 234.194)" stroke="#FFCC9D" stroke-width="4.9425"/>
<line y1="-2.47125" x2="3475.19" y2="-2.47125" transform="matrix(0.491369 -0.674353 0.993642 -0.303735 -621.05 255.69)" stroke="#FFCC9D" stroke-width="4.9425"/>
<line y1="-2.47125" x2="3475.19" y2="-2.47125" transform="matrix(0.491369 -0.674353 0.993643 -0.303735 -612.807 277.185)" stroke="#FFCC9D" stroke-width="4.9425"/>
<line y1="-2.47125" x2="3475.19" y2="-2.47125" transform="matrix(0.491369 -0.674353 0.993642 -0.303735 -604.564 298.682)" stroke="#FFCC9D" stroke-width="4.9425"/>
<line y1="-2.47125" x2="3475.19" y2="-2.47125" transform="matrix(0.491369 -0.674353 0.993643 -0.303735 -596.32 320.179)" stroke="#FFCC9D" stroke-width="4.9425"/>
<line y1="-2.47125" x2="3475.19" y2="-2.47125" transform="matrix(0.491369 -0.674353 0.993643 -0.303735 -588.077 341.675)" stroke="#FFCC9D" stroke-width="4.9425"/>
<line y1="-2.47125" x2="3475.19" y2="-2.47125" transform="matrix(0.491369 -0.674353 0.993643 -0.303735 -579.833 363.173)" stroke="#FFCC9D" stroke-width="4.9425"/>
<line y1="-2.47125" x2="3475.19" y2="-2.47125" transform="matrix(0.491369 -0.674353 0.993643 -0.303735 -571.59 384.67)" stroke="#FFCC9D" stroke-width="4.9425"/>
<line y1="-2.47125" x2="3475.19" y2="-2.47125" transform="matrix(0.491369 -0.674353 0.993642 -0.303735 -563.348 406.164)" stroke="#FFCC9D" stroke-width="4.9425"/>
<line y1="-2.47125" x2="3475.19" y2="-2.47125" transform="matrix(0.491369 -0.674353 0.993642 -0.303735 -555.104 427.662)" stroke="#FFCC9D" stroke-width="4.9425"/>
<line y1="-2.47125" x2="3475.19" y2="-2.47125" transform="matrix(0.491369 -0.674353 0.993643 -0.303735 -546.861 449.158)" stroke="#FFCC9D" stroke-width="4.9425"/>
<line y1="-2.47125" x2="3475.19" y2="-2.47125" transform="matrix(0.491369 -0.674353 0.993643 -0.303735 -538.618 470.653)" stroke="#FFCC9D" stroke-width="4.9425"/>
<line y1="-2.47125" x2="3475.19" y2="-2.47125" transform="matrix(0.491369 -0.674353 0.993643 -0.303735 -530.375 492.149)" stroke="#FFCC9D" stroke-width="4.9425"/>
<line y1="-2.47125" x2="3475.19" y2="-2.47125" transform="matrix(0.491369 -0.674353 0.993643 -0.303735 -522.131 513.644)" stroke="#FFCC9D" stroke-width="4.9425"/>
<line y1="-2.47125" x2="3475.19" y2="-2.47125" transform="matrix(0.491369 -0.674353 0.993643 -0.303735 -513.888 535.142)" stroke="#FFCC9D" stroke-width="4.9425"/>
<line y1="-2.47125" x2="3475.19" y2="-2.47125" transform="matrix(0.491369 -0.674353 0.993643 -0.303735 -505.645 556.637)" stroke="#FFCC9D" stroke-width="4.9425"/>
<line y1="-2.47125" x2="3475.19" y2="-2.47125" transform="matrix(0.491369 -0.674353 0.993643 -0.303735 -497.402 578.133)" stroke="#FFCC9D" stroke-width="4.9425"/>
<line y1="-2.47125" x2="3475.19" y2="-2.47125" transform="matrix(0.491369 -0.674353 0.993643 -0.303735 -489.159 599.629)" stroke="#FFCC9D" stroke-width="4.9425"/>
<line y1="-2.47125" x2="3475.19" y2="-2.47125" transform="matrix(0.491369 -0.674353 0.993643 -0.303735 -480.916 621.124)" stroke="#FFCC9D" stroke-width="4.9425"/>
<line y1="-2.47125" x2="3475.19" y2="-2.47125" transform="matrix(0.491369 -0.674353 0.993642 -0.303735 -472.673 642.621)" stroke="#FFCC9D" stroke-width="4.9425"/>
<line y1="-2.47125" x2="3475.19" y2="-2.47125" transform="matrix(0.491369 -0.674353 0.993643 -0.303735 -464.429 664.117)" stroke="#FFCC9D" stroke-width="4.9425"/>
<line y1="-2.47125" x2="3475.19" y2="-2.47125" transform="matrix(0.491369 -0.674353 0.993643 -0.303735 -703.481 40.7302)" stroke="#FFCC9D" stroke-width="4.9425"/>
<line y1="-2.47125" x2="3475.19" y2="-2.47125" transform="matrix(0.491369 -0.674353 0.993643 -0.303735 -448.061 706.804)" stroke="#FFCC9D" stroke-width="4.9425"/>
<line y1="-2.47125" x2="3475.19" y2="-2.47125" transform="matrix(0.491369 -0.674353 0.993643 -0.303735 -439.817 728.301)" stroke="#FFCC9D" stroke-width="4.9425"/>
<line y1="-2.47125" x2="3475.19" y2="-2.47125" transform="matrix(0.491369 -0.674353 0.993643 -0.303735 -431.574 749.796)" stroke="#FFCC9D" stroke-width="4.9425"/>
<line y1="-2.47125" x2="3475.19" y2="-2.47125" transform="matrix(0.491369 -0.674353 0.993642 -0.303735 -423.331 771.292)" stroke="#FFCC9D" stroke-width="4.9425"/>
<line y1="-2.47125" x2="3475.19" y2="-2.47125" transform="matrix(0.491369 -0.674353 0.993642 -0.303735 -415.088 792.789)" stroke="#FFCC9D" stroke-width="4.9425"/>
<line y1="-2.47125" x2="3475.19" y2="-2.47125" transform="matrix(0.491369 -0.674353 0.993643 -0.303735 -406.845 814.284)" stroke="#FFCC9D" stroke-width="4.9425"/>
<line y1="-2.47125" x2="3475.19" y2="-2.47125" transform="matrix(0.491369 -0.674353 0.993643 -0.303735 -398.602 835.78)" stroke="#FFCC9D" stroke-width="4.9425"/>
<line y1="-2.47125" x2="3475.19" y2="-2.47125" transform="matrix(0.491369 -0.674353 0.993643 -0.303735 -390.359 857.276)" stroke="#FFCC9D" stroke-width="4.9425"/>
<line y1="-2.47125" x2="3475.19" y2="-2.47125" transform="matrix(0.491369 -0.674353 0.993643 -0.303735 -382.116 878.772)" stroke="#FFCC9D" stroke-width="4.9425"/>
<line y1="-2.47125" x2="3475.19" y2="-2.47125" transform="matrix(0.491369 -0.674353 0.993643 -0.303735 -373.873 900.268)" stroke="#FFCC9D" stroke-width="4.9425"/>
<line y1="-2.47125" x2="3475.19" y2="-2.47125" transform="matrix(0.491369 -0.674353 0.993643 -0.303735 -365.63 921.764)" stroke="#FFCC9D" stroke-width="4.9425"/>
<line y1="-2.47125" x2="3475.19" y2="-2.47125" transform="matrix(0.491369 -0.674353 0.993642 -0.303735 -357.386 943.26)" stroke="#FFCC9D" stroke-width="4.9425"/>
<line y1="-2.47125" x2="3475.19" y2="-2.47125" transform="matrix(0.491369 -0.674353 0.993642 -0.303735 -349.144 964.756)" stroke="#FFCC9D" stroke-width="4.9425"/>
<line y1="-2.47125" x2="3475.19" y2="-2.47125" transform="matrix(0.491369 -0.674353 0.993643 -0.303735 -340.902 986.246)" stroke="#FFCC9D" stroke-width="4.9425"/>
<line y1="-2.47125" x2="3475.19" y2="-2.47125" transform="matrix(0.491369 -0.674353 0.993643 -0.303735 -332.659 1007.74)" stroke="#FFCC9D" stroke-width="4.9425"/>
<line y1="-2.47125" x2="3475.19" y2="-2.47125" transform="matrix(0.491369 -0.674353 0.993643 -0.303735 -324.417 1029.24)" stroke="#FFCC9D" stroke-width="4.9425"/>
<line y1="-2.47125" x2="3475.19" y2="-2.47125" transform="matrix(0.491369 -0.674353 0.993642 -0.303735 -316.173 1050.73)" stroke="#FFCC9D" stroke-width="4.9425"/>
<line y1="-2.47125" x2="3475.19" y2="-2.47125" transform="matrix(0.491369 -0.674353 0.993643 -0.303735 -307.93 1072.23)" stroke="#FFCC9D" stroke-width="4.9425"/>
<line y1="-2.47125" x2="3475.19" y2="-2.47125" transform="matrix(0.491369 -0.674353 0.993643 -0.303735 -299.688 1093.73)" stroke="#FFCC9D" stroke-width="4.9425"/>
<line y1="-2.47125" x2="3475.19" y2="-2.47125" transform="matrix(0.491369 -0.674353 0.993643 -0.303735 -291.444 1115.22)" stroke="#FFCC9D" stroke-width="4.9425"/>
<line y1="-2.47125" x2="3475.19" y2="-2.47125" transform="matrix(0.491369 -0.674353 0.993643 -0.303736 -283.201 1136.72)" stroke="#FFCC9D" stroke-width="4.9425"/>
<line y1="-2.47125" x2="3475.19" y2="-2.47125" transform="matrix(0.491369 -0.674353 0.993642 -0.303735 -274.958 1158.21)" stroke="#FFCC9D" stroke-width="4.9425"/>
<line y1="-2.47125" x2="3475.19" y2="-2.47125" transform="matrix(0.491369 -0.674353 0.993642 -0.303735 -266.714 1179.71)" stroke="#FFCC9D" stroke-width="4.9425"/>
<line y1="-2.47125" x2="3475.19" y2="-2.47125" transform="matrix(0.491369 -0.674353 0.993642 -0.303735 -258.472 1201.21)" stroke="#FFCC9D" stroke-width="4.9425"/>
<line y1="-2.47125" x2="3475.19" y2="-2.47125" transform="matrix(0.491369 -0.674353 0.993643 -0.303735 -250.229 1222.7)" stroke="#FFCC9D" stroke-width="4.9425"/>
<line y1="-2.47125" x2="3475.19" y2="-2.47125" transform="matrix(0.491369 -0.674353 0.993643 -0.303735 -241.985 1244.2)" stroke="#FFCC9D" stroke-width="4.9425"/>
<line y1="-2.47125" x2="3475.19" y2="-2.47125" transform="matrix(0.491369 -0.674353 0.993643 -0.303735 -233.742 1265.69)" stroke="#FFCC9D" stroke-width="4.9425"/>
<line y1="-2.47125" x2="3475.19" y2="-2.47125" transform="matrix(0.491369 -0.674353 0.993643 -0.303735 -225.499 1287.19)" stroke="#FFCC9D" stroke-width="4.9425"/>
<line y1="-2.47125" x2="3475.19" y2="-2.47125" transform="matrix(0.491369 -0.674353 0.993643 -0.303735 -217.257 1308.68)" stroke="#FFCC9D" stroke-width="4.9425"/>
<line y1="-2.47125" x2="3475.19" y2="-2.47125" transform="matrix(0.491369 -0.674353 0.993642 -0.303735 -456.303 685.308)" stroke="#FFCC9D" stroke-width="4.9425"/>
<line y1="-2.47125" x2="3475.19" y2="-2.47125" transform="matrix(0.491369 -0.674353 0.993642 -0.303736 -200.886 1351.37)" stroke="#FFCC9D" stroke-width="4.9425"/>
<line y1="-2.47125" x2="3475.19" y2="-2.47125" transform="matrix(0.491369 -0.674353 0.993643 -0.303735 -192.644 1372.87)" stroke="#FFCC9D" stroke-width="4.9425"/>
<line y1="-2.47125" x2="3475.19" y2="-2.47125" transform="matrix(0.491369 -0.674353 0.993642 -0.303735 -184.4 1394.36)" stroke="#FFCC9D" stroke-width="4.9425"/>
<line y1="-2.47125" x2="3475.19" y2="-2.47125" transform="matrix(0.491369 -0.674353 0.993643 -0.303735 -176.157 1415.86)" stroke="#FFCC9D" stroke-width="4.9425"/>
<line y1="-2.47125" x2="3475.19" y2="-2.47125" transform="matrix(0.491369 -0.674353 0.993643 -0.303735 -167.915 1437.36)" stroke="#FFCC9D" stroke-width="4.9425"/>
<line y1="-2.47125" x2="3475.19" y2="-2.47125" transform="matrix(0.491369 -0.674353 0.993643 -0.303735 -159.671 1458.85)" stroke="#FFCC9D" stroke-width="4.9425"/>
<line y1="-2.47125" x2="3475.19" y2="-2.47125" transform="matrix(0.491369 -0.674353 0.993642 -0.303735 -151.428 1480.35)" stroke="#FFCC9D" stroke-width="4.9425"/>
<line y1="-2.47125" x2="3475.19" y2="-2.47125" transform="matrix(0.491369 -0.674353 0.993643 -0.303735 -143.185 1501.84)" stroke="#FFCC9D" stroke-width="4.9425"/>
<line y1="-2.47125" x2="3475.19" y2="-2.47125" transform="matrix(0.491369 -0.674353 0.993643 -0.303735 -134.942 1523.34)" stroke="#FFCC9D" stroke-width="4.9425"/>
<line y1="-2.47125" x2="3475.19" y2="-2.47125" transform="matrix(0.491369 -0.674353 0.993643 -0.303735 -126.699 1544.83)" stroke="#FFCC9D" stroke-width="4.9425"/>
<line y1="-2.47125" x2="3475.19" y2="-2.47125" transform="matrix(0.491369 -0.674353 0.993643 -0.303735 -118.456 1566.33)" stroke="#FFCC9D" stroke-width="4.9425"/>
<line y1="-2.47125" x2="3475.19" y2="-2.47125" transform="matrix(0.491369 -0.674353 0.993642 -0.303735 -110.213 1587.83)" stroke="#FFCC9D" stroke-width="4.9425"/>
<line y1="-2.47125" x2="3475.19" y2="-2.47125" transform="matrix(0.491369 -0.674353 0.993643 -0.303735 -101.969 1609.32)" stroke="#FFCC9D" stroke-width="4.9425"/>
<line y1="-2.47125" x2="3475.19" y2="-2.47125" transform="matrix(0.491369 -0.674353 0.993642 -0.303735 -93.7275 1630.82)" stroke="#FFCC9D" stroke-width="4.9425"/>
<line y1="-2.47125" x2="3475.19" y2="-2.47125" transform="matrix(0.491369 -0.674353 0.993643 -0.303735 -85.4844 1652.31)" stroke="#FFCC9D" stroke-width="4.9425"/>
<line y1="-2.47125" x2="3475.19" y2="-2.47125" transform="matrix(0.491369 -0.674353 0.993643 -0.303735 -77.2412 1673.81)" stroke="#FFCC9D" stroke-width="4.9425"/>
<line y1="-2.47125" x2="3475.19" y2="-2.47125" transform="matrix(0.491369 -0.674353 0.993642 -0.303735 -68.998 1695.31)" stroke="#FFCC9D" stroke-width="4.9425"/>
<line y1="-2.47125" x2="3475.19" y2="-2.47125" transform="matrix(0.491369 -0.674353 0.993642 -0.303735 -60.7549 1716.8)" stroke="#FFCC9D" stroke-width="4.9425"/>
<line y1="-2.47125" x2="3475.19" y2="-2.47125" transform="matrix(0.491369 -0.674353 0.993642 -0.303735 -52.5117 1738.3)" stroke="#FFCC9D" stroke-width="4.9425"/>
<line y1="-2.47125" x2="3475.19" y2="-2.47125" transform="matrix(0.491369 -0.674353 0.993642 -0.303735 -44.2686 1759.79)" stroke="#FFCC9D" stroke-width="4.9425"/>
<line y1="-2.47125" x2="3475.19" y2="-2.47125" transform="matrix(0.491369 -0.674353 0.993643 -0.303735 -36.0249 1781.29)" stroke="#FFCC9D" stroke-width="4.9425"/>
<line y1="-2.47125" x2="3475.19" y2="-2.47125" transform="matrix(0.491369 -0.674353 0.993643 -0.303735 -27.7822 1802.79)" stroke="#FFCC9D" stroke-width="4.9425"/>
<line y1="-2.47125" x2="3475.19" y2="-2.47125" transform="matrix(0.491369 -0.674353 0.993642 -0.303735 -19.5391 1824.28)" stroke="#FFCC9D" stroke-width="4.9425"/>
<line y1="-2.47125" x2="3475.19" y2="-2.47125" transform="matrix(0.491369 -0.674353 0.993642 -0.303735 -11.2959 1845.78)" stroke="#FFCC9D" stroke-width="4.9425"/>
<line y1="-2.47125" x2="3475.19" y2="-2.47125" transform="matrix(0.491369 -0.674353 0.993643 -0.303735 -3.05225 1867.27)" stroke="#FFCC9D" stroke-width="4.9425"/>
<line y1="-2.47125" x2="3475.19" y2="-2.47125" transform="matrix(0.491369 -0.674353 0.993643 -0.303735 5.19043 1888.77)" stroke="#FFCC9D" stroke-width="4.9425"/>
<line y1="-2.47125" x2="3475.19" y2="-2.47125" transform="matrix(0.491369 -0.674353 0.993643 -0.303735 13.4326 1910.27)" stroke="#FFCC9D" stroke-width="4.9425"/>
<line y1="-2.47125" x2="3475.19" y2="-2.47125" transform="matrix(0.491369 -0.674353 0.993643 -0.303735 21.6763 1931.76)" stroke="#FFCC9D" stroke-width="4.9425"/>
<line y1="-2.47125" x2="3475.19" y2="-2.47125" transform="matrix(0.491369 -0.674353 0.993643 -0.303735 29.9194 1953.26)" stroke="#FFCC9D" stroke-width="4.9425"/>
<line y1="-2.47125" x2="3475.19" y2="-2.47125" transform="matrix(0.491369 -0.674353 0.993643 -0.303735 -209.129 1329.88)" stroke="#FFCC9D" stroke-width="4.9425"/>
</g>
<path d="M272.243 248.009L262.852 282.112H271.749C313.266 282.112 345.062 290.35 367.139 306.825C389.545 323.3 400.748 347.518 400.748 379.48C400.748 406.828 393.169 430.717 378.012 451.146C362.855 471.575 341.932 487.226 315.243 498.1C288.883 508.644 258.898 513.916 225.289 513.916C199.918 513.916 175.699 510.95 152.634 505.019C129.899 499.088 109.635 490.027 91.8417 477.835L144.726 396.778C157.906 405.016 172.24 411.276 187.726 415.56C203.213 419.843 218.37 421.985 233.197 421.985C249.343 421.985 261.699 419.514 270.266 414.571C278.833 409.299 283.116 402.05 283.116 392.824C283.116 385.246 279.821 379.644 273.231 376.02C266.641 372.066 255.603 370.089 240.117 370.089H134.841L194.151 160.032H423.978L406.185 248.009H272.243Z" fill="#FF7B00"/>
</svg>
