<svg width="495" height="659" viewBox="0 0 495 659" fill="none" xmlns="http://www.w3.org/2000/svg">
<mask id="mask0" mask-type="alpha" maskUnits="userSpaceOnUse" x="0" y="0" width="495" height="659">
<rect x="0.712402" width="494.25" height="659" fill="#676767"/>
</mask>
<g mask="url(#mask0)">
<line y1="-2.47125" x2="3475.19" y2="-2.47125" transform="matrix(0.491369 -0.674353 0.993643 -0.303735 61.4414 1977.02)" stroke="#FFCC9D" stroke-width="4.9425"/>
<line y1="-2.47125" x2="3475.19" y2="-2.47125" transform="matrix(0.491369 -0.674353 0.993643 -0.303735 69.6855 1998.52)" stroke="#FFCC9D" stroke-width="4.9425"/>
<line y1="-2.47125" x2="3475.19" y2="-2.47125" transform="matrix(0.491369 -0.674353 0.993643 -0.303735 77.9277 2020.01)" stroke="#FFCC9D" stroke-width="4.9425"/>
<line y1="-2.47125" x2="3475.19" y2="-2.47125" transform="matrix(0.491369 -0.674353 0.993643 -0.303735 86.1709 2041.51)" stroke="#FFCC9D" stroke-width="4.9425"/>
<line y1="-2.47125" x2="3475.19" y2="-2.47125" transform="matrix(0.491369 -0.674353 0.993642 -0.303735 94.4141 2063)" stroke="#FFCC9D" stroke-width="4.9425"/>
<line y1="-2.47125" x2="3475.19" y2="-2.47125" transform="matrix(0.491369 -0.674353 0.993642 -0.303736 102.656 2084.5)" stroke="#FFCC9D" stroke-width="4.9425"/>
<line y1="-2.47125" x2="3475.19" y2="-2.47125" transform="matrix(0.491369 -0.674353 0.993643 -0.303735 110.9 2106)" stroke="#FFCC9D" stroke-width="4.9425"/>
<line y1="-2.47125" x2="3475.19" y2="-2.47125" transform="matrix(0.491369 -0.674353 0.993643 -0.303735 119.144 2127.49)" stroke="#FFCC9D" stroke-width="4.9425"/>
<line y1="-2.47125" x2="3475.19" y2="-2.47125" transform="matrix(0.491369 -0.674353 0.993643 -0.303735 127.387 2148.99)" stroke="#FFCC9D" stroke-width="4.9425"/>
<line y1="-2.47125" x2="3475.19" y2="-2.47125" transform="matrix(0.491369 -0.674353 0.993642 -0.303735 135.629 2170.48)" stroke="#FFCC9D" stroke-width="4.9425"/>
<line y1="-2.47125" x2="3475.19" y2="-2.47125" transform="matrix(0.491369 -0.674353 0.993643 -0.303735 143.872 2191.98)" stroke="#FFCC9D" stroke-width="4.9425"/>
<line y1="-2.47125" x2="3475.19" y2="-2.47125" transform="matrix(0.491369 -0.674353 0.993642 -0.303735 152.115 2213.48)" stroke="#FFCC9D" stroke-width="4.9425"/>
<line y1="-2.47125" x2="3475.19" y2="-2.47125" transform="matrix(0.491369 -0.674353 0.993643 -0.303735 160.358 2234.97)" stroke="#FFCC9D" stroke-width="4.9425"/>
<line y1="-2.47125" x2="3475.19" y2="-2.47125" transform="matrix(0.491369 -0.674353 0.993642 -0.303735 168.602 2256.47)" stroke="#FFCC9D" stroke-width="4.9425"/>
<line y1="-2.47125" x2="3475.19" y2="-2.47125" transform="matrix(0.491369 -0.674353 0.993643 -0.303735 176.845 2277.96)" stroke="#FFCC9D" stroke-width="4.9425"/>
<line y1="-2.47125" x2="3475.19" y2="-2.47125" transform="matrix(0.491369 -0.674353 0.993642 -0.303735 185.087 2299.46)" stroke="#FFCC9D" stroke-width="4.9425"/>
<line y1="-2.47125" x2="3475.19" y2="-2.47125" transform="matrix(0.491369 -0.674353 0.993642 -0.303735 193.33 2320.95)" stroke="#FFCC9D" stroke-width="4.9425"/>
<line y1="-2.47125" x2="3475.19" y2="-2.47125" transform="matrix(0.491369 -0.674353 0.993642 -0.303735 201.573 2342.45)" stroke="#FFCC9D" stroke-width="4.9425"/>
<line y1="-2.47125" x2="3475.19" y2="-2.47125" transform="matrix(0.491369 -0.674353 0.993643 -0.303735 209.816 2363.94)" stroke="#FFCC9D" stroke-width="4.9425"/>
<line y1="-2.47125" x2="3475.19" y2="-2.47125" transform="matrix(0.491369 -0.674353 0.993643 -0.303735 218.06 2385.44)" stroke="#FFCC9D" stroke-width="4.9425"/>
<line y1="-2.47125" x2="3475.19" y2="-2.47125" transform="matrix(0.491369 -0.674353 0.993642 -0.303735 226.303 2406.94)" stroke="#FFCC9D" stroke-width="4.9425"/>
<line y1="-2.47125" x2="3475.19" y2="-2.47125" transform="matrix(0.491369 -0.674353 0.993642 -0.303736 234.545 2428.43)" stroke="#FFCC9D" stroke-width="4.9425"/>
<line y1="-2.47125" x2="3475.19" y2="-2.47125" transform="matrix(0.491369 -0.674353 0.993643 -0.303735 242.789 2449.93)" stroke="#FFCC9D" stroke-width="4.9425"/>
<line y1="-2.47125" x2="3475.19" y2="-2.47125" transform="matrix(0.491369 -0.674353 0.993643 -0.303735 251.031 2471.42)" stroke="#FFCC9D" stroke-width="4.9425"/>
<line y1="-2.47125" x2="3475.19" y2="-2.47125" transform="matrix(0.491369 -0.674353 0.993642 -0.303735 259.274 2492.92)" stroke="#FFCC9D" stroke-width="4.9425"/>
<line y1="-2.47125" x2="3475.19" y2="-2.47125" transform="matrix(0.491369 -0.674353 0.993643 -0.303735 267.518 2514.41)" stroke="#FFCC9D" stroke-width="4.9425"/>
<line y1="-2.47125" x2="3475.19" y2="-2.47125" transform="matrix(0.491369 -0.674353 0.993643 -0.303735 275.761 2535.91)" stroke="#FFCC9D" stroke-width="4.9425"/>
<line y1="-2.47125" x2="3475.19" y2="-2.47125" transform="matrix(0.491369 -0.674353 0.993642 -0.303735 284.003 2557.41)" stroke="#FFCC9D" stroke-width="4.9425"/>
<line y1="-2.47125" x2="3475.19" y2="-2.47125" transform="matrix(0.491369 -0.674353 0.993643 -0.303735 292.246 2578.9)" stroke="#FFCC9D" stroke-width="4.9425"/>
<line y1="-2.47125" x2="3475.19" y2="-2.47125" transform="matrix(0.491369 -0.674353 0.993642 -0.303736 53.1982 1955.52)" stroke="#FFCC9D" stroke-width="4.9425"/>
<line y1="-2.47125" x2="3475.19" y2="-2.47125" transform="matrix(0.491369 -0.674353 0.993643 -0.303735 308.616 2621.59)" stroke="#FFCC9D" stroke-width="4.9425"/>
<line y1="-2.47125" x2="3475.19" y2="-2.47125" transform="matrix(0.491369 -0.674353 0.993643 -0.303735 316.859 2643.09)" stroke="#FFCC9D" stroke-width="4.9425"/>
<line y1="-2.47125" x2="3475.19" y2="-2.47125" transform="matrix(0.491369 -0.674353 0.993642 -0.303736 325.102 2664.58)" stroke="#FFCC9D" stroke-width="4.9425"/>
<line y1="-2.47125" x2="3475.19" y2="-2.47125" transform="matrix(0.491369 -0.674353 0.993642 -0.303735 333.345 2686.08)" stroke="#FFCC9D" stroke-width="4.9425"/>
<line y1="-2.47125" x2="3475.19" y2="-2.47125" transform="matrix(0.491369 -0.674353 0.993642 -0.303735 341.588 2707.57)" stroke="#FFCC9D" stroke-width="4.9425"/>
<line y1="-2.47125" x2="3475.19" y2="-2.47125" transform="matrix(0.49137 -0.674352 0.993643 -0.303735 349.831 2729.07)" stroke="#FFCC9D" stroke-width="4.9425"/>
<line y1="-2.47125" x2="3475.19" y2="-2.47125" transform="matrix(0.491369 -0.674353 0.993643 -0.303735 358.073 2750.56)" stroke="#FFCC9D" stroke-width="4.9425"/>
<line y1="-2.47125" x2="3475.19" y2="-2.47125" transform="matrix(0.491369 -0.674353 0.993643 -0.303735 366.316 2772.06)" stroke="#FFCC9D" stroke-width="4.9425"/>
<line y1="-2.47125" x2="3475.19" y2="-2.47125" transform="matrix(0.491369 -0.674353 0.993643 -0.303735 374.56 2793.56)" stroke="#FFCC9D" stroke-width="4.9425"/>
<line y1="-2.47125" x2="3475.19" y2="-2.47125" transform="matrix(0.491369 -0.674353 0.993642 -0.303736 382.803 2815.05)" stroke="#FFCC9D" stroke-width="4.9425"/>
<line y1="-2.47125" x2="3475.19" y2="-2.47125" transform="matrix(0.491369 -0.674353 0.993642 -0.303735 391.046 2836.55)" stroke="#FFCC9D" stroke-width="4.9425"/>
<line y1="-2.47125" x2="3475.19" y2="-2.47125" transform="matrix(0.491369 -0.674353 0.993642 -0.303736 399.289 2858.04)" stroke="#FFCC9D" stroke-width="4.9425"/>
<line y1="-2.47125" x2="3475.19" y2="-2.47125" transform="matrix(0.491369 -0.674353 0.993642 -0.303735 407.533 2879.54)" stroke="#FFCC9D" stroke-width="4.9425"/>
<line y1="-2.47125" x2="3475.19" y2="-2.47125" transform="matrix(0.491369 -0.674353 0.993642 -0.303736 415.774 2901.03)" stroke="#FFCC9D" stroke-width="4.9425"/>
<line y1="-2.47125" x2="3475.19" y2="-2.47125" transform="matrix(0.491369 -0.674353 0.993642 -0.303736 424.019 2922.53)" stroke="#FFCC9D" stroke-width="4.9425"/>
<line y1="-2.47125" x2="3475.19" y2="-2.47125" transform="matrix(0.491369 -0.674353 0.993643 -0.303735 432.261 2944.03)" stroke="#FFCC9D" stroke-width="4.9425"/>
<line y1="-2.47125" x2="3475.19" y2="-2.47125" transform="matrix(0.491369 -0.674353 0.993643 -0.303735 440.504 2965.52)" stroke="#FFCC9D" stroke-width="4.9425"/>
<line y1="-2.47125" x2="3475.19" y2="-2.47125" transform="matrix(0.491369 -0.674353 0.993643 -0.303735 448.747 2987.02)" stroke="#FFCC9D" stroke-width="4.9425"/>
<line y1="-2.47125" x2="3475.19" y2="-2.47125" transform="matrix(0.491369 -0.674353 0.993642 -0.303735 300.373 2600.09)" stroke="#FFCC9D" stroke-width="4.9425"/>
<line y1="-2.47125" x2="3475.19" y2="-2.47125" transform="matrix(0.491369 -0.674353 0.993642 -0.303735 -695.095 62.226)" stroke="#FFCC9D" stroke-width="4.9425"/>
<line y1="-2.47125" x2="3475.19" y2="-2.47125" transform="matrix(0.491369 -0.674353 0.993642 -0.303736 -686.852 83.7222)" stroke="#FFCC9D" stroke-width="4.9425"/>
<line y1="-2.47125" x2="3475.19" y2="-2.47125" transform="matrix(0.491369 -0.674353 0.993643 -0.303735 -678.609 105.218)" stroke="#FFCC9D" stroke-width="4.9425"/>
<line y1="-2.47125" x2="3475.19" y2="-2.47125" transform="matrix(0.491369 -0.674353 0.993643 -0.303735 -670.366 126.713)" stroke="#FFCC9D" stroke-width="4.9425"/>
<line y1="-2.47125" x2="3475.19" y2="-2.47125" transform="matrix(0.491369 -0.674353 0.993643 -0.303735 -662.123 148.21)" stroke="#FFCC9D" stroke-width="4.9425"/>
<line y1="-2.47125" x2="3475.19" y2="-2.47125" transform="matrix(0.491369 -0.674353 0.993643 -0.303735 -653.88 169.706)" stroke="#FFCC9D" stroke-width="4.9425"/>
<line y1="-2.47125" x2="3475.19" y2="-2.47125" transform="matrix(0.491369 -0.674353 0.993643 -0.303735 -645.637 191.202)" stroke="#FFCC9D" stroke-width="4.9425"/>
<line y1="-2.47125" x2="3475.19" y2="-2.47125" transform="matrix(0.491369 -0.674353 0.993643 -0.303735 -637.394 212.698)" stroke="#FFCC9D" stroke-width="4.9425"/>
<line y1="-2.47125" x2="3475.19" y2="-2.47125" transform="matrix(0.491369 -0.674353 0.993643 -0.303735 -629.15 234.194)" stroke="#FFCC9D" stroke-width="4.9425"/>
<line y1="-2.47125" x2="3475.19" y2="-2.47125" transform="matrix(0.491369 -0.674353 0.993643 -0.303735 -620.907 255.689)" stroke="#FFCC9D" stroke-width="4.9425"/>
<line y1="-2.47125" x2="3475.19" y2="-2.47125" transform="matrix(0.491369 -0.674353 0.993643 -0.303735 -612.664 277.185)" stroke="#FFCC9D" stroke-width="4.9425"/>
<line y1="-2.47125" x2="3475.19" y2="-2.47125" transform="matrix(0.491369 -0.674353 0.993643 -0.303735 -604.421 298.682)" stroke="#FFCC9D" stroke-width="4.9425"/>
<line y1="-2.47125" x2="3475.19" y2="-2.47125" transform="matrix(0.491369 -0.674353 0.993643 -0.303735 -596.178 320.179)" stroke="#FFCC9D" stroke-width="4.9425"/>
<line y1="-2.47125" x2="3475.19" y2="-2.47125" transform="matrix(0.491369 -0.674353 0.993643 -0.303735 -587.935 341.675)" stroke="#FFCC9D" stroke-width="4.9425"/>
<line y1="-2.47125" x2="3475.19" y2="-2.47125" transform="matrix(0.491369 -0.674353 0.993643 -0.303735 -579.69 363.173)" stroke="#FFCC9D" stroke-width="4.9425"/>
<line y1="-2.47125" x2="3475.19" y2="-2.47125" transform="matrix(0.491369 -0.674353 0.993643 -0.303735 -571.447 384.67)" stroke="#FFCC9D" stroke-width="4.9425"/>
<line y1="-2.47125" x2="3475.19" y2="-2.47125" transform="matrix(0.491369 -0.674353 0.993642 -0.303735 -563.205 406.164)" stroke="#FFCC9D" stroke-width="4.9425"/>
<line y1="-2.47125" x2="3475.19" y2="-2.47125" transform="matrix(0.491369 -0.674353 0.993642 -0.303735 -554.96 427.662)" stroke="#FFCC9D" stroke-width="4.9425"/>
<line y1="-2.47125" x2="3475.19" y2="-2.47125" transform="matrix(0.491369 -0.674353 0.993643 -0.303735 -546.718 449.158)" stroke="#FFCC9D" stroke-width="4.9425"/>
<line y1="-2.47125" x2="3475.19" y2="-2.47125" transform="matrix(0.491369 -0.674353 0.993643 -0.303735 -538.475 470.653)" stroke="#FFCC9D" stroke-width="4.9425"/>
<line y1="-2.47125" x2="3475.19" y2="-2.47125" transform="matrix(0.491369 -0.674353 0.993643 -0.303735 -530.232 492.149)" stroke="#FFCC9D" stroke-width="4.9425"/>
<line y1="-2.47125" x2="3475.19" y2="-2.47125" transform="matrix(0.491369 -0.674353 0.993643 -0.303735 -521.989 513.644)" stroke="#FFCC9D" stroke-width="4.9425"/>
<line y1="-2.47125" x2="3475.19" y2="-2.47125" transform="matrix(0.491369 -0.674353 0.993643 -0.303735 -513.745 535.142)" stroke="#FFCC9D" stroke-width="4.9425"/>
<line y1="-2.47125" x2="3475.19" y2="-2.47125" transform="matrix(0.491369 -0.674353 0.993643 -0.303735 -505.502 556.637)" stroke="#FFCC9D" stroke-width="4.9425"/>
<line y1="-2.47125" x2="3475.19" y2="-2.47125" transform="matrix(0.491369 -0.674353 0.993642 -0.303735 -497.26 578.133)" stroke="#FFCC9D" stroke-width="4.9425"/>
<line y1="-2.47125" x2="3475.19" y2="-2.47125" transform="matrix(0.491369 -0.674353 0.993643 -0.303735 -489.017 599.629)" stroke="#FFCC9D" stroke-width="4.9425"/>
<line y1="-2.47125" x2="3475.19" y2="-2.47125" transform="matrix(0.491369 -0.674353 0.993643 -0.303735 -480.773 621.124)" stroke="#FFCC9D" stroke-width="4.9425"/>
<line y1="-2.47125" x2="3475.19" y2="-2.47125" transform="matrix(0.491369 -0.674353 0.993642 -0.303735 -472.53 642.621)" stroke="#FFCC9D" stroke-width="4.9425"/>
<line y1="-2.47125" x2="3475.19" y2="-2.47125" transform="matrix(0.491369 -0.674353 0.993643 -0.303735 -464.287 664.117)" stroke="#FFCC9D" stroke-width="4.9425"/>
<line y1="-2.47125" x2="3475.19" y2="-2.47125" transform="matrix(0.491369 -0.674353 0.993643 -0.303735 -703.338 40.7303)" stroke="#FFCC9D" stroke-width="4.9425"/>
<line y1="-2.47125" x2="3475.19" y2="-2.47125" transform="matrix(0.491369 -0.674353 0.993643 -0.303735 -447.917 706.804)" stroke="#FFCC9D" stroke-width="4.9425"/>
<line y1="-2.47125" x2="3475.19" y2="-2.47125" transform="matrix(0.491369 -0.674353 0.993643 -0.303735 -439.674 728.301)" stroke="#FFCC9D" stroke-width="4.9425"/>
<line y1="-2.47125" x2="3475.19" y2="-2.47125" transform="matrix(0.491369 -0.674353 0.993643 -0.303735 -431.431 749.796)" stroke="#FFCC9D" stroke-width="4.9425"/>
<line y1="-2.47125" x2="3475.19" y2="-2.47125" transform="matrix(0.491369 -0.674353 0.993643 -0.303735 -423.188 771.292)" stroke="#FFCC9D" stroke-width="4.9425"/>
<line y1="-2.47125" x2="3475.19" y2="-2.47125" transform="matrix(0.491369 -0.674353 0.993642 -0.303735 -414.945 792.789)" stroke="#FFCC9D" stroke-width="4.9425"/>
<line y1="-2.47125" x2="3475.19" y2="-2.47125" transform="matrix(0.491369 -0.674353 0.993643 -0.303735 -406.702 814.284)" stroke="#FFCC9D" stroke-width="4.9425"/>
<line y1="-2.47125" x2="3475.19" y2="-2.47125" transform="matrix(0.491369 -0.674353 0.993643 -0.303735 -398.459 835.78)" stroke="#FFCC9D" stroke-width="4.9425"/>
<line y1="-2.47125" x2="3475.19" y2="-2.47125" transform="matrix(0.491369 -0.674353 0.993643 -0.303735 -390.216 857.276)" stroke="#FFCC9D" stroke-width="4.9425"/>
<line y1="-2.47125" x2="3475.19" y2="-2.47125" transform="matrix(0.491369 -0.674353 0.993643 -0.303735 -381.973 878.772)" stroke="#FFCC9D" stroke-width="4.9425"/>
<line y1="-2.47125" x2="3475.19" y2="-2.47125" transform="matrix(0.491369 -0.674353 0.993643 -0.303735 -373.73 900.268)" stroke="#FFCC9D" stroke-width="4.9425"/>
<line y1="-2.47125" x2="3475.19" y2="-2.47125" transform="matrix(0.491369 -0.674353 0.993643 -0.303735 -365.487 921.764)" stroke="#FFCC9D" stroke-width="4.9425"/>
<line y1="-2.47125" x2="3475.19" y2="-2.47125" transform="matrix(0.491369 -0.674353 0.993642 -0.303735 -357.244 943.26)" stroke="#FFCC9D" stroke-width="4.9425"/>
<line y1="-2.47125" x2="3475.19" y2="-2.47125" transform="matrix(0.491369 -0.674353 0.993642 -0.303735 -349.001 964.756)" stroke="#FFCC9D" stroke-width="4.9425"/>
<line y1="-2.47125" x2="3475.19" y2="-2.47125" transform="matrix(0.491369 -0.674353 0.993643 -0.303735 -340.759 986.246)" stroke="#FFCC9D" stroke-width="4.9425"/>
<line y1="-2.47125" x2="3475.19" y2="-2.47125" transform="matrix(0.491369 -0.674353 0.993643 -0.303735 -332.516 1007.74)" stroke="#FFCC9D" stroke-width="4.9425"/>
<line y1="-2.47125" x2="3475.19" y2="-2.47125" transform="matrix(0.491369 -0.674353 0.993643 -0.303735 -324.275 1029.24)" stroke="#FFCC9D" stroke-width="4.9425"/>
<line y1="-2.47125" x2="3475.19" y2="-2.47125" transform="matrix(0.491369 -0.674353 0.993642 -0.303735 -316.03 1050.73)" stroke="#FFCC9D" stroke-width="4.9425"/>
<line y1="-2.47125" x2="3475.19" y2="-2.47125" transform="matrix(0.491369 -0.674353 0.993643 -0.303735 -307.788 1072.23)" stroke="#FFCC9D" stroke-width="4.9425"/>
<line y1="-2.47125" x2="3475.19" y2="-2.47125" transform="matrix(0.491369 -0.674353 0.993642 -0.303735 -299.544 1093.73)" stroke="#FFCC9D" stroke-width="4.9425"/>
<line y1="-2.47125" x2="3475.19" y2="-2.47125" transform="matrix(0.491369 -0.674353 0.993643 -0.303735 -291.301 1115.22)" stroke="#FFCC9D" stroke-width="4.9425"/>
<line y1="-2.47125" x2="3475.19" y2="-2.47125" transform="matrix(0.491369 -0.674353 0.993643 -0.303736 -283.059 1136.72)" stroke="#FFCC9D" stroke-width="4.9425"/>
<line y1="-2.47125" x2="3475.19" y2="-2.47125" transform="matrix(0.491369 -0.674353 0.993642 -0.303735 -274.815 1158.21)" stroke="#FFCC9D" stroke-width="4.9425"/>
<line y1="-2.47125" x2="3475.19" y2="-2.47125" transform="matrix(0.491369 -0.674353 0.993642 -0.303735 -266.572 1179.71)" stroke="#FFCC9D" stroke-width="4.9425"/>
<line y1="-2.47125" x2="3475.19" y2="-2.47125" transform="matrix(0.491369 -0.674353 0.993642 -0.303735 -258.33 1201.21)" stroke="#FFCC9D" stroke-width="4.9425"/>
<line y1="-2.47125" x2="3475.19" y2="-2.47125" transform="matrix(0.491369 -0.674353 0.993643 -0.303735 -250.086 1222.7)" stroke="#FFCC9D" stroke-width="4.9425"/>
<line y1="-2.47125" x2="3475.19" y2="-2.47125" transform="matrix(0.491369 -0.674353 0.993643 -0.303736 -241.843 1244.2)" stroke="#FFCC9D" stroke-width="4.9425"/>
<line y1="-2.47125" x2="3475.19" y2="-2.47125" transform="matrix(0.491369 -0.674353 0.993643 -0.303735 -233.599 1265.69)" stroke="#FFCC9D" stroke-width="4.9425"/>
<line y1="-2.47125" x2="3475.19" y2="-2.47125" transform="matrix(0.491369 -0.674353 0.993643 -0.303735 -225.356 1287.19)" stroke="#FFCC9D" stroke-width="4.9425"/>
<line y1="-2.47125" x2="3475.19" y2="-2.47125" transform="matrix(0.491369 -0.674353 0.993643 -0.303735 -217.114 1308.68)" stroke="#FFCC9D" stroke-width="4.9425"/>
<line y1="-2.47125" x2="3475.19" y2="-2.47125" transform="matrix(0.491369 -0.674353 0.993642 -0.303735 -456.161 685.308)" stroke="#FFCC9D" stroke-width="4.9425"/>
<line y1="-2.47125" x2="3475.19" y2="-2.47125" transform="matrix(0.491369 -0.674353 0.993643 -0.303735 -200.744 1351.37)" stroke="#FFCC9D" stroke-width="4.9425"/>
<line y1="-2.47125" x2="3475.19" y2="-2.47125" transform="matrix(0.491369 -0.674353 0.993643 -0.303735 -192.501 1372.87)" stroke="#FFCC9D" stroke-width="4.9425"/>
<line y1="-2.47125" x2="3475.19" y2="-2.47125" transform="matrix(0.491369 -0.674353 0.993642 -0.303735 -184.258 1394.36)" stroke="#FFCC9D" stroke-width="4.9425"/>
<line y1="-2.47125" x2="3475.19" y2="-2.47125" transform="matrix(0.491369 -0.674353 0.993643 -0.303735 -176.015 1415.86)" stroke="#FFCC9D" stroke-width="4.9425"/>
<line y1="-2.47125" x2="3475.19" y2="-2.47125" transform="matrix(0.491369 -0.674353 0.993643 -0.303735 -167.772 1437.36)" stroke="#FFCC9D" stroke-width="4.9425"/>
<line y1="-2.47125" x2="3475.19" y2="-2.47125" transform="matrix(0.491369 -0.674353 0.993643 -0.303735 -159.528 1458.85)" stroke="#FFCC9D" stroke-width="4.9425"/>
<line y1="-2.47125" x2="3475.19" y2="-2.47125" transform="matrix(0.491369 -0.674353 0.993642 -0.303735 -151.286 1480.35)" stroke="#FFCC9D" stroke-width="4.9425"/>
<line y1="-2.47125" x2="3475.19" y2="-2.47125" transform="matrix(0.491369 -0.674353 0.993643 -0.303735 -143.042 1501.84)" stroke="#FFCC9D" stroke-width="4.9425"/>
<line y1="-2.47125" x2="3475.19" y2="-2.47125" transform="matrix(0.491369 -0.674353 0.993643 -0.303735 -134.8 1523.34)" stroke="#FFCC9D" stroke-width="4.9425"/>
<line y1="-2.47125" x2="3475.19" y2="-2.47125" transform="matrix(0.491369 -0.674353 0.993643 -0.303735 -126.557 1544.84)" stroke="#FFCC9D" stroke-width="4.9425"/>
<line y1="-2.47125" x2="3475.19" y2="-2.47125" transform="matrix(0.491369 -0.674353 0.993643 -0.303735 -118.313 1566.33)" stroke="#FFCC9D" stroke-width="4.9425"/>
<line y1="-2.47125" x2="3475.19" y2="-2.47125" transform="matrix(0.491369 -0.674353 0.993642 -0.303736 -110.07 1587.83)" stroke="#FFCC9D" stroke-width="4.9425"/>
<line y1="-2.47125" x2="3475.19" y2="-2.47125" transform="matrix(0.491369 -0.674353 0.993643 -0.303735 -101.828 1609.32)" stroke="#FFCC9D" stroke-width="4.9425"/>
<line y1="-2.47125" x2="3475.19" y2="-2.47125" transform="matrix(0.491369 -0.674353 0.993642 -0.303735 -93.5845 1630.82)" stroke="#FFCC9D" stroke-width="4.9425"/>
<line y1="-2.47125" x2="3475.19" y2="-2.47125" transform="matrix(0.491369 -0.674353 0.993643 -0.303735 -85.3413 1652.31)" stroke="#FFCC9D" stroke-width="4.9425"/>
<line y1="-2.47125" x2="3475.19" y2="-2.47125" transform="matrix(0.491369 -0.674353 0.993643 -0.303735 -77.0981 1673.81)" stroke="#FFCC9D" stroke-width="4.9425"/>
<line y1="-2.47125" x2="3475.19" y2="-2.47125" transform="matrix(0.491369 -0.674353 0.993643 -0.303735 -68.855 1695.31)" stroke="#FFCC9D" stroke-width="4.9425"/>
<line y1="-2.47125" x2="3475.19" y2="-2.47125" transform="matrix(0.491369 -0.674353 0.993643 -0.303735 -60.6128 1716.8)" stroke="#FFCC9D" stroke-width="4.9425"/>
<line y1="-2.47125" x2="3475.19" y2="-2.47125" transform="matrix(0.491369 -0.674353 0.993642 -0.303735 -52.3687 1738.3)" stroke="#FFCC9D" stroke-width="4.9425"/>
<line y1="-2.47125" x2="3475.19" y2="-2.47125" transform="matrix(0.491369 -0.674353 0.993642 -0.303735 -44.1255 1759.79)" stroke="#FFCC9D" stroke-width="4.9425"/>
<line y1="-2.47125" x2="3475.19" y2="-2.47125" transform="matrix(0.491369 -0.674353 0.993642 -0.303735 -35.8823 1781.29)" stroke="#FFCC9D" stroke-width="4.9425"/>
<line y1="-2.47125" x2="3475.19" y2="-2.47125" transform="matrix(0.491369 -0.674353 0.993643 -0.303735 -27.6396 1802.79)" stroke="#FFCC9D" stroke-width="4.9425"/>
<line y1="-2.47125" x2="3475.19" y2="-2.47125" transform="matrix(0.491369 -0.674353 0.993642 -0.303735 -19.3965 1824.28)" stroke="#FFCC9D" stroke-width="4.9425"/>
<line y1="-2.47125" x2="3475.19" y2="-2.47125" transform="matrix(0.491369 -0.674353 0.993642 -0.303735 -11.1538 1845.78)" stroke="#FFCC9D" stroke-width="4.9425"/>
<line y1="-2.47125" x2="3475.19" y2="-2.47125" transform="matrix(0.491369 -0.674353 0.993643 -0.303735 -2.91016 1867.27)" stroke="#FFCC9D" stroke-width="4.9425"/>
<line y1="-2.47125" x2="3475.19" y2="-2.47125" transform="matrix(0.491369 -0.674353 0.993643 -0.303735 5.3335 1888.77)" stroke="#FFCC9D" stroke-width="4.9425"/>
<line y1="-2.47125" x2="3475.19" y2="-2.47125" transform="matrix(0.491369 -0.674353 0.993643 -0.303735 13.5757 1910.27)" stroke="#FFCC9D" stroke-width="4.9425"/>
<line y1="-2.47125" x2="3475.19" y2="-2.47125" transform="matrix(0.491369 -0.674353 0.993643 -0.303735 21.8198 1931.76)" stroke="#FFCC9D" stroke-width="4.9425"/>
<line y1="-2.47125" x2="3475.19" y2="-2.47125" transform="matrix(0.491369 -0.674353 0.993643 -0.303735 30.0625 1953.26)" stroke="#FFCC9D" stroke-width="4.9425"/>
<line y1="-2.47125" x2="3475.19" y2="-2.47125" transform="matrix(0.491369 -0.674353 0.993643 -0.303735 -208.986 1329.88)" stroke="#FFCC9D" stroke-width="4.9425"/>
</g>
<path d="M444.714 160.032L430.381 231.699L264.313 506.008H132.842L290.014 250.48H226.75L216.865 300.894H120.486L148.658 160.032H444.714Z" fill="#FF7B00"/>
</svg>
