<svg width="495" height="659" viewBox="0 0 495 659" fill="none" xmlns="http://www.w3.org/2000/svg">
<mask id="mask0" mask-type="alpha" maskUnits="userSpaceOnUse" x="0" y="0" width="495" height="659">
<rect x="0.427734" width="494.25" height="659" fill="#676767"/>
</mask>
<g mask="url(#mask0)">
<line y1="-2.47125" x2="3475.19" y2="-2.47125" transform="matrix(0.491369 -0.674353 0.993643 -0.303735 61.1567 1977.02)" stroke="#FFCC9D" stroke-width="4.9425"/>
<line y1="-2.47125" x2="3475.19" y2="-2.47125" transform="matrix(0.491369 -0.674353 0.993643 -0.303735 69.3999 1998.52)" stroke="#FFCC9D" stroke-width="4.9425"/>
<line y1="-2.47125" x2="3475.19" y2="-2.47125" transform="matrix(0.491369 -0.674353 0.993643 -0.303735 77.6421 2020.01)" stroke="#FFCC9D" stroke-width="4.9425"/>
<line y1="-2.47125" x2="3475.19" y2="-2.47125" transform="matrix(0.491369 -0.674353 0.993643 -0.303735 85.8862 2041.51)" stroke="#FFCC9D" stroke-width="4.9425"/>
<line y1="-2.47125" x2="3475.19" y2="-2.47125" transform="matrix(0.491369 -0.674353 0.993642 -0.303735 94.1284 2063)" stroke="#FFCC9D" stroke-width="4.9425"/>
<line y1="-2.47125" x2="3475.19" y2="-2.47125" transform="matrix(0.491369 -0.674353 0.993642 -0.303735 102.372 2084.5)" stroke="#FFCC9D" stroke-width="4.9425"/>
<line y1="-2.47125" x2="3475.19" y2="-2.47125" transform="matrix(0.491369 -0.674353 0.993643 -0.303735 110.616 2106)" stroke="#FFCC9D" stroke-width="4.9425"/>
<line y1="-2.47125" x2="3475.19" y2="-2.47125" transform="matrix(0.491369 -0.674353 0.993643 -0.303735 118.858 2127.49)" stroke="#FFCC9D" stroke-width="4.9425"/>
<line y1="-2.47125" x2="3475.19" y2="-2.47125" transform="matrix(0.491369 -0.674353 0.993643 -0.303735 127.101 2148.99)" stroke="#FFCC9D" stroke-width="4.9425"/>
<line y1="-2.47125" x2="3475.19" y2="-2.47125" transform="matrix(0.491369 -0.674353 0.993642 -0.303735 135.344 2170.48)" stroke="#FFCC9D" stroke-width="4.9425"/>
<line y1="-2.47125" x2="3475.19" y2="-2.47125" transform="matrix(0.491369 -0.674353 0.993643 -0.303735 143.587 2191.98)" stroke="#FFCC9D" stroke-width="4.9425"/>
<line y1="-2.47125" x2="3475.19" y2="-2.47125" transform="matrix(0.491369 -0.674353 0.993642 -0.303735 151.831 2213.48)" stroke="#FFCC9D" stroke-width="4.9425"/>
<line y1="-2.47125" x2="3475.19" y2="-2.47125" transform="matrix(0.491369 -0.674353 0.993643 -0.303735 160.073 2234.97)" stroke="#FFCC9D" stroke-width="4.9425"/>
<line y1="-2.47125" x2="3475.19" y2="-2.47125" transform="matrix(0.491369 -0.674353 0.993642 -0.303735 168.316 2256.47)" stroke="#FFCC9D" stroke-width="4.9425"/>
<line y1="-2.47125" x2="3475.19" y2="-2.47125" transform="matrix(0.491369 -0.674353 0.993642 -0.303735 176.559 2277.96)" stroke="#FFCC9D" stroke-width="4.9425"/>
<line y1="-2.47125" x2="3475.19" y2="-2.47125" transform="matrix(0.491369 -0.674353 0.993642 -0.303735 184.802 2299.46)" stroke="#FFCC9D" stroke-width="4.9425"/>
<line y1="-2.47125" x2="3475.19" y2="-2.47125" transform="matrix(0.491369 -0.674353 0.993643 -0.303735 193.045 2320.95)" stroke="#FFCC9D" stroke-width="4.9425"/>
<line y1="-2.47125" x2="3475.19" y2="-2.47125" transform="matrix(0.491369 -0.674353 0.993642 -0.303735 201.288 2342.45)" stroke="#FFCC9D" stroke-width="4.9425"/>
<line y1="-2.47125" x2="3475.19" y2="-2.47125" transform="matrix(0.491369 -0.674353 0.993643 -0.303735 209.532 2363.94)" stroke="#FFCC9D" stroke-width="4.9425"/>
<line y1="-2.47125" x2="3475.19" y2="-2.47125" transform="matrix(0.491369 -0.674353 0.993643 -0.303735 217.774 2385.44)" stroke="#FFCC9D" stroke-width="4.9425"/>
<line y1="-2.47125" x2="3475.19" y2="-2.47125" transform="matrix(0.491369 -0.674353 0.993642 -0.303735 226.017 2406.94)" stroke="#FFCC9D" stroke-width="4.9425"/>
<line y1="-2.47125" x2="3475.19" y2="-2.47125" transform="matrix(0.491369 -0.674353 0.993642 -0.303736 234.26 2428.43)" stroke="#FFCC9D" stroke-width="4.9425"/>
<line y1="-2.47125" x2="3475.19" y2="-2.47125" transform="matrix(0.491369 -0.674353 0.993643 -0.303735 242.503 2449.93)" stroke="#FFCC9D" stroke-width="4.9425"/>
<line y1="-2.47125" x2="3475.19" y2="-2.47125" transform="matrix(0.491369 -0.674353 0.993643 -0.303735 250.746 2471.42)" stroke="#FFCC9D" stroke-width="4.9425"/>
<line y1="-2.47125" x2="3475.19" y2="-2.47125" transform="matrix(0.491369 -0.674353 0.993642 -0.303735 258.989 2492.92)" stroke="#FFCC9D" stroke-width="4.9425"/>
<line y1="-2.47125" x2="3475.19" y2="-2.47125" transform="matrix(0.491369 -0.674353 0.993643 -0.303735 267.232 2514.41)" stroke="#FFCC9D" stroke-width="4.9425"/>
<line y1="-2.47125" x2="3475.19" y2="-2.47125" transform="matrix(0.491369 -0.674353 0.993643 -0.303735 275.475 2535.91)" stroke="#FFCC9D" stroke-width="4.9425"/>
<line y1="-2.47125" x2="3475.19" y2="-2.47125" transform="matrix(0.491369 -0.674353 0.993643 -0.303735 283.718 2557.41)" stroke="#FFCC9D" stroke-width="4.9425"/>
<line y1="-2.47125" x2="3475.19" y2="-2.47125" transform="matrix(0.491369 -0.674353 0.993643 -0.303735 291.961 2578.9)" stroke="#FFCC9D" stroke-width="4.9425"/>
<line y1="-2.47125" x2="3475.19" y2="-2.47125" transform="matrix(0.491369 -0.674353 0.993642 -0.303735 52.9136 1955.52)" stroke="#FFCC9D" stroke-width="4.9425"/>
<line y1="-2.47125" x2="3475.19" y2="-2.47125" transform="matrix(0.491369 -0.674353 0.993643 -0.303735 308.331 2621.59)" stroke="#FFCC9D" stroke-width="4.9425"/>
<line y1="-2.47125" x2="3475.19" y2="-2.47125" transform="matrix(0.491369 -0.674353 0.993643 -0.303735 316.573 2643.08)" stroke="#FFCC9D" stroke-width="4.9425"/>
<line y1="-2.47125" x2="3475.19" y2="-2.47125" transform="matrix(0.491369 -0.674353 0.993642 -0.303736 324.817 2664.58)" stroke="#FFCC9D" stroke-width="4.9425"/>
<line y1="-2.47125" x2="3475.19" y2="-2.47125" transform="matrix(0.491369 -0.674353 0.993642 -0.303735 333.059 2686.08)" stroke="#FFCC9D" stroke-width="4.9425"/>
<line y1="-2.47125" x2="3475.19" y2="-2.47125" transform="matrix(0.491369 -0.674353 0.993643 -0.303735 341.302 2707.57)" stroke="#FFCC9D" stroke-width="4.9425"/>
<line y1="-2.47125" x2="3475.19" y2="-2.47125" transform="matrix(0.49137 -0.674352 0.993643 -0.303735 349.545 2729.07)" stroke="#FFCC9D" stroke-width="4.9425"/>
<line y1="-2.47125" x2="3475.19" y2="-2.47125" transform="matrix(0.491369 -0.674353 0.993643 -0.303735 357.789 2750.56)" stroke="#FFCC9D" stroke-width="4.9425"/>
<line y1="-2.47125" x2="3475.19" y2="-2.47125" transform="matrix(0.491369 -0.674353 0.993643 -0.303735 366.032 2772.06)" stroke="#FFCC9D" stroke-width="4.9425"/>
<line y1="-2.47125" x2="3475.19" y2="-2.47125" transform="matrix(0.491369 -0.674353 0.993643 -0.303735 374.275 2793.56)" stroke="#FFCC9D" stroke-width="4.9425"/>
<line y1="-2.47125" x2="3475.19" y2="-2.47125" transform="matrix(0.491369 -0.674353 0.993642 -0.303736 382.518 2815.05)" stroke="#FFCC9D" stroke-width="4.9425"/>
<line y1="-2.47125" x2="3475.19" y2="-2.47125" transform="matrix(0.491369 -0.674353 0.993642 -0.303735 390.761 2836.55)" stroke="#FFCC9D" stroke-width="4.9425"/>
<line y1="-2.47125" x2="3475.19" y2="-2.47125" transform="matrix(0.491369 -0.674353 0.993642 -0.303735 399.004 2858.04)" stroke="#FFCC9D" stroke-width="4.9425"/>
<line y1="-2.47125" x2="3475.19" y2="-2.47125" transform="matrix(0.491369 -0.674353 0.993642 -0.303735 407.247 2879.54)" stroke="#FFCC9D" stroke-width="4.9425"/>
<line y1="-2.47125" x2="3475.19" y2="-2.47125" transform="matrix(0.491369 -0.674353 0.993642 -0.303735 415.49 2901.03)" stroke="#FFCC9D" stroke-width="4.9425"/>
<line y1="-2.47125" x2="3475.19" y2="-2.47125" transform="matrix(0.491369 -0.674353 0.993642 -0.303736 423.733 2922.53)" stroke="#FFCC9D" stroke-width="4.9425"/>
<line y1="-2.47125" x2="3475.19" y2="-2.47125" transform="matrix(0.491369 -0.674353 0.993643 -0.303735 431.976 2944.03)" stroke="#FFCC9D" stroke-width="4.9425"/>
<line y1="-2.47125" x2="3475.19" y2="-2.47125" transform="matrix(0.491369 -0.674352 0.993643 -0.303735 440.219 2965.52)" stroke="#FFCC9D" stroke-width="4.9425"/>
<line y1="-2.47125" x2="3475.19" y2="-2.47125" transform="matrix(0.491369 -0.674353 0.993643 -0.303735 448.461 2987.02)" stroke="#FFCC9D" stroke-width="4.9425"/>
<line y1="-2.47125" x2="3475.19" y2="-2.47125" transform="matrix(0.491369 -0.674352 0.993643 -0.303735 300.088 2600.09)" stroke="#FFCC9D" stroke-width="4.9425"/>
<line y1="-2.47125" x2="3475.19" y2="-2.47125" transform="matrix(0.491369 -0.674353 0.993642 -0.303735 -695.38 62.2261)" stroke="#FFCC9D" stroke-width="4.9425"/>
<line y1="-2.47125" x2="3475.19" y2="-2.47125" transform="matrix(0.491369 -0.674353 0.993642 -0.303736 -687.137 83.7224)" stroke="#FFCC9D" stroke-width="4.9425"/>
<line y1="-2.47125" x2="3475.19" y2="-2.47125" transform="matrix(0.491369 -0.674353 0.993643 -0.303735 -678.894 105.218)" stroke="#FFCC9D" stroke-width="4.9425"/>
<line y1="-2.47125" x2="3475.19" y2="-2.47125" transform="matrix(0.491369 -0.674353 0.993643 -0.303735 -670.651 126.713)" stroke="#FFCC9D" stroke-width="4.9425"/>
<line y1="-2.47125" x2="3475.19" y2="-2.47125" transform="matrix(0.491369 -0.674353 0.993643 -0.303735 -662.408 148.21)" stroke="#FFCC9D" stroke-width="4.9425"/>
<line y1="-2.47125" x2="3475.19" y2="-2.47125" transform="matrix(0.491369 -0.674353 0.993643 -0.303735 -654.165 169.706)" stroke="#FFCC9D" stroke-width="4.9425"/>
<line y1="-2.47125" x2="3475.19" y2="-2.47125" transform="matrix(0.491369 -0.674353 0.993643 -0.303735 -645.922 191.202)" stroke="#FFCC9D" stroke-width="4.9425"/>
<line y1="-2.47125" x2="3475.19" y2="-2.47125" transform="matrix(0.491369 -0.674353 0.993643 -0.303735 -637.678 212.698)" stroke="#FFCC9D" stroke-width="4.9425"/>
<line y1="-2.47125" x2="3475.19" y2="-2.47125" transform="matrix(0.491369 -0.674353 0.993643 -0.303735 -629.435 234.194)" stroke="#FFCC9D" stroke-width="4.9425"/>
<line y1="-2.47125" x2="3475.19" y2="-2.47125" transform="matrix(0.491369 -0.674353 0.993643 -0.303735 -621.192 255.69)" stroke="#FFCC9D" stroke-width="4.9425"/>
<line y1="-2.47125" x2="3475.19" y2="-2.47125" transform="matrix(0.491369 -0.674353 0.993643 -0.303735 -612.949 277.185)" stroke="#FFCC9D" stroke-width="4.9425"/>
<line y1="-2.47125" x2="3475.19" y2="-2.47125" transform="matrix(0.491369 -0.674353 0.993643 -0.303735 -604.707 298.682)" stroke="#FFCC9D" stroke-width="4.9425"/>
<line y1="-2.47125" x2="3475.19" y2="-2.47125" transform="matrix(0.491369 -0.674353 0.993643 -0.303735 -596.463 320.179)" stroke="#FFCC9D" stroke-width="4.9425"/>
<line y1="-2.47125" x2="3475.19" y2="-2.47125" transform="matrix(0.491369 -0.674353 0.993643 -0.303735 -588.22 341.675)" stroke="#FFCC9D" stroke-width="4.9425"/>
<line y1="-2.47125" x2="3475.19" y2="-2.47125" transform="matrix(0.491369 -0.674353 0.993643 -0.303735 -579.976 363.173)" stroke="#FFCC9D" stroke-width="4.9425"/>
<line y1="-2.47125" x2="3475.19" y2="-2.47125" transform="matrix(0.491369 -0.674353 0.993643 -0.303735 -571.732 384.67)" stroke="#FFCC9D" stroke-width="4.9425"/>
<line y1="-2.47125" x2="3475.19" y2="-2.47125" transform="matrix(0.491369 -0.674353 0.993642 -0.303735 -563.49 406.164)" stroke="#FFCC9D" stroke-width="4.9425"/>
<line y1="-2.47125" x2="3475.19" y2="-2.47125" transform="matrix(0.491369 -0.674353 0.993642 -0.303735 -555.246 427.662)" stroke="#FFCC9D" stroke-width="4.9425"/>
<line y1="-2.47125" x2="3475.19" y2="-2.47125" transform="matrix(0.491369 -0.674353 0.993643 -0.303735 -547.003 449.158)" stroke="#FFCC9D" stroke-width="4.9425"/>
<line y1="-2.47125" x2="3475.19" y2="-2.47125" transform="matrix(0.491369 -0.674353 0.993643 -0.303735 -538.76 470.653)" stroke="#FFCC9D" stroke-width="4.9425"/>
<line y1="-2.47125" x2="3475.19" y2="-2.47125" transform="matrix(0.491369 -0.674353 0.993643 -0.303735 -530.518 492.149)" stroke="#FFCC9D" stroke-width="4.9425"/>
<line y1="-2.47125" x2="3475.19" y2="-2.47125" transform="matrix(0.491369 -0.674353 0.993643 -0.303735 -522.273 513.644)" stroke="#FFCC9D" stroke-width="4.9425"/>
<line y1="-2.47125" x2="3475.19" y2="-2.47125" transform="matrix(0.491369 -0.674353 0.993643 -0.303735 -514.031 535.142)" stroke="#FFCC9D" stroke-width="4.9425"/>
<line y1="-2.47125" x2="3475.19" y2="-2.47125" transform="matrix(0.491369 -0.674353 0.993643 -0.303735 -505.788 556.637)" stroke="#FFCC9D" stroke-width="4.9425"/>
<line y1="-2.47125" x2="3475.19" y2="-2.47125" transform="matrix(0.491369 -0.674353 0.993642 -0.303735 -497.544 578.133)" stroke="#FFCC9D" stroke-width="4.9425"/>
<line y1="-2.47125" x2="3475.19" y2="-2.47125" transform="matrix(0.491369 -0.674353 0.993643 -0.303735 -489.302 599.629)" stroke="#FFCC9D" stroke-width="4.9425"/>
<line y1="-2.47125" x2="3475.19" y2="-2.47125" transform="matrix(0.491369 -0.674353 0.993643 -0.303735 -481.059 621.124)" stroke="#FFCC9D" stroke-width="4.9425"/>
<line y1="-2.47125" x2="3475.19" y2="-2.47125" transform="matrix(0.491369 -0.674353 0.993642 -0.303735 -472.815 642.621)" stroke="#FFCC9D" stroke-width="4.9425"/>
<line y1="-2.47125" x2="3475.19" y2="-2.47125" transform="matrix(0.491369 -0.674353 0.993643 -0.303735 -464.572 664.117)" stroke="#FFCC9D" stroke-width="4.9425"/>
<line y1="-2.47125" x2="3475.19" y2="-2.47125" transform="matrix(0.491369 -0.674353 0.993643 -0.303735 -703.623 40.7302)" stroke="#FFCC9D" stroke-width="4.9425"/>
<line y1="-2.47125" x2="3475.19" y2="-2.47125" transform="matrix(0.491369 -0.674353 0.993643 -0.303735 -448.203 706.804)" stroke="#FFCC9D" stroke-width="4.9425"/>
<line y1="-2.47125" x2="3475.19" y2="-2.47125" transform="matrix(0.491369 -0.674353 0.993643 -0.303735 -439.96 728.301)" stroke="#FFCC9D" stroke-width="4.9425"/>
<line y1="-2.47125" x2="3475.19" y2="-2.47125" transform="matrix(0.491369 -0.674353 0.993643 -0.303735 -431.716 749.797)" stroke="#FFCC9D" stroke-width="4.9425"/>
<line y1="-2.47125" x2="3475.19" y2="-2.47125" transform="matrix(0.491369 -0.674353 0.993642 -0.303736 -423.473 771.292)" stroke="#FFCC9D" stroke-width="4.9425"/>
<line y1="-2.47125" x2="3475.19" y2="-2.47125" transform="matrix(0.491369 -0.674353 0.993642 -0.303735 -415.23 792.789)" stroke="#FFCC9D" stroke-width="4.9425"/>
<line y1="-2.47125" x2="3475.19" y2="-2.47125" transform="matrix(0.491369 -0.674353 0.993643 -0.303735 -406.987 814.284)" stroke="#FFCC9D" stroke-width="4.9425"/>
<line y1="-2.47125" x2="3475.19" y2="-2.47125" transform="matrix(0.491369 -0.674353 0.993643 -0.303735 -398.744 835.78)" stroke="#FFCC9D" stroke-width="4.9425"/>
<line y1="-2.47125" x2="3475.19" y2="-2.47125" transform="matrix(0.491369 -0.674353 0.993643 -0.303735 -390.502 857.276)" stroke="#FFCC9D" stroke-width="4.9425"/>
<line y1="-2.47125" x2="3475.19" y2="-2.47125" transform="matrix(0.491369 -0.674353 0.993643 -0.303735 -382.259 878.772)" stroke="#FFCC9D" stroke-width="4.9425"/>
<line y1="-2.47125" x2="3475.19" y2="-2.47125" transform="matrix(0.491369 -0.674353 0.993643 -0.303735 -374.015 900.268)" stroke="#FFCC9D" stroke-width="4.9425"/>
<line y1="-2.47125" x2="3475.19" y2="-2.47125" transform="matrix(0.491369 -0.674353 0.993643 -0.303735 -365.772 921.764)" stroke="#FFCC9D" stroke-width="4.9425"/>
<line y1="-2.47125" x2="3475.19" y2="-2.47125" transform="matrix(0.491369 -0.674353 0.993642 -0.303735 -357.529 943.26)" stroke="#FFCC9D" stroke-width="4.9425"/>
<line y1="-2.47125" x2="3475.19" y2="-2.47125" transform="matrix(0.491369 -0.674353 0.993643 -0.303735 -349.286 964.756)" stroke="#FFCC9D" stroke-width="4.9425"/>
<line y1="-2.47125" x2="3475.19" y2="-2.47125" transform="matrix(0.491369 -0.674353 0.993643 -0.303735 -341.045 986.246)" stroke="#FFCC9D" stroke-width="4.9425"/>
<line y1="-2.47125" x2="3475.19" y2="-2.47125" transform="matrix(0.491369 -0.674353 0.993643 -0.303735 -332.802 1007.74)" stroke="#FFCC9D" stroke-width="4.9425"/>
<line y1="-2.47125" x2="3475.19" y2="-2.47125" transform="matrix(0.491369 -0.674353 0.993643 -0.303735 -324.56 1029.24)" stroke="#FFCC9D" stroke-width="4.9425"/>
<line y1="-2.47125" x2="3475.19" y2="-2.47125" transform="matrix(0.491369 -0.674353 0.993642 -0.303735 -316.315 1050.73)" stroke="#FFCC9D" stroke-width="4.9425"/>
<line y1="-2.47125" x2="3475.19" y2="-2.47125" transform="matrix(0.491369 -0.674353 0.993643 -0.303735 -308.072 1072.23)" stroke="#FFCC9D" stroke-width="4.9425"/>
<line y1="-2.47125" x2="3475.19" y2="-2.47125" transform="matrix(0.491369 -0.674353 0.993642 -0.303735 -299.83 1093.73)" stroke="#FFCC9D" stroke-width="4.9425"/>
<line y1="-2.47125" x2="3475.19" y2="-2.47125" transform="matrix(0.491369 -0.674353 0.993643 -0.303735 -291.587 1115.22)" stroke="#FFCC9D" stroke-width="4.9425"/>
<line y1="-2.47125" x2="3475.19" y2="-2.47125" transform="matrix(0.491369 -0.674353 0.993643 -0.303736 -283.344 1136.72)" stroke="#FFCC9D" stroke-width="4.9425"/>
<line y1="-2.47125" x2="3475.19" y2="-2.47125" transform="matrix(0.491369 -0.674353 0.993642 -0.303735 -275.101 1158.21)" stroke="#FFCC9D" stroke-width="4.9425"/>
<line y1="-2.47125" x2="3475.19" y2="-2.47125" transform="matrix(0.491369 -0.674353 0.993642 -0.303735 -266.856 1179.71)" stroke="#FFCC9D" stroke-width="4.9425"/>
<line y1="-2.47125" x2="3475.19" y2="-2.47125" transform="matrix(0.491369 -0.674353 0.993642 -0.303735 -258.614 1201.21)" stroke="#FFCC9D" stroke-width="4.9425"/>
<line y1="-2.47125" x2="3475.19" y2="-2.47125" transform="matrix(0.491369 -0.674353 0.993643 -0.303735 -250.371 1222.7)" stroke="#FFCC9D" stroke-width="4.9425"/>
<line y1="-2.47125" x2="3475.19" y2="-2.47125" transform="matrix(0.491369 -0.674353 0.993643 -0.303735 -242.128 1244.2)" stroke="#FFCC9D" stroke-width="4.9425"/>
<line y1="-2.47125" x2="3475.19" y2="-2.47125" transform="matrix(0.491369 -0.674353 0.993643 -0.303735 -233.885 1265.69)" stroke="#FFCC9D" stroke-width="4.9425"/>
<line y1="-2.47125" x2="3475.19" y2="-2.47125" transform="matrix(0.491369 -0.674353 0.993643 -0.303735 -225.642 1287.19)" stroke="#FFCC9D" stroke-width="4.9425"/>
<line y1="-2.47125" x2="3475.19" y2="-2.47125" transform="matrix(0.491369 -0.674353 0.993643 -0.303735 -217.399 1308.68)" stroke="#FFCC9D" stroke-width="4.9425"/>
<line y1="-2.47125" x2="3475.19" y2="-2.47125" transform="matrix(0.491369 -0.674353 0.993643 -0.303735 -456.445 685.308)" stroke="#FFCC9D" stroke-width="4.9425"/>
<line y1="-2.47125" x2="3475.19" y2="-2.47125" transform="matrix(0.491369 -0.674353 0.993642 -0.303735 -201.029 1351.37)" stroke="#FFCC9D" stroke-width="4.9425"/>
<line y1="-2.47125" x2="3475.19" y2="-2.47125" transform="matrix(0.491369 -0.674353 0.993642 -0.303735 -192.787 1372.87)" stroke="#FFCC9D" stroke-width="4.9425"/>
<line y1="-2.47125" x2="3475.19" y2="-2.47125" transform="matrix(0.491369 -0.674353 0.993642 -0.303735 -184.543 1394.36)" stroke="#FFCC9D" stroke-width="4.9425"/>
<line y1="-2.47125" x2="3475.19" y2="-2.47125" transform="matrix(0.491369 -0.674353 0.993643 -0.303735 -176.3 1415.86)" stroke="#FFCC9D" stroke-width="4.9425"/>
<line y1="-2.47125" x2="3475.19" y2="-2.47125" transform="matrix(0.491369 -0.674353 0.993643 -0.303735 -168.057 1437.36)" stroke="#FFCC9D" stroke-width="4.9425"/>
<line y1="-2.47125" x2="3475.19" y2="-2.47125" transform="matrix(0.491369 -0.674353 0.993643 -0.303735 -159.814 1458.85)" stroke="#FFCC9D" stroke-width="4.9425"/>
<line y1="-2.47125" x2="3475.19" y2="-2.47125" transform="matrix(0.491369 -0.674353 0.993642 -0.303735 -151.571 1480.35)" stroke="#FFCC9D" stroke-width="4.9425"/>
<line y1="-2.47125" x2="3475.19" y2="-2.47125" transform="matrix(0.491369 -0.674353 0.993643 -0.303735 -143.327 1501.84)" stroke="#FFCC9D" stroke-width="4.9425"/>
<line y1="-2.47125" x2="3475.19" y2="-2.47125" transform="matrix(0.491369 -0.674353 0.993643 -0.303735 -135.085 1523.34)" stroke="#FFCC9D" stroke-width="4.9425"/>
<line y1="-2.47125" x2="3475.19" y2="-2.47125" transform="matrix(0.491369 -0.674353 0.993643 -0.303735 -126.842 1544.84)" stroke="#FFCC9D" stroke-width="4.9425"/>
<line y1="-2.47125" x2="3475.19" y2="-2.47125" transform="matrix(0.491369 -0.674353 0.993643 -0.303735 -118.599 1566.33)" stroke="#FFCC9D" stroke-width="4.9425"/>
<line y1="-2.47125" x2="3475.19" y2="-2.47125" transform="matrix(0.491369 -0.674353 0.993642 -0.303735 -110.355 1587.83)" stroke="#FFCC9D" stroke-width="4.9425"/>
<line y1="-2.47125" x2="3475.19" y2="-2.47125" transform="matrix(0.491369 -0.674353 0.993643 -0.303735 -102.112 1609.32)" stroke="#FFCC9D" stroke-width="4.9425"/>
<line y1="-2.47125" x2="3475.19" y2="-2.47125" transform="matrix(0.491369 -0.674353 0.993642 -0.303735 -93.8701 1630.82)" stroke="#FFCC9D" stroke-width="4.9425"/>
<line y1="-2.47125" x2="3475.19" y2="-2.47125" transform="matrix(0.491369 -0.674353 0.993643 -0.303735 -85.627 1652.31)" stroke="#FFCC9D" stroke-width="4.9425"/>
<line y1="-2.47125" x2="3475.19" y2="-2.47125" transform="matrix(0.491369 -0.674353 0.993643 -0.303735 -77.3838 1673.81)" stroke="#FFCC9D" stroke-width="4.9425"/>
<line y1="-2.47125" x2="3475.19" y2="-2.47125" transform="matrix(0.491369 -0.674353 0.993643 -0.303735 -69.1406 1695.31)" stroke="#FFCC9D" stroke-width="4.9425"/>
<line y1="-2.47125" x2="3475.19" y2="-2.47125" transform="matrix(0.491369 -0.674353 0.993642 -0.303735 -60.8975 1716.8)" stroke="#FFCC9D" stroke-width="4.9425"/>
<line y1="-2.47125" x2="3475.19" y2="-2.47125" transform="matrix(0.491369 -0.674353 0.993643 -0.303735 -52.6543 1738.3)" stroke="#FFCC9D" stroke-width="4.9425"/>
<line y1="-2.47125" x2="3475.19" y2="-2.47125" transform="matrix(0.491369 -0.674353 0.993642 -0.303735 -44.4111 1759.79)" stroke="#FFCC9D" stroke-width="4.9425"/>
<line y1="-2.47125" x2="3475.19" y2="-2.47125" transform="matrix(0.491369 -0.674353 0.993643 -0.303735 -36.167 1781.29)" stroke="#FFCC9D" stroke-width="4.9425"/>
<line y1="-2.47125" x2="3475.19" y2="-2.47125" transform="matrix(0.491369 -0.674353 0.993643 -0.303735 -27.9248 1802.79)" stroke="#FFCC9D" stroke-width="4.9425"/>
<line y1="-2.47125" x2="3475.19" y2="-2.47125" transform="matrix(0.491369 -0.674353 0.993642 -0.303735 -19.6816 1824.28)" stroke="#FFCC9D" stroke-width="4.9425"/>
<line y1="-2.47125" x2="3475.19" y2="-2.47125" transform="matrix(0.491369 -0.674353 0.993642 -0.303735 -11.4385 1845.78)" stroke="#FFCC9D" stroke-width="4.9425"/>
<line y1="-2.47125" x2="3475.19" y2="-2.47125" transform="matrix(0.491369 -0.674353 0.993643 -0.303735 -3.19482 1867.27)" stroke="#FFCC9D" stroke-width="4.9425"/>
<line y1="-2.47125" x2="3475.19" y2="-2.47125" transform="matrix(0.491369 -0.674353 0.993643 -0.303735 5.04785 1888.77)" stroke="#FFCC9D" stroke-width="4.9425"/>
<line y1="-2.47125" x2="3475.19" y2="-2.47125" transform="matrix(0.491369 -0.674353 0.993643 -0.303735 13.29 1910.27)" stroke="#FFCC9D" stroke-width="4.9425"/>
<line y1="-2.47125" x2="3475.19" y2="-2.47125" transform="matrix(0.491369 -0.674353 0.993642 -0.303735 21.5342 1931.76)" stroke="#FFCC9D" stroke-width="4.9425"/>
<line y1="-2.47125" x2="3475.19" y2="-2.47125" transform="matrix(0.491369 -0.674353 0.993643 -0.303735 29.7773 1953.26)" stroke="#FFCC9D" stroke-width="4.9425"/>
<line y1="-2.47125" x2="3475.19" y2="-2.47125" transform="matrix(0.491369 -0.674353 0.993643 -0.303735 -209.272 1329.88)" stroke="#FFCC9D" stroke-width="4.9425"/>
</g>
<path d="M417.41 446.698H371.445L359.583 506.008H246.399L258.261 446.698H78.8487L93.6762 372.56L279.02 160.032H402.582L236.514 356.25H281.985L292.365 303.365H400.111L389.732 356.25H435.697L417.41 446.698Z" fill="#FF7B00"/>
</svg>
