<svg width="495" height="659" viewBox="0 0 495 659" fill="none" xmlns="http://www.w3.org/2000/svg">
<mask id="mask0" mask-type="alpha" maskUnits="userSpaceOnUse" x="0" y="0" width="495" height="659">
<rect width="494.25" height="659" fill="#676767"/>
</mask>
<g mask="url(#mask0)">
<line y1="-2.47125" x2="3475.19" y2="-2.47125" transform="matrix(0.491369 -0.674353 0.993643 -0.303735 60.729 1977.02)" stroke="#FFCC9D" stroke-width="4.9425"/>
<line y1="-2.47125" x2="3475.19" y2="-2.47125" transform="matrix(0.491369 -0.674353 0.993643 -0.303735 68.9722 1998.52)" stroke="#FFCC9D" stroke-width="4.9425"/>
<line y1="-2.47125" x2="3475.19" y2="-2.47125" transform="matrix(0.491369 -0.674353 0.993643 -0.303735 77.2148 2020.01)" stroke="#FFCC9D" stroke-width="4.9425"/>
<line y1="-2.47125" x2="3475.19" y2="-2.47125" transform="matrix(0.491369 -0.674353 0.993643 -0.303735 85.4583 2041.51)" stroke="#FFCC9D" stroke-width="4.9425"/>
<line y1="-2.47125" x2="3475.19" y2="-2.47125" transform="matrix(0.491369 -0.674353 0.993642 -0.303735 93.7012 2063)" stroke="#FFCC9D" stroke-width="4.9425"/>
<line y1="-2.47125" x2="3475.19" y2="-2.47125" transform="matrix(0.491369 -0.674353 0.993642 -0.303735 101.944 2084.5)" stroke="#FFCC9D" stroke-width="4.9425"/>
<line y1="-2.47125" x2="3475.19" y2="-2.47125" transform="matrix(0.491369 -0.674353 0.993643 -0.303735 110.187 2106)" stroke="#FFCC9D" stroke-width="4.9425"/>
<line y1="-2.47125" x2="3475.19" y2="-2.47125" transform="matrix(0.491369 -0.674353 0.993643 -0.303735 118.43 2127.49)" stroke="#FFCC9D" stroke-width="4.9425"/>
<line y1="-2.47125" x2="3475.19" y2="-2.47125" transform="matrix(0.491369 -0.674353 0.993643 -0.303735 126.674 2148.99)" stroke="#FFCC9D" stroke-width="4.9425"/>
<line y1="-2.47125" x2="3475.19" y2="-2.47125" transform="matrix(0.491369 -0.674353 0.993642 -0.303735 134.916 2170.48)" stroke="#FFCC9D" stroke-width="4.9425"/>
<line y1="-2.47125" x2="3475.19" y2="-2.47125" transform="matrix(0.491369 -0.674353 0.993643 -0.303735 143.159 2191.98)" stroke="#FFCC9D" stroke-width="4.9425"/>
<line y1="-2.47125" x2="3475.19" y2="-2.47125" transform="matrix(0.491369 -0.674353 0.993642 -0.303735 151.403 2213.48)" stroke="#FFCC9D" stroke-width="4.9425"/>
<line y1="-2.47125" x2="3475.19" y2="-2.47125" transform="matrix(0.491369 -0.674353 0.993643 -0.303735 159.646 2234.97)" stroke="#FFCC9D" stroke-width="4.9425"/>
<line y1="-2.47125" x2="3475.19" y2="-2.47125" transform="matrix(0.491369 -0.674353 0.993643 -0.303735 167.888 2256.47)" stroke="#FFCC9D" stroke-width="4.9425"/>
<line y1="-2.47125" x2="3475.19" y2="-2.47125" transform="matrix(0.491369 -0.674353 0.993642 -0.303735 176.132 2277.96)" stroke="#FFCC9D" stroke-width="4.9425"/>
<line y1="-2.47125" x2="3475.19" y2="-2.47125" transform="matrix(0.491369 -0.674353 0.993643 -0.303735 184.374 2299.46)" stroke="#FFCC9D" stroke-width="4.9425"/>
<line y1="-2.47125" x2="3475.19" y2="-2.47125" transform="matrix(0.491369 -0.674353 0.993643 -0.303735 192.617 2320.95)" stroke="#FFCC9D" stroke-width="4.9425"/>
<line y1="-2.47125" x2="3475.19" y2="-2.47125" transform="matrix(0.491369 -0.674353 0.993642 -0.303735 200.86 2342.45)" stroke="#FFCC9D" stroke-width="4.9425"/>
<line y1="-2.47125" x2="3475.19" y2="-2.47125" transform="matrix(0.491369 -0.674353 0.993643 -0.303735 209.103 2363.94)" stroke="#FFCC9D" stroke-width="4.9425"/>
<line y1="-2.47125" x2="3475.19" y2="-2.47125" transform="matrix(0.491369 -0.674353 0.993643 -0.303735 217.346 2385.44)" stroke="#FFCC9D" stroke-width="4.9425"/>
<line y1="-2.47125" x2="3475.19" y2="-2.47125" transform="matrix(0.491369 -0.674353 0.993642 -0.303735 225.59 2406.94)" stroke="#FFCC9D" stroke-width="4.9425"/>
<line y1="-2.47125" x2="3475.19" y2="-2.47125" transform="matrix(0.491369 -0.674353 0.993642 -0.303736 233.833 2428.43)" stroke="#FFCC9D" stroke-width="4.9425"/>
<line y1="-2.47125" x2="3475.19" y2="-2.47125" transform="matrix(0.491369 -0.674353 0.993643 -0.303735 242.075 2449.93)" stroke="#FFCC9D" stroke-width="4.9425"/>
<line y1="-2.47125" x2="3475.19" y2="-2.47125" transform="matrix(0.491369 -0.674353 0.993643 -0.303735 250.319 2471.42)" stroke="#FFCC9D" stroke-width="4.9425"/>
<line y1="-2.47125" x2="3475.19" y2="-2.47125" transform="matrix(0.491369 -0.674353 0.993642 -0.303735 258.561 2492.92)" stroke="#FFCC9D" stroke-width="4.9425"/>
<line y1="-2.47125" x2="3475.19" y2="-2.47125" transform="matrix(0.491369 -0.674353 0.993643 -0.303735 266.804 2514.41)" stroke="#FFCC9D" stroke-width="4.9425"/>
<line y1="-2.47125" x2="3475.19" y2="-2.47125" transform="matrix(0.491369 -0.674353 0.993643 -0.303735 275.047 2535.91)" stroke="#FFCC9D" stroke-width="4.9425"/>
<line y1="-2.47125" x2="3475.19" y2="-2.47125" transform="matrix(0.491369 -0.674353 0.993643 -0.303735 283.291 2557.41)" stroke="#FFCC9D" stroke-width="4.9425"/>
<line y1="-2.47125" x2="3475.19" y2="-2.47125" transform="matrix(0.491369 -0.674353 0.993643 -0.303735 291.533 2578.9)" stroke="#FFCC9D" stroke-width="4.9425"/>
<line y1="-2.47125" x2="3475.19" y2="-2.47125" transform="matrix(0.491369 -0.674353 0.993642 -0.303735 52.4858 1955.52)" stroke="#FFCC9D" stroke-width="4.9425"/>
<line y1="-2.47125" x2="3475.19" y2="-2.47125" transform="matrix(0.491369 -0.674353 0.993643 -0.303735 307.903 2621.59)" stroke="#FFCC9D" stroke-width="4.9425"/>
<line y1="-2.47125" x2="3475.19" y2="-2.47125" transform="matrix(0.491369 -0.674353 0.993643 -0.303735 316.146 2643.09)" stroke="#FFCC9D" stroke-width="4.9425"/>
<line y1="-2.47125" x2="3475.19" y2="-2.47125" transform="matrix(0.491369 -0.674353 0.993642 -0.303736 324.389 2664.58)" stroke="#FFCC9D" stroke-width="4.9425"/>
<line y1="-2.47125" x2="3475.19" y2="-2.47125" transform="matrix(0.491369 -0.674353 0.993642 -0.303735 332.632 2686.08)" stroke="#FFCC9D" stroke-width="4.9425"/>
<line y1="-2.47125" x2="3475.19" y2="-2.47125" transform="matrix(0.491369 -0.674353 0.993643 -0.303735 340.875 2707.57)" stroke="#FFCC9D" stroke-width="4.9425"/>
<line y1="-2.47125" x2="3475.19" y2="-2.47125" transform="matrix(0.491369 -0.674352 0.993643 -0.303735 349.118 2729.07)" stroke="#FFCC9D" stroke-width="4.9425"/>
<line y1="-2.47125" x2="3475.19" y2="-2.47125" transform="matrix(0.491369 -0.674353 0.993643 -0.303735 357.361 2750.56)" stroke="#FFCC9D" stroke-width="4.9425"/>
<line y1="-2.47125" x2="3475.19" y2="-2.47125" transform="matrix(0.491369 -0.674353 0.993643 -0.303735 365.604 2772.06)" stroke="#FFCC9D" stroke-width="4.9425"/>
<line y1="-2.47125" x2="3475.19" y2="-2.47125" transform="matrix(0.491369 -0.674353 0.993643 -0.303735 373.847 2793.56)" stroke="#FFCC9D" stroke-width="4.9425"/>
<line y1="-2.47125" x2="3475.19" y2="-2.47125" transform="matrix(0.491369 -0.674353 0.993642 -0.303736 382.09 2815.05)" stroke="#FFCC9D" stroke-width="4.9425"/>
<line y1="-2.47125" x2="3475.19" y2="-2.47125" transform="matrix(0.491369 -0.674353 0.993642 -0.303735 390.333 2836.55)" stroke="#FFCC9D" stroke-width="4.9425"/>
<line y1="-2.47125" x2="3475.19" y2="-2.47125" transform="matrix(0.491369 -0.674353 0.993642 -0.303735 398.576 2858.04)" stroke="#FFCC9D" stroke-width="4.9425"/>
<line y1="-2.47125" x2="3475.19" y2="-2.47125" transform="matrix(0.491369 -0.674353 0.993642 -0.303735 406.819 2879.54)" stroke="#FFCC9D" stroke-width="4.9425"/>
<line y1="-2.47125" x2="3475.19" y2="-2.47125" transform="matrix(0.491369 -0.674353 0.993642 -0.303736 415.062 2901.03)" stroke="#FFCC9D" stroke-width="4.9425"/>
<line y1="-2.47125" x2="3475.19" y2="-2.47125" transform="matrix(0.491369 -0.674353 0.993642 -0.303736 423.306 2922.53)" stroke="#FFCC9D" stroke-width="4.9425"/>
<line y1="-2.47125" x2="3475.19" y2="-2.47125" transform="matrix(0.491369 -0.674353 0.993643 -0.303735 431.548 2944.03)" stroke="#FFCC9D" stroke-width="4.9425"/>
<line y1="-2.47125" x2="3475.19" y2="-2.47125" transform="matrix(0.491369 -0.674352 0.993643 -0.303735 439.791 2965.52)" stroke="#FFCC9D" stroke-width="4.9425"/>
<line y1="-2.47125" x2="3475.19" y2="-2.47125" transform="matrix(0.491369 -0.674353 0.993643 -0.303735 448.034 2987.02)" stroke="#FFCC9D" stroke-width="4.9425"/>
<line y1="-2.47125" x2="3475.19" y2="-2.47125" transform="matrix(0.49137 -0.674352 0.993643 -0.303735 299.66 2600.09)" stroke="#FFCC9D" stroke-width="4.9425"/>
<line y1="-2.47125" x2="3475.19" y2="-2.47125" transform="matrix(0.491369 -0.674353 0.993642 -0.303735 -695.808 62.226)" stroke="#FFCC9D" stroke-width="4.9425"/>
<line y1="-2.47125" x2="3475.19" y2="-2.47125" transform="matrix(0.491369 -0.674353 0.993642 -0.303736 -687.565 83.7224)" stroke="#FFCC9D" stroke-width="4.9425"/>
<line y1="-2.47125" x2="3475.19" y2="-2.47125" transform="matrix(0.491369 -0.674353 0.993643 -0.303735 -679.322 105.218)" stroke="#FFCC9D" stroke-width="4.9425"/>
<line y1="-2.47125" x2="3475.19" y2="-2.47125" transform="matrix(0.491369 -0.674353 0.993643 -0.303735 -671.079 126.713)" stroke="#FFCC9D" stroke-width="4.9425"/>
<line y1="-2.47125" x2="3475.19" y2="-2.47125" transform="matrix(0.491369 -0.674353 0.993643 -0.303735 -662.835 148.21)" stroke="#FFCC9D" stroke-width="4.9425"/>
<line y1="-2.47125" x2="3475.19" y2="-2.47125" transform="matrix(0.491369 -0.674353 0.993643 -0.303735 -654.593 169.706)" stroke="#FFCC9D" stroke-width="4.9425"/>
<line y1="-2.47125" x2="3475.19" y2="-2.47125" transform="matrix(0.491369 -0.674353 0.993643 -0.303735 -646.35 191.202)" stroke="#FFCC9D" stroke-width="4.9425"/>
<line y1="-2.47125" x2="3475.19" y2="-2.47125" transform="matrix(0.491369 -0.674353 0.993643 -0.303735 -638.106 212.698)" stroke="#FFCC9D" stroke-width="4.9425"/>
<line y1="-2.47125" x2="3475.19" y2="-2.47125" transform="matrix(0.491369 -0.674353 0.993643 -0.303735 -629.863 234.194)" stroke="#FFCC9D" stroke-width="4.9425"/>
<line y1="-2.47125" x2="3475.19" y2="-2.47125" transform="matrix(0.491369 -0.674353 0.993642 -0.303735 -621.62 255.689)" stroke="#FFCC9D" stroke-width="4.9425"/>
<line y1="-2.47125" x2="3475.19" y2="-2.47125" transform="matrix(0.491369 -0.674353 0.993643 -0.303735 -613.377 277.185)" stroke="#FFCC9D" stroke-width="4.9425"/>
<line y1="-2.47125" x2="3475.19" y2="-2.47125" transform="matrix(0.491369 -0.674353 0.993643 -0.303735 -605.134 298.682)" stroke="#FFCC9D" stroke-width="4.9425"/>
<line y1="-2.47125" x2="3475.19" y2="-2.47125" transform="matrix(0.491369 -0.674353 0.993643 -0.303735 -596.891 320.179)" stroke="#FFCC9D" stroke-width="4.9425"/>
<line y1="-2.47125" x2="3475.19" y2="-2.47125" transform="matrix(0.491369 -0.674353 0.993643 -0.303735 -588.648 341.675)" stroke="#FFCC9D" stroke-width="4.9425"/>
<line y1="-2.47125" x2="3475.19" y2="-2.47125" transform="matrix(0.491369 -0.674353 0.993643 -0.303735 -580.404 363.173)" stroke="#FFCC9D" stroke-width="4.9425"/>
<line y1="-2.47125" x2="3475.19" y2="-2.47125" transform="matrix(0.491369 -0.674353 0.993643 -0.303735 -572.16 384.67)" stroke="#FFCC9D" stroke-width="4.9425"/>
<line y1="-2.47125" x2="3475.19" y2="-2.47125" transform="matrix(0.491369 -0.674353 0.993642 -0.303735 -563.918 406.164)" stroke="#FFCC9D" stroke-width="4.9425"/>
<line y1="-2.47125" x2="3475.19" y2="-2.47125" transform="matrix(0.491369 -0.674353 0.993642 -0.303735 -555.674 427.662)" stroke="#FFCC9D" stroke-width="4.9425"/>
<line y1="-2.47125" x2="3475.19" y2="-2.47125" transform="matrix(0.491369 -0.674353 0.993643 -0.303735 -547.431 449.158)" stroke="#FFCC9D" stroke-width="4.9425"/>
<line y1="-2.47125" x2="3475.19" y2="-2.47125" transform="matrix(0.491369 -0.674353 0.993643 -0.303735 -539.188 470.653)" stroke="#FFCC9D" stroke-width="4.9425"/>
<line y1="-2.47125" x2="3475.19" y2="-2.47125" transform="matrix(0.491369 -0.674353 0.993643 -0.303735 -530.945 492.149)" stroke="#FFCC9D" stroke-width="4.9425"/>
<line y1="-2.47125" x2="3475.19" y2="-2.47125" transform="matrix(0.491369 -0.674353 0.993643 -0.303735 -522.701 513.644)" stroke="#FFCC9D" stroke-width="4.9425"/>
<line y1="-2.47125" x2="3475.19" y2="-2.47125" transform="matrix(0.491369 -0.674353 0.993643 -0.303735 -514.458 535.142)" stroke="#FFCC9D" stroke-width="4.9425"/>
<line y1="-2.47125" x2="3475.19" y2="-2.47125" transform="matrix(0.491369 -0.674353 0.993643 -0.303735 -506.215 556.637)" stroke="#FFCC9D" stroke-width="4.9425"/>
<line y1="-2.47125" x2="3475.19" y2="-2.47125" transform="matrix(0.491369 -0.674353 0.993642 -0.303735 -497.972 578.133)" stroke="#FFCC9D" stroke-width="4.9425"/>
<line y1="-2.47125" x2="3475.19" y2="-2.47125" transform="matrix(0.491369 -0.674353 0.993643 -0.303735 -489.729 599.629)" stroke="#FFCC9D" stroke-width="4.9425"/>
<line y1="-2.47125" x2="3475.19" y2="-2.47125" transform="matrix(0.491369 -0.674353 0.993643 -0.303735 -481.486 621.125)" stroke="#FFCC9D" stroke-width="4.9425"/>
<line y1="-2.47125" x2="3475.19" y2="-2.47125" transform="matrix(0.491369 -0.674353 0.993642 -0.303735 -473.243 642.621)" stroke="#FFCC9D" stroke-width="4.9425"/>
<line y1="-2.47125" x2="3475.19" y2="-2.47125" transform="matrix(0.491369 -0.674353 0.993643 -0.303735 -465 664.117)" stroke="#FFCC9D" stroke-width="4.9425"/>
<line y1="-2.47125" x2="3475.19" y2="-2.47125" transform="matrix(0.491369 -0.674353 0.993643 -0.303735 -704.051 40.7302)" stroke="#FFCC9D" stroke-width="4.9425"/>
<line y1="-2.47125" x2="3475.19" y2="-2.47125" transform="matrix(0.491369 -0.674353 0.993643 -0.303735 -448.63 706.804)" stroke="#FFCC9D" stroke-width="4.9425"/>
<line y1="-2.47125" x2="3475.19" y2="-2.47125" transform="matrix(0.491369 -0.674353 0.993643 -0.303735 -440.388 728.301)" stroke="#FFCC9D" stroke-width="4.9425"/>
<line y1="-2.47125" x2="3475.19" y2="-2.47125" transform="matrix(0.491369 -0.674353 0.993643 -0.303735 -432.144 749.797)" stroke="#FFCC9D" stroke-width="4.9425"/>
<line y1="-2.47125" x2="3475.19" y2="-2.47125" transform="matrix(0.491369 -0.674353 0.993642 -0.303735 -423.901 771.292)" stroke="#FFCC9D" stroke-width="4.9425"/>
<line y1="-2.47125" x2="3475.19" y2="-2.47125" transform="matrix(0.491369 -0.674353 0.993642 -0.303735 -415.658 792.789)" stroke="#FFCC9D" stroke-width="4.9425"/>
<line y1="-2.47125" x2="3475.19" y2="-2.47125" transform="matrix(0.491369 -0.674353 0.993643 -0.303735 -407.415 814.284)" stroke="#FFCC9D" stroke-width="4.9425"/>
<line y1="-2.47125" x2="3475.19" y2="-2.47125" transform="matrix(0.491369 -0.674353 0.993643 -0.303735 -399.172 835.78)" stroke="#FFCC9D" stroke-width="4.9425"/>
<line y1="-2.47125" x2="3475.19" y2="-2.47125" transform="matrix(0.491369 -0.674353 0.993643 -0.303735 -390.929 857.276)" stroke="#FFCC9D" stroke-width="4.9425"/>
<line y1="-2.47125" x2="3475.19" y2="-2.47125" transform="matrix(0.491369 -0.674353 0.993643 -0.303735 -382.686 878.772)" stroke="#FFCC9D" stroke-width="4.9425"/>
<line y1="-2.47125" x2="3475.19" y2="-2.47125" transform="matrix(0.491369 -0.674353 0.993643 -0.303735 -374.443 900.268)" stroke="#FFCC9D" stroke-width="4.9425"/>
<line y1="-2.47125" x2="3475.19" y2="-2.47125" transform="matrix(0.491369 -0.674353 0.993643 -0.303735 -366.2 921.764)" stroke="#FFCC9D" stroke-width="4.9425"/>
<line y1="-2.47125" x2="3475.19" y2="-2.47125" transform="matrix(0.491369 -0.674353 0.993642 -0.303735 -357.957 943.26)" stroke="#FFCC9D" stroke-width="4.9425"/>
<line y1="-2.47125" x2="3475.19" y2="-2.47125" transform="matrix(0.491369 -0.674353 0.993643 -0.303735 -349.714 964.756)" stroke="#FFCC9D" stroke-width="4.9425"/>
<line y1="-2.47125" x2="3475.19" y2="-2.47125" transform="matrix(0.491369 -0.674353 0.993643 -0.303735 -341.472 986.246)" stroke="#FFCC9D" stroke-width="4.9425"/>
<line y1="-2.47125" x2="3475.19" y2="-2.47125" transform="matrix(0.491369 -0.674353 0.993643 -0.303735 -333.229 1007.74)" stroke="#FFCC9D" stroke-width="4.9425"/>
<line y1="-2.47125" x2="3475.19" y2="-2.47125" transform="matrix(0.491369 -0.674353 0.993643 -0.303735 -324.987 1029.24)" stroke="#FFCC9D" stroke-width="4.9425"/>
<line y1="-2.47125" x2="3475.19" y2="-2.47125" transform="matrix(0.491369 -0.674353 0.993642 -0.303735 -316.744 1050.73)" stroke="#FFCC9D" stroke-width="4.9425"/>
<line y1="-2.47125" x2="3475.19" y2="-2.47125" transform="matrix(0.491369 -0.674353 0.993643 -0.303735 -308.5 1072.23)" stroke="#FFCC9D" stroke-width="4.9425"/>
<line y1="-2.47125" x2="3475.19" y2="-2.47125" transform="matrix(0.491369 -0.674353 0.993642 -0.303735 -300.257 1093.73)" stroke="#FFCC9D" stroke-width="4.9425"/>
<line y1="-2.47125" x2="3475.19" y2="-2.47125" transform="matrix(0.491369 -0.674353 0.993643 -0.303735 -292.014 1115.22)" stroke="#FFCC9D" stroke-width="4.9425"/>
<line y1="-2.47125" x2="3475.19" y2="-2.47125" transform="matrix(0.491369 -0.674353 0.993643 -0.303736 -283.771 1136.72)" stroke="#FFCC9D" stroke-width="4.9425"/>
<line y1="-2.47125" x2="3475.19" y2="-2.47125" transform="matrix(0.491369 -0.674353 0.993642 -0.303735 -275.528 1158.21)" stroke="#FFCC9D" stroke-width="4.9425"/>
<line y1="-2.47125" x2="3475.19" y2="-2.47125" transform="matrix(0.491369 -0.674353 0.993643 -0.303735 -267.284 1179.71)" stroke="#FFCC9D" stroke-width="4.9425"/>
<line y1="-2.47125" x2="3475.19" y2="-2.47125" transform="matrix(0.491369 -0.674353 0.993642 -0.303735 -259.042 1201.21)" stroke="#FFCC9D" stroke-width="4.9425"/>
<line y1="-2.47125" x2="3475.19" y2="-2.47125" transform="matrix(0.491369 -0.674353 0.993643 -0.303735 -250.799 1222.7)" stroke="#FFCC9D" stroke-width="4.9425"/>
<line y1="-2.47125" x2="3475.19" y2="-2.47125" transform="matrix(0.491369 -0.674353 0.993643 -0.303736 -242.555 1244.2)" stroke="#FFCC9D" stroke-width="4.9425"/>
<line y1="-2.47125" x2="3475.19" y2="-2.47125" transform="matrix(0.491369 -0.674353 0.993643 -0.303735 -234.312 1265.69)" stroke="#FFCC9D" stroke-width="4.9425"/>
<line y1="-2.47125" x2="3475.19" y2="-2.47125" transform="matrix(0.491369 -0.674353 0.993643 -0.303735 -226.07 1287.19)" stroke="#FFCC9D" stroke-width="4.9425"/>
<line y1="-2.47125" x2="3475.19" y2="-2.47125" transform="matrix(0.491369 -0.674353 0.993643 -0.303735 -217.827 1308.68)" stroke="#FFCC9D" stroke-width="4.9425"/>
<line y1="-2.47125" x2="3475.19" y2="-2.47125" transform="matrix(0.491369 -0.674353 0.993643 -0.303735 -456.873 685.308)" stroke="#FFCC9D" stroke-width="4.9425"/>
<line y1="-2.47125" x2="3475.19" y2="-2.47125" transform="matrix(0.491369 -0.674353 0.993642 -0.303735 -201.457 1351.37)" stroke="#FFCC9D" stroke-width="4.9425"/>
<line y1="-2.47125" x2="3475.19" y2="-2.47125" transform="matrix(0.491369 -0.674353 0.993643 -0.303735 -193.214 1372.87)" stroke="#FFCC9D" stroke-width="4.9425"/>
<line y1="-2.47125" x2="3475.19" y2="-2.47125" transform="matrix(0.491369 -0.674353 0.993642 -0.303735 -184.971 1394.36)" stroke="#FFCC9D" stroke-width="4.9425"/>
<line y1="-2.47125" x2="3475.19" y2="-2.47125" transform="matrix(0.491369 -0.674353 0.993643 -0.303735 -176.727 1415.86)" stroke="#FFCC9D" stroke-width="4.9425"/>
<line y1="-2.47125" x2="3475.19" y2="-2.47125" transform="matrix(0.491369 -0.674353 0.993643 -0.303735 -168.485 1437.36)" stroke="#FFCC9D" stroke-width="4.9425"/>
<line y1="-2.47125" x2="3475.19" y2="-2.47125" transform="matrix(0.491369 -0.674353 0.993643 -0.303735 -160.242 1458.85)" stroke="#FFCC9D" stroke-width="4.9425"/>
<line y1="-2.47125" x2="3475.19" y2="-2.47125" transform="matrix(0.491369 -0.674353 0.993643 -0.303735 -151.999 1480.35)" stroke="#FFCC9D" stroke-width="4.9425"/>
<line y1="-2.47125" x2="3475.19" y2="-2.47125" transform="matrix(0.491369 -0.674353 0.993643 -0.303735 -143.755 1501.84)" stroke="#FFCC9D" stroke-width="4.9425"/>
<line y1="-2.47125" x2="3475.19" y2="-2.47125" transform="matrix(0.491369 -0.674353 0.993643 -0.303735 -135.512 1523.34)" stroke="#FFCC9D" stroke-width="4.9425"/>
<line y1="-2.47125" x2="3475.19" y2="-2.47125" transform="matrix(0.491369 -0.674353 0.993643 -0.303735 -127.269 1544.84)" stroke="#FFCC9D" stroke-width="4.9425"/>
<line y1="-2.47125" x2="3475.19" y2="-2.47125" transform="matrix(0.491369 -0.674353 0.993643 -0.303735 -119.026 1566.33)" stroke="#FFCC9D" stroke-width="4.9425"/>
<line y1="-2.47125" x2="3475.19" y2="-2.47125" transform="matrix(0.491369 -0.674353 0.993642 -0.303735 -110.783 1587.83)" stroke="#FFCC9D" stroke-width="4.9425"/>
<line y1="-2.47125" x2="3475.19" y2="-2.47125" transform="matrix(0.491369 -0.674353 0.993643 -0.303735 -102.54 1609.32)" stroke="#FFCC9D" stroke-width="4.9425"/>
<line y1="-2.47125" x2="3475.19" y2="-2.47125" transform="matrix(0.491369 -0.674353 0.993642 -0.303735 -94.2971 1630.82)" stroke="#FFCC9D" stroke-width="4.9425"/>
<line y1="-2.47125" x2="3475.19" y2="-2.47125" transform="matrix(0.491369 -0.674353 0.993643 -0.303735 -86.0544 1652.31)" stroke="#FFCC9D" stroke-width="4.9425"/>
<line y1="-2.47125" x2="3475.19" y2="-2.47125" transform="matrix(0.491369 -0.674353 0.993642 -0.303735 -77.8115 1673.81)" stroke="#FFCC9D" stroke-width="4.9425"/>
<line y1="-2.47125" x2="3475.19" y2="-2.47125" transform="matrix(0.491369 -0.674353 0.993643 -0.303735 -69.5679 1695.31)" stroke="#FFCC9D" stroke-width="4.9425"/>
<line y1="-2.47125" x2="3475.19" y2="-2.47125" transform="matrix(0.491369 -0.674353 0.993642 -0.303735 -61.325 1716.8)" stroke="#FFCC9D" stroke-width="4.9425"/>
<line y1="-2.47125" x2="3475.19" y2="-2.47125" transform="matrix(0.491369 -0.674353 0.993643 -0.303735 -53.082 1738.3)" stroke="#FFCC9D" stroke-width="4.9425"/>
<line y1="-2.47125" x2="3475.19" y2="-2.47125" transform="matrix(0.491369 -0.674353 0.993642 -0.303735 -44.8384 1759.79)" stroke="#FFCC9D" stroke-width="4.9425"/>
<line y1="-2.47125" x2="3475.19" y2="-2.47125" transform="matrix(0.491369 -0.674353 0.993643 -0.303735 -36.5955 1781.29)" stroke="#FFCC9D" stroke-width="4.9425"/>
<line y1="-2.47125" x2="3475.19" y2="-2.47125" transform="matrix(0.491369 -0.674353 0.993643 -0.303735 -28.3523 1802.79)" stroke="#FFCC9D" stroke-width="4.9425"/>
<line y1="-2.47125" x2="3475.19" y2="-2.47125" transform="matrix(0.491369 -0.674353 0.993642 -0.303735 -20.1091 1824.28)" stroke="#FFCC9D" stroke-width="4.9425"/>
<line y1="-2.47125" x2="3475.19" y2="-2.47125" transform="matrix(0.491369 -0.674353 0.993642 -0.303735 -11.8667 1845.78)" stroke="#FFCC9D" stroke-width="4.9425"/>
<line y1="-2.47125" x2="3475.19" y2="-2.47125" transform="matrix(0.491369 -0.674353 0.993643 -0.303735 -3.6228 1867.27)" stroke="#FFCC9D" stroke-width="4.9425"/>
<line y1="-2.47125" x2="3475.19" y2="-2.47125" transform="matrix(0.491369 -0.674353 0.993643 -0.303735 4.61987 1888.77)" stroke="#FFCC9D" stroke-width="4.9425"/>
<line y1="-2.47125" x2="3475.19" y2="-2.47125" transform="matrix(0.491369 -0.674353 0.993642 -0.303735 12.8625 1910.27)" stroke="#FFCC9D" stroke-width="4.9425"/>
<line y1="-2.47125" x2="3475.19" y2="-2.47125" transform="matrix(0.491369 -0.674353 0.993642 -0.303735 21.1062 1931.76)" stroke="#FFCC9D" stroke-width="4.9425"/>
<line y1="-2.47125" x2="3475.19" y2="-2.47125" transform="matrix(0.491369 -0.674353 0.993643 -0.303735 29.3499 1953.26)" stroke="#FFCC9D" stroke-width="4.9425"/>
<line y1="-2.47125" x2="3475.19" y2="-2.47125" transform="matrix(0.491369 -0.674353 0.993643 -0.303735 -209.7 1329.88)" stroke="#FFCC9D" stroke-width="4.9425"/>
</g>
<path d="M358.205 330.541C379.952 347.675 390.826 369.093 390.826 394.794C390.826 419.177 384.071 440.429 370.562 458.552C357.052 476.345 338.271 490.019 314.217 499.575C290.164 509.13 262.65 513.908 231.677 513.908C202.022 513.908 175.662 509.789 152.597 501.552C129.862 492.985 112.234 481.123 99.7125 465.966C87.1915 450.479 80.931 432.686 80.931 412.587C80.931 390.84 86.5325 371.893 97.7355 355.748C108.939 339.273 124.59 326.258 144.689 316.702C129.203 301.875 121.46 284.082 121.46 263.323C121.46 240.588 127.72 220.818 140.241 204.013C152.762 187.209 170.061 174.358 192.137 165.462C214.543 156.565 239.915 152.117 268.252 152.117C295.6 152.117 319.819 156.071 340.907 163.979C361.995 171.557 378.305 182.596 389.837 197.094C401.699 211.262 407.63 227.572 407.63 246.024C407.63 264.476 403.347 280.951 394.78 295.449C386.213 309.618 374.021 321.315 358.205 330.541ZM266.769 230.703C258.202 230.703 251.118 233.668 245.516 239.599C239.915 245.53 237.114 253.603 237.114 263.817C237.114 272.055 239.421 278.48 244.034 283.093C248.976 287.706 255.237 290.013 262.815 290.013C271.382 290.013 278.466 287.047 284.068 281.116C289.669 275.185 292.47 267.112 292.47 256.898C292.47 248.66 289.999 242.235 285.056 237.622C280.443 233.009 274.348 230.703 266.769 230.703ZM233.16 435.322C245.022 435.322 254.742 431.862 262.321 424.943C269.899 417.694 273.689 408.138 273.689 396.276C273.689 386.062 270.394 377.989 263.804 372.058C257.543 366.127 248.976 363.162 238.103 363.162C226.241 363.162 216.52 366.786 208.942 374.035C201.363 380.955 197.574 390.345 197.574 402.207C197.574 412.422 200.869 420.495 207.459 426.426C214.379 432.357 222.946 435.322 233.16 435.322Z" fill="#FF7B00"/>
</svg>
