<svg width="495" height="659" viewBox="0 0 495 659" fill="none" xmlns="http://www.w3.org/2000/svg">
<mask id="mask0" mask-type="alpha" maskUnits="userSpaceOnUse" x="0" y="0" width="495" height="659">
<rect x="0.285156" width="494.25" height="659" fill="#676767"/>
</mask>
<g mask="url(#mask0)">
<line y1="-2.47125" x2="3475.19" y2="-2.47125" transform="matrix(0.491369 -0.674353 0.993643 -0.303735 61.0142 1977.02)" stroke="#FFCC9D" stroke-width="4.9425"/>
<line y1="-2.47125" x2="3475.19" y2="-2.47125" transform="matrix(0.491369 -0.674353 0.993643 -0.303735 69.2573 1998.52)" stroke="#FFCC9D" stroke-width="4.9425"/>
<line y1="-2.47125" x2="3475.19" y2="-2.47125" transform="matrix(0.491369 -0.674353 0.993643 -0.303735 77.5 2020.01)" stroke="#FFCC9D" stroke-width="4.9425"/>
<line y1="-2.47125" x2="3475.19" y2="-2.47125" transform="matrix(0.491369 -0.674353 0.993643 -0.303735 85.7432 2041.51)" stroke="#FFCC9D" stroke-width="4.9425"/>
<line y1="-2.47125" x2="3475.19" y2="-2.47125" transform="matrix(0.491369 -0.674353 0.993642 -0.303735 93.9863 2063)" stroke="#FFCC9D" stroke-width="4.9425"/>
<line y1="-2.47125" x2="3475.19" y2="-2.47125" transform="matrix(0.491369 -0.674353 0.993642 -0.303735 102.229 2084.5)" stroke="#FFCC9D" stroke-width="4.9425"/>
<line y1="-2.47125" x2="3475.19" y2="-2.47125" transform="matrix(0.491369 -0.674353 0.993643 -0.303735 110.472 2106)" stroke="#FFCC9D" stroke-width="4.9425"/>
<line y1="-2.47125" x2="3475.19" y2="-2.47125" transform="matrix(0.491369 -0.674353 0.993643 -0.303735 118.715 2127.49)" stroke="#FFCC9D" stroke-width="4.9425"/>
<line y1="-2.47125" x2="3475.19" y2="-2.47125" transform="matrix(0.491369 -0.674353 0.993643 -0.303735 126.958 2148.99)" stroke="#FFCC9D" stroke-width="4.9425"/>
<line y1="-2.47125" x2="3475.19" y2="-2.47125" transform="matrix(0.491369 -0.674353 0.993643 -0.303735 135.202 2170.48)" stroke="#FFCC9D" stroke-width="4.9425"/>
<line y1="-2.47125" x2="3475.19" y2="-2.47125" transform="matrix(0.491369 -0.674353 0.993643 -0.303735 143.444 2191.98)" stroke="#FFCC9D" stroke-width="4.9425"/>
<line y1="-2.47125" x2="3475.19" y2="-2.47125" transform="matrix(0.491369 -0.674353 0.993642 -0.303735 151.688 2213.48)" stroke="#FFCC9D" stroke-width="4.9425"/>
<line y1="-2.47125" x2="3475.19" y2="-2.47125" transform="matrix(0.491369 -0.674353 0.993643 -0.303735 159.93 2234.97)" stroke="#FFCC9D" stroke-width="4.9425"/>
<line y1="-2.47125" x2="3475.19" y2="-2.47125" transform="matrix(0.491369 -0.674353 0.993643 -0.303735 168.173 2256.47)" stroke="#FFCC9D" stroke-width="4.9425"/>
<line y1="-2.47125" x2="3475.19" y2="-2.47125" transform="matrix(0.491369 -0.674353 0.993642 -0.303736 176.417 2277.96)" stroke="#FFCC9D" stroke-width="4.9425"/>
<line y1="-2.47125" x2="3475.19" y2="-2.47125" transform="matrix(0.491369 -0.674353 0.993643 -0.303735 184.66 2299.46)" stroke="#FFCC9D" stroke-width="4.9425"/>
<line y1="-2.47125" x2="3475.19" y2="-2.47125" transform="matrix(0.491369 -0.674353 0.993642 -0.303735 192.903 2320.95)" stroke="#FFCC9D" stroke-width="4.9425"/>
<line y1="-2.47125" x2="3475.19" y2="-2.47125" transform="matrix(0.491369 -0.674353 0.993642 -0.303735 201.146 2342.45)" stroke="#FFCC9D" stroke-width="4.9425"/>
<line y1="-2.47125" x2="3475.19" y2="-2.47125" transform="matrix(0.491369 -0.674353 0.993643 -0.303735 209.389 2363.95)" stroke="#FFCC9D" stroke-width="4.9425"/>
<line y1="-2.47125" x2="3475.19" y2="-2.47125" transform="matrix(0.491369 -0.674353 0.993643 -0.303735 217.632 2385.44)" stroke="#FFCC9D" stroke-width="4.9425"/>
<line y1="-2.47125" x2="3475.19" y2="-2.47125" transform="matrix(0.491369 -0.674353 0.993642 -0.303735 225.875 2406.94)" stroke="#FFCC9D" stroke-width="4.9425"/>
<line y1="-2.47125" x2="3475.19" y2="-2.47125" transform="matrix(0.491369 -0.674353 0.993642 -0.303736 234.118 2428.43)" stroke="#FFCC9D" stroke-width="4.9425"/>
<line y1="-2.47125" x2="3475.19" y2="-2.47125" transform="matrix(0.491369 -0.674353 0.993643 -0.303735 242.36 2449.93)" stroke="#FFCC9D" stroke-width="4.9425"/>
<line y1="-2.47125" x2="3475.19" y2="-2.47125" transform="matrix(0.491369 -0.674353 0.993643 -0.303735 250.604 2471.42)" stroke="#FFCC9D" stroke-width="4.9425"/>
<line y1="-2.47125" x2="3475.19" y2="-2.47125" transform="matrix(0.491369 -0.674353 0.993642 -0.303735 258.847 2492.92)" stroke="#FFCC9D" stroke-width="4.9425"/>
<line y1="-2.47125" x2="3475.19" y2="-2.47125" transform="matrix(0.491369 -0.674353 0.993643 -0.303735 267.089 2514.41)" stroke="#FFCC9D" stroke-width="4.9425"/>
<line y1="-2.47125" x2="3475.19" y2="-2.47125" transform="matrix(0.491369 -0.674353 0.993643 -0.303735 275.332 2535.91)" stroke="#FFCC9D" stroke-width="4.9425"/>
<line y1="-2.47125" x2="3475.19" y2="-2.47125" transform="matrix(0.491369 -0.674353 0.993643 -0.303735 283.576 2557.41)" stroke="#FFCC9D" stroke-width="4.9425"/>
<line y1="-2.47125" x2="3475.19" y2="-2.47125" transform="matrix(0.491369 -0.674353 0.993643 -0.303735 291.819 2578.9)" stroke="#FFCC9D" stroke-width="4.9425"/>
<line y1="-2.47125" x2="3475.19" y2="-2.47125" transform="matrix(0.491369 -0.674353 0.993642 -0.303735 52.771 1955.52)" stroke="#FFCC9D" stroke-width="4.9425"/>
<line y1="-2.47125" x2="3475.19" y2="-2.47125" transform="matrix(0.491369 -0.674353 0.993643 -0.303735 308.188 2621.59)" stroke="#FFCC9D" stroke-width="4.9425"/>
<line y1="-2.47125" x2="3475.19" y2="-2.47125" transform="matrix(0.491369 -0.674353 0.993643 -0.303735 316.431 2643.09)" stroke="#FFCC9D" stroke-width="4.9425"/>
<line y1="-2.47125" x2="3475.19" y2="-2.47125" transform="matrix(0.491369 -0.674353 0.993642 -0.303736 324.674 2664.58)" stroke="#FFCC9D" stroke-width="4.9425"/>
<line y1="-2.47125" x2="3475.19" y2="-2.47125" transform="matrix(0.491369 -0.674353 0.993642 -0.303735 332.917 2686.08)" stroke="#FFCC9D" stroke-width="4.9425"/>
<line y1="-2.47125" x2="3475.19" y2="-2.47125" transform="matrix(0.491369 -0.674353 0.993643 -0.303735 341.16 2707.57)" stroke="#FFCC9D" stroke-width="4.9425"/>
<line y1="-2.47125" x2="3475.19" y2="-2.47125" transform="matrix(0.49137 -0.674352 0.993643 -0.303735 349.402 2729.07)" stroke="#FFCC9D" stroke-width="4.9425"/>
<line y1="-2.47125" x2="3475.19" y2="-2.47125" transform="matrix(0.491369 -0.674353 0.993643 -0.303735 357.646 2750.56)" stroke="#FFCC9D" stroke-width="4.9425"/>
<line y1="-2.47125" x2="3475.19" y2="-2.47125" transform="matrix(0.491369 -0.674353 0.993643 -0.303735 365.889 2772.06)" stroke="#FFCC9D" stroke-width="4.9425"/>
<line y1="-2.47125" x2="3475.19" y2="-2.47125" transform="matrix(0.491369 -0.674353 0.993643 -0.303735 374.132 2793.56)" stroke="#FFCC9D" stroke-width="4.9425"/>
<line y1="-2.47125" x2="3475.19" y2="-2.47125" transform="matrix(0.491369 -0.674353 0.993643 -0.303736 382.375 2815.05)" stroke="#FFCC9D" stroke-width="4.9425"/>
<line y1="-2.47125" x2="3475.19" y2="-2.47125" transform="matrix(0.491369 -0.674353 0.993642 -0.303735 390.618 2836.55)" stroke="#FFCC9D" stroke-width="4.9425"/>
<line y1="-2.47125" x2="3475.19" y2="-2.47125" transform="matrix(0.491369 -0.674353 0.993642 -0.303735 398.861 2858.04)" stroke="#FFCC9D" stroke-width="4.9425"/>
<line y1="-2.47125" x2="3475.19" y2="-2.47125" transform="matrix(0.491369 -0.674353 0.993642 -0.303735 407.104 2879.54)" stroke="#FFCC9D" stroke-width="4.9425"/>
<line y1="-2.47125" x2="3475.19" y2="-2.47125" transform="matrix(0.491369 -0.674353 0.993642 -0.303736 415.347 2901.03)" stroke="#FFCC9D" stroke-width="4.9425"/>
<line y1="-2.47125" x2="3475.19" y2="-2.47125" transform="matrix(0.491369 -0.674353 0.993642 -0.303736 423.59 2922.53)" stroke="#FFCC9D" stroke-width="4.9425"/>
<line y1="-2.47125" x2="3475.19" y2="-2.47125" transform="matrix(0.491369 -0.674353 0.993643 -0.303735 431.833 2944.03)" stroke="#FFCC9D" stroke-width="4.9425"/>
<line y1="-2.47125" x2="3475.19" y2="-2.47125" transform="matrix(0.491369 -0.674352 0.993643 -0.303735 440.076 2965.52)" stroke="#FFCC9D" stroke-width="4.9425"/>
<line y1="-2.47125" x2="3475.19" y2="-2.47125" transform="matrix(0.491369 -0.674353 0.993643 -0.303735 448.319 2987.02)" stroke="#FFCC9D" stroke-width="4.9425"/>
<line y1="-2.47125" x2="3475.19" y2="-2.47125" transform="matrix(0.49137 -0.674352 0.993643 -0.303735 299.945 2600.09)" stroke="#FFCC9D" stroke-width="4.9425"/>
<line y1="-2.47125" x2="3475.19" y2="-2.47125" transform="matrix(0.491369 -0.674353 0.993642 -0.303735 -695.523 62.2261)" stroke="#FFCC9D" stroke-width="4.9425"/>
<line y1="-2.47125" x2="3475.19" y2="-2.47125" transform="matrix(0.491369 -0.674353 0.993642 -0.303736 -687.28 83.7224)" stroke="#FFCC9D" stroke-width="4.9425"/>
<line y1="-2.47125" x2="3475.19" y2="-2.47125" transform="matrix(0.491369 -0.674353 0.993643 -0.303735 -679.036 105.218)" stroke="#FFCC9D" stroke-width="4.9425"/>
<line y1="-2.47125" x2="3475.19" y2="-2.47125" transform="matrix(0.491369 -0.674353 0.993643 -0.303735 -670.793 126.713)" stroke="#FFCC9D" stroke-width="4.9425"/>
<line y1="-2.47125" x2="3475.19" y2="-2.47125" transform="matrix(0.491369 -0.674353 0.993643 -0.303735 -662.551 148.21)" stroke="#FFCC9D" stroke-width="4.9425"/>
<line y1="-2.47125" x2="3475.19" y2="-2.47125" transform="matrix(0.491369 -0.674353 0.993643 -0.303735 -654.307 169.706)" stroke="#FFCC9D" stroke-width="4.9425"/>
<line y1="-2.47125" x2="3475.19" y2="-2.47125" transform="matrix(0.491369 -0.674353 0.993643 -0.303735 -646.065 191.202)" stroke="#FFCC9D" stroke-width="4.9425"/>
<line y1="-2.47125" x2="3475.19" y2="-2.47125" transform="matrix(0.491369 -0.674353 0.993643 -0.303735 -637.821 212.698)" stroke="#FFCC9D" stroke-width="4.9425"/>
<line y1="-2.47125" x2="3475.19" y2="-2.47125" transform="matrix(0.491369 -0.674353 0.993643 -0.303735 -629.578 234.194)" stroke="#FFCC9D" stroke-width="4.9425"/>
<line y1="-2.47125" x2="3475.19" y2="-2.47125" transform="matrix(0.491369 -0.674353 0.993643 -0.303735 -621.335 255.689)" stroke="#FFCC9D" stroke-width="4.9425"/>
<line y1="-2.47125" x2="3475.19" y2="-2.47125" transform="matrix(0.491369 -0.674353 0.993643 -0.303735 -613.092 277.185)" stroke="#FFCC9D" stroke-width="4.9425"/>
<line y1="-2.47125" x2="3475.19" y2="-2.47125" transform="matrix(0.491369 -0.674353 0.993643 -0.303735 -604.849 298.682)" stroke="#FFCC9D" stroke-width="4.9425"/>
<line y1="-2.47125" x2="3475.19" y2="-2.47125" transform="matrix(0.491369 -0.674353 0.993643 -0.303735 -596.606 320.179)" stroke="#FFCC9D" stroke-width="4.9425"/>
<line y1="-2.47125" x2="3475.19" y2="-2.47125" transform="matrix(0.491369 -0.674353 0.993643 -0.303735 -588.363 341.675)" stroke="#FFCC9D" stroke-width="4.9425"/>
<line y1="-2.47125" x2="3475.19" y2="-2.47125" transform="matrix(0.491369 -0.674353 0.993643 -0.303735 -580.118 363.173)" stroke="#FFCC9D" stroke-width="4.9425"/>
<line y1="-2.47125" x2="3475.19" y2="-2.47125" transform="matrix(0.491369 -0.674353 0.993643 -0.303735 -571.875 384.67)" stroke="#FFCC9D" stroke-width="4.9425"/>
<line y1="-2.47125" x2="3475.19" y2="-2.47125" transform="matrix(0.491369 -0.674353 0.993643 -0.303735 -563.633 406.164)" stroke="#FFCC9D" stroke-width="4.9425"/>
<line y1="-2.47125" x2="3475.19" y2="-2.47125" transform="matrix(0.491369 -0.674353 0.993642 -0.303735 -555.389 427.662)" stroke="#FFCC9D" stroke-width="4.9425"/>
<line y1="-2.47125" x2="3475.19" y2="-2.47125" transform="matrix(0.491369 -0.674353 0.993643 -0.303735 -547.146 449.158)" stroke="#FFCC9D" stroke-width="4.9425"/>
<line y1="-2.47125" x2="3475.19" y2="-2.47125" transform="matrix(0.491369 -0.674353 0.993643 -0.303735 -538.903 470.653)" stroke="#FFCC9D" stroke-width="4.9425"/>
<line y1="-2.47125" x2="3475.19" y2="-2.47125" transform="matrix(0.491369 -0.674353 0.993643 -0.303735 -530.66 492.149)" stroke="#FFCC9D" stroke-width="4.9425"/>
<line y1="-2.47125" x2="3475.19" y2="-2.47125" transform="matrix(0.491369 -0.674353 0.993643 -0.303735 -522.417 513.644)" stroke="#FFCC9D" stroke-width="4.9425"/>
<line y1="-2.47125" x2="3475.19" y2="-2.47125" transform="matrix(0.491369 -0.674353 0.993643 -0.303735 -514.173 535.142)" stroke="#FFCC9D" stroke-width="4.9425"/>
<line y1="-2.47125" x2="3475.19" y2="-2.47125" transform="matrix(0.491369 -0.674353 0.993643 -0.303735 -505.93 556.637)" stroke="#FFCC9D" stroke-width="4.9425"/>
<line y1="-2.47125" x2="3475.19" y2="-2.47125" transform="matrix(0.491369 -0.674353 0.993642 -0.303735 -497.687 578.133)" stroke="#FFCC9D" stroke-width="4.9425"/>
<line y1="-2.47125" x2="3475.19" y2="-2.47125" transform="matrix(0.491369 -0.674353 0.993643 -0.303735 -489.444 599.629)" stroke="#FFCC9D" stroke-width="4.9425"/>
<line y1="-2.47125" x2="3475.19" y2="-2.47125" transform="matrix(0.491369 -0.674353 0.993643 -0.303735 -481.201 621.124)" stroke="#FFCC9D" stroke-width="4.9425"/>
<line y1="-2.47125" x2="3475.19" y2="-2.47125" transform="matrix(0.491369 -0.674353 0.993642 -0.303735 -472.958 642.621)" stroke="#FFCC9D" stroke-width="4.9425"/>
<line y1="-2.47125" x2="3475.19" y2="-2.47125" transform="matrix(0.491369 -0.674353 0.993643 -0.303735 -464.715 664.117)" stroke="#FFCC9D" stroke-width="4.9425"/>
<line y1="-2.47125" x2="3475.19" y2="-2.47125" transform="matrix(0.491369 -0.674353 0.993643 -0.303735 -703.766 40.7302)" stroke="#FFCC9D" stroke-width="4.9425"/>
<line y1="-2.47125" x2="3475.19" y2="-2.47125" transform="matrix(0.491369 -0.674353 0.993643 -0.303735 -448.345 706.804)" stroke="#FFCC9D" stroke-width="4.9425"/>
<line y1="-2.47125" x2="3475.19" y2="-2.47125" transform="matrix(0.491369 -0.674353 0.993643 -0.303735 -440.103 728.301)" stroke="#FFCC9D" stroke-width="4.9425"/>
<line y1="-2.47125" x2="3475.19" y2="-2.47125" transform="matrix(0.491369 -0.674353 0.993643 -0.303735 -431.859 749.797)" stroke="#FFCC9D" stroke-width="4.9425"/>
<line y1="-2.47125" x2="3475.19" y2="-2.47125" transform="matrix(0.491369 -0.674353 0.993642 -0.303735 -423.616 771.292)" stroke="#FFCC9D" stroke-width="4.9425"/>
<line y1="-2.47125" x2="3475.19" y2="-2.47125" transform="matrix(0.491369 -0.674353 0.993642 -0.303735 -415.373 792.789)" stroke="#FFCC9D" stroke-width="4.9425"/>
<line y1="-2.47125" x2="3475.19" y2="-2.47125" transform="matrix(0.491369 -0.674353 0.993643 -0.303735 -407.13 814.284)" stroke="#FFCC9D" stroke-width="4.9425"/>
<line y1="-2.47125" x2="3475.19" y2="-2.47125" transform="matrix(0.491369 -0.674353 0.993643 -0.303735 -398.887 835.78)" stroke="#FFCC9D" stroke-width="4.9425"/>
<line y1="-2.47125" x2="3475.19" y2="-2.47125" transform="matrix(0.491369 -0.674353 0.993643 -0.303735 -390.644 857.276)" stroke="#FFCC9D" stroke-width="4.9425"/>
<line y1="-2.47125" x2="3475.19" y2="-2.47125" transform="matrix(0.491369 -0.674353 0.993643 -0.303735 -382.401 878.772)" stroke="#FFCC9D" stroke-width="4.9425"/>
<line y1="-2.47125" x2="3475.19" y2="-2.47125" transform="matrix(0.491369 -0.674353 0.993643 -0.303735 -374.158 900.268)" stroke="#FFCC9D" stroke-width="4.9425"/>
<line y1="-2.47125" x2="3475.19" y2="-2.47125" transform="matrix(0.491369 -0.674353 0.993643 -0.303735 -365.915 921.764)" stroke="#FFCC9D" stroke-width="4.9425"/>
<line y1="-2.47125" x2="3475.19" y2="-2.47125" transform="matrix(0.491369 -0.674353 0.993642 -0.303735 -357.672 943.26)" stroke="#FFCC9D" stroke-width="4.9425"/>
<line y1="-2.47125" x2="3475.19" y2="-2.47125" transform="matrix(0.491369 -0.674353 0.993643 -0.303735 -349.429 964.756)" stroke="#FFCC9D" stroke-width="4.9425"/>
<line y1="-2.47125" x2="3475.19" y2="-2.47125" transform="matrix(0.491369 -0.674353 0.993643 -0.303735 -341.188 986.246)" stroke="#FFCC9D" stroke-width="4.9425"/>
<line y1="-2.47125" x2="3475.19" y2="-2.47125" transform="matrix(0.491369 -0.674353 0.993643 -0.303735 -332.944 1007.74)" stroke="#FFCC9D" stroke-width="4.9425"/>
<line y1="-2.47125" x2="3475.19" y2="-2.47125" transform="matrix(0.491369 -0.674353 0.993643 -0.303735 -324.702 1029.24)" stroke="#FFCC9D" stroke-width="4.9425"/>
<line y1="-2.47125" x2="3475.19" y2="-2.47125" transform="matrix(0.491369 -0.674353 0.993642 -0.303735 -316.458 1050.73)" stroke="#FFCC9D" stroke-width="4.9425"/>
<line y1="-2.47125" x2="3475.19" y2="-2.47125" transform="matrix(0.491369 -0.674353 0.993643 -0.303735 -308.215 1072.23)" stroke="#FFCC9D" stroke-width="4.9425"/>
<line y1="-2.47125" x2="3475.19" y2="-2.47125" transform="matrix(0.491369 -0.674353 0.993642 -0.303735 -299.972 1093.73)" stroke="#FFCC9D" stroke-width="4.9425"/>
<line y1="-2.47125" x2="3475.19" y2="-2.47125" transform="matrix(0.491369 -0.674353 0.993643 -0.303735 -291.729 1115.22)" stroke="#FFCC9D" stroke-width="4.9425"/>
<line y1="-2.47125" x2="3475.19" y2="-2.47125" transform="matrix(0.491369 -0.674353 0.993643 -0.303736 -283.486 1136.72)" stroke="#FFCC9D" stroke-width="4.9425"/>
<line y1="-2.47125" x2="3475.19" y2="-2.47125" transform="matrix(0.491369 -0.674353 0.993642 -0.303735 -275.243 1158.21)" stroke="#FFCC9D" stroke-width="4.9425"/>
<line y1="-2.47125" x2="3475.19" y2="-2.47125" transform="matrix(0.491369 -0.674353 0.993642 -0.303735 -267 1179.71)" stroke="#FFCC9D" stroke-width="4.9425"/>
<line y1="-2.47125" x2="3475.19" y2="-2.47125" transform="matrix(0.491369 -0.674353 0.993642 -0.303735 -258.757 1201.21)" stroke="#FFCC9D" stroke-width="4.9425"/>
<line y1="-2.47125" x2="3475.19" y2="-2.47125" transform="matrix(0.491369 -0.674353 0.993643 -0.303735 -250.514 1222.7)" stroke="#FFCC9D" stroke-width="4.9425"/>
<line y1="-2.47125" x2="3475.19" y2="-2.47125" transform="matrix(0.491369 -0.674353 0.993643 -0.303736 -242.271 1244.2)" stroke="#FFCC9D" stroke-width="4.9425"/>
<line y1="-2.47125" x2="3475.19" y2="-2.47125" transform="matrix(0.491369 -0.674353 0.993643 -0.303735 -234.027 1265.69)" stroke="#FFCC9D" stroke-width="4.9425"/>
<line y1="-2.47125" x2="3475.19" y2="-2.47125" transform="matrix(0.491369 -0.674353 0.993643 -0.303735 -225.785 1287.19)" stroke="#FFCC9D" stroke-width="4.9425"/>
<line y1="-2.47125" x2="3475.19" y2="-2.47125" transform="matrix(0.491369 -0.674353 0.993643 -0.303735 -217.542 1308.68)" stroke="#FFCC9D" stroke-width="4.9425"/>
<line y1="-2.47125" x2="3475.19" y2="-2.47125" transform="matrix(0.491369 -0.674353 0.993643 -0.303735 -456.588 685.308)" stroke="#FFCC9D" stroke-width="4.9425"/>
<line y1="-2.47125" x2="3475.19" y2="-2.47125" transform="matrix(0.491369 -0.674353 0.993642 -0.303735 -201.172 1351.37)" stroke="#FFCC9D" stroke-width="4.9425"/>
<line y1="-2.47125" x2="3475.19" y2="-2.47125" transform="matrix(0.491369 -0.674353 0.993642 -0.303735 -192.929 1372.87)" stroke="#FFCC9D" stroke-width="4.9425"/>
<line y1="-2.47125" x2="3475.19" y2="-2.47125" transform="matrix(0.491369 -0.674353 0.993642 -0.303735 -184.686 1394.36)" stroke="#FFCC9D" stroke-width="4.9425"/>
<line y1="-2.47125" x2="3475.19" y2="-2.47125" transform="matrix(0.491369 -0.674353 0.993643 -0.303735 -176.442 1415.86)" stroke="#FFCC9D" stroke-width="4.9425"/>
<line y1="-2.47125" x2="3475.19" y2="-2.47125" transform="matrix(0.491369 -0.674353 0.993643 -0.303735 -168.2 1437.36)" stroke="#FFCC9D" stroke-width="4.9425"/>
<line y1="-2.47125" x2="3475.19" y2="-2.47125" transform="matrix(0.491369 -0.674353 0.993643 -0.303735 -159.957 1458.85)" stroke="#FFCC9D" stroke-width="4.9425"/>
<line y1="-2.47125" x2="3475.19" y2="-2.47125" transform="matrix(0.491369 -0.674353 0.993642 -0.303735 -151.714 1480.35)" stroke="#FFCC9D" stroke-width="4.9425"/>
<line y1="-2.47125" x2="3475.19" y2="-2.47125" transform="matrix(0.491369 -0.674353 0.993643 -0.303735 -143.47 1501.84)" stroke="#FFCC9D" stroke-width="4.9425"/>
<line y1="-2.47125" x2="3475.19" y2="-2.47125" transform="matrix(0.491369 -0.674353 0.993643 -0.303735 -135.228 1523.34)" stroke="#FFCC9D" stroke-width="4.9425"/>
<line y1="-2.47125" x2="3475.19" y2="-2.47125" transform="matrix(0.491369 -0.674353 0.993643 -0.303735 -126.984 1544.84)" stroke="#FFCC9D" stroke-width="4.9425"/>
<line y1="-2.47125" x2="3475.19" y2="-2.47125" transform="matrix(0.491369 -0.674353 0.993643 -0.303735 -118.741 1566.33)" stroke="#FFCC9D" stroke-width="4.9425"/>
<line y1="-2.47125" x2="3475.19" y2="-2.47125" transform="matrix(0.491369 -0.674353 0.993642 -0.303735 -110.499 1587.83)" stroke="#FFCC9D" stroke-width="4.9425"/>
<line y1="-2.47125" x2="3475.19" y2="-2.47125" transform="matrix(0.491369 -0.674353 0.993643 -0.303735 -102.255 1609.32)" stroke="#FFCC9D" stroke-width="4.9425"/>
<line y1="-2.47125" x2="3475.19" y2="-2.47125" transform="matrix(0.491369 -0.674353 0.993642 -0.303735 -94.0122 1630.82)" stroke="#FFCC9D" stroke-width="4.9425"/>
<line y1="-2.47125" x2="3475.19" y2="-2.47125" transform="matrix(0.491369 -0.674353 0.993643 -0.303735 -85.7695 1652.31)" stroke="#FFCC9D" stroke-width="4.9425"/>
<line y1="-2.47125" x2="3475.19" y2="-2.47125" transform="matrix(0.491369 -0.674353 0.993643 -0.303735 -77.5264 1673.81)" stroke="#FFCC9D" stroke-width="4.9425"/>
<line y1="-2.47125" x2="3475.19" y2="-2.47125" transform="matrix(0.491369 -0.674353 0.993643 -0.303735 -69.2827 1695.31)" stroke="#FFCC9D" stroke-width="4.9425"/>
<line y1="-2.47125" x2="3475.19" y2="-2.47125" transform="matrix(0.491369 -0.674353 0.993642 -0.303735 -61.04 1716.8)" stroke="#FFCC9D" stroke-width="4.9425"/>
<line y1="-2.47125" x2="3475.19" y2="-2.47125" transform="matrix(0.491369 -0.674353 0.993643 -0.303735 -52.7969 1738.3)" stroke="#FFCC9D" stroke-width="4.9425"/>
<line y1="-2.47125" x2="3475.19" y2="-2.47125" transform="matrix(0.491369 -0.674353 0.993642 -0.303735 -44.5532 1759.79)" stroke="#FFCC9D" stroke-width="4.9425"/>
<line y1="-2.47125" x2="3475.19" y2="-2.47125" transform="matrix(0.491369 -0.674353 0.993643 -0.303735 -36.3101 1781.29)" stroke="#FFCC9D" stroke-width="4.9425"/>
<line y1="-2.47125" x2="3475.19" y2="-2.47125" transform="matrix(0.491369 -0.674353 0.993643 -0.303735 -28.0669 1802.79)" stroke="#FFCC9D" stroke-width="4.9425"/>
<line y1="-2.47125" x2="3475.19" y2="-2.47125" transform="matrix(0.491369 -0.674353 0.993642 -0.303735 -19.8242 1824.28)" stroke="#FFCC9D" stroke-width="4.9425"/>
<line y1="-2.47125" x2="3475.19" y2="-2.47125" transform="matrix(0.491369 -0.674353 0.993642 -0.303735 -11.5815 1845.78)" stroke="#FFCC9D" stroke-width="4.9425"/>
<line y1="-2.47125" x2="3475.19" y2="-2.47125" transform="matrix(0.491369 -0.674353 0.993643 -0.303735 -3.3374 1867.27)" stroke="#FFCC9D" stroke-width="4.9425"/>
<line y1="-2.47125" x2="3475.19" y2="-2.47125" transform="matrix(0.491369 -0.674353 0.993643 -0.303735 4.90479 1888.77)" stroke="#FFCC9D" stroke-width="4.9425"/>
<line y1="-2.47125" x2="3475.19" y2="-2.47125" transform="matrix(0.491369 -0.674353 0.993643 -0.303735 13.1475 1910.27)" stroke="#FFCC9D" stroke-width="4.9425"/>
<line y1="-2.47125" x2="3475.19" y2="-2.47125" transform="matrix(0.491369 -0.674353 0.993642 -0.303735 21.3911 1931.76)" stroke="#FFCC9D" stroke-width="4.9425"/>
<line y1="-2.47125" x2="3475.19" y2="-2.47125" transform="matrix(0.491369 -0.674353 0.993643 -0.303735 29.6348 1953.26)" stroke="#FFCC9D" stroke-width="4.9425"/>
<line y1="-2.47125" x2="3475.19" y2="-2.47125" transform="matrix(0.491369 -0.674353 0.993643 -0.303735 -209.415 1329.88)" stroke="#FFCC9D" stroke-width="4.9425"/>
</g>
<path d="M407.877 231.699L328.797 299.905C349.555 306.495 365.701 317.204 377.233 332.031C388.766 346.859 394.532 364.323 394.532 384.422C394.532 408.805 386.789 430.882 371.302 450.652C356.145 470.422 335.222 485.908 308.532 497.111C281.843 508.314 252.023 513.916 219.073 513.916C193.702 513.916 169.483 510.95 146.418 505.019C123.683 499.088 103.419 490.027 85.6256 477.835L138.51 396.778C151.69 405.016 166.024 411.276 181.51 415.56C196.997 419.843 212.154 421.985 226.981 421.985C243.127 421.985 255.483 419.514 264.05 414.571C272.617 409.299 276.9 401.886 276.9 392.33C276.9 378.491 265.368 371.572 242.303 371.572H194.361L208.694 299.905L268.992 248.009H146.418L164.211 160.032H422.21L407.877 231.699Z" fill="#FF7B00"/>
</svg>
