<svg width="500" height="500" viewBox="0 0 500 500" fill="none" xmlns="http://www.w3.org/2000/svg">
<rect width="500" height="500" fill="#FF7B00" fill-opacity="0.08"/>
<mask id="mask0" mask-type="alpha" maskUnits="userSpaceOnUse" x="0" y="0" width="500" height="500">
<rect width="500" height="500" fill="#676767"/>
</mask>
<g mask="url(#mask0)">
<line y1="-1.5" x2="2496.16" y2="-1.5" transform="matrix(0.692051 -0.712325 0.950819 -0.329026 61.4353 1500.02)" stroke="#FF7B00" stroke-opacity="0.5" stroke-width="3"/>
<line y1="-1.5" x2="2496.16" y2="-1.5" transform="matrix(0.692051 -0.712325 0.950819 -0.329026 69.7747 1516.33)" stroke="#FF7B00" stroke-opacity="0.5" stroke-width="3"/>
<line y1="-1.5" x2="2496.16" y2="-1.5" transform="matrix(0.692051 -0.712325 0.950819 -0.329026 78.1132 1532.63)" stroke="#FF7B00" stroke-opacity="0.5" stroke-width="3"/>
<line y1="-1.5" x2="2496.16" y2="-1.5" transform="matrix(0.692051 -0.712325 0.950819 -0.329026 86.4523 1548.94)" stroke="#FF7B00" stroke-opacity="0.5" stroke-width="3"/>
<line y1="-1.5" x2="2496.16" y2="-1.5" transform="matrix(0.692051 -0.712325 0.950819 -0.329026 94.7911 1565.25)" stroke="#FF7B00" stroke-opacity="0.5" stroke-width="3"/>
<line y1="-1.5" x2="2496.16" y2="-1.5" transform="matrix(0.692051 -0.712325 0.950819 -0.329026 103.13 1581.56)" stroke="#FF7B00" stroke-opacity="0.5" stroke-width="3"/>
<line y1="-1.5" x2="2496.16" y2="-1.5" transform="matrix(0.692051 -0.712325 0.950819 -0.329026 111.469 1597.87)" stroke="#FF7B00" stroke-opacity="0.5" stroke-width="3"/>
<line y1="-1.5" x2="2496.16" y2="-1.5" transform="matrix(0.692051 -0.712325 0.950819 -0.329026 119.808 1614.18)" stroke="#FF7B00" stroke-opacity="0.5" stroke-width="3"/>
<line y1="-1.5" x2="2496.16" y2="-1.5" transform="matrix(0.692051 -0.712325 0.950819 -0.329026 128.147 1630.49)" stroke="#FF7B00" stroke-opacity="0.5" stroke-width="3"/>
<line y1="-1.5" x2="2496.16" y2="-1.5" transform="matrix(0.692051 -0.712325 0.950819 -0.329026 136.486 1646.8)" stroke="#FF7B00" stroke-opacity="0.5" stroke-width="3"/>
<line y1="-1.5" x2="2496.16" y2="-1.5" transform="matrix(0.692051 -0.712325 0.950819 -0.329026 144.824 1663.11)" stroke="#FF7B00" stroke-opacity="0.5" stroke-width="3"/>
<line y1="-1.5" x2="2496.16" y2="-1.5" transform="matrix(0.692051 -0.712325 0.950819 -0.329026 153.164 1679.42)" stroke="#FF7B00" stroke-opacity="0.5" stroke-width="3"/>
<line y1="-1.5" x2="2496.16" y2="-1.5" transform="matrix(0.692051 -0.712325 0.950819 -0.329026 161.502 1695.73)" stroke="#FF7B00" stroke-opacity="0.5" stroke-width="3"/>
<line y1="-1.5" x2="2496.16" y2="-1.5" transform="matrix(0.692051 -0.712325 0.950819 -0.329026 169.841 1712.04)" stroke="#FF7B00" stroke-opacity="0.5" stroke-width="3"/>
<line y1="-1.5" x2="2496.16" y2="-1.5" transform="matrix(0.692051 -0.712325 0.950819 -0.329026 178.18 1728.35)" stroke="#FF7B00" stroke-opacity="0.5" stroke-width="3"/>
<line y1="-1.5" x2="2496.16" y2="-1.5" transform="matrix(0.692051 -0.712325 0.950819 -0.329026 186.519 1744.66)" stroke="#FF7B00" stroke-opacity="0.5" stroke-width="3"/>
<line y1="-1.5" x2="2496.16" y2="-1.5" transform="matrix(0.692051 -0.712325 0.950819 -0.329026 194.858 1760.97)" stroke="#FF7B00" stroke-opacity="0.5" stroke-width="3"/>
<line y1="-1.5" x2="2496.16" y2="-1.5" transform="matrix(0.692051 -0.712325 0.950819 -0.329026 203.197 1777.28)" stroke="#FF7B00" stroke-opacity="0.5" stroke-width="3"/>
<line y1="-1.5" x2="2496.16" y2="-1.5" transform="matrix(0.692051 -0.712325 0.950819 -0.329026 211.536 1793.58)" stroke="#FF7B00" stroke-opacity="0.5" stroke-width="3"/>
<line y1="-1.5" x2="2496.16" y2="-1.5" transform="matrix(0.692051 -0.712325 0.950819 -0.329026 219.875 1809.89)" stroke="#FF7B00" stroke-opacity="0.5" stroke-width="3"/>
<line y1="-1.5" x2="2496.16" y2="-1.5" transform="matrix(0.692051 -0.712325 0.950819 -0.329026 228.214 1826.2)" stroke="#FF7B00" stroke-opacity="0.5" stroke-width="3"/>
<line y1="-1.5" x2="2496.16" y2="-1.5" transform="matrix(0.69205 -0.712325 0.950819 -0.329026 236.553 1842.51)" stroke="#FF7B00" stroke-opacity="0.5" stroke-width="3"/>
<line y1="-1.5" x2="2496.16" y2="-1.5" transform="matrix(0.692051 -0.712325 0.950819 -0.329026 244.892 1858.82)" stroke="#FF7B00" stroke-opacity="0.5" stroke-width="3"/>
<line y1="-1.5" x2="2496.16" y2="-1.5" transform="matrix(0.692051 -0.712325 0.950819 -0.329026 253.23 1875.13)" stroke="#FF7B00" stroke-opacity="0.5" stroke-width="3"/>
<line y1="-1.5" x2="2496.16" y2="-1.5" transform="matrix(0.692051 -0.712325 0.950819 -0.329026 261.569 1891.44)" stroke="#FF7B00" stroke-opacity="0.5" stroke-width="3"/>
<line y1="-1.5" x2="2496.16" y2="-1.5" transform="matrix(0.692051 -0.712325 0.950819 -0.329026 269.908 1907.75)" stroke="#FF7B00" stroke-opacity="0.5" stroke-width="3"/>
<line y1="-1.5" x2="2496.16" y2="-1.5" transform="matrix(0.692051 -0.712325 0.950819 -0.329026 278.247 1924.06)" stroke="#FF7B00" stroke-opacity="0.5" stroke-width="3"/>
<line y1="-1.5" x2="2496.16" y2="-1.5" transform="matrix(0.692051 -0.712325 0.950819 -0.329026 286.586 1940.37)" stroke="#FF7B00" stroke-opacity="0.5" stroke-width="3"/>
<line y1="-1.5" x2="2496.16" y2="-1.5" transform="matrix(0.692051 -0.712325 0.950819 -0.329026 294.925 1956.68)" stroke="#FF7B00" stroke-opacity="0.5" stroke-width="3"/>
<line y1="-1.5" x2="2496.16" y2="-1.5" transform="matrix(0.692051 -0.712325 0.950819 -0.329026 53.0963 1483.71)" stroke="#FF7B00" stroke-opacity="0.5" stroke-width="3"/>
<line y1="-1.5" x2="2496.16" y2="-1.5" transform="matrix(0.692051 -0.712325 0.950819 -0.329026 311.485 1989.07)" stroke="#FF7B00" stroke-opacity="0.5" stroke-width="3"/>
<line y1="-1.5" x2="2496.16" y2="-1.5" transform="matrix(0.692051 -0.712325 0.950819 -0.329026 319.823 2005.38)" stroke="#FF7B00" stroke-opacity="0.5" stroke-width="3"/>
<line y1="-1.5" x2="2496.16" y2="-1.5" transform="matrix(0.69205 -0.712325 0.950819 -0.329026 328.163 2021.69)" stroke="#FF7B00" stroke-opacity="0.5" stroke-width="3"/>
<line y1="-1.5" x2="2496.16" y2="-1.5" transform="matrix(0.692051 -0.712325 0.950819 -0.329026 336.502 2037.99)" stroke="#FF7B00" stroke-opacity="0.5" stroke-width="3"/>
<line y1="-1.5" x2="2496.16" y2="-1.5" transform="matrix(0.692051 -0.712325 0.950819 -0.329026 344.841 2054.3)" stroke="#FF7B00" stroke-opacity="0.5" stroke-width="3"/>
<line y1="-1.5" x2="2496.16" y2="-1.5" transform="matrix(0.692051 -0.712325 0.950819 -0.329025 353.179 2070.61)" stroke="#FF7B00" stroke-opacity="0.5" stroke-width="3"/>
<line y1="-1.5" x2="2496.16" y2="-1.5" transform="matrix(0.692051 -0.712325 0.950819 -0.329026 361.518 2086.92)" stroke="#FF7B00" stroke-opacity="0.5" stroke-width="3"/>
<line y1="-1.5" x2="2496.16" y2="-1.5" transform="matrix(0.692051 -0.712325 0.950819 -0.329026 369.857 2103.23)" stroke="#FF7B00" stroke-opacity="0.5" stroke-width="3"/>
<line y1="-1.5" x2="2496.16" y2="-1.5" transform="matrix(0.692051 -0.712325 0.950819 -0.329026 378.196 2119.54)" stroke="#FF7B00" stroke-opacity="0.5" stroke-width="3"/>
<line y1="-1.5" x2="2496.16" y2="-1.5" transform="matrix(0.69205 -0.712325 0.950819 -0.329026 386.535 2135.85)" stroke="#FF7B00" stroke-opacity="0.5" stroke-width="3"/>
<line y1="-1.5" x2="2496.16" y2="-1.5" transform="matrix(0.692051 -0.712325 0.950819 -0.329026 394.874 2152.16)" stroke="#FF7B00" stroke-opacity="0.5" stroke-width="3"/>
<line y1="-1.5" x2="2496.16" y2="-1.5" transform="matrix(0.692051 -0.712325 0.950819 -0.329026 403.213 2168.47)" stroke="#FF7B00" stroke-opacity="0.5" stroke-width="3"/>
<line y1="-1.5" x2="2496.16" y2="-1.5" transform="matrix(0.692051 -0.712325 0.950819 -0.329026 411.552 2184.78)" stroke="#FF7B00" stroke-opacity="0.5" stroke-width="3"/>
<line y1="-1.5" x2="2496.16" y2="-1.5" transform="matrix(0.692051 -0.712325 0.950819 -0.329026 419.89 2201.09)" stroke="#FF7B00" stroke-opacity="0.5" stroke-width="3"/>
<line y1="-1.5" x2="2496.16" y2="-1.5" transform="matrix(0.69205 -0.712325 0.950819 -0.329026 428.23 2217.4)" stroke="#FF7B00" stroke-opacity="0.5" stroke-width="3"/>
<line y1="-1.5" x2="2496.16" y2="-1.5" transform="matrix(0.692051 -0.712325 0.950819 -0.329026 436.568 2233.71)" stroke="#FF7B00" stroke-opacity="0.5" stroke-width="3"/>
<line y1="-1.5" x2="2496.16" y2="-1.5" transform="matrix(0.692051 -0.712325 0.950819 -0.329026 444.907 2250.02)" stroke="#FF7B00" stroke-opacity="0.5" stroke-width="3"/>
<line y1="-1.5" x2="2496.16" y2="-1.5" transform="matrix(0.692051 -0.712325 0.950819 -0.329026 453.246 2266.33)" stroke="#FF7B00" stroke-opacity="0.5" stroke-width="3"/>
<line y1="-1.5" x2="2496.16" y2="-1.5" transform="matrix(0.692051 -0.712325 0.950819 -0.329026 303.146 1972.76)" stroke="#FF7B00" stroke-opacity="0.5" stroke-width="3"/>
<line y1="-1.5" x2="2496.16" y2="-1.5" transform="matrix(0.692051 -0.712325 0.950819 -0.329026 -703.903 47.2123)" stroke="#FF7B00" stroke-opacity="0.5" stroke-width="3"/>
<line y1="-1.5" x2="2496.16" y2="-1.5" transform="matrix(0.692051 -0.712325 0.950819 -0.329026 -695.564 63.522)" stroke="#FF7B00" stroke-opacity="0.5" stroke-width="3"/>
<line y1="-1.5" x2="2496.16" y2="-1.5" transform="matrix(0.692051 -0.712325 0.950819 -0.329026 -687.225 79.8314)" stroke="#FF7B00" stroke-opacity="0.5" stroke-width="3"/>
<line y1="-1.5" x2="2496.16" y2="-1.5" transform="matrix(0.692051 -0.712325 0.950819 -0.329026 -678.886 96.1406)" stroke="#FF7B00" stroke-opacity="0.5" stroke-width="3"/>
<line y1="-1.5" x2="2496.16" y2="-1.5" transform="matrix(0.692051 -0.712325 0.950819 -0.329026 -670.547 112.451)" stroke="#FF7B00" stroke-opacity="0.5" stroke-width="3"/>
<line y1="-1.5" x2="2496.16" y2="-1.5" transform="matrix(0.692051 -0.712325 0.950819 -0.329026 -662.208 128.76)" stroke="#FF7B00" stroke-opacity="0.5" stroke-width="3"/>
<line y1="-1.5" x2="2496.16" y2="-1.5" transform="matrix(0.692051 -0.712325 0.950819 -0.329026 -653.869 145.069)" stroke="#FF7B00" stroke-opacity="0.5" stroke-width="3"/>
<line y1="-1.5" x2="2496.16" y2="-1.5" transform="matrix(0.692051 -0.712325 0.950819 -0.329026 -645.53 161.379)" stroke="#FF7B00" stroke-opacity="0.5" stroke-width="3"/>
<line y1="-1.5" x2="2496.16" y2="-1.5" transform="matrix(0.692051 -0.712325 0.950819 -0.329026 -637.191 177.689)" stroke="#FF7B00" stroke-opacity="0.5" stroke-width="3"/>
<line y1="-1.5" x2="2496.16" y2="-1.5" transform="matrix(0.692051 -0.712325 0.950819 -0.329026 -628.852 193.998)" stroke="#FF7B00" stroke-opacity="0.5" stroke-width="3"/>
<line y1="-1.5" x2="2496.16" y2="-1.5" transform="matrix(0.692051 -0.712325 0.950819 -0.329026 -620.513 210.307)" stroke="#FF7B00" stroke-opacity="0.5" stroke-width="3"/>
<line y1="-1.5" x2="2496.16" y2="-1.5" transform="matrix(0.692051 -0.712325 0.950819 -0.329026 -612.174 226.617)" stroke="#FF7B00" stroke-opacity="0.5" stroke-width="3"/>
<line y1="-1.5" x2="2496.16" y2="-1.5" transform="matrix(0.692051 -0.712325 0.950819 -0.329026 -603.835 242.928)" stroke="#FF7B00" stroke-opacity="0.5" stroke-width="3"/>
<line y1="-1.5" x2="2496.16" y2="-1.5" transform="matrix(0.692051 -0.712325 0.950819 -0.329026 -595.496 259.237)" stroke="#FF7B00" stroke-opacity="0.5" stroke-width="3"/>
<line y1="-1.5" x2="2496.16" y2="-1.5" transform="matrix(0.692051 -0.712325 0.950819 -0.329026 -587.156 275.549)" stroke="#FF7B00" stroke-opacity="0.5" stroke-width="3"/>
<line y1="-1.5" x2="2496.16" y2="-1.5" transform="matrix(0.692051 -0.712325 0.950819 -0.329026 -578.817 291.859)" stroke="#FF7B00" stroke-opacity="0.5" stroke-width="3"/>
<line y1="-1.5" x2="2496.16" y2="-1.5" transform="matrix(0.692051 -0.712325 0.950819 -0.329026 -570.478 308.167)" stroke="#FF7B00" stroke-opacity="0.5" stroke-width="3"/>
<line y1="-1.5" x2="2496.16" y2="-1.5" transform="matrix(0.692051 -0.712325 0.950819 -0.329026 -562.138 324.478)" stroke="#FF7B00" stroke-opacity="0.5" stroke-width="3"/>
<line y1="-1.5" x2="2496.16" y2="-1.5" transform="matrix(0.692051 -0.712325 0.950819 -0.329026 -553.8 340.787)" stroke="#FF7B00" stroke-opacity="0.5" stroke-width="3"/>
<line y1="-1.5" x2="2496.16" y2="-1.5" transform="matrix(0.692051 -0.712325 0.950819 -0.329026 -545.461 357.096)" stroke="#FF7B00" stroke-opacity="0.5" stroke-width="3"/>
<line y1="-1.5" x2="2496.16" y2="-1.5" transform="matrix(0.692051 -0.712325 0.950819 -0.329026 -537.122 373.406)" stroke="#FF7B00" stroke-opacity="0.5" stroke-width="3"/>
<line y1="-1.5" x2="2496.16" y2="-1.5" transform="matrix(0.692051 -0.712325 0.950819 -0.329026 -528.783 389.715)" stroke="#FF7B00" stroke-opacity="0.5" stroke-width="3"/>
<line y1="-1.5" x2="2496.16" y2="-1.5" transform="matrix(0.692051 -0.712325 0.950819 -0.329026 -520.443 406.026)" stroke="#FF7B00" stroke-opacity="0.5" stroke-width="3"/>
<line y1="-1.5" x2="2496.16" y2="-1.5" transform="matrix(0.692051 -0.712325 0.950819 -0.329026 -512.105 422.335)" stroke="#FF7B00" stroke-opacity="0.5" stroke-width="3"/>
<line y1="-1.5" x2="2496.16" y2="-1.5" transform="matrix(0.692051 -0.712325 0.950819 -0.329026 -503.766 438.644)" stroke="#FF7B00" stroke-opacity="0.5" stroke-width="3"/>
<line y1="-1.5" x2="2496.16" y2="-1.5" transform="matrix(0.692051 -0.712325 0.950819 -0.329026 -495.427 454.954)" stroke="#FF7B00" stroke-opacity="0.5" stroke-width="3"/>
<line y1="-1.5" x2="2496.16" y2="-1.5" transform="matrix(0.692051 -0.712325 0.950819 -0.329026 -487.088 471.263)" stroke="#FF7B00" stroke-opacity="0.5" stroke-width="3"/>
<line y1="-1.5" x2="2496.16" y2="-1.5" transform="matrix(0.692051 -0.712325 0.950819 -0.329026 -478.749 487.573)" stroke="#FF7B00" stroke-opacity="0.5" stroke-width="3"/>
<line y1="-1.5" x2="2496.16" y2="-1.5" transform="matrix(0.692051 -0.712325 0.950819 -0.329026 -470.41 503.883)" stroke="#FF7B00" stroke-opacity="0.5" stroke-width="3"/>
<line y1="-1.5" x2="2496.16" y2="-1.5" transform="matrix(0.692051 -0.712325 0.950819 -0.329026 -712.242 30.9029)" stroke="#FF7B00" stroke-opacity="0.5" stroke-width="3"/>
<line y1="-1.5" x2="2496.16" y2="-1.5" transform="matrix(0.692051 -0.712325 0.950819 -0.329026 -453.85 536.27)" stroke="#FF7B00" stroke-opacity="0.5" stroke-width="3"/>
<line y1="-1.5" x2="2496.16" y2="-1.5" transform="matrix(0.692051 -0.712325 0.950819 -0.329026 -445.511 552.58)" stroke="#FF7B00" stroke-opacity="0.5" stroke-width="3"/>
<line y1="-1.5" x2="2496.16" y2="-1.5" transform="matrix(0.692051 -0.712325 0.950819 -0.329026 -437.172 568.89)" stroke="#FF7B00" stroke-opacity="0.5" stroke-width="3"/>
<line y1="-1.5" x2="2496.16" y2="-1.5" transform="matrix(0.692051 -0.712325 0.950819 -0.329026 -428.833 585.199)" stroke="#FF7B00" stroke-opacity="0.5" stroke-width="3"/>
<line y1="-1.5" x2="2496.16" y2="-1.5" transform="matrix(0.692051 -0.712325 0.950819 -0.329026 -420.494 601.509)" stroke="#FF7B00" stroke-opacity="0.5" stroke-width="3"/>
<line y1="-1.5" x2="2496.16" y2="-1.5" transform="matrix(0.692051 -0.712325 0.950819 -0.329026 -412.155 617.818)" stroke="#FF7B00" stroke-opacity="0.5" stroke-width="3"/>
<line y1="-1.5" x2="2496.16" y2="-1.5" transform="matrix(0.692051 -0.712325 0.950819 -0.329026 -403.816 634.128)" stroke="#FF7B00" stroke-opacity="0.5" stroke-width="3"/>
<line y1="-1.5" x2="2496.16" y2="-1.5" transform="matrix(0.692051 -0.712325 0.950819 -0.329026 -395.477 650.437)" stroke="#FF7B00" stroke-opacity="0.5" stroke-width="3"/>
<line y1="-1.5" x2="2496.16" y2="-1.5" transform="matrix(0.692051 -0.712325 0.950819 -0.329026 -387.138 666.747)" stroke="#FF7B00" stroke-opacity="0.5" stroke-width="3"/>
<line y1="-1.5" x2="2496.16" y2="-1.5" transform="matrix(0.692051 -0.712325 0.950819 -0.329026 -378.799 683.056)" stroke="#FF7B00" stroke-opacity="0.5" stroke-width="3"/>
<line y1="-1.5" x2="2496.16" y2="-1.5" transform="matrix(0.692051 -0.712325 0.950819 -0.329026 -370.46 699.366)" stroke="#FF7B00" stroke-opacity="0.5" stroke-width="3"/>
<line y1="-1.5" x2="2496.16" y2="-1.5" transform="matrix(0.692051 -0.712325 0.950819 -0.329026 -362.121 715.675)" stroke="#FF7B00" stroke-opacity="0.5" stroke-width="3"/>
<line y1="-1.5" x2="2496.16" y2="-1.5" transform="matrix(0.692051 -0.712325 0.950819 -0.329026 -353.782 731.985)" stroke="#FF7B00" stroke-opacity="0.5" stroke-width="3"/>
<line y1="-1.5" x2="2496.16" y2="-1.5" transform="matrix(0.692051 -0.712325 0.950819 -0.329026 -345.445 748.29)" stroke="#FF7B00" stroke-opacity="0.5" stroke-width="3"/>
<line y1="-1.5" x2="2496.16" y2="-1.5" transform="matrix(0.692051 -0.712325 0.950819 -0.329026 -337.106 764.6)" stroke="#FF7B00" stroke-opacity="0.5" stroke-width="3"/>
<line y1="-1.5" x2="2496.16" y2="-1.5" transform="matrix(0.692051 -0.712325 0.950819 -0.329026 -328.768 780.908)" stroke="#FF7B00" stroke-opacity="0.5" stroke-width="3"/>
<line y1="-1.5" x2="2496.16" y2="-1.5" transform="matrix(0.692051 -0.712325 0.950819 -0.329026 -320.428 797.218)" stroke="#FF7B00" stroke-opacity="0.5" stroke-width="3"/>
<line y1="-1.5" x2="2496.16" y2="-1.5" transform="matrix(0.692051 -0.712325 0.950819 -0.329026 -312.089 813.527)" stroke="#FF7B00" stroke-opacity="0.5" stroke-width="3"/>
<line y1="-1.5" x2="2496.16" y2="-1.5" transform="matrix(0.692051 -0.712325 0.950819 -0.329026 -303.751 829.837)" stroke="#FF7B00" stroke-opacity="0.5" stroke-width="3"/>
<line y1="-1.5" x2="2496.16" y2="-1.5" transform="matrix(0.692051 -0.712325 0.950819 -0.329026 -295.412 846.147)" stroke="#FF7B00" stroke-opacity="0.5" stroke-width="3"/>
<line y1="-1.5" x2="2496.16" y2="-1.5" transform="matrix(0.692051 -0.712325 0.950819 -0.329026 -287.073 862.456)" stroke="#FF7B00" stroke-opacity="0.5" stroke-width="3"/>
<line y1="-1.5" x2="2496.16" y2="-1.5" transform="matrix(0.692051 -0.712325 0.950819 -0.329026 -278.734 878.766)" stroke="#FF7B00" stroke-opacity="0.5" stroke-width="3"/>
<line y1="-1.5" x2="2496.16" y2="-1.5" transform="matrix(0.692051 -0.712325 0.950819 -0.329026 -270.394 895.075)" stroke="#FF7B00" stroke-opacity="0.5" stroke-width="3"/>
<line y1="-1.5" x2="2496.16" y2="-1.5" transform="matrix(0.692051 -0.712325 0.950819 -0.329026 -262.056 911.385)" stroke="#FF7B00" stroke-opacity="0.5" stroke-width="3"/>
<line y1="-1.5" x2="2496.16" y2="-1.5" transform="matrix(0.692051 -0.712325 0.950819 -0.329026 -253.717 927.694)" stroke="#FF7B00" stroke-opacity="0.5" stroke-width="3"/>
<line y1="-1.5" x2="2496.16" y2="-1.5" transform="matrix(0.692051 -0.712325 0.950819 -0.329026 -245.377 944.004)" stroke="#FF7B00" stroke-opacity="0.5" stroke-width="3"/>
<line y1="-1.5" x2="2496.16" y2="-1.5" transform="matrix(0.692051 -0.712325 0.950819 -0.329026 -237.038 960.313)" stroke="#FF7B00" stroke-opacity="0.5" stroke-width="3"/>
<line y1="-1.5" x2="2496.16" y2="-1.5" transform="matrix(0.692051 -0.712325 0.950819 -0.329026 -228.7 976.622)" stroke="#FF7B00" stroke-opacity="0.5" stroke-width="3"/>
<line y1="-1.5" x2="2496.16" y2="-1.5" transform="matrix(0.692051 -0.712325 0.950819 -0.329026 -220.361 992.932)" stroke="#FF7B00" stroke-opacity="0.5" stroke-width="3"/>
<line y1="-1.5" x2="2496.16" y2="-1.5" transform="matrix(0.692051 -0.712325 0.950819 -0.329026 -462.188 519.961)" stroke="#FF7B00" stroke-opacity="0.5" stroke-width="3"/>
<line y1="-1.5" x2="2496.16" y2="-1.5" transform="matrix(0.692051 -0.712325 0.950819 -0.329026 -203.801 1025.32)" stroke="#FF7B00" stroke-opacity="0.5" stroke-width="3"/>
<line y1="-1.5" x2="2496.16" y2="-1.5" transform="matrix(0.692051 -0.712325 0.950819 -0.329026 -195.462 1041.63)" stroke="#FF7B00" stroke-opacity="0.5" stroke-width="3"/>
<line y1="-1.5" x2="2496.16" y2="-1.5" transform="matrix(0.692051 -0.712325 0.950819 -0.329026 -187.123 1057.94)" stroke="#FF7B00" stroke-opacity="0.5" stroke-width="3"/>
<line y1="-1.5" x2="2496.16" y2="-1.5" transform="matrix(0.692051 -0.712325 0.950819 -0.329026 -178.784 1074.25)" stroke="#FF7B00" stroke-opacity="0.5" stroke-width="3"/>
<line y1="-1.5" x2="2496.16" y2="-1.5" transform="matrix(0.692051 -0.712325 0.950819 -0.329026 -170.445 1090.56)" stroke="#FF7B00" stroke-opacity="0.5" stroke-width="3"/>
<line y1="-1.5" x2="2496.16" y2="-1.5" transform="matrix(0.692051 -0.712325 0.950819 -0.329026 -162.106 1106.87)" stroke="#FF7B00" stroke-opacity="0.5" stroke-width="3"/>
<line y1="-1.5" x2="2496.16" y2="-1.5" transform="matrix(0.692051 -0.712325 0.950819 -0.329026 -153.767 1123.18)" stroke="#FF7B00" stroke-opacity="0.5" stroke-width="3"/>
<line y1="-1.5" x2="2496.16" y2="-1.5" transform="matrix(0.692051 -0.712325 0.950819 -0.329026 -145.427 1139.49)" stroke="#FF7B00" stroke-opacity="0.5" stroke-width="3"/>
<line y1="-1.5" x2="2496.16" y2="-1.5" transform="matrix(0.692051 -0.712325 0.950819 -0.329026 -137.089 1155.8)" stroke="#FF7B00" stroke-opacity="0.5" stroke-width="3"/>
<line y1="-1.5" x2="2496.16" y2="-1.5" transform="matrix(0.692051 -0.712325 0.950819 -0.329026 -128.75 1172.11)" stroke="#FF7B00" stroke-opacity="0.5" stroke-width="3"/>
<line y1="-1.5" x2="2496.16" y2="-1.5" transform="matrix(0.692051 -0.712325 0.950819 -0.329026 -120.411 1188.42)" stroke="#FF7B00" stroke-opacity="0.5" stroke-width="3"/>
<line y1="-1.5" x2="2496.16" y2="-1.5" transform="matrix(0.692051 -0.712325 0.950819 -0.329026 -112.072 1204.72)" stroke="#FF7B00" stroke-opacity="0.5" stroke-width="3"/>
<line y1="-1.5" x2="2496.16" y2="-1.5" transform="matrix(0.692051 -0.712325 0.950819 -0.329026 -103.733 1221.03)" stroke="#FF7B00" stroke-opacity="0.5" stroke-width="3"/>
<line y1="-1.5" x2="2496.16" y2="-1.5" transform="matrix(0.692051 -0.712325 0.950819 -0.329026 -95.3944 1237.34)" stroke="#FF7B00" stroke-opacity="0.5" stroke-width="3"/>
<line y1="-1.5" x2="2496.16" y2="-1.5" transform="matrix(0.692051 -0.712325 0.950819 -0.329026 -87.0554 1253.65)" stroke="#FF7B00" stroke-opacity="0.5" stroke-width="3"/>
<line y1="-1.5" x2="2496.16" y2="-1.5" transform="matrix(0.692051 -0.712325 0.950819 -0.329026 -78.7166 1269.96)" stroke="#FF7B00" stroke-opacity="0.5" stroke-width="3"/>
<line y1="-1.5" x2="2496.16" y2="-1.5" transform="matrix(0.69205 -0.712325 0.950819 -0.329026 -70.3773 1286.27)" stroke="#FF7B00" stroke-opacity="0.5" stroke-width="3"/>
<line y1="-1.5" x2="2496.16" y2="-1.5" transform="matrix(0.692051 -0.712325 0.950819 -0.329026 -62.0386 1302.58)" stroke="#FF7B00" stroke-opacity="0.5" stroke-width="3"/>
<line y1="-1.5" x2="2496.16" y2="-1.5" transform="matrix(0.692051 -0.712325 0.950819 -0.329026 -53.6996 1318.89)" stroke="#FF7B00" stroke-opacity="0.5" stroke-width="3"/>
<line y1="-1.5" x2="2496.16" y2="-1.5" transform="matrix(0.692051 -0.712325 0.950819 -0.329026 -45.3602 1335.2)" stroke="#FF7B00" stroke-opacity="0.5" stroke-width="3"/>
<line y1="-1.5" x2="2496.16" y2="-1.5" transform="matrix(0.692051 -0.712325 0.950819 -0.329026 -37.0211 1351.51)" stroke="#FF7B00" stroke-opacity="0.5" stroke-width="3"/>
<line y1="-1.5" x2="2496.16" y2="-1.5" transform="matrix(0.692051 -0.712325 0.950819 -0.329026 -28.6823 1367.82)" stroke="#FF7B00" stroke-opacity="0.5" stroke-width="3"/>
<line y1="-1.5" x2="2496.16" y2="-1.5" transform="matrix(0.692051 -0.712325 0.950819 -0.329026 -20.3433 1384.13)" stroke="#FF7B00" stroke-opacity="0.5" stroke-width="3"/>
<line y1="-1.5" x2="2496.16" y2="-1.5" transform="matrix(0.692051 -0.712325 0.950819 -0.329026 -12.0045 1400.44)" stroke="#FF7B00" stroke-opacity="0.5" stroke-width="3"/>
<line y1="-1.5" x2="2496.16" y2="-1.5" transform="matrix(0.692051 -0.712325 0.950819 -0.329026 -3.66492 1416.75)" stroke="#FF7B00" stroke-opacity="0.5" stroke-width="3"/>
<line y1="-1.5" x2="2496.16" y2="-1.5" transform="matrix(0.692051 -0.712325 0.950819 -0.329026 4.67371 1433.06)" stroke="#FF7B00" stroke-opacity="0.5" stroke-width="3"/>
<line y1="-1.5" x2="2496.16" y2="-1.5" transform="matrix(0.692051 -0.712325 0.950819 -0.329026 13.012 1449.37)" stroke="#FF7B00" stroke-opacity="0.5" stroke-width="3"/>
<line y1="-1.5" x2="2496.16" y2="-1.5" transform="matrix(0.692051 -0.712325 0.950819 -0.329026 21.3518 1465.68)" stroke="#FF7B00" stroke-opacity="0.5" stroke-width="3"/>
<line y1="-1.5" x2="2496.16" y2="-1.5" transform="matrix(0.692051 -0.712325 0.950819 -0.329026 29.6909 1481.99)" stroke="#FF7B00" stroke-opacity="0.5" stroke-width="3"/>
<line y1="-1.5" x2="2496.16" y2="-1.5" transform="matrix(0.692051 -0.712325 0.950819 -0.329026 -212.14 1009.01)" stroke="#FF7B00" stroke-opacity="0.5" stroke-width="3"/>
</g>
</svg>
