<?xml version="1.0" encoding="UTF-8" standalone="no"?>
<!DOCTYPE svg PUBLIC "-//W3C//DTD SVG 1.1//EN" "http://www.w3.org/Graphics/SVG/1.1/DTD/svg11.dtd">
<svg width="100%" height="100%" viewBox="0 0 208 196" version="1.1" xmlns="http://www.w3.org/2000/svg" xmlns:xlink="http://www.w3.org/1999/xlink" xml:space="preserve" xmlns:serif="http://www.serif.com/" style="fill-rule:evenodd;clip-rule:evenodd;stroke-linejoin:round;stroke-miterlimit:2;">
    <g transform="matrix(1,0,0,1,-532,-305)">
        <g id="Object">
            <g transform="matrix(0,174.81,174.81,0,559.177,308.586)">
                <path d="M0.81,-0.152L0.883,-0.047C0.885,-0.044 0.888,-0.043 0.891,-0.044L1.003,-0.065C0.991,-0.028 0.958,0.079 0.944,0.152L0.927,0.073C0.927,0.073 0.927,0.073 0.927,0.073L0.924,0.068C0.92,0.065 0.848,0.012 0.775,-0.023C0.785,-0.066 0.797,-0.116 0.81,-0.152Z" style="fill:rgb(153,153,153);fill-rule:nonzero;"/>
            </g>
            <g transform="matrix(0,174.812,174.812,0,583.514,308.584)">
                <path d="M0.916,-0.04L0.933,0.04L0.896,0.015C0.903,-0.009 0.911,-0.027 0.916,-0.04Z" style="fill:rgb(153,153,153);fill-rule:nonzero;"/>
            </g>
            <g transform="matrix(0,174.81,174.81,0,711.374,308.587)">
                <path d="M0.924,-0.068C0.925,-0.069 0.926,-0.071 0.927,-0.073L0.944,-0.152C0.958,-0.079 0.991,0.028 1.003,0.065L0.891,0.044C0.888,0.043 0.885,0.044 0.883,0.047L0.81,0.152C0.798,0.116 0.785,0.066 0.776,0.024C0.848,-0.011 0.92,-0.065 0.924,-0.068Z" style="fill:rgb(153,153,153);fill-rule:nonzero;"/>
            </g>
            <g transform="matrix(0,174.813,174.813,0,687.058,308.585)">
                <path d="M0.933,-0.04L0.916,0.04C0.91,0.027 0.903,0.009 0.896,-0.015L0.933,-0.04Z" style="fill:rgb(153,153,153);fill-rule:nonzero;"/>
            </g>
            <g transform="matrix(0,174.811,174.811,0,635.304,308.586)">
                <path d="M0.868,-0.172C0.869,-0.17 0.87,-0.169 0.87,-0.167C0.871,-0.165 0.873,-0.164 0.875,-0.165C0.877,-0.166 0.878,-0.167 0.878,-0.169C0.878,-0.169 0.878,-0.17 0.878,-0.17C0.875,-0.175 0.873,-0.18 0.871,-0.186C0.874,-0.202 0.878,-0.217 0.881,-0.231C0.884,-0.219 0.891,-0.207 0.901,-0.199L0.913,-0.19C0.925,-0.181 0.93,-0.165 0.928,-0.151L0.925,-0.136C0.922,-0.12 0.926,-0.103 0.936,-0.091L0.945,-0.078C0.954,-0.067 0.956,-0.051 0.95,-0.037L0.944,-0.023C0.941,-0.016 0.939,-0.008 0.939,0C0.939,0.008 0.941,0.016 0.944,0.023L0.95,0.037C0.956,0.051 0.954,0.067 0.945,0.079L0.936,0.091C0.926,0.103 0.922,0.12 0.925,0.136L0.928,0.151C0.93,0.166 0.925,0.181 0.913,0.19L0.901,0.199C0.891,0.208 0.884,0.219 0.881,0.231C0.878,0.217 0.874,0.202 0.871,0.186C0.873,0.181 0.875,0.175 0.878,0.17C0.878,0.17 0.878,0.169 0.878,0.169C0.878,0.167 0.877,0.166 0.875,0.165C0.873,0.164 0.871,0.165 0.87,0.167C0.87,0.169 0.869,0.17 0.868,0.172C0.866,0.159 0.864,0.146 0.862,0.132C0.876,0.09 0.883,0.046 0.883,0C0.883,-0.046 0.876,-0.09 0.862,-0.132C0.864,-0.146 0.866,-0.159 0.868,-0.172ZM0.892,0.115C0.89,0.114 0.888,0.115 0.887,0.117C0.885,0.126 0.882,0.134 0.88,0.143C0.879,0.145 0.88,0.147 0.882,0.148C0.884,0.148 0.886,0.147 0.887,0.145C0.89,0.137 0.893,0.128 0.895,0.119C0.895,0.119 0.895,0.119 0.895,0.118C0.895,0.117 0.894,0.115 0.892,0.115ZM0.895,-0.119C0.893,-0.128 0.89,-0.137 0.887,-0.145C0.886,-0.147 0.884,-0.148 0.882,-0.147C0.88,-0.147 0.879,-0.144 0.88,-0.142C0.882,-0.134 0.885,-0.126 0.887,-0.117C0.888,-0.115 0.89,-0.114 0.892,-0.114C0.894,-0.115 0.895,-0.117 0.895,-0.118C0.895,-0.119 0.895,-0.119 0.895,-0.119ZM0.903,0.062C0.901,0.062 0.899,0.064 0.898,0.066C0.897,0.074 0.895,0.083 0.894,0.092C0.893,0.094 0.895,0.096 0.897,0.096C0.899,0.097 0.901,0.096 0.901,0.093C0.903,0.085 0.905,0.076 0.906,0.067C0.906,0.067 0.906,0.067 0.906,0.066C0.906,0.064 0.905,0.063 0.903,0.062ZM0.906,-0.067C0.905,-0.076 0.903,-0.085 0.901,-0.093C0.901,-0.095 0.899,-0.097 0.897,-0.096C0.895,-0.096 0.893,-0.094 0.894,-0.092C0.895,-0.083 0.897,-0.074 0.898,-0.066C0.899,-0.063 0.901,-0.062 0.903,-0.062C0.905,-0.063 0.906,-0.064 0.906,-0.066C0.906,-0.066 0.906,-0.067 0.906,-0.067ZM0.907,0.009C0.905,0.009 0.903,0.011 0.903,0.013C0.903,0.022 0.902,0.031 0.901,0.04C0.901,0.042 0.903,0.044 0.905,0.044C0.907,0.044 0.909,0.042 0.909,0.04C0.91,0.031 0.911,0.022 0.911,0.013L0.911,0.013C0.911,0.011 0.909,0.009 0.907,0.009ZM0.909,-0.04C0.909,-0.042 0.907,-0.044 0.905,-0.044C0.903,-0.044 0.901,-0.042 0.901,-0.039C0.902,-0.031 0.903,-0.022 0.903,-0.013C0.903,-0.011 0.905,-0.009 0.907,-0.009C0.909,-0.009 0.911,-0.011 0.911,-0.013L0.911,-0.013C0.911,-0.022 0.91,-0.031 0.909,-0.04Z" style="fill:rgb(153,153,153);fill-rule:nonzero;"/>
            </g>
            <g transform="matrix(0,174.81,174.81,0,635.31,308.587)">
                <path d="M0.008,0.037L0.014,0.023C0.021,0.008 0.021,-0.008 0.014,-0.023L0.008,-0.037C0.002,-0.051 0.004,-0.067 0.013,-0.079L0.022,-0.091C0.032,-0.103 0.036,-0.12 0.033,-0.136L0.03,-0.151C0.028,-0.165 0.033,-0.181 0.045,-0.19L0.057,-0.199C0.069,-0.209 0.077,-0.224 0.078,-0.24L0.079,-0.256C0.08,-0.271 0.088,-0.284 0.102,-0.29L0.116,-0.296C0.13,-0.303 0.141,-0.316 0.146,-0.331L0.151,-0.346C0.155,-0.36 0.167,-0.371 0.181,-0.373L0.196,-0.376C0.212,-0.379 0.225,-0.389 0.234,-0.403L0.242,-0.416C0.249,-0.429 0.263,-0.436 0.277,-0.435L0.293,-0.434C0.309,-0.433 0.324,-0.439 0.335,-0.451L0.346,-0.462C0.357,-0.472 0.372,-0.476 0.386,-0.472L0.4,-0.467C0.415,-0.462 0.432,-0.464 0.446,-0.472L0.459,-0.481C0.471,-0.488 0.487,-0.488 0.499,-0.481L0.512,-0.472C0.526,-0.464 0.542,-0.462 0.558,-0.467L0.572,-0.472C0.586,-0.476 0.601,-0.472 0.612,-0.462L0.622,-0.451C0.634,-0.439 0.649,-0.433 0.665,-0.434L0.672,-0.435C0.669,-0.424 0.665,-0.412 0.661,-0.399C0.653,-0.403 0.644,-0.406 0.636,-0.41C0.634,-0.411 0.632,-0.41 0.631,-0.407C0.63,-0.405 0.631,-0.403 0.633,-0.402C0.641,-0.399 0.649,-0.396 0.657,-0.392C0.658,-0.392 0.658,-0.392 0.658,-0.392C0.656,-0.385 0.654,-0.378 0.652,-0.371C0.6,-0.397 0.541,-0.411 0.479,-0.411C0.256,-0.411 0.075,-0.227 0.075,0C0.075,0.227 0.256,0.411 0.479,0.411C0.541,0.411 0.6,0.397 0.652,0.371C0.654,0.378 0.656,0.385 0.658,0.392C0.658,0.392 0.658,0.392 0.658,0.392C0.65,0.395 0.642,0.399 0.633,0.402C0.631,0.403 0.63,0.405 0.631,0.407C0.632,0.409 0.634,0.41 0.636,0.41C0.644,0.406 0.653,0.403 0.661,0.399C0.665,0.412 0.669,0.424 0.672,0.435L0.665,0.434C0.649,0.433 0.634,0.439 0.622,0.451L0.612,0.462C0.601,0.472 0.586,0.476 0.572,0.472L0.558,0.467C0.542,0.462 0.526,0.464 0.512,0.472L0.499,0.481C0.487,0.488 0.471,0.488 0.459,0.481L0.446,0.472C0.432,0.464 0.415,0.462 0.4,0.467L0.386,0.472C0.372,0.476 0.357,0.472 0.346,0.462L0.335,0.451C0.324,0.439 0.309,0.433 0.293,0.434L0.277,0.435C0.263,0.436 0.249,0.429 0.242,0.416L0.234,0.403C0.225,0.389 0.212,0.379 0.196,0.376L0.181,0.373C0.167,0.371 0.155,0.36 0.151,0.346L0.146,0.331C0.141,0.316 0.13,0.303 0.116,0.296L0.102,0.29C0.088,0.284 0.08,0.271 0.079,0.256L0.078,0.24C0.077,0.224 0.069,0.209 0.057,0.199L0.045,0.19C0.033,0.181 0.028,0.165 0.03,0.151L0.033,0.136C0.036,0.12 0.032,0.103 0.022,0.091L0.013,0.079C0.007,0.071 0.004,0.063 0.004,0.054C0.004,0.048 0.005,0.043 0.008,0.037ZM0.051,-0.017C0.049,-0.017 0.047,-0.016 0.047,-0.013C0.047,-0.004 0.047,0.005 0.047,0.013C0.047,0.016 0.049,0.017 0.051,0.017C0.053,0.017 0.055,0.016 0.055,0.013C0.055,0.013 0.055,0.013 0.055,0.013C0.055,0.005 0.055,-0.004 0.055,-0.013C0.055,-0.013 0.055,-0.013 0.055,-0.013C0.055,-0.015 0.053,-0.017 0.051,-0.017ZM0.056,-0.07C0.054,-0.071 0.052,-0.069 0.052,-0.067C0.05,-0.058 0.049,-0.049 0.049,-0.04C0.048,-0.038 0.05,-0.036 0.052,-0.036C0.054,-0.036 0.056,-0.037 0.056,-0.039C0.057,-0.048 0.058,-0.057 0.06,-0.066C0.06,-0.066 0.06,-0.066 0.06,-0.066C0.06,-0.068 0.058,-0.07 0.056,-0.07ZM0.06,0.066C0.058,0.057 0.057,0.048 0.056,0.04C0.056,0.037 0.054,0.036 0.052,0.036C0.05,0.036 0.048,0.038 0.049,0.04C0.049,0.049 0.05,0.058 0.052,0.067C0.052,0.069 0.054,0.071 0.056,0.07C0.058,0.07 0.06,0.068 0.06,0.066C0.06,0.066 0.06,0.066 0.06,0.066ZM0.068,-0.122C0.066,-0.123 0.063,-0.121 0.063,-0.119C0.06,-0.111 0.058,-0.102 0.056,-0.093C0.056,-0.091 0.057,-0.089 0.06,-0.089C0.062,-0.088 0.064,-0.089 0.064,-0.092C0.066,-0.1 0.068,-0.109 0.071,-0.117C0.071,-0.118 0.071,-0.118 0.071,-0.118C0.071,-0.12 0.07,-0.122 0.068,-0.122ZM0.071,0.117C0.068,0.109 0.066,0.1 0.064,0.092C0.064,0.09 0.062,0.088 0.06,0.089C0.057,0.089 0.056,0.091 0.056,0.093C0.058,0.102 0.06,0.111 0.063,0.119C0.063,0.122 0.066,0.123 0.068,0.122C0.07,0.122 0.071,0.12 0.071,0.118C0.071,0.118 0.071,0.118 0.071,0.117ZM0.085,-0.172C0.083,-0.173 0.081,-0.172 0.08,-0.17C0.077,-0.162 0.074,-0.153 0.071,-0.145C0.07,-0.143 0.071,-0.141 0.073,-0.14C0.075,-0.139 0.078,-0.14 0.078,-0.142C0.081,-0.151 0.084,-0.159 0.088,-0.167C0.088,-0.168 0.088,-0.168 0.088,-0.169C0.088,-0.17 0.087,-0.172 0.085,-0.172ZM0.088,0.167C0.084,0.159 0.081,0.151 0.078,0.143C0.078,0.14 0.075,0.139 0.073,0.14C0.071,0.141 0.07,0.143 0.071,0.145C0.074,0.154 0.077,0.162 0.08,0.17C0.081,0.172 0.083,0.173 0.086,0.172C0.087,0.172 0.088,0.17 0.088,0.169C0.088,0.168 0.088,0.168 0.088,0.167ZM0.109,-0.22C0.107,-0.221 0.105,-0.22 0.104,-0.218C0.099,-0.211 0.095,-0.203 0.091,-0.195C0.09,-0.193 0.091,-0.19 0.093,-0.189C0.095,-0.188 0.097,-0.189 0.098,-0.191C0.102,-0.199 0.106,-0.207 0.111,-0.214C0.111,-0.215 0.111,-0.216 0.111,-0.216C0.111,-0.218 0.11,-0.219 0.109,-0.22ZM0.111,0.215C0.106,0.207 0.102,0.199 0.099,0.191C0.098,0.189 0.095,0.188 0.093,0.189C0.091,0.19 0.09,0.193 0.091,0.195C0.095,0.203 0.099,0.211 0.104,0.219C0.105,0.221 0.107,0.221 0.109,0.22C0.111,0.219 0.111,0.218 0.111,0.217C0.111,0.216 0.111,0.215 0.111,0.215ZM0.138,-0.264C0.137,-0.266 0.134,-0.265 0.133,-0.263C0.128,-0.256 0.122,-0.249 0.118,-0.241C0.116,-0.239 0.117,-0.237 0.119,-0.236C0.121,-0.235 0.123,-0.235 0.124,-0.237C0.129,-0.244 0.134,-0.252 0.139,-0.259C0.14,-0.259 0.14,-0.26 0.14,-0.261C0.14,-0.262 0.139,-0.263 0.138,-0.264ZM0.139,0.259C0.134,0.252 0.129,0.245 0.124,0.237C0.123,0.235 0.121,0.235 0.119,0.236C0.117,0.237 0.117,0.24 0.118,0.242C0.123,0.249 0.128,0.257 0.133,0.264C0.134,0.265 0.137,0.266 0.139,0.265C0.14,0.264 0.14,0.263 0.14,0.261C0.14,0.261 0.14,0.26 0.139,0.259ZM0.173,-0.305C0.171,-0.306 0.169,-0.306 0.167,-0.305C0.161,-0.298 0.155,-0.291 0.149,-0.284C0.148,-0.283 0.148,-0.28 0.15,-0.279C0.152,-0.277 0.154,-0.278 0.155,-0.279C0.161,-0.286 0.167,-0.293 0.173,-0.299C0.174,-0.3 0.174,-0.301 0.174,-0.302C0.174,-0.303 0.174,-0.304 0.173,-0.305ZM0.173,0.299C0.167,0.293 0.161,0.286 0.156,0.28C0.154,0.278 0.152,0.278 0.15,0.279C0.148,0.281 0.148,0.283 0.15,0.285C0.155,0.292 0.161,0.298 0.168,0.305C0.169,0.307 0.172,0.307 0.173,0.305C0.174,0.304 0.174,0.303 0.174,0.302C0.174,0.301 0.174,0.3 0.173,0.299ZM0.212,-0.341C0.211,-0.342 0.208,-0.343 0.206,-0.341C0.199,-0.336 0.193,-0.33 0.186,-0.324C0.185,-0.322 0.185,-0.319 0.186,-0.318C0.188,-0.316 0.19,-0.316 0.192,-0.318C0.198,-0.324 0.205,-0.33 0.211,-0.335C0.212,-0.336 0.213,-0.337 0.213,-0.338C0.213,-0.339 0.213,-0.34 0.212,-0.341ZM0.212,0.335C0.205,0.33 0.198,0.324 0.192,0.318C0.19,0.317 0.188,0.317 0.186,0.318C0.185,0.32 0.185,0.322 0.187,0.324C0.193,0.33 0.2,0.336 0.207,0.342C0.208,0.343 0.211,0.343 0.212,0.341C0.213,0.34 0.213,0.339 0.213,0.339C0.213,0.337 0.213,0.336 0.212,0.335ZM0.255,-0.372C0.254,-0.374 0.252,-0.374 0.25,-0.373C0.242,-0.368 0.235,-0.363 0.228,-0.358C0.226,-0.356 0.225,-0.354 0.227,-0.352C0.228,-0.35 0.23,-0.35 0.232,-0.351C0.239,-0.356 0.247,-0.361 0.254,-0.366C0.255,-0.367 0.256,-0.368 0.256,-0.37C0.256,-0.37 0.256,-0.371 0.255,-0.372ZM0.254,0.366C0.247,0.362 0.24,0.357 0.233,0.352C0.231,0.35 0.228,0.351 0.227,0.352C0.226,0.354 0.226,0.357 0.228,0.358C0.235,0.363 0.243,0.368 0.25,0.373C0.252,0.374 0.255,0.374 0.256,0.372C0.256,0.371 0.256,0.371 0.256,0.37C0.256,0.368 0.256,0.367 0.254,0.366ZM0.302,-0.397C0.301,-0.399 0.299,-0.4 0.297,-0.399C0.289,-0.395 0.281,-0.391 0.273,-0.387C0.271,-0.386 0.27,-0.383 0.271,-0.381C0.272,-0.379 0.275,-0.379 0.277,-0.38C0.284,-0.384 0.292,-0.388 0.3,-0.392C0.302,-0.392 0.303,-0.394 0.303,-0.395C0.303,-0.396 0.302,-0.396 0.302,-0.397ZM0.301,0.392C0.293,0.388 0.285,0.384 0.277,0.38C0.275,0.379 0.273,0.379 0.272,0.381C0.271,0.383 0.271,0.386 0.273,0.387C0.281,0.391 0.289,0.395 0.297,0.399C0.299,0.4 0.302,0.399 0.302,0.397C0.303,0.397 0.303,0.396 0.303,0.395C0.303,0.394 0.302,0.393 0.301,0.392ZM0.352,-0.416C0.351,-0.418 0.349,-0.419 0.347,-0.419C0.338,-0.416 0.33,-0.413 0.321,-0.41C0.319,-0.409 0.318,-0.406 0.319,-0.404C0.32,-0.402 0.322,-0.401 0.324,-0.402C0.333,-0.405 0.341,-0.408 0.349,-0.411C0.351,-0.412 0.352,-0.413 0.352,-0.415C0.352,-0.415 0.352,-0.416 0.352,-0.416ZM0.349,0.411C0.341,0.409 0.333,0.406 0.325,0.402C0.323,0.401 0.32,0.403 0.32,0.405C0.319,0.407 0.32,0.409 0.322,0.41C0.33,0.413 0.339,0.416 0.347,0.419C0.349,0.42 0.351,0.418 0.352,0.416C0.352,0.416 0.352,0.415 0.352,0.415C0.352,0.413 0.351,0.412 0.349,0.411ZM0.403,-0.429C0.403,-0.431 0.401,-0.433 0.399,-0.432C0.39,-0.43 0.381,-0.429 0.373,-0.426C0.37,-0.426 0.369,-0.424 0.37,-0.421C0.37,-0.419 0.372,-0.418 0.375,-0.419C0.383,-0.421 0.392,-0.423 0.4,-0.424C0.402,-0.425 0.404,-0.426 0.404,-0.428C0.404,-0.428 0.403,-0.429 0.403,-0.429ZM0.4,0.424C0.392,0.423 0.383,0.421 0.375,0.419C0.373,0.418 0.37,0.419 0.37,0.421C0.369,0.424 0.371,0.426 0.373,0.426C0.381,0.429 0.39,0.431 0.399,0.432C0.401,0.433 0.403,0.431 0.404,0.429C0.404,0.429 0.404,0.429 0.404,0.428C0.404,0.426 0.402,0.425 0.4,0.424ZM0.456,-0.435C0.456,-0.437 0.454,-0.439 0.452,-0.439C0.443,-0.438 0.434,-0.437 0.425,-0.436C0.423,-0.436 0.422,-0.434 0.422,-0.432C0.422,-0.43 0.424,-0.428 0.426,-0.428C0.435,-0.43 0.444,-0.43 0.453,-0.431C0.455,-0.431 0.456,-0.433 0.456,-0.435C0.456,-0.435 0.456,-0.435 0.456,-0.435ZM0.453,0.431C0.444,0.43 0.435,0.43 0.427,0.428C0.424,0.428 0.422,0.43 0.422,0.432C0.422,0.434 0.423,0.436 0.426,0.436C0.434,0.437 0.443,0.438 0.452,0.439C0.454,0.439 0.456,0.437 0.456,0.435C0.457,0.435 0.457,0.435 0.457,0.435C0.457,0.433 0.455,0.431 0.453,0.431ZM0.506,-0.439C0.497,-0.439 0.488,-0.44 0.479,-0.44C0.477,-0.44 0.475,-0.438 0.475,-0.436C0.475,-0.434 0.477,-0.432 0.479,-0.432C0.488,-0.432 0.497,-0.431 0.505,-0.431C0.507,-0.431 0.509,-0.432 0.509,-0.435C0.509,-0.435 0.509,-0.435 0.509,-0.435C0.509,-0.437 0.508,-0.439 0.506,-0.439ZM0.51,0.435C0.509,0.432 0.507,0.431 0.505,0.431C0.497,0.431 0.488,0.432 0.479,0.432C0.477,0.432 0.475,0.434 0.475,0.436C0.475,0.438 0.477,0.44 0.479,0.44C0.488,0.44 0.497,0.439 0.506,0.439C0.508,0.439 0.51,0.437 0.51,0.435C0.51,0.435 0.51,0.435 0.51,0.435ZM0.559,-0.432C0.55,-0.434 0.541,-0.435 0.532,-0.436C0.53,-0.437 0.528,-0.435 0.528,-0.433C0.528,-0.431 0.529,-0.429 0.531,-0.428C0.54,-0.427 0.549,-0.426 0.557,-0.424C0.56,-0.424 0.562,-0.425 0.562,-0.428C0.562,-0.428 0.562,-0.428 0.562,-0.428C0.562,-0.43 0.561,-0.432 0.559,-0.432ZM0.562,0.428C0.562,0.425 0.56,0.424 0.558,0.424C0.549,0.426 0.54,0.427 0.532,0.428C0.529,0.429 0.528,0.431 0.528,0.433C0.528,0.435 0.53,0.437 0.533,0.436C0.541,0.435 0.55,0.434 0.559,0.432C0.561,0.432 0.562,0.43 0.562,0.428C0.562,0.428 0.562,0.428 0.562,0.428ZM0.611,-0.419C0.602,-0.422 0.594,-0.424 0.585,-0.426C0.583,-0.427 0.581,-0.426 0.58,-0.423C0.58,-0.421 0.581,-0.419 0.583,-0.419C0.592,-0.416 0.6,-0.414 0.609,-0.411C0.611,-0.411 0.613,-0.412 0.614,-0.414C0.614,-0.414 0.614,-0.415 0.614,-0.415C0.614,-0.417 0.613,-0.418 0.611,-0.419ZM0.614,0.414C0.613,0.412 0.611,0.411 0.609,0.411C0.6,0.414 0.592,0.416 0.583,0.419C0.581,0.419 0.58,0.421 0.58,0.423C0.581,0.426 0.583,0.427 0.585,0.426C0.594,0.424 0.603,0.422 0.611,0.419C0.613,0.418 0.614,0.417 0.614,0.415C0.614,0.415 0.614,0.414 0.614,0.414Z" style="fill:rgb(153,153,153);fill-rule:nonzero;"/>
            </g>
            <g transform="matrix(0,174.811,174.811,0,635.311,308.586)">
                <path d="M0.479,-0.395C0.539,-0.395 0.597,-0.381 0.648,-0.356C0.624,-0.268 0.599,-0.142 0.599,0C0.599,0.142 0.624,0.268 0.648,0.356C0.597,0.381 0.539,0.395 0.479,0.395C0.265,0.395 0.091,0.218 0.091,0C0.091,-0.218 0.265,-0.395 0.479,-0.395ZM0.114,0L0.178,0.032L0.151,0.054L0.183,0.063L0.148,0.107L0.23,0.09L0.23,0L0.23,-0.09L0.148,-0.107L0.183,-0.063L0.151,-0.054L0.178,-0.032L0.114,0ZM0.505,0.29L0.483,0.259L0.483,0.297L0.447,0.308L0.483,0.32L0.483,0.357L0.505,0.327L0.54,0.339L0.518,0.308L0.54,0.278L0.505,0.29ZM0.505,-0.338L0.483,-0.368L0.483,-0.331L0.447,-0.319L0.483,-0.308L0.483,-0.271L0.505,-0.301L0.54,-0.289L0.518,-0.319L0.54,-0.35L0.505,-0.338Z" style="fill:rgb(153,153,153);fill-rule:nonzero;"/>
            </g>
            <g transform="matrix(-0.011145,174.809,174.809,0.011145,635.316,308.587)">
                <path d="M0.857,-0.09C0.864,-0.061 0.867,-0.031 0.867,0C0.867,0.031 0.864,0.061 0.857,0.09C0.854,0.062 0.853,0.032 0.853,0C0.853,-0.032 0.854,-0.062 0.857,-0.09Z" style="fill:rgb(153,153,153);fill-rule:nonzero;"/>
            </g>
            <g transform="matrix(0,174.81,174.81,0,635.31,308.587)">
                <path d="M0.702,-0.469C0.776,-0.452 0.884,-0.376 0.909,-0.358C0.894,-0.329 0.837,-0.196 0.837,0C0.837,0.196 0.894,0.329 0.909,0.358C0.884,0.377 0.776,0.452 0.702,0.469C0.687,0.433 0.615,0.24 0.615,0C0.615,-0.24 0.687,-0.433 0.702,-0.469Z" style="fill:rgb(153,153,153);fill-rule:nonzero;"/>
            </g>
            <g>
                <g transform="matrix(34.4892,0,0,34.4892,586.732,378.981)">
                    <path d="M0.202,-0.7L0.04,-0.7L0.04,0L0.15,0L0.15,-0.263L0.202,-0.263C0.312,-0.263 0.366,-0.324 0.366,-0.436L0.366,-0.527C0.366,-0.639 0.312,-0.7 0.202,-0.7ZM0.15,-0.6L0.202,-0.6C0.237,-0.6 0.256,-0.584 0.256,-0.534L0.256,-0.429C0.256,-0.379 0.237,-0.363 0.202,-0.363L0.15,-0.363L0.15,-0.6Z" style="fill-rule:nonzero;"/>
                </g>
                <g transform="matrix(34.4892,0,0,34.4892,599.734,378.981)">
                    <path d="M0.27,0L0.382,0C0.371,-0.026 0.37,-0.051 0.37,-0.085L0.37,-0.193C0.37,-0.266 0.352,-0.319 0.297,-0.342C0.346,-0.365 0.369,-0.412 0.369,-0.484L0.369,-0.539C0.369,-0.647 0.32,-0.7 0.206,-0.7L0.04,-0.7L0.04,0L0.15,0L0.15,-0.285L0.188,-0.285C0.238,-0.285 0.26,-0.261 0.26,-0.196L0.26,-0.086C0.26,-0.029 0.264,-0.018 0.27,0ZM0.15,-0.6L0.203,-0.6C0.242,-0.6 0.259,-0.578 0.259,-0.528L0.259,-0.459C0.259,-0.403 0.234,-0.385 0.193,-0.385L0.15,-0.385L0.15,-0.6Z" style="fill-rule:nonzero;"/>
                </g>
                <g transform="matrix(34.4892,0,0,34.4892,613.599,378.981)">
                    <path d="M0.15,-0.405L0.15,-0.6L0.34,-0.6L0.34,-0.7L0.04,-0.7L0.04,0L0.34,0L0.34,-0.1L0.15,-0.1L0.15,-0.305L0.301,-0.305L0.301,-0.405L0.15,-0.405Z" style="fill-rule:nonzero;"/>
                </g>
                <g transform="matrix(34.4892,0,0,34.4892,626.291,378.981)">
                    <path d="M0.273,-0.203L0.192,-0.7L0.039,-0.7L0.039,0L0.135,0L0.135,-0.495L0.217,0L0.321,0L0.397,-0.502L0.397,0L0.501,0L0.501,-0.7L0.348,-0.7L0.273,-0.203Z" style="fill-rule:nonzero;"/>
                </g>
                <g transform="matrix(34.4892,0,0,34.4892,644.95,378.981)">
                    <rect x="0.04" y="-0.7" width="0.11" height="0.7" style="fill-rule:nonzero;"/>
                </g>
                <g transform="matrix(34.4892,0,0,34.4892,651.503,378.981)">
                    <path d="M0.145,-0.7L0.035,-0.7L0.035,-0.167C0.035,-0.055 0.091,0.009 0.199,0.009C0.307,0.009 0.363,-0.055 0.363,-0.167L0.363,-0.7L0.259,-0.7L0.259,-0.16C0.259,-0.11 0.237,-0.092 0.202,-0.092C0.167,-0.092 0.145,-0.11 0.145,-0.16L0.145,-0.7Z" style="fill-rule:nonzero;"/>
                </g>
                <g transform="matrix(34.4892,0,0,34.4892,665.229,378.981)">
                    <path d="M0.273,-0.203L0.192,-0.7L0.039,-0.7L0.039,0L0.135,0L0.135,-0.495L0.217,0L0.321,0L0.397,-0.502L0.397,0L0.501,0L0.501,-0.7L0.348,-0.7L0.273,-0.203Z" style="fill-rule:nonzero;"/>
                </g>
                <g transform="matrix(34.4892,0,0,34.4892,592.526,407.401)">
                    <path d="M0.031,-0.532L0.031,-0.168C0.031,-0.056 0.09,0.008 0.198,0.008C0.227,0.008 0.253,0.003 0.275,-0.005C0.29,0.025 0.321,0.043 0.37,0.043L0.385,0.043L0.385,-0.055L0.375,-0.055C0.357,-0.055 0.349,-0.057 0.344,-0.07C0.358,-0.096 0.365,-0.129 0.365,-0.168L0.365,-0.532C0.365,-0.644 0.306,-0.708 0.198,-0.708C0.09,-0.708 0.031,-0.644 0.031,-0.532ZM0.141,-0.161L0.141,-0.539C0.141,-0.589 0.163,-0.608 0.198,-0.608C0.233,-0.608 0.255,-0.589 0.255,-0.539L0.255,-0.161C0.255,-0.111 0.233,-0.092 0.198,-0.092C0.163,-0.092 0.141,-0.111 0.141,-0.161Z" style="fill-rule:nonzero;"/>
                </g>
                <g transform="matrix(34.4892,0,0,34.4892,606.184,407.401)">
                    <path d="M0.145,-0.7L0.035,-0.7L0.035,-0.167C0.035,-0.055 0.091,0.009 0.199,0.009C0.307,0.009 0.363,-0.055 0.363,-0.167L0.363,-0.7L0.259,-0.7L0.259,-0.16C0.259,-0.11 0.237,-0.092 0.202,-0.092C0.167,-0.092 0.145,-0.11 0.145,-0.16L0.145,-0.7Z" style="fill-rule:nonzero;"/>
                </g>
                <g transform="matrix(34.4892,0,0,34.4892,619.911,407.401)">
                    <path d="M0.396,0L0.284,-0.7L0.123,-0.7L0.011,0L0.112,0L0.131,-0.127L0.266,-0.127L0.285,0L0.396,0ZM0.145,-0.222L0.198,-0.576L0.251,-0.222L0.145,-0.222Z" style="fill-rule:nonzero;"/>
                </g>
                <g transform="matrix(34.4892,0,0,34.4892,633.948,407.401)">
                    <path d="M0.04,-0.7L0.04,0L0.331,0L0.331,-0.1L0.15,-0.1L0.15,-0.7L0.04,-0.7Z" style="fill-rule:nonzero;"/>
                </g>
                <g transform="matrix(34.4892,0,0,34.4892,645.639,407.401)">
                    <rect x="0.04" y="-0.7" width="0.11" height="0.7" style="fill-rule:nonzero;"/>
                </g>
                <g transform="matrix(34.4892,0,0,34.4892,652.192,407.401)">
                    <path d="M0.008,-0.7L0.008,-0.6L0.123,-0.6L0.123,0L0.233,0L0.233,-0.6L0.348,-0.6L0.348,-0.7L0.008,-0.7Z" style="fill-rule:nonzero;"/>
                </g>
                <g transform="matrix(34.4892,0,0,34.4892,664.471,407.401)">
                    <path d="M0.143,-0.232L0.143,0L0.253,0L0.253,-0.232L0.392,-0.7L0.287,-0.7L0.203,-0.381L0.119,-0.7L0.004,-0.7L0.143,-0.232Z" style="fill-rule:nonzero;"/>
                </g>
            </g>
            <g transform="matrix(0.959071,-0.283167,0.283167,0.959071,0,0)">
                <g transform="matrix(30,0,0,30,423.906,599.717)">
                    <path d="M0.205,-0.39L0.205,-0.29L0.255,-0.29L0.255,-0.161C0.255,-0.111 0.233,-0.093 0.198,-0.093C0.163,-0.093 0.141,-0.111 0.141,-0.161L0.141,-0.539C0.141,-0.589 0.163,-0.608 0.198,-0.608C0.233,-0.608 0.255,-0.589 0.255,-0.539L0.255,-0.464L0.359,-0.464L0.359,-0.532C0.359,-0.644 0.303,-0.708 0.195,-0.708C0.087,-0.708 0.031,-0.644 0.031,-0.532L0.031,-0.168C0.031,-0.056 0.087,0.008 0.195,0.008C0.303,0.008 0.359,-0.056 0.359,-0.168L0.359,-0.39L0.205,-0.39Z" style="fill-rule:nonzero;"/>
                </g>
            </g>
            <g transform="matrix(0.97584,-0.218487,0.218487,0.97584,0,0)">
                <g transform="matrix(30,0,0,30,474.348,569.306)">
                    <path d="M0.145,-0.7L0.035,-0.7L0.035,-0.167C0.035,-0.055 0.091,0.009 0.199,0.009C0.307,0.009 0.363,-0.055 0.363,-0.167L0.363,-0.7L0.259,-0.7L0.259,-0.16C0.259,-0.11 0.237,-0.092 0.202,-0.092C0.167,-0.092 0.145,-0.11 0.145,-0.16L0.145,-0.7Z" style="fill-rule:nonzero;"/>
                </g>
            </g>
            <g transform="matrix(0.98738,-0.158367,0.158367,0.98738,0,0)">
                <g transform="matrix(30,0,0,30,519.912,538.494)">
                    <path d="M0.396,0L0.284,-0.7L0.123,-0.7L0.011,0L0.112,0L0.131,-0.127L0.266,-0.127L0.285,0L0.396,0ZM0.145,-0.222L0.198,-0.576L0.251,-0.222L0.145,-0.222Z" style="fill-rule:nonzero;"/>
                </g>
            </g>
            <g transform="matrix(0.995138,-0.0984868,0.0984868,0.995138,0,0)">
                <g transform="matrix(29.9999,0,0,29.9999,563.348,505.407)">
                    <path d="M0.27,0L0.382,0C0.371,-0.026 0.37,-0.051 0.37,-0.085L0.37,-0.193C0.37,-0.266 0.352,-0.319 0.297,-0.342C0.346,-0.365 0.369,-0.412 0.369,-0.484L0.369,-0.539C0.369,-0.647 0.32,-0.7 0.206,-0.7L0.04,-0.7L0.04,0L0.15,0L0.15,-0.285L0.188,-0.285C0.238,-0.285 0.26,-0.261 0.26,-0.196L0.26,-0.086C0.26,-0.029 0.264,-0.018 0.27,0ZM0.15,-0.6L0.203,-0.6C0.242,-0.6 0.259,-0.578 0.259,-0.528L0.259,-0.459C0.259,-0.403 0.234,-0.385 0.193,-0.385L0.15,-0.385L0.15,-0.6Z" style="fill-rule:nonzero;"/>
                </g>
            </g>
            <g transform="matrix(0.999303,-0.0373366,0.0373366,0.999303,0,0)">
                <g transform="matrix(30,0,0,30,604.979,469.212)">
                    <path d="M0.396,0L0.284,-0.7L0.123,-0.7L0.011,0L0.112,0L0.131,-0.127L0.266,-0.127L0.285,0L0.396,0ZM0.145,-0.222L0.198,-0.576L0.251,-0.222L0.145,-0.222Z" style="fill-rule:nonzero;"/>
                </g>
            </g>
            <g transform="matrix(0.99961,0.02794,-0.02794,0.99961,0,0)">
                <g transform="matrix(30,0,0,30,646.168,427.944)">
                    <path d="M0.138,-0.507L0.275,0L0.388,0L0.388,-0.7L0.29,-0.7L0.29,-0.281L0.177,-0.7L0.039,-0.7L0.039,0L0.138,0L0.138,-0.507Z" style="fill-rule:nonzero;"/>
                </g>
            </g>
            <g transform="matrix(0.995809,0.0914566,-0.0914566,0.995809,0,0)">
                <g transform="matrix(30,0,0,30,684.554,385.209)">
                    <path d="M0.008,-0.7L0.008,-0.6L0.123,-0.6L0.123,0L0.233,0L0.233,-0.6L0.348,-0.6L0.348,-0.7L0.008,-0.7Z" style="fill-rule:nonzero;"/>
                </g>
            </g>
            <g transform="matrix(0.988411,0.1518,-0.1518,0.988411,0,0)">
                <g transform="matrix(30,0,0,30,717.041,342.252)">
                    <path d="M0.15,-0.405L0.15,-0.6L0.34,-0.6L0.34,-0.7L0.04,-0.7L0.04,0L0.34,0L0.34,-0.1L0.15,-0.1L0.15,-0.305L0.301,-0.305L0.301,-0.405L0.15,-0.405Z" style="fill-rule:nonzero;"/>
                </g>
            </g>
            <g transform="matrix(0.976701,0.214604,-0.214604,0.976701,0,0)">
                <g transform="matrix(30,0,0,30,748.134,295.073)">
                    <path d="M0.15,-0.405L0.15,-0.6L0.34,-0.6L0.34,-0.7L0.04,-0.7L0.04,0L0.34,0L0.34,-0.1L0.15,-0.1L0.15,-0.305L0.301,-0.305L0.301,-0.405L0.15,-0.405Z" style="fill-rule:nonzero;"/>
                </g>
            </g>
            <g transform="matrix(0.959529,0.28161,-0.28161,0.959529,0,0)">
                <g transform="matrix(30,0,0,30,777.413,241.874)">
                    <path d="M0.04,-0.7L0.04,0L0.214,0C0.324,0 0.378,-0.061 0.378,-0.173L0.378,-0.527C0.378,-0.639 0.324,-0.7 0.214,-0.7L0.04,-0.7ZM0.15,-0.6L0.212,-0.6C0.247,-0.6 0.268,-0.582 0.268,-0.532L0.268,-0.168C0.268,-0.118 0.247,-0.1 0.212,-0.1L0.15,-0.1L0.15,-0.6Z" style="fill-rule:nonzero;"/>
                </g>
            </g>
        </g>
    </g>
</svg>
