<?xml version="1.0" encoding="UTF-8" standalone="no"?>
<!DOCTYPE svg PUBLIC "-//W3C//DTD SVG 1.1//EN" "http://www.w3.org/Graphics/SVG/1.1/DTD/svg11.dtd">
<svg width="100%" height="100%" viewBox="0 0 185 185" version="1.1" xmlns="http://www.w3.org/2000/svg" xmlns:xlink="http://www.w3.org/1999/xlink" xml:space="preserve" xmlns:serif="http://www.serif.com/" style="fill-rule:evenodd;clip-rule:evenodd;stroke-linejoin:round;stroke-miterlimit:2;">
    <g transform="matrix(1,0,0,1,-544,-535)">
        <g id="Object">
            <g transform="matrix(0,175.704,175.704,0,634.624,543.402)">
                <path d="M0.049,-0.022L0.049,-0.094L0.091,-0.036L0.16,-0.058L0.117,0L0.16,0.058L0.091,0.036L0.049,0.094L0.049,0.022L-0.019,0L0.049,-0.022Z" style="fill:rgb(153,153,153);fill-rule:nonzero;"/>
            </g>
            <g transform="matrix(0,175.704,175.704,0,602.871,543.402)">
                <path d="M0.085,-0.015L0.085,-0.062L0.113,-0.024L0.158,-0.038L0.13,0L0.158,0.038L0.113,0.024L0.085,0.062L0.085,0.015L0.04,0L0.085,-0.015Z" style="fill:rgb(153,153,153);fill-rule:nonzero;"/>
            </g>
            <g transform="matrix(0,175.704,175.704,0,582.951,543.402)">
                <path d="M0.191,-0.011L0.191,-0.045L0.211,-0.017L0.243,-0.028L0.223,0L0.243,0.028L0.211,0.017L0.191,0.045L0.191,0.011L0.158,0L0.191,-0.011Z" style="fill:rgb(153,153,153);fill-rule:nonzero;"/>
            </g>
            <g transform="matrix(0,175.704,175.704,0,687.24,543.402)">
                <path d="M0.191,-0.011L0.191,-0.045L0.211,-0.017L0.243,-0.028L0.223,0L0.243,0.028L0.211,0.017L0.191,0.045L0.191,0.011L0.158,0L0.191,-0.011Z" style="fill:rgb(153,153,153);fill-rule:nonzero;"/>
            </g>
            <g transform="matrix(0,175.704,175.704,0,667.301,543.402)">
                <path d="M0.085,-0.015L0.085,-0.062L0.113,-0.024L0.158,-0.038L0.13,0L0.158,0.038L0.113,0.024L0.085,0.062L0.085,0.015L0.04,0L0.085,-0.015Z" style="fill:rgb(153,153,153);fill-rule:nonzero;"/>
            </g>
            <g transform="matrix(0,175.704,175.704,0,569.464,543.402)">
                <path d="M0.56,-0.023C0.56,-0.023 0.52,0.04 0.457,0.029C0.457,0.029 0.489,-0.037 0.56,-0.023Z" style="fill:rgb(153,153,153);fill-rule:nonzero;"/>
            </g>
            <g transform="matrix(0,175.704,175.704,0,603.343,543.402)">
                <path d="M0.86,0.037C0.86,0.037 0.786,0.025 0.771,-0.037C0.771,-0.037 0.844,-0.034 0.86,0.037Z" style="fill:rgb(153,153,153);fill-rule:nonzero;"/>
            </g>
            <g transform="matrix(0,175.704,175.704,0,667.208,543.402)">
                <path d="M0.86,-0.037C0.844,0.034 0.771,0.037 0.771,0.037C0.786,-0.025 0.86,-0.037 0.86,-0.037Z" style="fill:rgb(153,153,153);fill-rule:nonzero;"/>
            </g>
            <g transform="matrix(0,175.704,175.704,0,711.642,543.402)">
                <path d="M0.402,-0.012C0.35,0.038 0.287,0 0.287,0C0.335,-0.043 0.402,-0.012 0.402,-0.012Z" style="fill:rgb(153,153,153);fill-rule:nonzero;"/>
            </g>
            <g transform="matrix(0,175.704,175.704,0,589.03,543.402)">
                <path d="M0.812,0.017C0.812,0.017 0.742,0.042 0.698,-0.004C0.698,-0.004 0.763,-0.038 0.812,0.017Z" style="fill:rgb(153,153,153);fill-rule:nonzero;"/>
            </g>
            <g transform="matrix(0,175.704,175.704,0,650.137,543.402)">
                <path d="M0.903,-0.043C0.898,0.03 0.825,0.043 0.825,0.043C0.832,-0.021 0.903,-0.043 0.903,-0.043Z" style="fill:rgb(153,153,153);fill-rule:nonzero;"/>
            </g>
            <g transform="matrix(0,175.704,175.704,0,579.889,543.402)">
                <path d="M0.759,0.003C0.759,0.003 0.696,0.043 0.643,0.008C0.643,0.008 0.699,-0.039 0.759,0.003Z" style="fill:rgb(153,153,153);fill-rule:nonzero;"/>
            </g>
            <g transform="matrix(0,175.703,175.703,0,572.453,543.402)">
                <path d="M0.365,-0.035C0.365,-0.035 0.337,0.034 0.273,0.036C0.273,0.036 0.292,-0.035 0.365,-0.035Z" style="fill:rgb(153,153,153);fill-rule:nonzero;"/>
            </g>
            <g transform="matrix(0,175.704,175.704,0,570.688,543.402)">
                <path d="M0.458,-0.029C0.458,-0.029 0.424,0.038 0.36,0.034C0.36,0.034 0.385,-0.035 0.458,-0.029Z" style="fill:rgb(153,153,153);fill-rule:nonzero;"/>
            </g>
            <g transform="matrix(0,175.703,175.703,0,572.88,543.402)">
                <path d="M0.659,-0.002C0.659,-0.002 0.6,0.043 0.544,0.012C0.544,0.012 0.596,-0.039 0.659,-0.002Z" style="fill:rgb(153,153,153);fill-rule:nonzero;"/>
            </g>
            <g transform="matrix(0,175.704,175.704,0,620.415,543.402)">
                <path d="M0.903,0.043C0.903,0.043 0.832,0.021 0.825,-0.043C0.825,-0.043 0.898,-0.03 0.903,0.043Z" style="fill:rgb(153,153,153);fill-rule:nonzero;"/>
            </g>
            <g transform="matrix(0,175.704,175.704,0,668.514,543.402)">
                <path d="M0.893,-0.057C0.947,-0.007 0.911,0.057 0.911,0.057C0.891,0.037 0.885,0.012 0.885,-0.01C0.885,-0.036 0.893,-0.057 0.893,-0.057Z" style="fill:rgb(153,153,153);fill-rule:nonzero;"/>
            </g>
            <g transform="matrix(0,175.705,175.705,0,684.601,543.401)">
                <path d="M0.854,-0.058C0.903,-0.004 0.863,0.058 0.863,0.058C0.847,0.039 0.842,0.017 0.842,-0.002C0.842,-0.033 0.854,-0.058 0.854,-0.058Z" style="fill:rgb(153,153,153);fill-rule:nonzero;"/>
            </g>
            <g transform="matrix(0,175.704,175.704,0,651.555,543.401)">
                <path d="M0.927,-0.057C0.98,-0.007 0.944,0.057 0.944,0.057C0.924,0.037 0.918,0.012 0.918,-0.01C0.918,-0.036 0.927,-0.057 0.927,-0.057Z" style="fill:rgb(153,153,153);fill-rule:nonzero;"/>
            </g>
            <g transform="matrix(0,175.703,175.703,0,705.919,543.402)">
                <path d="M0.734,-0.055C0.758,0.014 0.696,0.055 0.696,0.055C0.694,0.046 0.692,0.037 0.692,0.029C0.692,-0.019 0.734,-0.055 0.734,-0.055Z" style="fill:rgb(153,153,153);fill-rule:nonzero;"/>
            </g>
            <g transform="matrix(0,175.705,175.705,0,710.681,543.401)">
                <path d="M0.666,-0.051C0.677,0.021 0.61,0.051 0.61,0.051C0.609,0.047 0.609,0.043 0.609,0.04C0.609,-0.017 0.666,-0.051 0.666,-0.051Z" style="fill:rgb(153,153,153);fill-rule:nonzero;"/>
            </g>
            <g transform="matrix(0,175.703,175.703,0,694.647,543.402)">
                <path d="M0.807,-0.057C0.839,0.009 0.784,0.057 0.784,0.057C0.778,0.044 0.776,0.032 0.776,0.021C0.776,-0.022 0.807,-0.057 0.807,-0.057Z" style="fill:rgb(153,153,153);fill-rule:nonzero;"/>
            </g>
            <g transform="matrix(0,175.703,175.703,0,564.63,543.402)">
                <path d="M0.696,-0.055C0.696,-0.055 0.758,-0.014 0.734,0.055C0.734,0.055 0.692,0.019 0.692,-0.029C0.692,-0.037 0.694,-0.046 0.696,-0.055Z" style="fill:rgb(153,153,153);fill-rule:nonzero;"/>
            </g>
            <g transform="matrix(0,175.702,175.702,0,635.276,543.403)">
                <path d="M0.883,0C0.883,0 0.883,0 0.883,0C0.883,-0.012 0.892,-0.022 0.904,-0.022C0.916,-0.022 0.926,-0.012 0.926,0C0.926,0 0.926,0 0.926,0C0.926,0 0.926,0 0.926,0C0.926,0.012 0.916,0.022 0.904,0.022C0.892,0.022 0.883,0.012 0.883,0C0.883,0 0.883,0 0.883,0Z" style="fill:rgb(153,153,153);fill-rule:nonzero;"/>
            </g>
            <g transform="matrix(0,175.703,175.703,0,575.902,543.402)">
                <path d="M0.784,-0.057C0.784,-0.057 0.839,-0.009 0.807,0.057C0.807,0.057 0.776,0.022 0.776,-0.021C0.776,-0.032 0.778,-0.044 0.784,-0.057Z" style="fill:rgb(153,153,153);fill-rule:nonzero;"/>
            </g>
            <g transform="matrix(0,175.704,175.704,0,715.313,543.402)">
                <path d="M0.511,-0.028C0.473,0.034 0.403,0.012 0.403,0.012C0.438,-0.041 0.511,-0.028 0.511,-0.028Z" style="fill:rgb(153,153,153);fill-rule:nonzero;"/>
            </g>
            <g transform="matrix(0,175.705,175.705,0,713.457,543.402)">
                <path d="M0.606,-0.036C0.586,0.034 0.513,0.032 0.513,0.032C0.532,-0.028 0.606,-0.036 0.606,-0.036Z" style="fill:rgb(153,153,153);fill-rule:nonzero;"/>
            </g>
            <g transform="matrix(0,175.704,175.704,0,618.996,543.401)">
                <path d="M0.944,-0.057C0.944,-0.057 0.98,0.007 0.927,0.057C0.927,0.057 0.918,0.036 0.918,0.01C0.918,-0.012 0.924,-0.037 0.944,-0.057Z" style="fill:rgb(153,153,153);fill-rule:nonzero;"/>
            </g>
            <g transform="matrix(0,175.705,175.705,0,585.948,543.401)">
                <path d="M0.863,-0.058C0.863,-0.058 0.903,0.004 0.854,0.058C0.854,0.058 0.842,0.033 0.842,0.002C0.842,-0.017 0.847,-0.039 0.863,-0.058Z" style="fill:rgb(153,153,153);fill-rule:nonzero;"/>
            </g>
            <g transform="matrix(0,175.704,175.704,0,602.037,543.402)">
                <path d="M0.911,-0.057C0.911,-0.057 0.947,0.007 0.893,0.057C0.893,0.057 0.885,0.036 0.885,0.01C0.885,-0.011 0.891,-0.037 0.911,-0.057Z" style="fill:rgb(153,153,153);fill-rule:nonzero;"/>
            </g>
            <g transform="matrix(0,175.704,175.704,0,555.237,543.402)">
                <path d="M0.511,0.028C0.511,0.028 0.438,0.041 0.403,-0.012C0.403,-0.012 0.473,-0.034 0.511,0.028Z" style="fill:rgb(153,153,153);fill-rule:nonzero;"/>
            </g>
            <g transform="matrix(0,175.704,175.704,0,701.086,543.402)">
                <path d="M0.56,0.023C0.489,0.037 0.457,-0.029 0.457,-0.029C0.52,-0.04 0.56,0.023 0.56,0.023Z" style="fill:rgb(153,153,153);fill-rule:nonzero;"/>
            </g>
            <g transform="matrix(0,175.705,175.705,0,557.091,543.402)">
                <path d="M0.606,0.036C0.606,0.036 0.532,0.028 0.513,-0.032C0.513,-0.032 0.586,-0.034 0.606,0.036Z" style="fill:rgb(153,153,153);fill-rule:nonzero;"/>
            </g>
            <g transform="matrix(0,175.704,175.704,0,558.909,543.402)">
                <path d="M0.402,0.012C0.402,0.012 0.335,0.043 0.287,0C0.287,0 0.35,-0.038 0.402,0.012Z" style="fill:rgb(153,153,153);fill-rule:nonzero;"/>
            </g>
            <g transform="matrix(0,175.705,175.705,0,559.867,543.401)">
                <path d="M0.61,-0.05C0.61,-0.05 0.677,-0.021 0.666,0.051C0.666,0.051 0.609,0.017 0.609,-0.04C0.609,-0.043 0.609,-0.047 0.61,-0.05Z" style="fill:rgb(153,153,153);fill-rule:nonzero;"/>
            </g>
            <g transform="matrix(0,175.704,175.704,0,681.522,543.402)">
                <path d="M0.812,-0.017C0.763,0.038 0.698,0.004 0.698,0.004C0.742,-0.042 0.812,-0.017 0.812,-0.017Z" style="fill:rgb(153,153,153);fill-rule:nonzero;"/>
            </g>
            <g transform="matrix(0,175.703,175.703,0,697.67,543.402)">
                <path d="M0.659,0.002C0.596,0.039 0.544,-0.012 0.544,-0.012C0.6,-0.043 0.659,0.002 0.659,0.002Z" style="fill:rgb(153,153,153);fill-rule:nonzero;"/>
            </g>
            <g transform="matrix(0,175.704,175.704,0,690.662,543.402)">
                <path d="M0.759,-0.003C0.699,0.039 0.643,-0.008 0.643,-0.008C0.696,-0.043 0.759,-0.003 0.759,-0.003Z" style="fill:rgb(153,153,153);fill-rule:nonzero;"/>
            </g>
            <g transform="matrix(0,175.704,175.704,0,699.862,543.402)">
                <path d="M0.458,0.029C0.385,0.035 0.36,-0.034 0.36,-0.034C0.424,-0.038 0.458,0.029 0.458,0.029Z" style="fill:rgb(153,153,153);fill-rule:nonzero;"/>
            </g>
            <g transform="matrix(0,175.703,175.703,0,698.096,543.402)">
                <path d="M0.365,0.035C0.292,0.035 0.273,-0.036 0.273,-0.036C0.337,-0.034 0.365,0.035 0.365,0.035Z" style="fill:rgb(153,153,153);fill-rule:nonzero;"/>
            </g>
            <g transform="matrix(0,122.444,122.444,0,595.957,581.137)">
                <path d="M0.733,0.138L0.764,0.138C0.774,0.138 0.78,0.143 0.78,0.152C0.78,0.162 0.774,0.167 0.764,0.167L0.745,0.167L0.745,0.153L0.754,0.153L0.754,0.158L0.765,0.158C0.769,0.158 0.771,0.156 0.771,0.153C0.771,0.15 0.769,0.148 0.765,0.148L0.733,0.148C0.728,0.148 0.727,0.15 0.727,0.153C0.727,0.156 0.728,0.158 0.733,0.158L0.739,0.158L0.739,0.167L0.733,0.167C0.723,0.167 0.718,0.162 0.718,0.152C0.718,0.143 0.723,0.138 0.733,0.138Z" style="fill:rgb(51,51,51);fill-rule:nonzero;"/>
            </g>
            <g transform="matrix(0,122.444,122.444,0,604.264,581.137)">
                <path d="M0.719,0.124L0.765,0.124C0.769,0.124 0.771,0.122 0.771,0.119C0.771,0.116 0.769,0.114 0.765,0.114L0.719,0.114L0.719,0.104L0.765,0.104C0.774,0.104 0.78,0.109 0.78,0.119C0.78,0.128 0.774,0.133 0.765,0.133L0.719,0.133L0.719,0.124Z" style="fill:rgb(51,51,51);fill-rule:nonzero;"/>
            </g>
            <g transform="matrix(0,122.444,122.444,0,612.751,581.137)">
                <path d="M0.719,0.077L0.779,0.067L0.779,0.076L0.768,0.078L0.768,0.089L0.779,0.091L0.779,0.1L0.719,0.091L0.719,0.077ZM0.729,0.083L0.76,0.088L0.76,0.079L0.729,0.083Z" style="fill:rgb(51,51,51);fill-rule:nonzero;"/>
            </g>
            <g transform="matrix(0,122.444,122.444,0,621.49,581.137)">
                <path d="M0.719,0.033L0.779,0.033L0.779,0.043L0.754,0.043L0.754,0.046C0.754,0.051 0.756,0.052 0.762,0.052L0.772,0.052C0.776,0.052 0.777,0.053 0.779,0.053L0.779,0.063C0.777,0.062 0.775,0.062 0.772,0.062L0.762,0.062C0.756,0.062 0.751,0.06 0.749,0.056C0.748,0.06 0.743,0.062 0.737,0.062L0.733,0.062C0.723,0.062 0.719,0.058 0.719,0.048L0.719,0.033ZM0.727,0.043L0.727,0.048C0.727,0.051 0.729,0.052 0.733,0.052L0.739,0.052C0.744,0.052 0.746,0.05 0.746,0.047L0.746,0.043L0.727,0.043Z" style="fill:rgb(51,51,51);fill-rule:nonzero;"/>
            </g>
            <g transform="matrix(0,122.444,122.444,0,629.807,581.137)">
                <path d="M0.719,0.007L0.779,-0.002L0.779,0.006L0.768,0.008L0.768,0.02L0.779,0.021L0.779,0.031L0.719,0.021L0.719,0.007ZM0.729,0.014L0.76,0.018L0.76,0.009L0.729,0.014Z" style="fill:rgb(51,51,51);fill-rule:nonzero;"/>
            </g>
            <g transform="matrix(0,122.444,122.444,0,638.599,581.137)">
                <path d="M0.719,-0.015L0.755,-0.015L0.719,-0.025L0.719,-0.037L0.779,-0.037L0.779,-0.028L0.735,-0.028L0.779,-0.016L0.779,-0.007L0.719,-0.007L0.719,-0.015Z" style="fill:rgb(51,51,51);fill-rule:nonzero;"/>
            </g>
            <g transform="matrix(0,122.444,122.444,0,646.852,581.137)">
                <path d="M0.719,-0.07L0.727,-0.07L0.727,-0.06L0.779,-0.06L0.779,-0.051L0.727,-0.051L0.727,-0.041L0.719,-0.041L0.719,-0.07Z" style="fill:rgb(51,51,51);fill-rule:nonzero;"/>
            </g>
            <g transform="matrix(0,122.444,122.444,0,654.612,581.137)">
                <path d="M0.719,-0.1L0.779,-0.1L0.779,-0.074L0.77,-0.074L0.77,-0.09L0.753,-0.09L0.753,-0.077L0.744,-0.077L0.744,-0.09L0.727,-0.09L0.727,-0.074L0.719,-0.074L0.719,-0.1Z" style="fill:rgb(51,51,51);fill-rule:nonzero;"/>
            </g>
            <g transform="matrix(0,122.444,122.444,0,662.372,581.137)">
                <path d="M0.719,-0.132L0.779,-0.132L0.779,-0.106L0.77,-0.106L0.77,-0.122L0.753,-0.122L0.753,-0.109L0.744,-0.109L0.744,-0.122L0.727,-0.122L0.727,-0.106L0.719,-0.106L0.719,-0.132Z" style="fill:rgb(51,51,51);fill-rule:nonzero;"/>
            </g>
            <g transform="matrix(0,122.444,122.444,0,670.53,581.137)">
                <path d="M0.719,-0.167L0.779,-0.167L0.779,-0.152C0.779,-0.142 0.774,-0.137 0.764,-0.137L0.734,-0.137C0.724,-0.137 0.719,-0.142 0.719,-0.152L0.719,-0.167ZM0.727,-0.157L0.727,-0.152C0.727,-0.149 0.729,-0.147 0.733,-0.147L0.764,-0.147C0.769,-0.147 0.77,-0.149 0.77,-0.152L0.77,-0.157L0.727,-0.157Z" style="fill:rgb(51,51,51);fill-rule:nonzero;"/>
            </g>
            <g transform="matrix(0,122.3,122.3,0,603.333,556.644)">
                <path d="M0.194,0.13C0.202,0.127 0.209,0.124 0.209,0.109L0.222,0.109L0.222,0.124L0.313,0.124L0.313,0.142L0.194,0.142L0.194,0.13Z" style="fill:rgb(51,51,51);fill-rule:nonzero;"/>
            </g>
            <g transform="matrix(0,122.3,122.3,0,619.485,556.644)">
                <path d="M0.223,0.031L0.285,0.031C0.304,0.031 0.315,0.041 0.315,0.06C0.315,0.078 0.304,0.088 0.285,0.088L0.223,0.088C0.204,0.088 0.193,0.078 0.193,0.06C0.193,0.041 0.204,0.031 0.223,0.031ZM0.286,0.05L0.222,0.05C0.213,0.05 0.21,0.054 0.21,0.06C0.21,0.066 0.213,0.069 0.222,0.069L0.286,0.069C0.294,0.069 0.298,0.066 0.298,0.06C0.298,0.054 0.294,0.05 0.286,0.05Z" style="fill:rgb(51,51,51);fill-rule:nonzero;"/>
            </g>
            <g transform="matrix(0,122.3,122.3,0,635.953,556.644)">
                <path d="M0.223,-0.036L0.285,-0.036C0.304,-0.036 0.315,-0.026 0.315,-0.008C0.315,0.011 0.304,0.021 0.285,0.021L0.223,0.021C0.204,0.021 0.193,0.011 0.193,-0.008C0.193,-0.026 0.204,-0.036 0.223,-0.036ZM0.286,-0.017L0.222,-0.017C0.213,-0.017 0.21,-0.014 0.21,-0.008C0.21,-0.002 0.213,0.002 0.222,0.002L0.286,0.002C0.294,0.002 0.298,-0.002 0.298,-0.008C0.298,-0.014 0.294,-0.017 0.286,-0.017Z" style="fill:rgb(51,51,51);fill-rule:nonzero;"/>
            </g>
            <g transform="matrix(0,122.3,122.3,0,657.221,556.644)">
                <path d="M0.212,-0.142L0.251,-0.142C0.264,-0.142 0.27,-0.136 0.27,-0.124C0.27,-0.112 0.264,-0.106 0.251,-0.106L0.212,-0.106C0.2,-0.106 0.193,-0.112 0.193,-0.124C0.193,-0.136 0.2,-0.142 0.212,-0.142ZM0.252,-0.13L0.211,-0.13C0.206,-0.13 0.204,-0.128 0.204,-0.124C0.204,-0.12 0.206,-0.118 0.211,-0.118L0.252,-0.118C0.258,-0.118 0.26,-0.12 0.26,-0.124C0.26,-0.128 0.258,-0.13 0.252,-0.13ZM0.194,-0.077L0.313,-0.124L0.313,-0.113L0.194,-0.066L0.194,-0.077ZM0.256,-0.083L0.295,-0.083C0.307,-0.083 0.314,-0.077 0.314,-0.065C0.314,-0.053 0.307,-0.047 0.295,-0.047L0.256,-0.047C0.244,-0.047 0.237,-0.053 0.237,-0.065C0.237,-0.077 0.244,-0.083 0.256,-0.083ZM0.296,-0.071L0.255,-0.071C0.25,-0.071 0.248,-0.069 0.248,-0.065C0.248,-0.061 0.25,-0.059 0.255,-0.059L0.296,-0.059C0.301,-0.059 0.303,-0.061 0.303,-0.065C0.303,-0.069 0.301,-0.071 0.296,-0.071Z" style="fill:rgb(51,51,51);fill-rule:nonzero;"/>
            </g>
            <g transform="matrix(37.4231,0,0,37.4231,586.849,658.755)">
                <path d="M0.031,-0.532L0.031,-0.168C0.031,-0.056 0.09,0.008 0.198,0.008C0.227,0.008 0.253,0.003 0.275,-0.005C0.29,0.025 0.321,0.043 0.37,0.043L0.385,0.043L0.385,-0.055L0.375,-0.055C0.357,-0.055 0.349,-0.057 0.344,-0.07C0.358,-0.096 0.365,-0.129 0.365,-0.168L0.365,-0.532C0.365,-0.644 0.306,-0.708 0.198,-0.708C0.09,-0.708 0.031,-0.644 0.031,-0.532ZM0.141,-0.161L0.141,-0.539C0.141,-0.589 0.163,-0.608 0.198,-0.608C0.233,-0.608 0.255,-0.589 0.255,-0.539L0.255,-0.161C0.255,-0.111 0.233,-0.092 0.198,-0.092C0.163,-0.092 0.141,-0.111 0.141,-0.161Z" style="fill:rgb(153,153,153);fill-rule:nonzero;"/>
            </g>
            <g transform="matrix(37.4231,0,0,37.4231,601.669,658.755)">
                <path d="M0.145,-0.7L0.035,-0.7L0.035,-0.167C0.035,-0.055 0.091,0.009 0.199,0.009C0.307,0.009 0.363,-0.055 0.363,-0.167L0.363,-0.7L0.259,-0.7L0.259,-0.16C0.259,-0.11 0.237,-0.092 0.202,-0.092C0.167,-0.092 0.145,-0.11 0.145,-0.16L0.145,-0.7Z" style="fill:rgb(153,153,153);fill-rule:nonzero;"/>
            </g>
            <g transform="matrix(37.4231,0,0,37.4231,616.563,658.755)">
                <path d="M0.396,0L0.284,-0.7L0.123,-0.7L0.011,0L0.112,0L0.131,-0.127L0.266,-0.127L0.285,0L0.396,0ZM0.145,-0.222L0.198,-0.576L0.251,-0.222L0.145,-0.222Z" style="fill:rgb(153,153,153);fill-rule:nonzero;"/>
            </g>
            <g transform="matrix(37.4231,0,0,37.4231,631.794,658.755)">
                <path d="M0.04,-0.7L0.04,0L0.331,0L0.331,-0.1L0.15,-0.1L0.15,-0.7L0.04,-0.7Z" style="fill:rgb(153,153,153);fill-rule:nonzero;"/>
            </g>
            <g transform="matrix(37.4231,0,0,37.4231,644.481,658.755)">
                <rect x="0.04" y="-0.7" width="0.11" height="0.7" style="fill:rgb(153,153,153);fill-rule:nonzero;"/>
            </g>
            <g transform="matrix(37.4231,0,0,37.4231,651.591,658.755)">
                <path d="M0.008,-0.7L0.008,-0.6L0.123,-0.6L0.123,0L0.233,0L0.233,-0.6L0.348,-0.6L0.348,-0.7L0.008,-0.7Z" style="fill:rgb(153,153,153);fill-rule:nonzero;"/>
            </g>
            <g transform="matrix(37.4231,0,0,37.4231,664.914,658.755)">
                <path d="M0.143,-0.232L0.143,0L0.253,0L0.253,-0.232L0.392,-0.7L0.287,-0.7L0.203,-0.381L0.119,-0.7L0.004,-0.7L0.143,-0.232Z" style="fill:rgb(153,153,153);fill-rule:nonzero;"/>
            </g>
            <g transform="matrix(32.6995,0,0,32.6995,587.235,628.044)">
                <path d="M0.202,-0.7L0.04,-0.7L0.04,0L0.15,0L0.15,-0.263L0.202,-0.263C0.312,-0.263 0.366,-0.324 0.366,-0.436L0.366,-0.527C0.366,-0.639 0.312,-0.7 0.202,-0.7ZM0.15,-0.6L0.202,-0.6C0.237,-0.6 0.256,-0.584 0.256,-0.534L0.256,-0.429C0.256,-0.379 0.237,-0.363 0.202,-0.363L0.15,-0.363L0.15,-0.6Z" style="fill:rgb(153,153,153);fill-rule:nonzero;"/>
            </g>
            <g transform="matrix(32.6995,0,0,32.6995,599.563,628.044)">
                <path d="M0.27,0L0.382,0C0.371,-0.026 0.37,-0.051 0.37,-0.085L0.37,-0.193C0.37,-0.266 0.352,-0.319 0.297,-0.342C0.346,-0.365 0.369,-0.412 0.369,-0.484L0.369,-0.539C0.369,-0.647 0.32,-0.7 0.206,-0.7L0.04,-0.7L0.04,0L0.15,0L0.15,-0.285L0.188,-0.285C0.238,-0.285 0.26,-0.261 0.26,-0.196L0.26,-0.086C0.26,-0.029 0.264,-0.018 0.27,0ZM0.15,-0.6L0.203,-0.6C0.242,-0.6 0.259,-0.578 0.259,-0.528L0.259,-0.459C0.259,-0.403 0.234,-0.385 0.193,-0.385L0.15,-0.385L0.15,-0.6Z" style="fill:rgb(153,153,153);fill-rule:nonzero;"/>
            </g>
            <g transform="matrix(32.6995,0,0,32.6995,612.708,628.044)">
                <path d="M0.15,-0.405L0.15,-0.6L0.34,-0.6L0.34,-0.7L0.04,-0.7L0.04,0L0.34,0L0.34,-0.1L0.15,-0.1L0.15,-0.305L0.301,-0.305L0.301,-0.405L0.15,-0.405Z" style="fill:rgb(153,153,153);fill-rule:nonzero;"/>
            </g>
            <g transform="matrix(32.6995,0,0,32.6995,624.741,628.044)">
                <path d="M0.273,-0.203L0.192,-0.7L0.039,-0.7L0.039,0L0.135,0L0.135,-0.495L0.217,0L0.321,0L0.397,-0.502L0.397,0L0.501,0L0.501,-0.7L0.348,-0.7L0.273,-0.203Z" style="fill:rgb(153,153,153);fill-rule:nonzero;"/>
            </g>
            <g transform="matrix(32.6995,0,0,32.6995,642.432,628.044)">
                <rect x="0.04" y="-0.7" width="0.11" height="0.7" style="fill:rgb(153,153,153);fill-rule:nonzero;"/>
            </g>
            <g transform="matrix(32.6995,0,0,32.6995,648.645,628.044)">
                <path d="M0.145,-0.7L0.035,-0.7L0.035,-0.167C0.035,-0.055 0.091,0.009 0.199,0.009C0.307,0.009 0.363,-0.055 0.363,-0.167L0.363,-0.7L0.259,-0.7L0.259,-0.16C0.259,-0.11 0.237,-0.092 0.202,-0.092C0.167,-0.092 0.145,-0.11 0.145,-0.16L0.145,-0.7Z" style="fill:rgb(153,153,153);fill-rule:nonzero;"/>
            </g>
            <g transform="matrix(32.6995,0,0,32.6995,661.659,628.044)">
                <path d="M0.273,-0.203L0.192,-0.7L0.039,-0.7L0.039,0L0.135,0L0.135,-0.495L0.217,0L0.321,0L0.397,-0.502L0.397,0L0.501,0L0.501,-0.7L0.348,-0.7L0.273,-0.203Z" style="fill:rgb(153,153,153);fill-rule:nonzero;"/>
            </g>
            <g transform="matrix(0,128.257,128.257,0,555.471,571.271)">
                <path d="M0.527,0.254L0.633,0.254C0.666,0.254 0.684,0.271 0.684,0.302C0.684,0.311 0.683,0.318 0.681,0.325C0.689,0.329 0.695,0.338 0.695,0.353L0.695,0.357L0.666,0.357L0.666,0.354C0.666,0.349 0.665,0.347 0.662,0.345C0.654,0.349 0.644,0.351 0.633,0.351L0.527,0.351C0.494,0.351 0.475,0.334 0.475,0.302C0.475,0.271 0.494,0.254 0.527,0.254ZM0.635,0.286L0.525,0.286C0.51,0.286 0.505,0.292 0.505,0.302C0.505,0.313 0.51,0.319 0.525,0.319L0.635,0.319C0.65,0.319 0.655,0.313 0.655,0.302C0.655,0.292 0.65,0.286 0.635,0.286Z" style="fill:rgb(51,51,51);fill-rule:nonzero;"/>
            </g>
            <g transform="matrix(0,128.257,128.257,0,584.436,571.271)">
                <path d="M0.478,0.21L0.635,0.21C0.65,0.21 0.655,0.204 0.655,0.193C0.655,0.183 0.65,0.177 0.635,0.177L0.478,0.177L0.478,0.145L0.633,0.145C0.666,0.145 0.685,0.161 0.685,0.192C0.685,0.224 0.666,0.24 0.633,0.24L0.478,0.24L0.478,0.21Z" style="fill:rgb(51,51,51);fill-rule:nonzero;"/>
            </g>
            <g transform="matrix(0,128.257,128.257,0,614.563,571.271)">
                <path d="M0.478,0.051L0.682,0.019L0.682,0.048L0.645,0.054L0.645,0.093L0.682,0.099L0.682,0.131L0.478,0.098L0.478,0.051ZM0.514,0.073L0.617,0.089L0.617,0.058L0.514,0.073Z" style="fill:rgb(51,51,51);fill-rule:nonzero;"/>
            </g>
            <g transform="matrix(0,128.257,128.257,0,643.676,571.271)">
                <path d="M0.478,-0.081L0.682,-0.081L0.682,0.004L0.653,0.004L0.653,-0.049L0.478,-0.049L0.478,-0.081Z" style="fill:rgb(51,51,51);fill-rule:nonzero;"/>
            </g>
            <g transform="matrix(128.257,0,0,-128.257,573.652,631.415)">
                <rect x="0.564" y="-0.213" width="0.032" height="0.204" style="fill:rgb(51,51,51);"/>
            </g>
            <g transform="matrix(0,128.257,128.257,0,682.707,571.271)">
                <path d="M0.478,-0.24L0.507,-0.24L0.507,-0.207L0.682,-0.207L0.682,-0.175L0.507,-0.175L0.507,-0.141L0.478,-0.141L0.478,-0.24Z" style="fill:rgb(51,51,51);fill-rule:nonzero;"/>
            </g>
            <g transform="matrix(0,128.257,128.257,0,710.848,571.271)">
                <path d="M0.478,-0.274L0.571,-0.299L0.478,-0.323L0.478,-0.357L0.614,-0.316L0.682,-0.316L0.682,-0.284L0.614,-0.284L0.478,-0.244L0.478,-0.274Z" style="fill:rgb(51,51,51);fill-rule:nonzero;"/>
            </g>
            <g transform="matrix(0,121.065,121.065,0,554.453,565.985)">
                <path d="M0.324,0.282L0.513,0.282L0.513,0.311L0.442,0.311L0.442,0.325C0.442,0.355 0.425,0.37 0.395,0.37L0.37,0.37C0.34,0.37 0.324,0.355 0.324,0.325L0.324,0.282ZM0.351,0.311L0.351,0.325C0.351,0.335 0.355,0.34 0.368,0.34L0.397,0.34C0.41,0.34 0.415,0.335 0.415,0.325L0.415,0.311L0.351,0.311Z" style="fill:rgb(51,51,51);fill-rule:nonzero;"/>
            </g>
            <g transform="matrix(0,121.065,121.065,0,579.633,565.985)">
                <path d="M0.324,0.175L0.513,0.175L0.513,0.205L0.436,0.205L0.436,0.215C0.436,0.229 0.442,0.235 0.46,0.235L0.489,0.235C0.505,0.235 0.508,0.236 0.513,0.238L0.513,0.268C0.506,0.265 0.499,0.265 0.49,0.265L0.46,0.265C0.441,0.265 0.426,0.26 0.42,0.245C0.414,0.258 0.401,0.264 0.382,0.264L0.367,0.264C0.338,0.264 0.324,0.251 0.324,0.22L0.324,0.175ZM0.351,0.205L0.351,0.219C0.351,0.23 0.356,0.235 0.37,0.235L0.389,0.235C0.404,0.235 0.409,0.228 0.409,0.217L0.409,0.205L0.351,0.205Z" style="fill:rgb(51,51,51);fill-rule:nonzero;"/>
            </g>
            <g transform="matrix(0,121.065,121.065,0,604.548,565.985)">
                <path d="M0.324,0.078L0.513,0.078L0.513,0.159L0.486,0.159L0.486,0.108L0.43,0.108L0.43,0.149L0.403,0.149L0.403,0.108L0.351,0.108L0.351,0.159L0.324,0.159L0.324,0.078Z" style="fill:rgb(51,51,51);fill-rule:nonzero;"/>
            </g>
            <g transform="matrix(0,121.065,121.065,0,633.848,565.985)">
                <path d="M0.324,0.019L0.458,-0.001L0.324,-0.023L0.324,-0.065L0.513,-0.065L0.513,-0.039L0.379,-0.039L0.513,-0.017L0.513,0.011L0.377,0.032L0.513,0.032L0.513,0.06L0.324,0.06L0.324,0.019Z" style="fill:rgb(51,51,51);fill-rule:nonzero;"/>
            </g>
            <g transform="matrix(121.065,0,0,-121.065,594.922,604.354)">
                <rect x="0.403" y="-0.196" width="0.03" height="0.189" style="fill:rgb(51,51,51);"/>
            </g>
            <g transform="matrix(0,121.065,121.065,0,677.009,565.985)">
                <path d="M0.324,-0.164L0.469,-0.164C0.483,-0.164 0.488,-0.17 0.488,-0.18C0.488,-0.189 0.483,-0.195 0.469,-0.195L0.324,-0.195L0.324,-0.225L0.468,-0.225C0.498,-0.225 0.515,-0.21 0.515,-0.181C0.515,-0.151 0.498,-0.136 0.468,-0.136L0.324,-0.136L0.324,-0.164Z" style="fill:rgb(51,51,51);fill-rule:nonzero;"/>
            </g>
            <g transform="matrix(0,121.065,121.065,0,707.682,565.985)">
                <path d="M0.324,-0.286L0.458,-0.306L0.324,-0.328L0.324,-0.37L0.513,-0.37L0.513,-0.344L0.379,-0.344L0.513,-0.322L0.513,-0.293L0.377,-0.273L0.513,-0.273L0.513,-0.245L0.324,-0.245L0.324,-0.286Z" style="fill:rgb(51,51,51);fill-rule:nonzero;"/>
            </g>
        </g>
    </g>
</svg>
