<?xml version="1.0" encoding="UTF-8" standalone="no"?>
<!DOCTYPE svg PUBLIC "-//W3C//DTD SVG 1.1//EN" "http://www.w3.org/Graphics/SVG/1.1/DTD/svg11.dtd">
<svg width="100%" height="100%" viewBox="0 0 191 191" version="1.1" xmlns="http://www.w3.org/2000/svg" xmlns:xlink="http://www.w3.org/1999/xlink" xml:space="preserve" xmlns:serif="http://www.serif.com/" style="fill-rule:evenodd;clip-rule:evenodd;stroke-linejoin:round;stroke-miterlimit:2;">
    <g transform="matrix(1,0,0,1,-309,-535)">
        <g id="Object">
            <g transform="matrix(0,188.543,188.543,0,403.73,542.936)">
                <path d="M0.028,0.03L0.035,0.02C0.042,0.008 0.042,-0.008 0.035,-0.02L0.028,-0.03C0.023,-0.039 0.025,-0.051 0.032,-0.058L0.041,-0.067C0.051,-0.076 0.055,-0.091 0.051,-0.105L0.048,-0.116C0.047,-0.118 0.047,-0.121 0.047,-0.123C0.047,-0.131 0.051,-0.139 0.059,-0.143L0.069,-0.148C0.081,-0.155 0.089,-0.168 0.089,-0.181L0.089,-0.195C0.089,-0.206 0.096,-0.215 0.106,-0.217L0.118,-0.22C0.132,-0.223 0.142,-0.234 0.146,-0.248L0.148,-0.26C0.151,-0.27 0.16,-0.277 0.171,-0.277L0.183,-0.277C0.198,-0.276 0.211,-0.284 0.217,-0.296L0.223,-0.307C0.228,-0.316 0.239,-0.321 0.249,-0.318L0.261,-0.314C0.275,-0.31 0.289,-0.314 0.299,-0.325L0.307,-0.334C0.315,-0.341 0.327,-0.343 0.336,-0.337L0.346,-0.331C0.358,-0.323 0.373,-0.323 0.385,-0.331L0.396,-0.337C0.405,-0.343 0.417,-0.341 0.424,-0.334L0.432,-0.325C0.442,-0.314 0.457,-0.31 0.47,-0.314L0.482,-0.318C0.492,-0.321 0.503,-0.316 0.508,-0.307L0.514,-0.296C0.521,-0.284 0.534,-0.276 0.548,-0.277L0.56,-0.277C0.571,-0.277 0.581,-0.27 0.583,-0.26L0.586,-0.248C0.589,-0.234 0.6,-0.223 0.614,-0.22L0.625,-0.217C0.636,-0.215 0.643,-0.206 0.643,-0.195L0.642,-0.181C0.642,-0.168 0.65,-0.155 0.662,-0.148L0.673,-0.143C0.68,-0.139 0.685,-0.131 0.685,-0.123C0.685,-0.121 0.684,-0.118 0.684,-0.116L0.68,-0.105C0.676,-0.091 0.68,-0.076 0.69,-0.067L0.699,-0.058C0.707,-0.051 0.708,-0.039 0.703,-0.03L0.697,-0.02C0.693,-0.014 0.691,-0.007 0.691,0C0.691,0.007 0.693,0.014 0.697,0.02L0.703,0.03C0.708,0.039 0.707,0.051 0.699,0.058L0.69,0.067C0.68,0.076 0.676,0.091 0.68,0.105L0.684,0.116C0.684,0.118 0.685,0.121 0.685,0.123C0.685,0.131 0.68,0.139 0.673,0.143L0.662,0.148C0.65,0.155 0.642,0.168 0.642,0.181L0.643,0.195C0.643,0.206 0.636,0.215 0.625,0.217L0.614,0.22C0.6,0.223 0.589,0.234 0.586,0.248L0.583,0.26C0.581,0.27 0.571,0.277 0.56,0.277L0.548,0.277C0.534,0.276 0.521,0.284 0.514,0.296L0.508,0.307C0.503,0.316 0.492,0.321 0.482,0.318L0.47,0.314C0.457,0.31 0.442,0.314 0.432,0.325L0.424,0.334C0.417,0.341 0.405,0.343 0.396,0.337L0.385,0.331C0.373,0.323 0.358,0.323 0.346,0.331L0.336,0.337C0.327,0.343 0.315,0.341 0.307,0.334L0.299,0.325C0.289,0.314 0.275,0.31 0.261,0.314L0.249,0.318C0.239,0.321 0.228,0.316 0.223,0.307L0.217,0.296C0.211,0.284 0.198,0.276 0.183,0.277L0.171,0.277C0.16,0.277 0.151,0.27 0.148,0.26L0.146,0.248C0.142,0.234 0.132,0.223 0.118,0.22L0.106,0.217C0.096,0.215 0.089,0.206 0.089,0.195L0.089,0.181C0.089,0.168 0.081,0.155 0.069,0.148L0.059,0.143C0.051,0.139 0.047,0.131 0.047,0.123C0.047,0.121 0.047,0.118 0.048,0.116L0.051,0.105C0.055,0.091 0.051,0.076 0.041,0.067L0.032,0.058C0.028,0.054 0.025,0.048 0.025,0.042C0.025,0.038 0.026,0.034 0.028,0.03ZM0.053,0.01C0.051,0.009 0.049,0.01 0.048,0.011C0.048,0.012 0.048,0.012 0.047,0.013L0.041,0.022C0.039,0.027 0.037,0.032 0.037,0.037C0.036,0.039 0.038,0.04 0.04,0.04C0.042,0.041 0.044,0.039 0.044,0.037C0.044,0.033 0.045,0.03 0.047,0.026L0.053,0.017L0.055,0.013C0.055,0.012 0.054,0.011 0.053,0.01ZM0.056,-0.012C0.055,-0.014 0.054,-0.015 0.053,-0.017L0.047,-0.026C0.046,-0.028 0.045,-0.031 0.045,-0.033C0.044,-0.035 0.042,-0.036 0.04,-0.036C0.038,-0.035 0.037,-0.033 0.037,-0.031C0.038,-0.028 0.04,-0.025 0.041,-0.022L0.047,-0.013C0.048,-0.012 0.049,-0.011 0.049,-0.009C0.05,-0.007 0.052,-0.007 0.054,-0.007C0.055,-0.008 0.056,-0.009 0.056,-0.011C0.056,-0.011 0.056,-0.012 0.056,-0.012ZM0.064,-0.077C0.062,-0.078 0.06,-0.077 0.059,-0.075C0.058,-0.073 0.056,-0.072 0.055,-0.07L0.046,-0.062C0.045,-0.061 0.044,-0.059 0.043,-0.058C0.041,-0.056 0.042,-0.054 0.043,-0.053C0.045,-0.052 0.047,-0.052 0.048,-0.054C0.049,-0.055 0.05,-0.056 0.051,-0.057L0.06,-0.065C0.062,-0.067 0.064,-0.069 0.065,-0.072C0.066,-0.072 0.066,-0.073 0.066,-0.074C0.066,-0.075 0.065,-0.076 0.064,-0.077ZM0.068,0.076C0.066,0.072 0.063,0.068 0.06,0.065L0.051,0.057C0.05,0.055 0.047,0.055 0.046,0.057C0.045,0.058 0.045,0.06 0.046,0.062L0.055,0.07C0.057,0.073 0.059,0.076 0.061,0.079C0.062,0.081 0.064,0.082 0.066,0.081C0.067,0.081 0.068,0.079 0.068,0.078C0.068,0.077 0.068,0.077 0.068,0.076ZM0.064,0.098C0.062,0.098 0.06,0.099 0.06,0.101L0.058,0.106C0.056,0.113 0.056,0.12 0.059,0.127C0.06,0.129 0.062,0.13 0.064,0.129C0.066,0.128 0.067,0.126 0.066,0.124C0.064,0.119 0.063,0.113 0.065,0.108L0.067,0.103C0.067,0.102 0.067,0.102 0.067,0.102C0.067,0.1 0.066,0.099 0.064,0.098ZM0.062,-0.125C0.06,-0.125 0.058,-0.124 0.058,-0.122C0.056,-0.117 0.057,-0.111 0.058,-0.106L0.061,-0.096C0.062,-0.094 0.064,-0.093 0.066,-0.094C0.067,-0.094 0.068,-0.096 0.068,-0.097C0.068,-0.098 0.068,-0.098 0.068,-0.098L0.065,-0.108C0.064,-0.112 0.064,-0.116 0.065,-0.12C0.065,-0.121 0.065,-0.121 0.065,-0.121C0.065,-0.123 0.064,-0.124 0.062,-0.125ZM0.366,-0.296C0.203,-0.296 0.07,-0.163 0.07,0C0.07,0.163 0.203,0.296 0.366,0.296C0.529,0.296 0.662,0.163 0.662,0C0.662,-0.163 0.529,-0.296 0.366,-0.296ZM0.097,-0.157C0.096,-0.158 0.093,-0.158 0.092,-0.156C0.09,-0.153 0.087,-0.15 0.083,-0.148L0.074,-0.143C0.072,-0.142 0.072,-0.14 0.073,-0.138C0.074,-0.136 0.076,-0.136 0.078,-0.137L0.087,-0.142C0.092,-0.144 0.096,-0.148 0.098,-0.152C0.099,-0.153 0.099,-0.154 0.099,-0.154C0.099,-0.155 0.098,-0.157 0.097,-0.157ZM0.101,0.157C0.098,0.15 0.093,0.145 0.087,0.142L0.082,0.139C0.08,0.138 0.078,0.139 0.077,0.14C0.076,0.142 0.076,0.144 0.078,0.145L0.083,0.148C0.088,0.151 0.092,0.155 0.094,0.16C0.095,0.162 0.097,0.163 0.099,0.162C0.1,0.161 0.101,0.16 0.101,0.158C0.101,0.158 0.101,0.157 0.101,0.157ZM0.109,-0.204C0.107,-0.205 0.105,-0.205 0.104,-0.203C0.098,-0.197 0.096,-0.189 0.096,-0.182L0.096,-0.178C0.096,-0.176 0.098,-0.174 0.1,-0.174C0.102,-0.174 0.103,-0.176 0.103,-0.178L0.103,-0.183C0.103,-0.189 0.105,-0.194 0.109,-0.199C0.11,-0.199 0.11,-0.2 0.11,-0.201C0.11,-0.202 0.11,-0.203 0.109,-0.204ZM0.112,0.201C0.106,0.197 0.103,0.19 0.103,0.183C0.103,0.181 0.102,0.179 0.1,0.179C0.098,0.179 0.096,0.181 0.096,0.183L0.096,0.183C0.096,0.192 0.1,0.201 0.107,0.207C0.109,0.208 0.111,0.208 0.112,0.207C0.113,0.206 0.113,0.205 0.113,0.204C0.113,0.203 0.113,0.202 0.112,0.201ZM0.151,-0.226C0.149,-0.228 0.147,-0.227 0.146,-0.226C0.142,-0.221 0.137,-0.217 0.131,-0.216L0.127,-0.215C0.125,-0.215 0.124,-0.213 0.124,-0.211C0.125,-0.209 0.127,-0.208 0.129,-0.208L0.133,-0.209C0.141,-0.211 0.147,-0.215 0.152,-0.221C0.152,-0.222 0.152,-0.223 0.152,-0.224C0.152,-0.225 0.152,-0.226 0.151,-0.226ZM0.154,0.226C0.15,0.217 0.142,0.211 0.133,0.209C0.131,0.209 0.129,0.21 0.129,0.212C0.128,0.214 0.13,0.216 0.132,0.216C0.139,0.218 0.145,0.223 0.148,0.229C0.149,0.231 0.151,0.232 0.153,0.231C0.154,0.23 0.155,0.229 0.155,0.227C0.155,0.227 0.155,0.226 0.154,0.226ZM0.176,-0.265C0.175,-0.267 0.173,-0.268 0.171,-0.267C0.162,-0.264 0.156,-0.257 0.153,-0.248C0.152,-0.246 0.153,-0.244 0.155,-0.243C0.157,-0.243 0.159,-0.244 0.16,-0.246C0.162,-0.252 0.167,-0.258 0.174,-0.261C0.175,-0.261 0.176,-0.263 0.176,-0.264C0.176,-0.265 0.176,-0.265 0.176,-0.265ZM0.178,0.262C0.171,0.26 0.165,0.256 0.161,0.249C0.16,0.247 0.158,0.247 0.156,0.248C0.155,0.249 0.154,0.251 0.155,0.253C0.159,0.261 0.167,0.267 0.176,0.269C0.178,0.269 0.18,0.268 0.18,0.266C0.181,0.266 0.181,0.266 0.181,0.265C0.181,0.264 0.179,0.262 0.178,0.262ZM0.22,-0.279C0.219,-0.281 0.216,-0.28 0.215,-0.279C0.211,-0.273 0.204,-0.27 0.197,-0.269C0.195,-0.269 0.193,-0.268 0.193,-0.266C0.193,-0.264 0.195,-0.262 0.197,-0.262C0.206,-0.262 0.215,-0.267 0.221,-0.274C0.221,-0.275 0.222,-0.276 0.222,-0.276C0.222,-0.277 0.221,-0.279 0.22,-0.279ZM0.224,0.278C0.219,0.27 0.211,0.264 0.202,0.263C0.2,0.262 0.198,0.264 0.198,0.266C0.197,0.268 0.199,0.269 0.201,0.27C0.208,0.271 0.214,0.276 0.217,0.282C0.218,0.284 0.221,0.284 0.222,0.283C0.224,0.283 0.224,0.282 0.224,0.28C0.224,0.28 0.224,0.279 0.224,0.278ZM0.254,-0.309C0.253,-0.309 0.252,-0.309 0.251,-0.309C0.243,-0.309 0.234,-0.306 0.229,-0.3C0.227,-0.298 0.227,-0.296 0.229,-0.295C0.23,-0.293 0.232,-0.293 0.234,-0.295C0.238,-0.299 0.244,-0.302 0.251,-0.302C0.252,-0.302 0.252,-0.302 0.253,-0.302C0.255,-0.301 0.257,-0.303 0.257,-0.305C0.257,-0.305 0.257,-0.305 0.257,-0.305C0.257,-0.307 0.256,-0.309 0.254,-0.309ZM0.262,0.303C0.261,0.301 0.259,0.3 0.257,0.301C0.255,0.301 0.253,0.302 0.251,0.302C0.246,0.302 0.241,0.3 0.237,0.297C0.235,0.296 0.233,0.296 0.232,0.298C0.23,0.3 0.231,0.302 0.233,0.303C0.238,0.307 0.244,0.309 0.251,0.309C0.254,0.309 0.256,0.309 0.259,0.308C0.261,0.307 0.262,0.306 0.262,0.304C0.262,0.304 0.262,0.304 0.262,0.303ZM0.302,-0.312C0.3,-0.313 0.298,-0.313 0.296,-0.312L0.296,-0.311C0.291,-0.306 0.285,-0.303 0.278,-0.303L0.277,-0.303C0.275,-0.303 0.274,-0.302 0.274,-0.3C0.274,-0.298 0.275,-0.296 0.277,-0.296L0.278,-0.296C0.287,-0.296 0.295,-0.3 0.301,-0.306L0.302,-0.307C0.302,-0.307 0.303,-0.308 0.303,-0.309C0.303,-0.31 0.302,-0.311 0.302,-0.312ZM0.305,0.31L0.301,0.306C0.296,0.301 0.29,0.297 0.282,0.296C0.28,0.296 0.279,0.297 0.278,0.299C0.278,0.301 0.279,0.303 0.281,0.304C0.287,0.304 0.292,0.307 0.296,0.311L0.3,0.315C0.301,0.317 0.303,0.317 0.305,0.315C0.306,0.315 0.306,0.314 0.306,0.313C0.306,0.312 0.306,0.311 0.305,0.31ZM0.344,-0.324L0.343,-0.324C0.338,-0.328 0.332,-0.329 0.327,-0.329C0.323,-0.329 0.32,-0.329 0.317,-0.328C0.315,-0.327 0.314,-0.325 0.315,-0.323C0.315,-0.321 0.317,-0.32 0.319,-0.321C0.322,-0.322 0.324,-0.322 0.327,-0.322C0.331,-0.322 0.336,-0.321 0.339,-0.318L0.34,-0.318C0.342,-0.317 0.344,-0.317 0.345,-0.319C0.345,-0.32 0.345,-0.32 0.345,-0.321C0.345,-0.322 0.345,-0.324 0.344,-0.324ZM0.349,0.317C0.348,0.315 0.345,0.315 0.344,0.316L0.339,0.318C0.336,0.321 0.331,0.322 0.327,0.322C0.325,0.322 0.324,0.322 0.323,0.322C0.321,0.321 0.319,0.323 0.319,0.325C0.319,0.327 0.32,0.329 0.322,0.329C0.324,0.329 0.325,0.329 0.327,0.329C0.332,0.329 0.338,0.328 0.343,0.324L0.348,0.322C0.349,0.321 0.349,0.32 0.349,0.319C0.349,0.318 0.349,0.317 0.349,0.317ZM0.39,-0.321C0.389,-0.323 0.386,-0.323 0.385,-0.322L0.379,-0.318C0.375,-0.316 0.37,-0.315 0.366,-0.315C0.365,-0.315 0.365,-0.315 0.364,-0.315C0.362,-0.315 0.36,-0.313 0.36,-0.311C0.36,-0.309 0.362,-0.308 0.364,-0.308C0.364,-0.308 0.365,-0.308 0.366,-0.308C0.372,-0.308 0.377,-0.309 0.382,-0.312L0.389,-0.316C0.39,-0.317 0.39,-0.318 0.39,-0.319C0.39,-0.32 0.39,-0.321 0.39,-0.321ZM0.392,0.318L0.382,0.312C0.378,0.31 0.374,0.308 0.369,0.308C0.367,0.307 0.365,0.309 0.365,0.311C0.365,0.313 0.366,0.315 0.368,0.315C0.372,0.315 0.375,0.317 0.379,0.318L0.389,0.325C0.39,0.326 0.393,0.325 0.394,0.323C0.394,0.323 0.394,0.322 0.394,0.322C0.394,0.32 0.394,0.319 0.392,0.318ZM0.432,-0.314L0.428,-0.319C0.423,-0.324 0.417,-0.328 0.41,-0.329C0.408,-0.329 0.406,-0.328 0.406,-0.326C0.406,-0.324 0.407,-0.322 0.409,-0.322C0.414,-0.321 0.419,-0.318 0.423,-0.314L0.427,-0.309C0.429,-0.308 0.431,-0.308 0.432,-0.309C0.433,-0.31 0.433,-0.311 0.433,-0.312C0.433,-0.313 0.433,-0.314 0.432,-0.314ZM0.435,0.306C0.434,0.305 0.432,0.305 0.43,0.306L0.423,0.314C0.42,0.317 0.417,0.319 0.413,0.321C0.411,0.321 0.41,0.323 0.411,0.325C0.411,0.327 0.414,0.328 0.415,0.327C0.42,0.326 0.425,0.323 0.428,0.319L0.436,0.311C0.436,0.31 0.437,0.309 0.437,0.309C0.437,0.308 0.436,0.307 0.435,0.306ZM0.478,-0.305C0.477,-0.307 0.475,-0.309 0.474,-0.308C0.473,-0.308 0.472,-0.308 0.471,-0.308L0.461,-0.304C0.458,-0.304 0.456,-0.303 0.454,-0.303C0.453,-0.303 0.452,-0.303 0.451,-0.303C0.449,-0.304 0.447,-0.302 0.447,-0.3C0.447,-0.298 0.448,-0.296 0.45,-0.296C0.451,-0.296 0.452,-0.296 0.454,-0.296C0.457,-0.296 0.46,-0.296 0.463,-0.297L0.474,-0.301C0.474,-0.301 0.475,-0.301 0.475,-0.301C0.477,-0.301 0.478,-0.303 0.478,-0.305C0.478,-0.305 0.478,-0.305 0.478,-0.305ZM0.479,0.302C0.477,0.302 0.475,0.301 0.474,0.301L0.463,0.297C0.46,0.297 0.458,0.296 0.455,0.296C0.453,0.296 0.451,0.297 0.451,0.299C0.451,0.301 0.453,0.303 0.455,0.303C0.457,0.303 0.459,0.304 0.461,0.304L0.471,0.308C0.474,0.308 0.476,0.309 0.479,0.309C0.481,0.309 0.482,0.307 0.483,0.305C0.483,0.305 0.483,0.305 0.483,0.305C0.483,0.303 0.481,0.302 0.479,0.302ZM0.514,-0.281L0.508,-0.292C0.506,-0.296 0.503,-0.3 0.5,-0.302C0.498,-0.304 0.496,-0.303 0.495,-0.302C0.493,-0.3 0.494,-0.298 0.495,-0.297C0.498,-0.295 0.5,-0.292 0.502,-0.289L0.508,-0.278C0.509,-0.276 0.511,-0.275 0.513,-0.276C0.514,-0.277 0.515,-0.278 0.515,-0.279C0.515,-0.28 0.515,-0.281 0.514,-0.281ZM0.516,0.273C0.515,0.272 0.512,0.272 0.511,0.273C0.51,0.275 0.508,0.277 0.507,0.279L0.502,0.289C0.501,0.291 0.5,0.292 0.498,0.294C0.497,0.295 0.497,0.298 0.499,0.299C0.5,0.301 0.502,0.3 0.504,0.299C0.506,0.297 0.507,0.295 0.508,0.292L0.514,0.282C0.515,0.281 0.516,0.279 0.517,0.278C0.517,0.277 0.518,0.276 0.518,0.276C0.518,0.275 0.517,0.274 0.516,0.273ZM0.556,-0.269C0.554,-0.269 0.551,-0.27 0.548,-0.27L0.535,-0.269C0.534,-0.269 0.533,-0.269 0.532,-0.27C0.53,-0.27 0.528,-0.269 0.527,-0.267C0.527,-0.265 0.528,-0.263 0.53,-0.262C0.532,-0.262 0.534,-0.262 0.535,-0.262L0.548,-0.262C0.55,-0.262 0.553,-0.262 0.555,-0.262C0.556,-0.261 0.558,-0.262 0.559,-0.264C0.559,-0.265 0.559,-0.265 0.559,-0.265C0.559,-0.267 0.558,-0.268 0.556,-0.269ZM0.563,0.262C0.562,0.26 0.56,0.26 0.558,0.26C0.555,0.262 0.552,0.262 0.548,0.262L0.536,0.262C0.534,0.262 0.532,0.264 0.532,0.266C0.532,0.268 0.534,0.269 0.536,0.269L0.548,0.27C0.553,0.27 0.557,0.269 0.561,0.267C0.563,0.266 0.563,0.265 0.563,0.264C0.563,0.263 0.563,0.263 0.563,0.262ZM0.584,-0.228C0.583,-0.23 0.582,-0.232 0.582,-0.234L0.579,-0.245C0.579,-0.248 0.578,-0.25 0.577,-0.252C0.576,-0.253 0.574,-0.254 0.572,-0.253C0.57,-0.252 0.57,-0.25 0.57,-0.248C0.571,-0.247 0.572,-0.245 0.572,-0.244L0.575,-0.233C0.575,-0.23 0.576,-0.227 0.578,-0.225C0.579,-0.223 0.581,-0.222 0.583,-0.223C0.584,-0.224 0.585,-0.225 0.585,-0.227C0.585,-0.227 0.584,-0.228 0.584,-0.228ZM0.586,0.22C0.584,0.219 0.582,0.219 0.58,0.221C0.578,0.224 0.576,0.228 0.575,0.233L0.572,0.245C0.571,0.247 0.572,0.249 0.574,0.249C0.576,0.25 0.578,0.249 0.579,0.247C0.579,0.246 0.579,0.246 0.579,0.245L0.582,0.234C0.583,0.231 0.584,0.228 0.586,0.225C0.587,0.224 0.587,0.224 0.587,0.223C0.587,0.222 0.587,0.221 0.586,0.22ZM0.625,-0.206C0.621,-0.21 0.616,-0.212 0.611,-0.214L0.601,-0.216C0.599,-0.216 0.597,-0.215 0.596,-0.213C0.596,-0.211 0.597,-0.209 0.599,-0.209L0.609,-0.206C0.613,-0.205 0.617,-0.204 0.62,-0.201C0.622,-0.199 0.624,-0.2 0.625,-0.201C0.626,-0.202 0.626,-0.203 0.626,-0.204C0.626,-0.205 0.626,-0.206 0.625,-0.206ZM0.628,0.197C0.626,0.196 0.624,0.196 0.623,0.198C0.619,0.202 0.615,0.205 0.609,0.206L0.604,0.208C0.602,0.208 0.6,0.21 0.601,0.212C0.601,0.214 0.603,0.215 0.605,0.215L0.611,0.214C0.618,0.212 0.624,0.208 0.629,0.202C0.629,0.202 0.629,0.201 0.629,0.2C0.629,0.199 0.629,0.198 0.628,0.197ZM0.639,0.151C0.637,0.149 0.635,0.15 0.634,0.151C0.63,0.157 0.628,0.163 0.628,0.17L0.628,0.177C0.628,0.179 0.63,0.181 0.632,0.181C0.634,0.181 0.635,0.179 0.635,0.177L0.635,0.17C0.635,0.165 0.637,0.16 0.64,0.156C0.64,0.155 0.64,0.154 0.64,0.154C0.64,0.152 0.64,0.151 0.639,0.151ZM0.632,-0.185C0.63,-0.185 0.628,-0.184 0.628,-0.182L0.628,-0.17L0.628,-0.17C0.628,-0.165 0.629,-0.16 0.631,-0.156C0.632,-0.154 0.634,-0.153 0.636,-0.154C0.637,-0.155 0.638,-0.156 0.638,-0.157C0.638,-0.158 0.638,-0.159 0.637,-0.159C0.636,-0.162 0.635,-0.166 0.635,-0.17L0.635,-0.182C0.635,-0.184 0.634,-0.185 0.632,-0.185ZM0.673,-0.126C0.67,-0.133 0.665,-0.139 0.658,-0.143L0.654,-0.145C0.652,-0.146 0.65,-0.145 0.649,-0.143C0.648,-0.142 0.649,-0.139 0.651,-0.138L0.655,-0.136C0.66,-0.134 0.664,-0.129 0.666,-0.123C0.667,-0.122 0.669,-0.121 0.671,-0.121C0.672,-0.122 0.673,-0.123 0.673,-0.125C0.673,-0.125 0.673,-0.126 0.673,-0.126ZM0.671,0.117C0.669,0.116 0.667,0.118 0.667,0.12C0.665,0.127 0.661,0.133 0.655,0.136C0.653,0.137 0.652,0.139 0.653,0.141C0.654,0.143 0.656,0.144 0.658,0.143C0.666,0.138 0.672,0.13 0.674,0.121C0.674,0.121 0.674,0.121 0.674,0.12C0.674,0.119 0.673,0.117 0.671,0.117ZM0.669,-0.104C0.667,-0.105 0.665,-0.104 0.665,-0.102L0.663,-0.097C0.662,-0.094 0.662,-0.091 0.662,-0.088C0.662,-0.084 0.663,-0.079 0.664,-0.075C0.665,-0.074 0.667,-0.073 0.669,-0.073C0.671,-0.074 0.672,-0.076 0.671,-0.078C0.67,-0.081 0.669,-0.084 0.669,-0.088L0.669,-0.088C0.669,-0.09 0.669,-0.093 0.67,-0.095L0.672,-0.1C0.672,-0.1 0.672,-0.1 0.672,-0.101C0.672,-0.102 0.671,-0.104 0.669,-0.104ZM0.672,0.07C0.67,0.069 0.668,0.069 0.667,0.071C0.662,0.079 0.66,0.088 0.663,0.097L0.663,0.097C0.664,0.099 0.666,0.1 0.668,0.1C0.67,0.099 0.671,0.097 0.67,0.095L0.67,0.095C0.668,0.088 0.669,0.081 0.673,0.075C0.673,0.074 0.673,0.073 0.673,0.073C0.673,0.072 0.673,0.07 0.672,0.07ZM0.682,-0.017C0.681,-0.018 0.678,-0.018 0.677,-0.016C0.673,-0.008 0.672,0.002 0.675,0.011C0.676,0.013 0.678,0.014 0.68,0.013C0.682,0.012 0.683,0.01 0.682,0.009C0.68,0.002 0.68,-0.006 0.684,-0.012C0.684,-0.013 0.684,-0.013 0.684,-0.014C0.684,-0.015 0.684,-0.016 0.682,-0.017ZM0.686,-0.061C0.685,-0.062 0.683,-0.063 0.681,-0.061C0.68,-0.06 0.68,-0.057 0.681,-0.056C0.686,-0.051 0.688,-0.044 0.687,-0.036C0.687,-0.034 0.689,-0.033 0.691,-0.032C0.693,-0.032 0.694,-0.033 0.695,-0.035C0.695,-0.037 0.695,-0.038 0.695,-0.039C0.695,-0.047 0.692,-0.055 0.686,-0.061ZM0.683,0.053C0.682,0.055 0.683,0.057 0.684,0.058C0.686,0.059 0.688,0.059 0.689,0.057C0.693,0.052 0.695,0.046 0.695,0.039C0.695,0.036 0.695,0.033 0.694,0.03C0.693,0.028 0.691,0.027 0.689,0.028C0.687,0.028 0.686,0.03 0.687,0.032C0.687,0.035 0.688,0.037 0.688,0.039C0.688,0.044 0.686,0.049 0.683,0.053Z" style="fill:rgb(153,153,153);fill-rule:nonzero;"/>
            </g>
            <g transform="matrix(0,188.544,188.544,0,403.73,542.936)">
                <path d="M0.366,-0.285C0.523,-0.285 0.651,-0.157 0.651,0C0.651,0.157 0.523,0.285 0.366,0.285C0.208,0.285 0.081,0.157 0.081,0C0.081,-0.157 0.208,-0.285 0.366,-0.285ZM0.366,-0.266C0.219,-0.266 0.1,-0.147 0.1,0C0.1,0.147 0.219,0.266 0.366,0.266C0.513,0.266 0.632,0.147 0.632,0C0.632,-0.147 0.513,-0.266 0.366,-0.266Z" style="fill:rgb(153,153,153);fill-rule:nonzero;"/>
            </g>
            <g transform="matrix(0,188.544,188.544,0,403.729,542.936)">
                <ellipse cx="0.366" cy="0" rx="0.251" ry="0.251" style="fill:rgb(153,153,153);"/>
            </g>
            <g transform="matrix(0,188.544,188.544,0,403.73,542.936)">
                <path d="M0.658,0.196L0.676,0.196C0.678,0.196 0.68,0.195 0.68,0.193C0.68,0.191 0.678,0.189 0.676,0.189L0.657,0.189L0.657,0.181C0.657,0.173 0.662,0.165 0.669,0.161L0.68,0.156C0.692,0.149 0.699,0.137 0.699,0.123C0.699,0.119 0.699,0.115 0.698,0.112L0.694,0.1C0.692,0.092 0.694,0.083 0.701,0.077L0.709,0.069C0.717,0.062 0.721,0.052 0.721,0.042C0.721,0.035 0.719,0.028 0.716,0.022L0.709,0.012C0.705,0.005 0.705,-0.005 0.709,-0.012L0.716,-0.022C0.719,-0.028 0.721,-0.035 0.721,-0.042C0.721,-0.052 0.717,-0.062 0.709,-0.069L0.701,-0.077C0.694,-0.083 0.692,-0.092 0.694,-0.1L0.698,-0.112C0.699,-0.115 0.699,-0.119 0.699,-0.123C0.699,-0.137 0.692,-0.149 0.68,-0.156L0.669,-0.161C0.662,-0.165 0.657,-0.173 0.657,-0.181L0.657,-0.185L0.676,-0.185C0.678,-0.185 0.68,-0.187 0.68,-0.189C0.68,-0.191 0.678,-0.192 0.676,-0.192L0.658,-0.192L0.658,-0.195C0.658,-0.205 0.654,-0.215 0.647,-0.221L0.969,-0.221L0.955,-0.192L0.95,-0.192C0.948,-0.192 0.947,-0.191 0.947,-0.189C0.947,-0.187 0.948,-0.185 0.95,-0.185L0.951,-0.185L0.855,0.001L0.953,0.189L0.95,0.189C0.948,0.189 0.947,0.191 0.947,0.193C0.947,0.195 0.948,0.196 0.95,0.196L0.956,0.196L0.969,0.221L0.647,0.221C0.653,0.215 0.657,0.206 0.658,0.196ZM0.726,0.189L0.701,0.189C0.699,0.189 0.697,0.191 0.697,0.193C0.697,0.195 0.699,0.196 0.701,0.196L0.726,0.196C0.728,0.196 0.729,0.195 0.729,0.193C0.729,0.191 0.728,0.189 0.726,0.189ZM0.726,-0.192L0.701,-0.192C0.699,-0.192 0.697,-0.191 0.697,-0.189C0.697,-0.187 0.699,-0.185 0.701,-0.185L0.726,-0.185C0.728,-0.185 0.729,-0.187 0.729,-0.189C0.729,-0.191 0.728,-0.192 0.726,-0.192ZM0.776,0.189L0.751,0.189C0.749,0.189 0.747,0.191 0.747,0.193C0.747,0.195 0.749,0.196 0.751,0.196L0.776,0.196C0.778,0.196 0.779,0.195 0.779,0.193C0.779,0.191 0.778,0.189 0.776,0.189ZM0.776,-0.192L0.751,-0.192C0.749,-0.192 0.747,-0.191 0.747,-0.189C0.747,-0.187 0.749,-0.185 0.751,-0.185L0.776,-0.185C0.778,-0.185 0.779,-0.187 0.779,-0.189C0.779,-0.191 0.778,-0.192 0.776,-0.192ZM0.825,0.189L0.801,0.189C0.798,0.189 0.797,0.191 0.797,0.193C0.797,0.195 0.798,0.196 0.801,0.196L0.825,0.196C0.828,0.196 0.829,0.195 0.829,0.193C0.829,0.191 0.828,0.189 0.825,0.189ZM0.825,-0.192L0.801,-0.192C0.798,-0.192 0.797,-0.191 0.797,-0.189C0.797,-0.187 0.798,-0.185 0.801,-0.185L0.825,-0.185C0.828,-0.185 0.829,-0.187 0.829,-0.189C0.829,-0.191 0.828,-0.192 0.825,-0.192ZM0.875,0.189L0.85,0.189C0.848,0.189 0.847,0.191 0.847,0.193C0.847,0.195 0.848,0.196 0.85,0.196L0.875,0.196C0.877,0.196 0.879,0.195 0.879,0.193C0.879,0.191 0.877,0.189 0.875,0.189ZM0.875,-0.192L0.85,-0.192C0.848,-0.192 0.847,-0.191 0.847,-0.189C0.847,-0.187 0.848,-0.185 0.85,-0.185L0.875,-0.185C0.877,-0.185 0.879,-0.187 0.879,-0.189C0.879,-0.191 0.877,-0.192 0.875,-0.192ZM0.925,0.189L0.9,0.189C0.898,0.189 0.897,0.191 0.897,0.193C0.897,0.195 0.898,0.196 0.9,0.196L0.925,0.196C0.927,0.196 0.929,0.195 0.929,0.193C0.929,0.191 0.927,0.189 0.925,0.189ZM0.925,-0.192L0.9,-0.192C0.898,-0.192 0.897,-0.191 0.897,-0.189C0.897,-0.187 0.898,-0.185 0.9,-0.185L0.925,-0.185C0.927,-0.185 0.929,-0.187 0.929,-0.189C0.929,-0.191 0.927,-0.192 0.925,-0.192Z" style="fill:rgb(153,153,153);fill-rule:nonzero;"/>
            </g>
            <g>
                <g transform="matrix(28.4869,0,0,28.4869,363.607,615.305)">
                    <path d="M0.202,-0.7L0.04,-0.7L0.04,0L0.15,0L0.15,-0.263L0.202,-0.263C0.312,-0.263 0.366,-0.324 0.366,-0.436L0.366,-0.527C0.366,-0.639 0.312,-0.7 0.202,-0.7ZM0.15,-0.6L0.202,-0.6C0.237,-0.6 0.256,-0.584 0.256,-0.534L0.256,-0.429C0.256,-0.379 0.237,-0.363 0.202,-0.363L0.15,-0.363L0.15,-0.6Z" style="fill:rgb(51,51,51);fill-rule:nonzero;"/>
                </g>
                <g transform="matrix(28.4869,0,0,28.4869,374.347,615.305)">
                    <path d="M0.27,0L0.382,0C0.371,-0.026 0.37,-0.051 0.37,-0.085L0.37,-0.193C0.37,-0.266 0.352,-0.319 0.297,-0.342C0.346,-0.365 0.369,-0.412 0.369,-0.484L0.369,-0.539C0.369,-0.647 0.32,-0.7 0.206,-0.7L0.04,-0.7L0.04,0L0.15,0L0.15,-0.285L0.188,-0.285C0.238,-0.285 0.26,-0.261 0.26,-0.196L0.26,-0.086C0.26,-0.029 0.264,-0.018 0.27,0ZM0.15,-0.6L0.203,-0.6C0.242,-0.6 0.259,-0.578 0.259,-0.528L0.259,-0.459C0.259,-0.403 0.234,-0.385 0.193,-0.385L0.15,-0.385L0.15,-0.6Z" style="fill:rgb(51,51,51);fill-rule:nonzero;"/>
                </g>
                <g transform="matrix(28.4869,0,0,28.4869,385.799,615.305)">
                    <path d="M0.15,-0.405L0.15,-0.6L0.34,-0.6L0.34,-0.7L0.04,-0.7L0.04,0L0.34,0L0.34,-0.1L0.15,-0.1L0.15,-0.305L0.301,-0.305L0.301,-0.405L0.15,-0.405Z" style="fill:rgb(51,51,51);fill-rule:nonzero;"/>
                </g>
                <g transform="matrix(28.4869,0,0,28.4869,396.282,615.305)">
                    <path d="M0.273,-0.203L0.192,-0.7L0.039,-0.7L0.039,0L0.135,0L0.135,-0.495L0.217,0L0.321,0L0.397,-0.502L0.397,0L0.501,0L0.501,-0.7L0.348,-0.7L0.273,-0.203Z" style="fill:rgb(51,51,51);fill-rule:nonzero;"/>
                </g>
                <g transform="matrix(28.4869,0,0,28.4869,411.693,615.305)">
                    <rect x="0.04" y="-0.7" width="0.11" height="0.7" style="fill:rgb(51,51,51);fill-rule:nonzero;"/>
                </g>
                <g transform="matrix(28.4869,0,0,28.4869,417.106,615.305)">
                    <path d="M0.145,-0.7L0.035,-0.7L0.035,-0.167C0.035,-0.055 0.091,0.009 0.199,0.009C0.307,0.009 0.363,-0.055 0.363,-0.167L0.363,-0.7L0.259,-0.7L0.259,-0.16C0.259,-0.11 0.237,-0.092 0.202,-0.092C0.167,-0.092 0.145,-0.11 0.145,-0.16L0.145,-0.7Z" style="fill:rgb(51,51,51);fill-rule:nonzero;"/>
                </g>
                <g transform="matrix(28.4869,0,0,28.4869,428.444,615.305)">
                    <path d="M0.273,-0.203L0.192,-0.7L0.039,-0.7L0.039,0L0.135,0L0.135,-0.495L0.217,0L0.321,0L0.397,-0.502L0.397,0L0.501,0L0.501,-0.7L0.348,-0.7L0.273,-0.203Z" style="fill:rgb(51,51,51);fill-rule:nonzero;"/>
                </g>
                <g transform="matrix(28.4869,0,0,28.4869,368.393,638.778)">
                    <path d="M0.031,-0.532L0.031,-0.168C0.031,-0.056 0.09,0.008 0.198,0.008C0.227,0.008 0.253,0.003 0.275,-0.005C0.29,0.025 0.321,0.043 0.37,0.043L0.385,0.043L0.385,-0.055L0.375,-0.055C0.357,-0.055 0.349,-0.057 0.344,-0.07C0.358,-0.096 0.365,-0.129 0.365,-0.168L0.365,-0.532C0.365,-0.644 0.306,-0.708 0.198,-0.708C0.09,-0.708 0.031,-0.644 0.031,-0.532ZM0.141,-0.161L0.141,-0.539C0.141,-0.589 0.163,-0.608 0.198,-0.608C0.233,-0.608 0.255,-0.589 0.255,-0.539L0.255,-0.161C0.255,-0.111 0.233,-0.092 0.198,-0.092C0.163,-0.092 0.141,-0.111 0.141,-0.161Z" style="fill:rgb(51,51,51);fill-rule:nonzero;"/>
                </g>
                <g transform="matrix(28.4869,0,0,28.4869,379.674,638.778)">
                    <path d="M0.145,-0.7L0.035,-0.7L0.035,-0.167C0.035,-0.055 0.091,0.009 0.199,0.009C0.307,0.009 0.363,-0.055 0.363,-0.167L0.363,-0.7L0.259,-0.7L0.259,-0.16C0.259,-0.11 0.237,-0.092 0.202,-0.092C0.167,-0.092 0.145,-0.11 0.145,-0.16L0.145,-0.7Z" style="fill:rgb(51,51,51);fill-rule:nonzero;"/>
                </g>
                <g transform="matrix(28.4869,0,0,28.4869,391.012,638.778)">
                    <path d="M0.396,0L0.284,-0.7L0.123,-0.7L0.011,0L0.112,0L0.131,-0.127L0.266,-0.127L0.285,0L0.396,0ZM0.145,-0.222L0.198,-0.576L0.251,-0.222L0.145,-0.222Z" style="fill:rgb(51,51,51);fill-rule:nonzero;"/>
                </g>
                <g transform="matrix(28.4869,0,0,28.4869,402.606,638.778)">
                    <path d="M0.04,-0.7L0.04,0L0.331,0L0.331,-0.1L0.15,-0.1L0.15,-0.7L0.04,-0.7Z" style="fill:rgb(51,51,51);fill-rule:nonzero;"/>
                </g>
                <g transform="matrix(28.4869,0,0,28.4869,412.263,638.778)">
                    <rect x="0.04" y="-0.7" width="0.11" height="0.7" style="fill:rgb(51,51,51);fill-rule:nonzero;"/>
                </g>
                <g transform="matrix(28.4869,0,0,28.4869,417.676,638.778)">
                    <path d="M0.008,-0.7L0.008,-0.6L0.123,-0.6L0.123,0L0.233,0L0.233,-0.6L0.348,-0.6L0.348,-0.7L0.008,-0.7Z" style="fill:rgb(51,51,51);fill-rule:nonzero;"/>
                </g>
                <g transform="matrix(28.4869,0,0,28.4869,427.817,638.778)">
                    <path d="M0.143,-0.232L0.143,0L0.253,0L0.253,-0.232L0.392,-0.7L0.287,-0.7L0.203,-0.381L0.119,-0.7L0.004,-0.7L0.143,-0.232Z" style="fill:rgb(51,51,51);fill-rule:nonzero;"/>
                </g>
            </g>
            <g>
                <g transform="matrix(26.5356,0,0,26.5356,379.649,591.76)">
                    <path d="M0.108,-0.612L0.108,-0.534L0.193,-0.534L0.193,0L0.303,0L0.303,-0.7L0.229,-0.7C0.212,-0.653 0.193,-0.612 0.108,-0.612Z" style="fill:rgb(51,51,51);fill-rule:nonzero;"/>
                </g>
                <g transform="matrix(26.5356,0,0,26.5356,390.157,591.76)">
                    <path d="M0.031,-0.532L0.031,-0.168C0.031,-0.056 0.09,0.008 0.198,0.008C0.306,0.008 0.365,-0.056 0.365,-0.168L0.365,-0.532C0.365,-0.644 0.306,-0.708 0.198,-0.708C0.09,-0.708 0.031,-0.644 0.031,-0.532ZM0.141,-0.161L0.141,-0.539C0.141,-0.589 0.163,-0.608 0.198,-0.608C0.233,-0.608 0.255,-0.589 0.255,-0.539L0.255,-0.161C0.255,-0.111 0.233,-0.092 0.198,-0.092C0.163,-0.092 0.141,-0.111 0.141,-0.161Z" style="fill:rgb(51,51,51);fill-rule:nonzero;"/>
                </g>
                <g transform="matrix(26.5356,0,0,26.5356,400.665,591.76)">
                    <path d="M0.031,-0.532L0.031,-0.168C0.031,-0.056 0.09,0.008 0.198,0.008C0.306,0.008 0.365,-0.056 0.365,-0.168L0.365,-0.532C0.365,-0.644 0.306,-0.708 0.198,-0.708C0.09,-0.708 0.031,-0.644 0.031,-0.532ZM0.141,-0.161L0.141,-0.539C0.141,-0.589 0.163,-0.608 0.198,-0.608C0.233,-0.608 0.255,-0.589 0.255,-0.539L0.255,-0.161C0.255,-0.111 0.233,-0.092 0.198,-0.092C0.163,-0.092 0.141,-0.111 0.141,-0.161Z" style="fill:rgb(51,51,51);fill-rule:nonzero;"/>
                </g>
                <g transform="matrix(26.5356,0,0,26.5356,411.173,591.76)">
                    <path d="M0.034,-0.593L0.034,-0.363C0.034,-0.291 0.071,-0.251 0.14,-0.251C0.209,-0.251 0.246,-0.291 0.246,-0.363L0.246,-0.593C0.246,-0.665 0.209,-0.705 0.14,-0.705C0.071,-0.705 0.034,-0.665 0.034,-0.593ZM0.416,-0.7L0.14,0L0.205,0L0.481,-0.7L0.416,-0.7ZM0.104,-0.358L0.104,-0.598C0.104,-0.629 0.117,-0.642 0.14,-0.642C0.162,-0.642 0.176,-0.629 0.176,-0.598L0.176,-0.358C0.176,-0.327 0.162,-0.314 0.14,-0.314C0.117,-0.314 0.104,-0.327 0.104,-0.358ZM0.381,-0.337L0.381,-0.107C0.381,-0.035 0.418,0.005 0.487,0.005C0.556,0.005 0.593,-0.035 0.593,-0.107L0.593,-0.337C0.593,-0.409 0.556,-0.449 0.487,-0.449C0.418,-0.449 0.381,-0.409 0.381,-0.337ZM0.451,-0.102L0.451,-0.342C0.451,-0.373 0.464,-0.386 0.487,-0.386C0.509,-0.386 0.523,-0.373 0.523,-0.342L0.523,-0.102C0.523,-0.071 0.509,-0.058 0.487,-0.058C0.464,-0.058 0.451,-0.071 0.451,-0.102Z" style="fill:rgb(51,51,51);fill-rule:nonzero;"/>
                </g>
                <g transform="matrix(10.542,0,0,10.542,383.01,650.762)">
                    <path d="M0.205,-0.39L0.205,-0.29L0.255,-0.29L0.255,-0.161C0.255,-0.111 0.233,-0.093 0.198,-0.093C0.163,-0.093 0.141,-0.111 0.141,-0.161L0.141,-0.539C0.141,-0.589 0.163,-0.608 0.198,-0.608C0.233,-0.608 0.255,-0.589 0.255,-0.539L0.255,-0.464L0.359,-0.464L0.359,-0.532C0.359,-0.644 0.303,-0.708 0.195,-0.708C0.087,-0.708 0.031,-0.644 0.031,-0.532L0.031,-0.168C0.031,-0.056 0.087,0.008 0.195,0.008C0.303,0.008 0.359,-0.056 0.359,-0.168L0.359,-0.39L0.205,-0.39Z" style="fill:rgb(51,51,51);fill-rule:nonzero;"/>
                </g>
                <g transform="matrix(10.542,0,0,10.542,387.122,650.762)">
                    <path d="M0.145,-0.7L0.035,-0.7L0.035,-0.167C0.035,-0.055 0.091,0.009 0.199,0.009C0.307,0.009 0.363,-0.055 0.363,-0.167L0.363,-0.7L0.259,-0.7L0.259,-0.16C0.259,-0.11 0.237,-0.092 0.202,-0.092C0.167,-0.092 0.145,-0.11 0.145,-0.16L0.145,-0.7Z" style="fill:rgb(51,51,51);fill-rule:nonzero;"/>
                </g>
                <g transform="matrix(10.542,0,0,10.542,391.317,650.762)">
                    <path d="M0.396,0L0.284,-0.7L0.123,-0.7L0.011,0L0.112,0L0.131,-0.127L0.266,-0.127L0.285,0L0.396,0ZM0.145,-0.222L0.198,-0.576L0.251,-0.222L0.145,-0.222Z" style="fill:rgb(51,51,51);fill-rule:nonzero;"/>
                </g>
                <g transform="matrix(10.542,0,0,10.542,395.608,650.762)">
                    <path d="M0.27,0L0.382,0C0.371,-0.026 0.37,-0.051 0.37,-0.085L0.37,-0.193C0.37,-0.266 0.352,-0.319 0.297,-0.342C0.346,-0.365 0.369,-0.412 0.369,-0.484L0.369,-0.539C0.369,-0.647 0.32,-0.7 0.206,-0.7L0.04,-0.7L0.04,0L0.15,0L0.15,-0.285L0.188,-0.285C0.238,-0.285 0.26,-0.261 0.26,-0.196L0.26,-0.086C0.26,-0.029 0.264,-0.018 0.27,0ZM0.15,-0.6L0.203,-0.6C0.242,-0.6 0.259,-0.578 0.259,-0.528L0.259,-0.459C0.259,-0.403 0.234,-0.385 0.193,-0.385L0.15,-0.385L0.15,-0.6Z" style="fill:rgb(51,51,51);fill-rule:nonzero;"/>
                </g>
                <g transform="matrix(10.542,0,0,10.542,399.846,650.762)">
                    <path d="M0.396,0L0.284,-0.7L0.123,-0.7L0.011,0L0.112,0L0.131,-0.127L0.266,-0.127L0.285,0L0.396,0ZM0.145,-0.222L0.198,-0.576L0.251,-0.222L0.145,-0.222Z" style="fill:rgb(51,51,51);fill-rule:nonzero;"/>
                </g>
                <g transform="matrix(10.542,0,0,10.542,404.136,650.762)">
                    <path d="M0.138,-0.507L0.275,0L0.388,0L0.388,-0.7L0.29,-0.7L0.29,-0.281L0.177,-0.7L0.039,-0.7L0.039,0L0.138,0L0.138,-0.507Z" style="fill:rgb(51,51,51);fill-rule:nonzero;"/>
                </g>
                <g transform="matrix(10.542,0,0,10.542,408.638,650.762)">
                    <path d="M0.008,-0.7L0.008,-0.6L0.123,-0.6L0.123,0L0.233,0L0.233,-0.6L0.348,-0.6L0.348,-0.7L0.008,-0.7Z" style="fill:rgb(51,51,51);fill-rule:nonzero;"/>
                </g>
                <g transform="matrix(10.542,0,0,10.542,412.391,650.762)">
                    <path d="M0.15,-0.405L0.15,-0.6L0.34,-0.6L0.34,-0.7L0.04,-0.7L0.04,0L0.34,0L0.34,-0.1L0.15,-0.1L0.15,-0.305L0.301,-0.305L0.301,-0.405L0.15,-0.405Z" style="fill:rgb(51,51,51);fill-rule:nonzero;"/>
                </g>
                <g transform="matrix(10.542,0,0,10.542,416.27,650.762)">
                    <path d="M0.15,-0.405L0.15,-0.6L0.34,-0.6L0.34,-0.7L0.04,-0.7L0.04,0L0.34,0L0.34,-0.1L0.15,-0.1L0.15,-0.305L0.301,-0.305L0.301,-0.405L0.15,-0.405Z" style="fill:rgb(51,51,51);fill-rule:nonzero;"/>
                </g>
                <g transform="matrix(10.542,0,0,10.542,420.15,650.762)">
                    <path d="M0.04,-0.7L0.04,0L0.214,0C0.324,0 0.378,-0.061 0.378,-0.173L0.378,-0.527C0.378,-0.639 0.324,-0.7 0.214,-0.7L0.04,-0.7ZM0.15,-0.6L0.212,-0.6C0.247,-0.6 0.268,-0.582 0.268,-0.532L0.268,-0.168C0.268,-0.118 0.247,-0.1 0.212,-0.1L0.15,-0.1L0.15,-0.6Z" style="fill:rgb(51,51,51);fill-rule:nonzero;"/>
                </g>
            </g>
        </g>
    </g>
</svg>
