<?xml version="1.0" encoding="UTF-8" standalone="no"?>
<!DOCTYPE svg PUBLIC "-//W3C//DTD SVG 1.1//EN" "http://www.w3.org/Graphics/SVG/1.1/DTD/svg11.dtd">
<svg width="100%" height="100%" viewBox="0 0 190 193" version="1.1" xmlns="http://www.w3.org/2000/svg" xmlns:xlink="http://www.w3.org/1999/xlink" xml:space="preserve" xmlns:serif="http://www.serif.com/" style="fill-rule:evenodd;clip-rule:evenodd;stroke-linejoin:round;stroke-miterlimit:2;">
    <g transform="matrix(1,0,0,1,-539,-68)">
        <g id="Object">
            <g transform="matrix(0,210.375,210.375,0,568.328,61.0869)">
                <path d="M0.491,-0.092C0.634,-0.092 0.76,-0.019 0.834,0.092L0.792,0.092C0.723,0.001 0.614,-0.058 0.491,-0.058C0.368,-0.058 0.258,0.001 0.19,0.092L0.148,0.092C0.222,-0.019 0.348,-0.092 0.491,-0.092Z" style="fill:rgb(51,51,51);fill-rule:nonzero;"/>
            </g>
            <g transform="matrix(0,210.375,210.375,0,702.221,61.0869)">
                <path d="M0.19,-0.092C0.258,-0.001 0.368,0.058 0.491,0.058C0.614,0.058 0.723,-0.001 0.792,-0.092L0.834,-0.092C0.76,0.019 0.634,0.092 0.491,0.092C0.348,0.092 0.222,0.019 0.148,-0.092L0.19,-0.092Z" style="fill:rgb(51,51,51);fill-rule:nonzero;"/>
            </g>
            <g transform="matrix(0,210.374,210.374,0,635.274,61.087)">
                <path d="M0.856,-0.019L0.856,-0.078L0.891,-0.03L0.948,-0.048L0.948,-0.048L0.948,-0.048L0.913,0L0.948,0.048L0.948,0.048L0.891,0.03L0.856,0.078L0.856,0.019L0.799,0L0.856,-0.019Z" style="fill:rgb(51,51,51);fill-rule:nonzero;"/>
            </g>
            <g transform="matrix(0,210.375,210.375,0,603.522,61.0869)">
                <path d="M0.836,-0.012L0.836,-0.052L0.86,-0.02L0.897,-0.032L0.874,0L0.897,0.032L0.86,0.02L0.836,0.052L0.836,0.012L0.799,0L0.836,-0.012Z" style="fill:rgb(51,51,51);fill-rule:nonzero;"/>
            </g>
            <g transform="matrix(0,210.375,210.375,0,667.952,61.0869)">
                <path d="M0.836,-0.012L0.836,-0.052L0.86,-0.02L0.897,-0.032L0.874,0L0.897,0.032L0.86,0.02L0.836,0.052L0.836,0.012L0.799,0L0.836,-0.012Z" style="fill:rgb(51,51,51);fill-rule:nonzero;"/>
            </g>
            <g transform="matrix(0,210.374,210.374,0,635.274,61.0867)">
                <path d="M0.093,-0.019L0.093,-0.078L0.128,-0.03L0.185,-0.048L0.15,0L0.185,0.048L0.128,0.03L0.093,0.078L0.093,0.019L0.036,0L0.093,-0.019Z" style="fill:rgb(51,51,51);fill-rule:nonzero;"/>
            </g>
            <g transform="matrix(0,210.376,210.376,0,603.522,61.0867)">
                <path d="M0.123,-0.012L0.123,-0.052L0.146,-0.02L0.184,-0.032L0.16,0L0.184,0.032L0.146,0.02L0.123,0.052L0.123,0.012L0.085,0L0.123,-0.012Z" style="fill:rgb(51,51,51);fill-rule:nonzero;"/>
            </g>
            <g transform="matrix(0,197.965,197.965,0,667.952,66.051)">
                <path d="M0.105,-0.013L0.105,-0.055L0.13,-0.021L0.17,-0.034L0.145,0L0.17,0.034L0.13,0.021L0.105,0.055L0.105,0.013L0.065,0L0.105,-0.013Z" style="fill:rgb(51,51,51);fill-rule:nonzero;"/>
            </g>
            <g transform="matrix(0,146.621,146.621,0,552.832,76.443)">
                <path d="M0.293,0.198L0.65,0.198L0.65,0.287C0.65,0.343 0.621,0.372 0.566,0.372L0.536,0.372C0.499,0.372 0.471,0.36 0.46,0.33C0.448,0.355 0.424,0.367 0.388,0.367L0.375,0.367C0.32,0.367 0.293,0.341 0.293,0.283L0.293,0.198ZM0.344,0.255L0.344,0.282C0.344,0.302 0.355,0.31 0.38,0.31L0.4,0.31C0.429,0.31 0.438,0.298 0.438,0.277L0.438,0.255L0.344,0.255ZM0.489,0.255L0.489,0.28C0.489,0.305 0.5,0.316 0.533,0.316L0.564,0.316C0.591,0.316 0.599,0.306 0.599,0.287L0.599,0.255L0.489,0.255Z" style="fill:rgb(51,51,51);fill-rule:nonzero;"/>
            </g>
            <g transform="matrix(0,146.621,146.621,0,610.693,76.443)">
                <path d="M0.293,0.011L0.65,0.011L0.65,0.165L0.599,0.165L0.599,0.067L0.494,0.067L0.494,0.145L0.443,0.145L0.443,0.067L0.344,0.067L0.344,0.165L0.293,0.165L0.293,0.011Z" style="fill:rgb(51,51,51);fill-rule:nonzero;"/>
            </g>
            <g transform="matrix(0,146.621,146.621,0,665.404,76.443)">
                <path d="M0.378,-0.181C0.481,-0.181 0.494,-0.071 0.568,-0.071C0.594,-0.071 0.603,-0.082 0.603,-0.1C0.603,-0.118 0.594,-0.129 0.568,-0.129L0.543,-0.129L0.543,-0.182L0.564,-0.182C0.622,-0.182 0.654,-0.154 0.654,-0.099C0.654,-0.043 0.622,-0.015 0.564,-0.015C0.462,-0.015 0.448,-0.125 0.375,-0.125C0.349,-0.125 0.34,-0.114 0.34,-0.097C0.34,-0.079 0.349,-0.068 0.375,-0.068L0.39,-0.068L0.39,-0.015L0.378,-0.015C0.321,-0.015 0.288,-0.043 0.288,-0.098C0.288,-0.153 0.321,-0.181 0.378,-0.181Z" style="fill:rgb(51,51,51);fill-rule:nonzero;"/>
            </g>
            <g transform="matrix(0,146.621,146.621,0,720.118,76.443)">
                <path d="M0.293,-0.372L0.344,-0.372L0.344,-0.313L0.65,-0.313L0.65,-0.257L0.344,-0.257L0.344,-0.198L0.293,-0.198L0.293,-0.372Z" style="fill:rgb(51,51,51);fill-rule:nonzero;"/>
            </g>
            <g transform="matrix(0,157.619,157.619,0,543.73,85.7861)">
                <path d="M0.644,0.243L0.745,0.243C0.777,0.243 0.795,0.259 0.795,0.289C0.795,0.298 0.793,0.305 0.791,0.311C0.799,0.315 0.804,0.324 0.804,0.338L0.804,0.342L0.777,0.342L0.777,0.339C0.777,0.334 0.776,0.332 0.773,0.33C0.766,0.334 0.756,0.336 0.745,0.336L0.644,0.336C0.613,0.336 0.595,0.32 0.595,0.289C0.595,0.259 0.613,0.243 0.644,0.243ZM0.747,0.274L0.642,0.274C0.628,0.274 0.623,0.28 0.623,0.289C0.623,0.299 0.628,0.305 0.642,0.305L0.747,0.305C0.761,0.305 0.767,0.299 0.767,0.289C0.767,0.28 0.761,0.274 0.747,0.274Z" style="fill:rgb(51,51,51);fill-rule:nonzero;"/>
            </g>
            <g transform="matrix(0,157.619,157.619,0,577.804,85.7861)">
                <path d="M0.597,0.201L0.748,0.201C0.762,0.201 0.767,0.195 0.767,0.185C0.767,0.175 0.762,0.169 0.748,0.169L0.597,0.169L0.597,0.138L0.746,0.138C0.777,0.138 0.795,0.154 0.795,0.184C0.795,0.214 0.777,0.23 0.746,0.23L0.597,0.23L0.597,0.201Z" style="fill:rgb(51,51,51);fill-rule:nonzero;"/>
            </g>
            <g transform="matrix(0,157.619,157.619,0,613.242,85.7861)">
                <path d="M0.597,0.049L0.792,0.018L0.792,0.046L0.757,0.052L0.757,0.089L0.792,0.095L0.792,0.126L0.597,0.094L0.597,0.049ZM0.632,0.07L0.73,0.085L0.73,0.055L0.632,0.07Z" style="fill:rgb(51,51,51);fill-rule:nonzero;"/>
            </g>
            <g transform="matrix(0,157.619,157.619,0,647.494,85.7861)">
                <path d="M0.597,-0.078L0.792,-0.078L0.792,0.004L0.764,0.004L0.764,-0.047L0.597,-0.047L0.597,-0.078Z" style="fill:rgb(51,51,51);fill-rule:nonzero;"/>
            </g>
            <g transform="matrix(157.619,0,0,-157.619,543.131,178.525)">
                <rect x="0.679" y="-0.204" width="0.031" height="0.196" style="fill:rgb(51,51,51);"/>
            </g>
            <g transform="matrix(0,157.619,157.619,0,693.408,85.7861)">
                <path d="M0.597,-0.23L0.625,-0.23L0.625,-0.198L0.792,-0.198L0.792,-0.167L0.625,-0.167L0.625,-0.135L0.597,-0.135L0.597,-0.23Z" style="fill:rgb(51,51,51);fill-rule:nonzero;"/>
            </g>
            <g transform="matrix(0,157.619,157.619,0,726.511,85.7861)">
                <path d="M0.597,-0.263L0.686,-0.286L0.597,-0.31L0.597,-0.342L0.728,-0.303L0.792,-0.303L0.792,-0.272L0.728,-0.272L0.597,-0.233L0.597,-0.263Z" style="fill:rgb(51,51,51);fill-rule:nonzero;"/>
            </g>
        </g>
    </g>
</svg>
