<?xml version="1.0" encoding="UTF-8" standalone="no"?>
<!DOCTYPE svg PUBLIC "-//W3C//DTD SVG 1.1//EN" "http://www.w3.org/Graphics/SVG/1.1/DTD/svg11.dtd">
<svg width="100%" height="100%" viewBox="0 0 193 204" version="1.1" xmlns="http://www.w3.org/2000/svg" xmlns:xlink="http://www.w3.org/1999/xlink" xml:space="preserve" xmlns:serif="http://www.serif.com/" style="fill-rule:evenodd;clip-rule:evenodd;stroke-linejoin:round;stroke-miterlimit:2;">
    <g transform="matrix(1,0,0,1,-306,-297)">
        <g id="Object">
            <g transform="matrix(0,207.292,207.292,0,403.231,299.278)">
                <path d="M0.866,-0.02L0.866,-0.086L0.905,-0.033L0.968,-0.053L0.929,0L0.968,0.053L0.905,0.033L0.866,0.086L0.866,0.02L0.804,0L0.866,-0.02Z" style="fill:rgb(153,153,153);fill-rule:nonzero;"/>
            </g>
            <g transform="matrix(0,207.292,207.292,0,368.949,299.279)">
                <path d="M0.845,-0.013L0.845,-0.057L0.871,-0.022L0.912,-0.035L0.887,0L0.912,0.035L0.871,0.022L0.845,0.057L0.845,0.013L0.804,0L0.845,-0.013Z" style="fill:rgb(153,153,153);fill-rule:nonzero;"/>
            </g>
            <g transform="matrix(0,207.292,207.292,0,438.514,299.279)">
                <path d="M0.845,-0.013L0.845,-0.057L0.871,-0.022L0.912,-0.035L0.887,0L0.912,0.035L0.871,0.022L0.845,0.057L0.845,0.013L0.804,0L0.845,-0.013Z" style="fill:rgb(153,153,153);fill-rule:nonzero;"/>
            </g>
            <g transform="matrix(0,207.291,207.291,0,358.347,299.279)">
                <path d="M0.109,-0.011L0.109,-0.045L0.129,-0.017L0.162,-0.028L0.141,0L0.162,0.028L0.129,0.017L0.109,0.045L0.109,0.011L0.077,0L0.109,-0.011Z" style="fill:rgb(153,153,153);fill-rule:nonzero;"/>
            </g>
            <g transform="matrix(0,207.291,207.291,0,450.13,299.279)">
                <path d="M0.109,-0.011L0.109,-0.045L0.129,-0.017L0.162,-0.028L0.141,0L0.162,0.028L0.129,0.017L0.109,0.045L0.109,0.011L0.077,0L0.109,-0.011Z" style="fill:rgb(153,153,153);fill-rule:nonzero;"/>
            </g>
            <g transform="matrix(0,207.291,207.291,0,405.287,299.279)">
                <path d="M0.088,-0.045L0.05,-0.076L0.095,-0.089L0.046,-0.152L0.162,-0.127L0.162,0.127L0.046,0.152L0.095,0.089L0.05,0.076L0.088,0.045L-0.002,0L0.088,-0.045Z" style="fill:rgb(153,153,153);fill-rule:nonzero;"/>
            </g>
            <g transform="matrix(0,207.288,207.288,0,403.732,299.279)">
                <path d="M0.185,-0.278C0.185,-0.281 0.187,-0.283 0.19,-0.283L0.197,-0.283C0.2,-0.283 0.203,-0.281 0.203,-0.278L0.203,0.278C0.203,0.281 0.2,0.283 0.197,0.283L0.19,0.283C0.187,0.283 0.185,0.281 0.185,0.278L0.185,-0.278Z" style="fill:rgb(153,153,153);fill-rule:nonzero;"/>
            </g>
            <g transform="matrix(0,207.288,207.288,0,403.732,299.282)">
                <path d="M0.758,-0.278C0.758,-0.281 0.761,-0.283 0.764,-0.283L0.771,-0.283C0.774,-0.283 0.776,-0.281 0.776,-0.278L0.776,0.278C0.776,0.281 0.774,0.283 0.771,0.283L0.764,0.283C0.761,0.283 0.758,0.281 0.758,0.278L0.758,-0.278Z" style="fill:rgb(153,153,153);fill-rule:nonzero;"/>
            </g>
            <g transform="matrix(0,144.247,144.247,0,320.213,322.34)">
                <path d="M0.184,0.325L0.356,0.325L0.356,0.253L0.184,0.253L0.184,0.19L0.586,0.19L0.586,0.253L0.414,0.253L0.414,0.325L0.586,0.325L0.586,0.389L0.184,0.389L0.184,0.325Z" style="fill:rgb(51,51,51);fill-rule:nonzero;"/>
            </g>
            <g transform="matrix(144.247,0,0,-144.247,332.037,394.035)">
                <rect x="0.353" y="-0.089" width="0.063" height="0.403" style="fill:rgb(51,51,51);"/>
            </g>
            <g transform="matrix(0,144.247,144.247,0,419.489,322.34)">
                <path d="M0.28,-0.149L0.49,-0.149C0.554,-0.149 0.591,-0.117 0.591,-0.055C0.591,0.007 0.554,0.04 0.49,0.04L0.362,0.04L0.362,-0.049L0.419,-0.049L0.419,-0.02L0.494,-0.02C0.522,-0.02 0.533,-0.033 0.533,-0.053C0.533,-0.073 0.522,-0.086 0.494,-0.086L0.276,-0.086C0.247,-0.086 0.237,-0.073 0.237,-0.053C0.237,-0.033 0.247,-0.02 0.276,-0.02L0.319,-0.02L0.319,0.04L0.28,0.04C0.216,0.04 0.179,0.007 0.179,-0.055C0.179,-0.117 0.216,-0.149 0.28,-0.149Z" style="fill:rgb(51,51,51);fill-rule:nonzero;"/>
            </g>
            <g transform="matrix(0,144.247,144.247,0,487.254,322.34)">
                <path d="M0.184,-0.254L0.356,-0.254L0.356,-0.326L0.184,-0.326L0.184,-0.389L0.586,-0.389L0.586,-0.326L0.414,-0.326L0.414,-0.254L0.586,-0.254L0.586,-0.19L0.184,-0.19L0.184,-0.254Z" style="fill:rgb(51,51,51);fill-rule:nonzero;"/>
            </g>
            <g transform="matrix(0,151.291,151.291,0,304.893,335.344)">
                <path d="M0.579,0.273L0.693,0.273C0.728,0.273 0.748,0.292 0.748,0.326C0.748,0.335 0.747,0.343 0.744,0.35C0.754,0.355 0.759,0.364 0.759,0.38L0.759,0.384L0.729,0.384L0.729,0.381C0.729,0.376 0.728,0.373 0.724,0.371C0.716,0.376 0.705,0.378 0.693,0.378L0.579,0.378C0.544,0.378 0.523,0.36 0.523,0.326C0.523,0.292 0.544,0.273 0.579,0.273ZM0.695,0.308L0.577,0.308C0.561,0.308 0.555,0.315 0.555,0.326C0.555,0.337 0.561,0.344 0.577,0.344L0.695,0.344C0.711,0.344 0.717,0.337 0.717,0.326C0.717,0.315 0.711,0.308 0.695,0.308Z" style="fill:rgb(51,51,51);fill-rule:nonzero;"/>
            </g>
            <g transform="matrix(0,151.291,151.291,0,341.682,335.344)">
                <path d="M0.526,0.226L0.696,0.226C0.711,0.226 0.717,0.219 0.717,0.208C0.717,0.197 0.711,0.19 0.696,0.19L0.526,0.19L0.526,0.156L0.693,0.156C0.729,0.156 0.749,0.173 0.749,0.207C0.749,0.241 0.729,0.259 0.693,0.259L0.526,0.259L0.526,0.226Z" style="fill:rgb(51,51,51);fill-rule:nonzero;"/>
            </g>
            <g transform="matrix(0,151.291,151.291,0,379.942,335.344)">
                <path d="M0.526,0.055L0.746,0.02L0.746,0.052L0.706,0.058L0.706,0.1L0.746,0.106L0.746,0.141L0.526,0.106L0.526,0.055ZM0.565,0.079L0.676,0.096L0.676,0.062L0.565,0.079Z" style="fill:rgb(51,51,51);fill-rule:nonzero;"/>
            </g>
            <g transform="matrix(0,151.291,151.291,0,416.923,335.344)">
                <path d="M0.526,-0.087L0.746,-0.087L0.746,0.004L0.715,0.004L0.715,-0.053L0.526,-0.053L0.526,-0.087Z" style="fill:rgb(51,51,51);fill-rule:nonzero;"/>
            </g>
            <g transform="matrix(151.291,0,0,-151.291,326.242,413.475)">
                <rect x="0.619" y="-0.23" width="0.035" height="0.22" style="fill:rgb(51,51,51);"/>
            </g>
            <g transform="matrix(0,151.291,151.291,0,466.495,335.344)">
                <path d="M0.526,-0.259L0.557,-0.259L0.557,-0.223L0.746,-0.223L0.746,-0.188L0.557,-0.188L0.557,-0.152L0.526,-0.152L0.526,-0.259Z" style="fill:rgb(51,51,51);fill-rule:nonzero;"/>
            </g>
            <g transform="matrix(0,151.291,151.291,0,502.236,335.344)">
                <path d="M0.526,-0.295L0.626,-0.322L0.526,-0.348L0.526,-0.384L0.673,-0.341L0.746,-0.341L0.746,-0.306L0.673,-0.306L0.526,-0.262L0.526,-0.295Z" style="fill:rgb(51,51,51);fill-rule:nonzero;"/>
            </g>
        </g>
    </g>
</svg>
