<?xml version="1.0" encoding="UTF-8" standalone="no"?>
<!DOCTYPE svg PUBLIC "-//W3C//DTD SVG 1.1//EN" "http://www.w3.org/Graphics/SVG/1.1/DTD/svg11.dtd">
<svg width="100%" height="100%" viewBox="0 0 180 179" version="1.1" xmlns="http://www.w3.org/2000/svg" xmlns:xlink="http://www.w3.org/1999/xlink" xml:space="preserve" xmlns:serif="http://www.serif.com/" style="fill-rule:evenodd;clip-rule:evenodd;stroke-linejoin:round;stroke-miterlimit:2;">
    <g transform="matrix(1,0,0,1,-80,-72)">
        <g id="Object">
            <g transform="matrix(69.1976,169.215,169.215,-69.1976,149.174,72.6308)">
                <path d="M0.041,-0.045L0.092,-0.045C0.094,-0.015 0.1,0.014 0.109,0.043L0.062,0.063C0.05,0.027 0.043,-0.009 0.041,-0.045Z" style="fill:rgb(153,153,153);fill-rule:nonzero;"/>
            </g>
            <g transform="matrix(168.585,70.7184,70.7184,-168.585,63.0299,99.654)">
                <path d="M0.219,-0.052L0.27,-0.052C0.272,-0.022 0.278,0.008 0.287,0.037L0.24,0.056C0.229,0.021 0.222,-0.015 0.219,-0.052Z" style="fill:rgb(153,153,153);fill-rule:nonzero;"/>
            </g>
            <g transform="matrix(129.262,129.281,129.281,-129.262,108.987,78.8407)">
                <path d="M0.104,-0.05L0.155,-0.05C0.157,-0.019 0.163,0.012 0.173,0.042L0.126,0.062C0.114,0.025 0.107,-0.012 0.104,-0.05Z" style="fill:rgb(153,153,153);fill-rule:nonzero;"/>
            </g>
            <g transform="matrix(182.817,0,0,-182.817,20.3912,145.123)">
                <path d="M0.367,-0.056L0.418,-0.056C0.421,-0.024 0.427,0.007 0.437,0.036L0.39,0.056C0.378,0.02 0.37,-0.017 0.367,-0.056Z" style="fill:rgb(153,153,153);fill-rule:nonzero;"/>
            </g>
            <g transform="matrix(-23.4303,181.309,181.309,23.4303,217.253,71.8401)">
                <path d="M0.141,-0.055C0.151,-0.027 0.165,0 0.181,0.025L0.141,0.057C0.121,0.026 0.104,-0.007 0.092,-0.042L0.141,-0.055Z" style="fill:rgb(153,153,153);fill-rule:nonzero;"/>
            </g>
            <g transform="matrix(-93.2616,157.239,157.239,93.2616,258.626,78.0695)">
                <path d="M0.259,-0.053C0.269,-0.024 0.282,0.005 0.299,0.031L0.259,0.062C0.238,0.03 0.221,-0.005 0.209,-0.041L0.259,-0.053Z" style="fill:rgb(153,153,153);fill-rule:nonzero;"/>
            </g>
            <g transform="matrix(45.3193,177.11,177.11,-45.3193,182.944,72.0566)">
                <path d="M0.076,-0.058C0.086,-0.028 0.1,0 0.116,0.026L0.076,0.057C0.055,0.026 0.039,-0.009 0.026,-0.045L0.076,-0.058Z" style="fill:rgb(153,153,153);fill-rule:nonzero;"/>
            </g>
            <g transform="matrix(-144.865,111.517,111.517,144.865,177.4,112.796)">
                <path d="M0.571,-0.063C0.592,-0.032 0.608,0.001 0.62,0.035L0.571,0.048C0.561,0.02 0.548,-0.007 0.531,-0.032L0.571,-0.063Z" style="fill:rgb(153,153,153);fill-rule:nonzero;"/>
            </g>
            <g transform="matrix(-174.463,44.6398,44.6398,174.463,354.887,149.739)">
                <path d="M0.624,-0.059C0.635,-0.028 0.649,0 0.666,0.027L0.624,0.058C0.604,0.026 0.587,-0.009 0.574,-0.046L0.624,-0.059Z" style="fill:rgb(153,153,153);fill-rule:nonzero;"/>
            </g>
            <g transform="matrix(69.192,169.217,169.217,-69.192,155.207,83.1494)">
                <path d="M0.827,-0.054L0.878,-0.054C0.875,-0.016 0.868,0.022 0.856,0.058L0.809,0.038C0.818,0.009 0.825,-0.022 0.827,-0.054Z" style="fill:rgb(153,153,153);fill-rule:nonzero;"/>
            </g>
            <g transform="matrix(129.271,129.271,129.271,-129.271,140.473,110.79)">
                <path d="M0.711,-0.048L0.761,-0.048C0.759,-0.012 0.752,0.025 0.74,0.06L0.693,0.04C0.702,0.011 0.708,-0.018 0.711,-0.048Z" style="fill:rgb(153,153,153);fill-rule:nonzero;"/>
            </g>
            <g transform="matrix(-142.699,109.851,109.851,142.699,309.824,96.6482)">
                <path d="M0.45,-0.049C0.461,-0.021 0.474,0.007 0.491,0.033L0.45,0.064C0.429,0.033 0.413,-0.001 0.401,-0.035L0.45,-0.049Z" style="fill:rgb(153,153,153);fill-rule:nonzero;"/>
            </g>
            <g transform="matrix(45.3175,177.112,177.112,-45.3175,112.76,76.8127)">
                <path d="M0.906,-0.057C0.926,-0.026 0.943,0.009 0.955,0.045L0.906,0.058C0.895,0.028 0.881,0 0.865,-0.026L0.906,-0.057Z" style="fill:rgb(153,153,153);fill-rule:nonzero;"/>
            </g>
            <g transform="matrix(0,182.817,182.817,0,185.933,71.6357)">
                <path d="M0.891,-0.054L0.942,-0.054C0.939,-0.017 0.932,0.02 0.921,0.054L0.874,0.035C0.883,0.006 0.889,-0.023 0.891,-0.054Z" style="fill:rgb(153,153,153);fill-rule:nonzero;"/>
            </g>
            <g transform="matrix(-23.4202,181.31,181.31,23.4202,145.896,72.9101)">
                <path d="M0.84,-0.057C0.86,-0.026 0.877,0.007 0.889,0.042L0.84,0.055C0.83,0.027 0.816,0 0.8,-0.025L0.84,-0.057Z" style="fill:rgb(153,153,153);fill-rule:nonzero;"/>
            </g>
            <g transform="matrix(-93.2681,157.236,157.236,93.2681,173.053,90.3004)">
                <path d="M0.722,-0.062C0.743,-0.03 0.76,0.005 0.772,0.041L0.722,0.053C0.712,0.024 0.699,-0.005 0.682,-0.031L0.722,-0.062Z" style="fill:rgb(153,153,153);fill-rule:nonzero;"/>
            </g>
            <g transform="matrix(0,182.816,182.816,0,235.494,71.6362)">
                <path d="M0.366,-0.006C0.367,-0.009 0.37,-0.01 0.372,-0.009C0.384,-0.005 0.395,-0.002 0.407,0.001C0.409,0.001 0.411,0.003 0.411,0.005C0.411,0.006 0.411,0.006 0.411,0.006C0.41,0.009 0.408,0.01 0.405,0.01C0.393,0.007 0.381,0.003 0.369,-0.001C0.367,-0.001 0.366,-0.003 0.366,-0.005C0.366,-0.005 0.366,-0.006 0.366,-0.006Z" style="fill:rgb(153,153,153);fill-rule:nonzero;"/>
            </g>
            <g transform="matrix(0,182.816,182.816,0,215.279,71.6357)">
                <path d="M0.753,0.011C0.762,0.002 0.77,-0.007 0.777,-0.017C0.779,-0.019 0.782,-0.019 0.784,-0.017C0.785,-0.016 0.786,-0.015 0.786,-0.014C0.786,-0.013 0.785,-0.012 0.784,-0.011C0.777,-0.001 0.768,0.008 0.76,0.017C0.758,0.019 0.755,0.019 0.753,0.017C0.752,0.016 0.752,0.015 0.752,0.014C0.752,0.013 0.752,0.012 0.753,0.011Z" style="fill:rgb(153,153,153);fill-rule:nonzero;"/>
            </g>
            <g transform="matrix(0,182.816,182.816,0,223.213,71.636)">
                <path d="M0.24,-0.015C0.242,-0.017 0.245,-0.017 0.247,-0.015C0.256,-0.007 0.265,0.001 0.275,0.008C0.276,0.009 0.277,0.01 0.277,0.011C0.277,0.012 0.277,0.013 0.276,0.014C0.275,0.016 0.272,0.017 0.27,0.015C0.26,0.008 0.25,0 0.241,-0.008C0.24,-0.009 0.239,-0.01 0.239,-0.012C0.239,-0.013 0.239,-0.014 0.24,-0.015Z" style="fill:rgb(153,153,153);fill-rule:nonzero;"/>
            </g>
            <g transform="matrix(0,182.814,182.814,0,150.262,71.6362)">
                <path d="M0.125,0.017C0.128,0.005 0.131,-0.007 0.136,-0.019C0.136,-0.022 0.139,-0.023 0.141,-0.022C0.143,-0.021 0.145,-0.019 0.145,-0.018C0.145,-0.017 0.144,-0.017 0.144,-0.016C0.14,-0.005 0.137,0.007 0.134,0.019C0.133,0.021 0.13,0.023 0.128,0.022C0.126,0.022 0.125,0.02 0.125,0.018C0.125,0.017 0.125,0.017 0.125,0.017Z" style="fill:rgb(153,153,153);fill-rule:nonzero;"/>
            </g>
            <g transform="matrix(0,182.817,182.817,0,102.337,71.6356)">
                <path d="M0.44,-0.003C0.452,-0.005 0.465,-0.006 0.477,-0.006C0.48,-0.006 0.482,-0.004 0.482,-0.002C0.482,-0.002 0.482,-0.002 0.482,-0.002C0.482,0.001 0.48,0.003 0.478,0.003C0.466,0.003 0.453,0.004 0.441,0.006C0.439,0.006 0.437,0.004 0.436,0.002C0.436,0.002 0.436,0.002 0.436,0.001C0.436,-0.001 0.438,-0.003 0.44,-0.003Z" style="fill:rgb(153,153,153);fill-rule:nonzero;"/>
            </g>
            <g transform="matrix(0,180.084,180.084,0,237.987,65.4304)">
                <path d="M0.532,-0.004C0.545,-0.004 0.557,-0.004 0.57,-0.005C0.572,-0.006 0.574,-0.004 0.575,-0.001C0.575,-0.001 0.575,-0.001 0.575,-0.001C0.575,0.002 0.573,0.004 0.57,0.004C0.558,0.005 0.545,0.006 0.532,0.006C0.53,0.006 0.528,0.004 0.528,0.001C0.528,-0.001 0.53,-0.004 0.532,-0.004Z" style="fill:rgb(153,153,153);fill-rule:nonzero;"/>
            </g>
            <g transform="matrix(0,182.817,182.817,0,202.628,71.6357)">
                <path d="M0.153,-0.02C0.155,-0.022 0.158,-0.021 0.159,-0.018C0.164,-0.007 0.17,0.003 0.177,0.014C0.177,0.015 0.177,0.015 0.177,0.016C0.177,0.018 0.176,0.019 0.175,0.02C0.173,0.022 0.17,0.021 0.169,0.019C0.162,0.008 0.156,-0.003 0.151,-0.014C0.15,-0.015 0.15,-0.016 0.15,-0.016C0.15,-0.018 0.151,-0.02 0.153,-0.02Z" style="fill:rgb(153,153,153);fill-rule:nonzero;"/>
            </g>
            <g transform="matrix(0,182.818,182.818,0,109.78,71.6355)">
                <path d="M0.3,0.005C0.31,-0.002 0.321,-0.008 0.333,-0.013C0.335,-0.014 0.338,-0.013 0.339,-0.011C0.339,-0.01 0.339,-0.009 0.339,-0.009C0.339,-0.007 0.338,-0.005 0.337,-0.004C0.326,0.001 0.315,0.006 0.304,0.013C0.302,0.014 0.299,0.013 0.298,0.011C0.297,0.01 0.297,0.009 0.297,0.009C0.297,0.007 0.298,0.005 0.3,0.005Z" style="fill:rgb(153,153,153);fill-rule:nonzero;"/>
            </g>
            <g transform="matrix(0,182.816,182.816,0,105.357,71.6367)">
                <path d="M0.583,-0.007C0.584,-0.009 0.586,-0.011 0.589,-0.01C0.601,-0.007 0.613,-0.003 0.624,0.001C0.626,0.002 0.627,0.004 0.627,0.006C0.627,0.006 0.627,0.007 0.627,0.007C0.626,0.01 0.623,0.011 0.621,0.01C0.61,0.006 0.598,0.002 0.586,-0.001C0.584,-0.002 0.583,-0.004 0.583,-0.006C0.583,-0.006 0.583,-0.007 0.583,-0.007Z" style="fill:rgb(153,153,153);fill-rule:nonzero;"/>
            </g>
            <g transform="matrix(0,182.816,182.816,0,126.679,71.636)">
                <path d="M0.189,0.011C0.196,0.001 0.204,-0.008 0.213,-0.017C0.214,-0.019 0.217,-0.019 0.219,-0.018C0.22,-0.017 0.221,-0.016 0.221,-0.014C0.221,-0.013 0.22,-0.012 0.219,-0.011C0.211,-0.002 0.203,0.007 0.196,0.017C0.195,0.019 0.192,0.019 0.19,0.018C0.188,0.017 0.188,0.016 0.188,0.014C0.188,0.013 0.188,0.012 0.189,0.011Z" style="fill:rgb(153,153,153);fill-rule:nonzero;"/>
            </g>
            <g transform="matrix(0,182.817,182.817,0,231.444,71.6358)">
                <path d="M0.633,0.004C0.644,-0.001 0.655,-0.006 0.666,-0.012C0.668,-0.013 0.671,-0.012 0.672,-0.01C0.672,-0.009 0.673,-0.009 0.673,-0.008C0.673,-0.006 0.672,-0.005 0.67,-0.004C0.659,0.002 0.648,0.007 0.636,0.012C0.634,0.013 0.631,0.012 0.63,0.01C0.63,0.009 0.63,0.009 0.63,0.008C0.63,0.006 0.631,0.005 0.633,0.004Z" style="fill:rgb(153,153,153);fill-rule:nonzero;"/>
            </g>
            <g transform="matrix(0,182.818,182.818,0,177.031,71.6356)">
                <path d="M0.118,-0.023C0.121,-0.023 0.123,-0.021 0.123,-0.019C0.124,-0.007 0.125,0.006 0.127,0.017C0.127,0.018 0.127,0.018 0.127,0.018C0.127,0.02 0.125,0.022 0.123,0.023C0.12,0.023 0.118,0.021 0.118,0.019C0.116,0.007 0.115,-0.006 0.114,-0.018L0.114,-0.019C0.114,-0.021 0.116,-0.023 0.118,-0.023Z" style="fill:rgb(153,153,153);fill-rule:nonzero;"/>
            </g>
            <g transform="matrix(0,182.816,182.816,0,118.462,71.6362)">
                <path d="M0.715,-0.015C0.717,-0.017 0.72,-0.017 0.722,-0.016C0.732,-0.008 0.741,0 0.75,0.009C0.751,0.01 0.752,0.011 0.752,0.012C0.752,0.013 0.751,0.014 0.75,0.015C0.749,0.017 0.746,0.017 0.744,0.016C0.735,0.007 0.726,-0.001 0.716,-0.008C0.715,-0.009 0.714,-0.011 0.714,-0.012C0.714,-0.013 0.715,-0.014 0.715,-0.015Z" style="fill:rgb(153,153,153);fill-rule:nonzero;"/>
            </g>
            <g transform="matrix(0,182.818,182.818,0,192.151,71.6352)">
                <path d="M0.832,0.016C0.837,0.004 0.841,-0.007 0.844,-0.019C0.845,-0.021 0.848,-0.023 0.85,-0.022C0.852,-0.021 0.853,-0.02 0.853,-0.018C0.853,-0.017 0.853,-0.017 0.853,-0.016C0.85,-0.004 0.846,0.008 0.841,0.019C0.84,0.021 0.837,0.023 0.835,0.022C0.833,0.021 0.832,0.019 0.832,0.017C0.832,0.017 0.832,0.016 0.832,0.016Z" style="fill:rgb(153,153,153);fill-rule:nonzero;"/>
            </g>
            <g transform="matrix(0,182.814,182.814,0,139.63,71.6381)">
                <path d="M0.813,-0.021C0.815,-0.022 0.818,-0.021 0.819,-0.019C0.825,-0.008 0.831,0.003 0.836,0.015C0.836,0.015 0.836,0.016 0.836,0.017C0.836,0.018 0.835,0.02 0.834,0.021C0.831,0.022 0.828,0.021 0.827,0.018C0.823,0.007 0.817,-0.004 0.811,-0.014C0.811,-0.015 0.811,-0.016 0.811,-0.016C0.811,-0.018 0.811,-0.02 0.813,-0.021Z" style="fill:rgb(153,153,153);fill-rule:nonzero;"/>
            </g>
            <g transform="matrix(0,182.822,182.822,0,165.489,71.6309)">
                <path d="M0.86,-0.023C0.863,-0.023 0.865,-0.021 0.865,-0.019C0.867,-0.006 0.868,0.006 0.868,0.019L0.868,0.019C0.868,0.021 0.866,0.023 0.863,0.023C0.861,0.023 0.859,0.021 0.858,0.019C0.858,0.007 0.857,-0.006 0.856,-0.018C0.856,-0.018 0.856,-0.018 0.856,-0.018C0.856,-0.021 0.858,-0.023 0.86,-0.023Z" style="fill:rgb(153,153,153);fill-rule:nonzero;"/>
            </g>
            <g transform="matrix(0,182.819,182.819,0,163.47,71.6356)">
                <path d="M0.114,0.018C0.114,0.006 0.116,-0.007 0.117,-0.019C0.118,-0.021 0.12,-0.023 0.123,-0.023C0.125,-0.022 0.127,-0.02 0.127,-0.018C0.127,-0.018 0.127,-0.018 0.127,-0.018C0.125,-0.006 0.124,0.007 0.123,0.019C0.123,0.021 0.121,0.023 0.118,0.023C0.116,0.023 0.114,0.021 0.114,0.019L0.114,0.018Z" style="fill:rgb(153,153,153);fill-rule:nonzero;"/>
            </g>
            <g transform="matrix(0,182.815,182.815,0,117.168,71.6362)">
                <path d="M0.239,0.008C0.248,0 0.258,-0.008 0.268,-0.015C0.27,-0.017 0.273,-0.016 0.275,-0.014C0.275,-0.013 0.276,-0.012 0.276,-0.012C0.276,-0.01 0.275,-0.009 0.274,-0.008C0.264,-0.001 0.254,0.007 0.245,0.015C0.243,0.017 0.241,0.017 0.239,0.015C0.238,0.014 0.238,0.013 0.238,0.012C0.238,0.01 0.238,0.009 0.239,0.008Z" style="fill:rgb(153,153,153);fill-rule:nonzero;"/>
            </g>
            <g transform="matrix(0,182.818,182.818,0,137.836,71.6356)">
                <path d="M0.15,0.014C0.155,0.003 0.161,-0.008 0.168,-0.019C0.169,-0.021 0.172,-0.022 0.174,-0.02C0.175,-0.019 0.176,-0.018 0.176,-0.016C0.176,-0.015 0.176,-0.015 0.176,-0.014C0.169,-0.003 0.163,0.007 0.158,0.018C0.157,0.021 0.154,0.022 0.152,0.02C0.15,0.02 0.149,0.018 0.149,0.016C0.149,0.016 0.15,0.015 0.15,0.014Z" style="fill:rgb(153,153,153);fill-rule:nonzero;"/>
            </g>
            <g transform="matrix(0,182.816,182.816,0,104.767,71.6358)">
                <path d="M0.367,0.001C0.379,-0.003 0.391,-0.007 0.403,-0.01C0.406,-0.01 0.408,-0.009 0.409,-0.006C0.409,-0.006 0.409,-0.006 0.409,-0.005C0.409,-0.003 0.408,-0.001 0.406,-0.001C0.394,0.002 0.382,0.005 0.37,0.009C0.368,0.01 0.365,0.009 0.365,0.007C0.364,0.006 0.364,0.006 0.364,0.005C0.364,0.003 0.366,0.001 0.367,0.001Z" style="fill:rgb(153,153,153);fill-rule:nonzero;"/>
            </g>
            <g transform="matrix(0,182.817,182.817,0,213.75,71.6358)">
                <path d="M0.191,-0.018C0.193,-0.019 0.196,-0.019 0.197,-0.017C0.204,-0.007 0.212,0.002 0.221,0.011C0.221,0.012 0.222,0.013 0.222,0.014C0.222,0.016 0.221,0.017 0.22,0.018C0.218,0.019 0.216,0.019 0.214,0.017C0.205,0.008 0.197,-0.001 0.19,-0.011C0.189,-0.012 0.189,-0.013 0.189,-0.014C0.189,-0.015 0.189,-0.017 0.191,-0.018Z" style="fill:rgb(153,153,153);fill-rule:nonzero;"/>
            </g>
            <g transform="matrix(0,182.817,182.817,0,230.544,71.6359)">
                <path d="M0.3,-0.011C0.301,-0.013 0.304,-0.014 0.306,-0.012C0.316,-0.006 0.327,-0.001 0.338,0.004C0.34,0.005 0.341,0.007 0.341,0.009C0.341,0.009 0.341,0.01 0.341,0.01C0.339,0.013 0.337,0.014 0.334,0.013C0.323,0.008 0.312,0.002 0.301,-0.004C0.3,-0.005 0.299,-0.007 0.299,-0.008C0.299,-0.009 0.299,-0.01 0.3,-0.011Z" style="fill:rgb(153,153,153);fill-rule:nonzero;"/>
            </g>
            <g transform="matrix(0,182.817,182.817,0,190.227,71.6358)">
                <path d="M0.128,-0.022C0.131,-0.023 0.133,-0.021 0.134,-0.019C0.137,-0.007 0.141,0.005 0.145,0.016C0.145,0.016 0.145,0.017 0.145,0.018C0.145,0.019 0.144,0.021 0.142,0.022C0.14,0.023 0.137,0.022 0.136,0.019C0.132,0.007 0.128,-0.005 0.125,-0.017C0.125,-0.017 0.125,-0.017 0.125,-0.018C0.125,-0.02 0.126,-0.022 0.128,-0.022Z" style="fill:rgb(153,153,153);fill-rule:nonzero;"/>
            </g>
            <g transform="matrix(0,182.816,182.816,0,102.532,71.6359)">
                <path d="M0.51,-0.003C0.51,-0.005 0.512,-0.007 0.515,-0.007C0.527,-0.006 0.54,-0.005 0.552,-0.003C0.554,-0.002 0.556,0 0.556,0.002C0.556,0.002 0.556,0.002 0.556,0.003C0.555,0.005 0.553,0.007 0.551,0.006C0.539,0.004 0.526,0.003 0.514,0.002C0.512,0.002 0.51,0 0.51,-0.002C0.51,-0.002 0.51,-0.002 0.51,-0.003Z" style="fill:rgb(153,153,153);fill-rule:nonzero;"/>
            </g>
            <g transform="matrix(0,182.817,182.817,0,236.016,71.6357)">
                <path d="M0.563,0C0.575,-0.002 0.587,-0.005 0.599,-0.009C0.601,-0.01 0.604,-0.008 0.604,-0.006C0.604,-0.005 0.605,-0.005 0.605,-0.004C0.605,-0.002 0.603,-0.001 0.601,0C0.589,0.004 0.577,0.007 0.565,0.009C0.562,0.01 0.56,0.008 0.56,0.006C0.559,0.005 0.559,0.005 0.559,0.005C0.559,0.002 0.561,0.001 0.563,0Z" style="fill:rgb(153,153,153);fill-rule:nonzero;"/>
            </g>
            <g transform="matrix(0,182.817,182.817,0,204.389,71.6357)">
                <path d="M0.799,0.013C0.805,0.003 0.812,-0.007 0.817,-0.018C0.818,-0.02 0.821,-0.021 0.823,-0.02C0.825,-0.019 0.826,-0.018 0.826,-0.016C0.826,-0.015 0.826,-0.014 0.825,-0.014C0.82,-0.003 0.813,0.008 0.806,0.019C0.805,0.021 0.802,0.021 0.8,0.02C0.799,0.019 0.798,0.017 0.798,0.016C0.798,0.015 0.798,0.014 0.799,0.013Z" style="fill:rgb(153,153,153);fill-rule:nonzero;"/>
            </g>
            <g transform="matrix(0,182.818,182.818,0,224.453,71.6349)">
                <path d="M0.697,0.007C0.707,0 0.717,-0.007 0.726,-0.015C0.728,-0.016 0.731,-0.016 0.733,-0.014C0.733,-0.013 0.734,-0.012 0.734,-0.011C0.734,-0.01 0.733,-0.009 0.732,-0.008C0.723,0 0.712,0.008 0.702,0.015C0.7,0.016 0.697,0.016 0.696,0.014C0.695,0.013 0.695,0.012 0.695,0.011C0.695,0.01 0.696,0.008 0.697,0.007Z" style="fill:rgb(153,153,153);fill-rule:nonzero;"/>
            </g>
            <g transform="matrix(0,180.084,180.084,0,237.86,65.4299)">
                <path d="M0.479,-0.002C0.479,-0.004 0.482,-0.006 0.484,-0.006C0.497,-0.004 0.509,-0.003 0.521,-0.003C0.524,-0.003 0.526,-0.001 0.526,0.002L0.526,0.002C0.526,0.004 0.524,0.006 0.521,0.006C0.508,0.006 0.496,0.005 0.483,0.003C0.481,0.003 0.479,0.001 0.479,-0.001C0.479,-0.001 0.479,-0.002 0.479,-0.002Z" style="fill:rgb(153,153,153);fill-rule:nonzero;"/>
            </g>
            <g transform="matrix(0,182.814,182.814,0,152.208,71.6378)">
                <path d="M0.843,-0.022C0.846,-0.023 0.849,-0.022 0.849,-0.019C0.853,-0.007 0.856,0.005 0.859,0.017C0.859,0.017 0.859,0.018 0.859,0.018C0.859,0.02 0.858,0.022 0.856,0.022C0.853,0.023 0.851,0.021 0.85,0.019C0.847,0.007 0.844,-0.005 0.84,-0.016C0.84,-0.017 0.84,-0.017 0.84,-0.018C0.84,-0.02 0.842,-0.021 0.843,-0.022Z" style="fill:rgb(153,153,153);fill-rule:nonzero;"/>
            </g>
            <g transform="matrix(0,182.815,182.815,0,179.041,71.6368)">
                <path d="M0.853,0.017C0.855,0.005 0.856,-0.007 0.857,-0.019C0.858,-0.021 0.86,-0.023 0.862,-0.023C0.865,-0.023 0.867,-0.021 0.867,-0.019C0.867,-0.018 0.867,-0.018 0.867,-0.018C0.866,-0.006 0.864,0.007 0.862,0.019C0.861,0.021 0.859,0.023 0.856,0.023C0.854,0.022 0.852,0.02 0.852,0.018C0.852,0.018 0.853,0.018 0.853,0.017Z" style="fill:rgb(153,153,153);fill-rule:nonzero;"/>
            </g>
            <g transform="matrix(0,182.818,182.818,0,128.254,71.6347)">
                <path d="M0.77,-0.018C0.772,-0.02 0.774,-0.02 0.776,-0.018C0.784,-0.008 0.792,0.002 0.799,0.012C0.8,0.013 0.8,0.014 0.8,0.014C0.8,0.016 0.799,0.017 0.798,0.018C0.796,0.02 0.793,0.019 0.792,0.017C0.785,0.007 0.777,-0.002 0.769,-0.012C0.768,-0.013 0.768,-0.014 0.768,-0.015C0.768,-0.016 0.769,-0.017 0.77,-0.018Z" style="fill:rgb(153,153,153);fill-rule:nonzero;"/>
            </g>
            <g transform="matrix(0,182.816,182.816,0,110.743,71.636)">
                <path d="M0.652,-0.011C0.654,-0.013 0.656,-0.014 0.659,-0.013C0.67,-0.008 0.681,-0.001 0.691,0.005C0.693,0.006 0.693,0.008 0.693,0.009C0.693,0.01 0.693,0.011 0.693,0.012C0.691,0.014 0.688,0.014 0.686,0.013C0.676,0.007 0.665,0 0.654,-0.005C0.653,-0.006 0.652,-0.007 0.652,-0.009C0.652,-0.01 0.652,-0.01 0.652,-0.011Z" style="fill:rgb(153,153,153);fill-rule:nonzero;"/>
            </g>
            <g transform="matrix(0,182.817,182.817,0,170.084,71.6357)">
                <path d="M0.491,-0.488C0.76,-0.488 0.979,-0.269 0.979,0C0.979,0.269 0.76,0.488 0.491,0.488C0.221,0.488 0.002,0.269 0.002,0C0.002,-0.269 0.221,-0.488 0.491,-0.488ZM0.491,-0.474C0.229,-0.474 0.016,-0.262 0.016,0C0.016,0.262 0.229,0.474 0.491,0.474C0.752,0.474 0.965,0.262 0.965,0C0.965,-0.262 0.752,-0.474 0.491,-0.474Z" style="fill:rgb(51,51,51);fill-rule:nonzero;"/>
            </g>
            <g transform="matrix(0,182.817,182.817,0,116.81,71.6357)">
                <path d="M0.483,-0.012L0.483,-0.052L0.506,-0.02L0.544,-0.032L0.521,0L0.544,0.032L0.506,0.02L0.483,0.052L0.483,0.012L0.445,0L0.483,-0.012Z" style="fill:rgb(51,51,51);fill-rule:nonzero;"/>
            </g>
            <g transform="matrix(0,182.817,182.817,0,224.205,71.6357)">
                <path d="M0.483,-0.012L0.483,-0.052L0.506,-0.02L0.544,-0.032L0.521,0L0.544,0.032L0.506,0.02L0.483,0.052L0.483,0.012L0.445,0L0.483,-0.012Z" style="fill:rgb(51,51,51);fill-rule:nonzero;"/>
            </g>
            <g transform="matrix(0,182.817,182.817,0,152.405,71.6358)">
                <path d="M0.212,-0.073C0.212,-0.076 0.215,-0.079 0.218,-0.079L0.219,-0.079C0.222,-0.079 0.225,-0.076 0.225,-0.073L0.225,0.079C0.223,0.078 0.221,0.078 0.219,0.078C0.216,0.078 0.214,0.078 0.212,0.079L0.212,-0.073Z" style="fill:rgb(51,51,51);fill-rule:nonzero;"/>
            </g>
            <g transform="matrix(0,182.817,182.817,0,190.723,71.6358)">
                <path d="M0.212,-0.079C0.214,-0.078 0.216,-0.078 0.219,-0.078C0.221,-0.078 0.223,-0.078 0.225,-0.079L0.225,0.073C0.225,0.076 0.222,0.079 0.219,0.079L0.218,0.079C0.215,0.079 0.212,0.076 0.212,0.073L0.212,-0.079Z" style="fill:rgb(51,51,51);fill-rule:nonzero;"/>
            </g>
            <g transform="matrix(0,182.818,182.818,0,171.563,71.6355)">
                <ellipse cx="0.219" cy="0" rx="0.016" ry="0.016" style="fill:rgb(51,51,51);"/>
            </g>
            <g transform="matrix(0,182.817,182.817,0,152.405,71.636)">
                <path d="M0.771,-0.073C0.771,-0.076 0.774,-0.079 0.777,-0.079L0.778,-0.079C0.781,-0.079 0.784,-0.076 0.784,-0.073L0.784,0.079C0.782,0.078 0.78,0.078 0.778,0.078C0.775,0.078 0.773,0.078 0.771,0.079L0.771,-0.073Z" style="fill:rgb(51,51,51);fill-rule:nonzero;"/>
            </g>
            <g transform="matrix(0,182.817,182.817,0,190.723,71.636)">
                <path d="M0.771,-0.079C0.773,-0.078 0.775,-0.078 0.778,-0.078C0.78,-0.078 0.782,-0.078 0.784,-0.079L0.784,0.073C0.784,0.076 0.781,0.079 0.778,0.079L0.777,0.079C0.774,0.079 0.771,0.076 0.771,0.073L0.771,-0.079Z" style="fill:rgb(51,51,51);fill-rule:nonzero;"/>
            </g>
            <g transform="matrix(0,182.818,182.818,0,171.563,71.6348)">
                <circle cx="0.778" cy="0" r="0.016" style="fill:rgb(51,51,51);"/>
            </g>
            <g transform="matrix(0,127.222,127.222,0,102.59,98.8707)">
                <path d="M0.373,0.281C0.391,0.274 0.406,0.267 0.406,0.236L0.434,0.236L0.434,0.267L0.631,0.267L0.631,0.308L0.373,0.308L0.373,0.281Z" style="fill:rgb(51,51,51);fill-rule:nonzero;"/>
            </g>
            <g transform="matrix(0,127.222,127.222,0,138.983,98.8707)">
                <path d="M0.435,0.068L0.569,0.068C0.61,0.068 0.634,0.089 0.634,0.129C0.634,0.169 0.61,0.191 0.569,0.191L0.435,0.191C0.394,0.191 0.37,0.169 0.37,0.129C0.37,0.089 0.394,0.068 0.435,0.068ZM0.572,0.108L0.433,0.108C0.414,0.108 0.407,0.116 0.407,0.129C0.407,0.142 0.414,0.15 0.433,0.15L0.572,0.15C0.59,0.15 0.597,0.142 0.597,0.129C0.597,0.116 0.59,0.108 0.572,0.108Z" style="fill:rgb(51,51,51);fill-rule:nonzero;"/>
            </g>
            <g transform="matrix(0,127.222,127.222,0,176.079,98.8707)">
                <path d="M0.435,-0.078L0.569,-0.078C0.61,-0.078 0.634,-0.057 0.634,-0.017C0.634,0.023 0.61,0.045 0.569,0.045L0.435,0.045C0.394,0.045 0.37,0.023 0.37,-0.017C0.37,-0.057 0.394,-0.078 0.435,-0.078ZM0.572,-0.038L0.433,-0.038C0.414,-0.038 0.407,-0.03 0.407,-0.017C0.407,-0.004 0.414,0.004 0.433,0.004L0.572,0.004C0.59,0.004 0.597,-0.004 0.597,-0.017C0.597,-0.03 0.59,-0.038 0.572,-0.038Z" style="fill:rgb(51,51,51);fill-rule:nonzero;"/>
            </g>
            <g transform="matrix(0,127.222,127.222,0,223.997,98.8707)">
                <path d="M0.413,-0.308L0.497,-0.308C0.524,-0.308 0.539,-0.294 0.539,-0.269C0.539,-0.244 0.524,-0.23 0.497,-0.23L0.413,-0.23C0.386,-0.23 0.371,-0.244 0.371,-0.269C0.371,-0.294 0.386,-0.308 0.413,-0.308ZM0.499,-0.282L0.411,-0.282C0.399,-0.282 0.395,-0.277 0.395,-0.269C0.395,-0.261 0.399,-0.256 0.411,-0.256L0.499,-0.256C0.511,-0.256 0.515,-0.261 0.515,-0.269C0.515,-0.277 0.511,-0.282 0.499,-0.282ZM0.373,-0.167L0.631,-0.269L0.631,-0.245L0.373,-0.143L0.373,-0.167ZM0.507,-0.18L0.592,-0.18C0.618,-0.18 0.633,-0.167 0.633,-0.141C0.633,-0.116 0.618,-0.102 0.592,-0.102L0.507,-0.102C0.48,-0.102 0.466,-0.116 0.466,-0.141C0.466,-0.167 0.48,-0.18 0.507,-0.18ZM0.593,-0.154L0.505,-0.154C0.494,-0.154 0.489,-0.15 0.489,-0.141C0.489,-0.133 0.494,-0.128 0.505,-0.128L0.593,-0.128C0.605,-0.128 0.61,-0.133 0.61,-0.141C0.61,-0.15 0.605,-0.154 0.593,-0.154Z" style="fill:rgb(51,51,51);fill-rule:nonzero;"/>
            </g>
            <g transform="matrix(0,133.389,133.389,0,116.889,105.266)">
                <path d="M0.641,0.167L0.71,0.167C0.732,0.167 0.744,0.178 0.744,0.199C0.744,0.204 0.743,0.209 0.742,0.214C0.747,0.216 0.751,0.222 0.751,0.232L0.751,0.235L0.732,0.235L0.732,0.233C0.732,0.229 0.732,0.228 0.729,0.227C0.724,0.229 0.718,0.231 0.71,0.231L0.641,0.231C0.619,0.231 0.607,0.219 0.607,0.199C0.607,0.178 0.619,0.167 0.641,0.167ZM0.712,0.188L0.639,0.188C0.63,0.188 0.626,0.192 0.626,0.199C0.626,0.205 0.63,0.21 0.639,0.21L0.712,0.21C0.721,0.21 0.725,0.205 0.725,0.199C0.725,0.192 0.721,0.188 0.712,0.188Z" style="fill:rgb(51,51,51);fill-rule:nonzero;"/>
            </g>
            <g transform="matrix(0,133.389,133.389,0,136.688,105.266)">
                <path d="M0.608,0.138L0.712,0.138C0.721,0.138 0.725,0.134 0.725,0.127C0.725,0.12 0.721,0.116 0.712,0.116L0.608,0.116L0.608,0.095L0.711,0.095C0.732,0.095 0.744,0.106 0.744,0.126C0.744,0.147 0.732,0.158 0.711,0.158L0.608,0.158L0.608,0.138Z" style="fill:rgb(51,51,51);fill-rule:nonzero;"/>
            </g>
            <g transform="matrix(0,133.389,133.389,0,157.28,105.266)">
                <path d="M0.608,0.034L0.743,0.012L0.743,0.032L0.718,0.035L0.718,0.061L0.743,0.065L0.743,0.086L0.608,0.065L0.608,0.034ZM0.632,0.048L0.7,0.058L0.7,0.038L0.632,0.048Z" style="fill:rgb(51,51,51);fill-rule:nonzero;"/>
            </g>
            <g transform="matrix(0,133.389,133.389,0,177.182,105.266)">
                <path d="M0.608,-0.053L0.743,-0.053L0.743,0.003L0.723,0.003L0.723,-0.032L0.608,-0.032L0.608,-0.053Z" style="fill:rgb(51,51,51);fill-rule:nonzero;"/>
            </g>
            <g transform="matrix(133.389,0,0,-133.389,90.0671,185.626)">
                <rect x="0.665" y="-0.14" width="0.021" height="0.134" style="fill:rgb(51,51,51);"/>
            </g>
            <g transform="matrix(0,133.389,133.389,0,203.862,105.266)">
                <path d="M0.608,-0.158L0.628,-0.158L0.628,-0.136L0.743,-0.136L0.743,-0.115L0.628,-0.115L0.628,-0.093L0.608,-0.093L0.608,-0.158Z" style="fill:rgb(51,51,51);fill-rule:nonzero;"/>
            </g>
            <g transform="matrix(0,133.389,133.389,0,223.098,105.266)">
                <path d="M0.608,-0.18L0.669,-0.196L0.608,-0.213L0.608,-0.235L0.698,-0.208L0.743,-0.208L0.743,-0.187L0.698,-0.187L0.608,-0.16L0.608,-0.18Z" style="fill:rgb(51,51,51);fill-rule:nonzero;"/>
            </g>
            <g transform="matrix(0,125.931,125.931,0,108.409,89.8853)">
                <path d="M0.253,0.212L0.395,0.212L0.395,0.234L0.342,0.234L0.342,0.245C0.342,0.267 0.33,0.278 0.307,0.278L0.288,0.278C0.266,0.278 0.253,0.267 0.253,0.245L0.253,0.212ZM0.274,0.234L0.274,0.245C0.274,0.252 0.277,0.256 0.287,0.256L0.308,0.256C0.318,0.256 0.322,0.252 0.322,0.245L0.322,0.234L0.274,0.234Z" style="fill:rgb(51,51,51);fill-rule:nonzero;"/>
            </g>
            <g transform="matrix(0,125.931,125.931,0,128.106,89.8853)">
                <path d="M0.253,0.132L0.395,0.132L0.395,0.154L0.338,0.154L0.338,0.162C0.338,0.172 0.342,0.177 0.356,0.177L0.378,0.177C0.39,0.177 0.392,0.177 0.395,0.179L0.395,0.201C0.39,0.199 0.385,0.199 0.378,0.199L0.356,0.199C0.341,0.199 0.331,0.195 0.326,0.184C0.321,0.194 0.312,0.199 0.297,0.199L0.286,0.199C0.264,0.199 0.253,0.189 0.253,0.166L0.253,0.132ZM0.274,0.154L0.274,0.165C0.274,0.173 0.278,0.176 0.288,0.176L0.302,0.176C0.314,0.176 0.317,0.171 0.317,0.163L0.317,0.154L0.274,0.154Z" style="fill:rgb(51,51,51);fill-rule:nonzero;"/>
            </g>
            <g transform="matrix(0,125.931,125.931,0,147.598,89.8853)">
                <path d="M0.253,0.059L0.395,0.059L0.395,0.12L0.375,0.12L0.375,0.081L0.334,0.081L0.334,0.112L0.313,0.112L0.313,0.081L0.274,0.081L0.274,0.12L0.253,0.12L0.253,0.059Z" style="fill:rgb(51,51,51);fill-rule:nonzero;"/>
            </g>
            <g transform="matrix(0,125.931,125.931,0,170.517,89.8853)">
                <path d="M0.253,0.014L0.354,-0.001L0.253,-0.018L0.253,-0.049L0.395,-0.049L0.395,-0.029L0.295,-0.029L0.395,-0.012L0.395,0.009L0.293,0.024L0.395,0.024L0.395,0.045L0.253,0.045L0.253,0.014Z" style="fill:rgb(51,51,51);fill-rule:nonzero;"/>
            </g>
            <g transform="matrix(125.931,0,0,-125.931,138.816,121.152)">
                <rect x="0.313" y="-0.147" width="0.022" height="0.142" style="fill:rgb(51,51,51);"/>
            </g>
            <g transform="matrix(0,125.931,125.931,0,204.284,89.8853)">
                <path d="M0.253,-0.124L0.363,-0.124C0.373,-0.124 0.377,-0.128 0.377,-0.135C0.377,-0.142 0.373,-0.147 0.363,-0.147L0.253,-0.147L0.253,-0.169L0.362,-0.169C0.384,-0.169 0.397,-0.158 0.397,-0.136C0.397,-0.114 0.384,-0.102 0.362,-0.102L0.253,-0.102L0.253,-0.124Z" style="fill:rgb(51,51,51);fill-rule:nonzero;"/>
            </g>
            <g transform="matrix(0,125.931,125.931,0,228.277,89.8853)">
                <path d="M0.253,-0.215L0.354,-0.23L0.253,-0.247L0.253,-0.278L0.395,-0.278L0.395,-0.258L0.295,-0.258L0.395,-0.242L0.395,-0.221L0.293,-0.205L0.395,-0.205L0.395,-0.184L0.253,-0.184L0.253,-0.215Z" style="fill:rgb(51,51,51);fill-rule:nonzero;"/>
            </g>
        </g>
    </g>
</svg>
