<?xml version="1.0" encoding="UTF-8" standalone="no"?>
<!DOCTYPE svg PUBLIC "-//W3C//DTD SVG 1.1//EN" "http://www.w3.org/Graphics/SVG/1.1/DTD/svg11.dtd">
<svg width="100%" height="100%" viewBox="0 0 221 221" version="1.1" xmlns="http://www.w3.org/2000/svg" xmlns:xlink="http://www.w3.org/1999/xlink" xml:space="preserve" xmlns:serif="http://www.serif.com/" style="fill-rule:evenodd;clip-rule:evenodd;stroke-linejoin:round;stroke-miterlimit:2;">
    <g transform="matrix(1,0,0,1,-61,-297)">
        <g id="Object">
            <g transform="matrix(0,168.768,168.768,0,256.747,322.859)">
                <path d="M0.296,-0.127C0.306,-0.122 0.317,-0.117 0.328,-0.112L0.328,-0.105C0.328,-0.103 0.33,-0.101 0.333,-0.101C0.335,-0.101 0.337,-0.103 0.337,-0.105L0.337,-0.109C0.387,-0.089 0.441,-0.079 0.498,-0.079C0.557,-0.079 0.613,-0.09 0.665,-0.111L0.665,-0.105C0.665,-0.103 0.667,-0.101 0.669,-0.101C0.671,-0.101 0.673,-0.103 0.673,-0.105L0.673,-0.114C0.682,-0.118 0.691,-0.122 0.7,-0.127L0.7,0.126L0.673,0.11L0.673,0.088C0.673,0.086 0.671,0.084 0.669,0.084C0.667,0.084 0.665,0.086 0.665,0.088L0.665,0.105L0.508,0.008L0.337,0.104L0.337,0.088C0.337,0.086 0.335,0.084 0.333,0.084C0.33,0.084 0.328,0.086 0.328,0.088L0.328,0.109L0.296,0.127L0.296,-0.127ZM0.333,0.029C0.33,0.029 0.328,0.031 0.328,0.033L0.328,0.061C0.328,0.063 0.33,0.065 0.333,0.065C0.335,0.065 0.337,0.063 0.337,0.061L0.337,0.033C0.337,0.031 0.335,0.029 0.333,0.029ZM0.333,-0.026C0.33,-0.026 0.328,-0.024 0.328,-0.022L0.328,0.005C0.328,0.008 0.33,0.01 0.333,0.01C0.335,0.01 0.337,0.008 0.337,0.005L0.337,-0.022C0.337,-0.024 0.335,-0.026 0.333,-0.026ZM0.333,-0.081C0.33,-0.081 0.328,-0.08 0.328,-0.077L0.328,-0.05C0.328,-0.047 0.33,-0.046 0.333,-0.046C0.335,-0.046 0.337,-0.047 0.337,-0.05L0.337,-0.077C0.337,-0.08 0.335,-0.081 0.333,-0.081ZM0.669,0.029C0.667,0.029 0.665,0.031 0.665,0.033L0.665,0.061C0.665,0.063 0.667,0.065 0.669,0.065C0.671,0.065 0.673,0.063 0.673,0.061L0.673,0.033C0.673,0.031 0.671,0.029 0.669,0.029ZM0.669,-0.026C0.667,-0.026 0.665,-0.024 0.665,-0.022L0.665,0.005C0.665,0.008 0.667,0.01 0.669,0.01C0.671,0.01 0.673,0.008 0.673,0.005L0.673,-0.022C0.673,-0.024 0.671,-0.026 0.669,-0.026ZM0.669,-0.081C0.667,-0.081 0.665,-0.08 0.665,-0.077L0.665,-0.05C0.665,-0.047 0.667,-0.046 0.669,-0.046C0.671,-0.046 0.673,-0.047 0.673,-0.05L0.673,-0.077C0.673,-0.08 0.671,-0.081 0.669,-0.081Z" style="fill:rgb(153,153,153);fill-rule:nonzero;"/>
            </g>
            <g transform="matrix(0,168.768,168.768,0,167.764,322.859)">
                <path d="M0.498,-0.432C0.736,-0.432 0.93,-0.238 0.93,0C0.93,0.238 0.736,0.432 0.498,0.432C0.26,0.432 0.066,0.238 0.066,0C0.066,-0.238 0.26,-0.432 0.498,-0.432ZM0.109,-0.023C0.106,-0.023 0.104,-0.021 0.104,-0.019C0.104,-0.013 0.104,-0.006 0.104,0C0.104,0.003 0.104,0.006 0.104,0.009C0.104,0.011 0.106,0.013 0.108,0.013C0.11,0.013 0.112,0.011 0.112,0.009C0.112,0.006 0.112,0.003 0.112,0L0.112,-0.019C0.112,-0.021 0.111,-0.023 0.109,-0.023ZM0.117,0.063C0.116,0.054 0.115,0.045 0.114,0.036C0.113,0.034 0.111,0.032 0.109,0.032C0.107,0.032 0.105,0.034 0.105,0.037C0.106,0.046 0.107,0.055 0.109,0.064C0.109,0.067 0.111,0.068 0.114,0.068C0.116,0.067 0.117,0.066 0.117,0.064C0.117,0.063 0.117,0.063 0.117,0.063ZM0.116,-0.078C0.113,-0.078 0.111,-0.076 0.111,-0.074C0.109,-0.065 0.108,-0.056 0.106,-0.047C0.106,-0.044 0.108,-0.042 0.11,-0.042C0.112,-0.042 0.114,-0.043 0.115,-0.046C0.116,-0.055 0.117,-0.064 0.119,-0.073C0.119,-0.073 0.119,-0.073 0.119,-0.073C0.119,-0.075 0.118,-0.077 0.116,-0.078ZM0.13,0.116C0.127,0.107 0.125,0.099 0.123,0.09C0.122,0.088 0.12,0.086 0.118,0.087C0.115,0.087 0.114,0.089 0.114,0.092C0.117,0.101 0.119,0.11 0.122,0.119C0.123,0.121 0.125,0.122 0.127,0.121C0.129,0.121 0.13,0.119 0.13,0.117C0.13,0.117 0.13,0.116 0.13,0.116ZM0.13,-0.131C0.128,-0.131 0.126,-0.13 0.125,-0.128C0.122,-0.119 0.119,-0.11 0.117,-0.101C0.116,-0.099 0.118,-0.097 0.12,-0.096C0.122,-0.096 0.124,-0.097 0.125,-0.099C0.127,-0.108 0.13,-0.117 0.133,-0.125C0.133,-0.126 0.133,-0.126 0.133,-0.127C0.133,-0.128 0.132,-0.13 0.13,-0.131ZM0.15,0.167C0.146,0.159 0.142,0.15 0.139,0.142C0.138,0.14 0.136,0.139 0.134,0.139C0.131,0.14 0.13,0.143 0.131,0.145C0.135,0.153 0.138,0.162 0.142,0.17C0.143,0.172 0.146,0.173 0.148,0.172C0.149,0.172 0.15,0.17 0.15,0.169C0.15,0.168 0.15,0.167 0.15,0.167ZM0.152,-0.181C0.15,-0.182 0.148,-0.181 0.147,-0.179C0.143,-0.171 0.139,-0.162 0.135,-0.154C0.134,-0.152 0.135,-0.149 0.137,-0.149C0.139,-0.148 0.142,-0.149 0.143,-0.151C0.146,-0.159 0.15,-0.167 0.154,-0.175C0.154,-0.176 0.155,-0.177 0.155,-0.177C0.155,-0.179 0.154,-0.18 0.152,-0.181ZM0.498,-0.362C0.299,-0.362 0.136,-0.199 0.136,0C0.136,0.199 0.299,0.362 0.498,0.362C0.697,0.362 0.859,0.199 0.859,0C0.859,-0.199 0.697,-0.362 0.498,-0.362ZM0.177,0.214C0.172,0.207 0.167,0.199 0.162,0.191C0.161,0.189 0.159,0.188 0.157,0.189C0.155,0.191 0.154,0.193 0.155,0.195C0.16,0.203 0.165,0.211 0.17,0.219C0.171,0.221 0.174,0.221 0.176,0.22C0.177,0.219 0.178,0.218 0.178,0.216C0.178,0.216 0.177,0.215 0.177,0.214ZM0.181,-0.228C0.179,-0.229 0.177,-0.229 0.176,-0.227C0.17,-0.219 0.165,-0.211 0.16,-0.204C0.159,-0.202 0.16,-0.199 0.162,-0.198C0.164,-0.197 0.166,-0.197 0.167,-0.199C0.172,-0.207 0.177,-0.215 0.182,-0.222C0.183,-0.223 0.183,-0.224 0.183,-0.224C0.183,-0.226 0.182,-0.227 0.181,-0.228ZM0.21,0.257C0.204,0.25 0.198,0.243 0.193,0.236C0.191,0.234 0.189,0.234 0.187,0.236C0.185,0.237 0.185,0.24 0.186,0.241C0.192,0.249 0.198,0.256 0.204,0.263C0.206,0.264 0.208,0.265 0.21,0.263C0.211,0.262 0.211,0.261 0.211,0.26C0.211,0.259 0.211,0.258 0.21,0.257ZM0.217,-0.27C0.215,-0.272 0.212,-0.272 0.211,-0.27C0.204,-0.263 0.198,-0.256 0.192,-0.249C0.191,-0.247 0.191,-0.245 0.193,-0.243C0.195,-0.242 0.197,-0.242 0.199,-0.244C0.204,-0.251 0.211,-0.258 0.217,-0.264C0.217,-0.265 0.218,-0.266 0.218,-0.267C0.218,-0.268 0.217,-0.269 0.217,-0.27ZM0.249,0.295C0.242,0.289 0.236,0.283 0.229,0.277C0.228,0.275 0.225,0.275 0.223,0.277C0.222,0.279 0.222,0.281 0.223,0.283C0.23,0.289 0.237,0.296 0.244,0.302C0.246,0.303 0.248,0.303 0.25,0.301C0.251,0.3 0.251,0.299 0.251,0.298C0.251,0.297 0.25,0.296 0.249,0.295ZM0.257,-0.307C0.256,-0.309 0.253,-0.309 0.252,-0.308C0.244,-0.302 0.237,-0.296 0.23,-0.29C0.229,-0.288 0.229,-0.285 0.23,-0.284C0.232,-0.282 0.234,-0.282 0.236,-0.283C0.243,-0.29 0.25,-0.296 0.257,-0.301C0.258,-0.302 0.258,-0.303 0.258,-0.305C0.258,-0.305 0.258,-0.306 0.257,-0.307ZM0.293,0.327C0.286,0.323 0.278,0.317 0.271,0.312C0.269,0.311 0.266,0.311 0.265,0.313C0.264,0.315 0.264,0.317 0.266,0.319C0.273,0.324 0.281,0.329 0.289,0.334C0.291,0.336 0.293,0.335 0.295,0.333C0.295,0.332 0.295,0.332 0.295,0.331C0.295,0.329 0.295,0.328 0.293,0.327ZM0.303,-0.338C0.302,-0.34 0.299,-0.341 0.297,-0.339C0.289,-0.335 0.282,-0.33 0.274,-0.324C0.272,-0.323 0.272,-0.321 0.273,-0.319C0.274,-0.317 0.277,-0.316 0.279,-0.318C0.286,-0.323 0.294,-0.328 0.302,-0.332C0.303,-0.333 0.304,-0.334 0.304,-0.336C0.304,-0.337 0.303,-0.337 0.303,-0.338ZM0.341,0.353C0.333,0.349 0.325,0.345 0.317,0.341C0.315,0.34 0.312,0.341 0.311,0.343C0.31,0.345 0.311,0.347 0.313,0.348C0.321,0.353 0.33,0.357 0.338,0.36C0.34,0.361 0.343,0.36 0.344,0.358C0.344,0.358 0.344,0.357 0.344,0.357C0.344,0.355 0.343,0.354 0.341,0.353ZM0.353,-0.362C0.352,-0.364 0.349,-0.365 0.347,-0.364C0.339,-0.361 0.33,-0.357 0.322,-0.353C0.32,-0.352 0.319,-0.349 0.32,-0.347C0.321,-0.345 0.324,-0.344 0.326,-0.345C0.334,-0.349 0.342,-0.353 0.35,-0.357C0.352,-0.357 0.353,-0.359 0.353,-0.361C0.353,-0.361 0.353,-0.362 0.353,-0.362ZM0.393,0.371C0.384,0.369 0.375,0.366 0.367,0.363C0.365,0.362 0.362,0.363 0.361,0.366C0.361,0.368 0.362,0.37 0.364,0.371C0.373,0.374 0.382,0.377 0.39,0.379C0.393,0.38 0.395,0.379 0.396,0.377C0.396,0.376 0.396,0.376 0.396,0.375C0.396,0.374 0.395,0.372 0.393,0.371ZM0.405,-0.379C0.405,-0.381 0.402,-0.383 0.4,-0.382C0.391,-0.38 0.382,-0.377 0.373,-0.374C0.371,-0.373 0.37,-0.371 0.371,-0.369C0.372,-0.367 0.374,-0.366 0.376,-0.366C0.385,-0.369 0.393,-0.372 0.402,-0.374C0.404,-0.374 0.405,-0.376 0.405,-0.378C0.405,-0.378 0.405,-0.379 0.405,-0.379ZM0.446,0.382C0.437,0.381 0.428,0.38 0.419,0.378C0.417,0.377 0.415,0.379 0.414,0.381C0.414,0.383 0.415,0.386 0.418,0.386C0.427,0.388 0.436,0.389 0.445,0.391C0.447,0.391 0.449,0.389 0.45,0.387C0.45,0.387 0.45,0.387 0.45,0.387C0.45,0.385 0.448,0.383 0.446,0.382ZM0.459,-0.388C0.459,-0.39 0.457,-0.392 0.455,-0.392C0.446,-0.391 0.436,-0.39 0.427,-0.388C0.425,-0.387 0.424,-0.385 0.424,-0.383C0.424,-0.381 0.427,-0.379 0.429,-0.38C0.438,-0.381 0.447,-0.383 0.456,-0.384C0.458,-0.384 0.459,-0.386 0.459,-0.388C0.459,-0.388 0.459,-0.388 0.459,-0.388ZM0.53,0.389C0.529,0.387 0.527,0.385 0.525,0.385C0.516,0.386 0.507,0.386 0.498,0.386C0.49,0.386 0.481,0.386 0.473,0.385C0.471,0.385 0.469,0.387 0.469,0.389C0.469,0.391 0.47,0.393 0.473,0.393C0.481,0.394 0.489,0.394 0.498,0.394C0.507,0.394 0.517,0.394 0.526,0.393C0.528,0.393 0.53,0.391 0.53,0.389C0.53,0.389 0.53,0.389 0.53,0.389ZM0.511,-0.394C0.506,-0.394 0.502,-0.394 0.498,-0.394C0.493,-0.394 0.488,-0.394 0.483,-0.394C0.48,-0.394 0.479,-0.392 0.479,-0.39C0.479,-0.387 0.481,-0.386 0.483,-0.386C0.488,-0.386 0.493,-0.386 0.498,-0.386C0.502,-0.386 0.506,-0.386 0.51,-0.386C0.513,-0.386 0.514,-0.387 0.515,-0.39L0.515,-0.39C0.515,-0.392 0.513,-0.394 0.511,-0.394ZM0.566,-0.388C0.557,-0.39 0.548,-0.391 0.538,-0.392C0.536,-0.392 0.534,-0.391 0.534,-0.388C0.534,-0.386 0.535,-0.384 0.537,-0.384C0.546,-0.383 0.556,-0.382 0.564,-0.38C0.567,-0.38 0.569,-0.381 0.569,-0.384C0.569,-0.384 0.569,-0.384 0.569,-0.384C0.569,-0.386 0.568,-0.388 0.566,-0.388ZM0.584,0.381C0.584,0.378 0.581,0.377 0.579,0.377C0.57,0.379 0.561,0.381 0.552,0.382C0.55,0.382 0.548,0.385 0.549,0.387C0.549,0.389 0.551,0.391 0.553,0.39C0.563,0.389 0.572,0.387 0.581,0.385C0.583,0.385 0.584,0.383 0.584,0.381C0.584,0.381 0.584,0.381 0.584,0.381ZM0.62,-0.375C0.611,-0.378 0.602,-0.38 0.593,-0.383C0.591,-0.383 0.589,-0.382 0.588,-0.38C0.588,-0.377 0.589,-0.375 0.591,-0.375C0.6,-0.372 0.609,-0.37 0.617,-0.367C0.62,-0.366 0.622,-0.368 0.623,-0.37C0.623,-0.37 0.623,-0.371 0.623,-0.371C0.623,-0.373 0.622,-0.374 0.62,-0.375ZM0.637,0.365C0.636,0.362 0.634,0.361 0.631,0.362C0.623,0.365 0.614,0.368 0.606,0.371C0.603,0.371 0.602,0.374 0.603,0.376C0.603,0.378 0.606,0.379 0.608,0.379C0.617,0.376 0.626,0.373 0.634,0.37C0.636,0.369 0.637,0.368 0.637,0.366C0.637,0.366 0.637,0.365 0.637,0.365ZM0.672,-0.354C0.663,-0.358 0.655,-0.362 0.646,-0.365C0.644,-0.366 0.642,-0.365 0.641,-0.363C0.64,-0.361 0.641,-0.359 0.643,-0.358C0.651,-0.354 0.66,-0.351 0.668,-0.347C0.67,-0.346 0.672,-0.346 0.673,-0.348C0.674,-0.349 0.674,-0.35 0.674,-0.35C0.674,-0.352 0.673,-0.353 0.672,-0.354ZM0.687,0.341C0.686,0.339 0.683,0.339 0.681,0.34C0.673,0.344 0.665,0.348 0.657,0.352C0.655,0.353 0.654,0.355 0.655,0.357C0.656,0.359 0.658,0.36 0.66,0.359C0.669,0.356 0.677,0.351 0.685,0.347C0.687,0.346 0.687,0.345 0.687,0.343C0.687,0.343 0.687,0.342 0.687,0.341ZM0.72,-0.326C0.712,-0.331 0.704,-0.336 0.696,-0.341C0.694,-0.342 0.692,-0.341 0.69,-0.339C0.689,-0.337 0.69,-0.335 0.692,-0.334C0.7,-0.329 0.707,-0.324 0.715,-0.319C0.717,-0.318 0.719,-0.318 0.721,-0.32C0.721,-0.321 0.721,-0.322 0.721,-0.323C0.721,-0.324 0.721,-0.325 0.72,-0.326ZM0.733,0.311C0.732,0.309 0.729,0.309 0.727,0.31C0.72,0.316 0.712,0.321 0.705,0.326C0.703,0.327 0.702,0.33 0.703,0.332C0.705,0.334 0.707,0.334 0.709,0.333C0.717,0.328 0.725,0.323 0.732,0.317C0.733,0.316 0.734,0.315 0.734,0.314C0.734,0.313 0.734,0.312 0.733,0.311ZM0.763,-0.291C0.756,-0.298 0.749,-0.304 0.742,-0.31C0.74,-0.311 0.738,-0.311 0.736,-0.309C0.735,-0.307 0.735,-0.304 0.737,-0.303C0.744,-0.297 0.751,-0.291 0.758,-0.285C0.759,-0.284 0.762,-0.284 0.764,-0.286C0.764,-0.286 0.765,-0.287 0.765,-0.288C0.765,-0.29 0.764,-0.291 0.763,-0.291ZM0.775,0.275C0.773,0.273 0.77,0.273 0.769,0.275C0.762,0.281 0.755,0.288 0.749,0.293C0.747,0.295 0.747,0.298 0.748,0.299C0.75,0.301 0.752,0.301 0.754,0.3C0.761,0.294 0.768,0.287 0.774,0.281C0.775,0.28 0.776,0.279 0.776,0.278C0.776,0.277 0.775,0.276 0.775,0.275ZM0.802,-0.251C0.796,-0.258 0.79,-0.265 0.783,-0.272C0.782,-0.274 0.779,-0.274 0.777,-0.272C0.776,-0.271 0.776,-0.268 0.777,-0.266C0.783,-0.26 0.79,-0.253 0.795,-0.246C0.797,-0.244 0.799,-0.244 0.801,-0.245C0.802,-0.246 0.803,-0.247 0.803,-0.249C0.803,-0.249 0.802,-0.25 0.802,-0.251ZM0.811,0.233C0.809,0.232 0.806,0.232 0.805,0.234C0.799,0.241 0.793,0.248 0.787,0.255C0.786,0.257 0.786,0.26 0.788,0.261C0.789,0.263 0.792,0.262 0.794,0.261C0.8,0.254 0.806,0.247 0.811,0.239C0.812,0.238 0.812,0.238 0.812,0.237C0.812,0.235 0.812,0.234 0.811,0.233ZM0.834,-0.206C0.829,-0.214 0.824,-0.222 0.819,-0.229C0.817,-0.231 0.815,-0.231 0.813,-0.23C0.811,-0.229 0.811,-0.226 0.812,-0.224C0.817,-0.217 0.822,-0.209 0.827,-0.202C0.828,-0.2 0.831,-0.199 0.833,-0.2C0.834,-0.201 0.835,-0.202 0.835,-0.204C0.835,-0.204 0.835,-0.205 0.834,-0.206ZM0.84,0.187C0.838,0.186 0.836,0.187 0.835,0.189C0.83,0.197 0.825,0.204 0.82,0.212C0.819,0.214 0.82,0.216 0.822,0.218C0.824,0.219 0.826,0.218 0.827,0.216C0.832,0.209 0.837,0.201 0.842,0.193C0.842,0.192 0.842,0.191 0.842,0.191C0.842,0.189 0.842,0.188 0.84,0.187ZM0.86,-0.156C0.856,-0.165 0.852,-0.173 0.848,-0.182C0.847,-0.184 0.844,-0.184 0.842,-0.183C0.84,-0.182 0.839,-0.18 0.841,-0.178C0.845,-0.17 0.849,-0.161 0.852,-0.153C0.853,-0.151 0.856,-0.15 0.858,-0.151C0.859,-0.152 0.86,-0.153 0.86,-0.155C0.86,-0.155 0.86,-0.156 0.86,-0.156ZM0.863,0.137C0.861,0.136 0.859,0.137 0.858,0.139C0.855,0.148 0.851,0.156 0.847,0.164C0.846,0.166 0.847,0.169 0.849,0.17C0.851,0.171 0.854,0.17 0.855,0.168C0.859,0.16 0.862,0.151 0.866,0.142C0.866,0.142 0.866,0.141 0.866,0.141C0.866,0.139 0.865,0.138 0.863,0.137ZM0.878,-0.104C0.876,-0.113 0.873,-0.122 0.87,-0.13C0.869,-0.133 0.867,-0.134 0.865,-0.133C0.863,-0.132 0.861,-0.13 0.862,-0.128C0.865,-0.119 0.868,-0.11 0.87,-0.102C0.871,-0.099 0.873,-0.098 0.875,-0.099C0.877,-0.099 0.878,-0.101 0.878,-0.103C0.878,-0.103 0.878,-0.104 0.878,-0.104ZM0.879,0.084C0.877,0.084 0.874,0.085 0.874,0.087C0.872,0.096 0.869,0.105 0.867,0.114C0.866,0.116 0.867,0.118 0.87,0.119C0.872,0.119 0.874,0.118 0.875,0.116C0.877,0.107 0.88,0.098 0.882,0.089C0.882,0.089 0.882,0.089 0.882,0.088C0.882,0.086 0.881,0.085 0.879,0.084ZM0.889,-0.049C0.888,-0.058 0.886,-0.068 0.885,-0.077C0.884,-0.079 0.882,-0.08 0.88,-0.08C0.878,-0.08 0.876,-0.077 0.877,-0.075C0.878,-0.066 0.88,-0.057 0.881,-0.048C0.881,-0.046 0.883,-0.044 0.885,-0.045C0.888,-0.045 0.889,-0.047 0.889,-0.049C0.889,-0.049 0.889,-0.049 0.889,-0.049ZM0.887,0.03C0.885,0.029 0.883,0.031 0.882,0.033C0.882,0.042 0.881,0.052 0.879,0.061C0.879,0.063 0.88,0.065 0.883,0.065C0.885,0.066 0.887,0.064 0.887,0.062C0.889,0.053 0.89,0.043 0.891,0.034C0.891,0.034 0.891,0.034 0.891,0.034C0.891,0.032 0.889,0.03 0.887,0.03ZM0.892,-0.022C0.891,-0.024 0.889,-0.026 0.887,-0.025C0.885,-0.025 0.883,-0.023 0.883,-0.021C0.884,-0.012 0.884,-0.003 0.884,0.006C0.884,0.009 0.886,0.01 0.888,0.01C0.89,0.01 0.892,0.009 0.892,0.006C0.892,0.004 0.892,0.002 0.892,0C0.892,-0.007 0.892,-0.014 0.892,-0.022Z" style="fill:rgb(153,153,153);fill-rule:nonzero;"/>
            </g>
            <g transform="matrix(0,168.768,168.768,0,167.766,322.859)">
                <path d="M0.498,-0.334C0.682,-0.334 0.832,-0.184 0.832,0C0.832,0.184 0.682,0.334 0.498,0.334C0.314,0.334 0.164,0.184 0.164,0C0.164,-0.184 0.314,-0.334 0.498,-0.334ZM0.258,-0.015C0.249,-0.015 0.241,-0.008 0.241,0.002C0.241,0.011 0.249,0.019 0.258,0.019C0.268,0.019 0.275,0.011 0.275,0.002C0.275,-0.008 0.268,-0.015 0.258,-0.015ZM0.258,0.031C0.256,0.031 0.254,0.03 0.251,0.03L0.251,0.194C0.251,0.198 0.254,0.201 0.258,0.201L0.259,0.201C0.262,0.201 0.265,0.198 0.265,0.194L0.265,0.03C0.263,0.03 0.261,0.031 0.258,0.031ZM0.259,-0.197L0.258,-0.197C0.254,-0.197 0.251,-0.194 0.251,-0.191L0.251,-0.026C0.254,-0.027 0.256,-0.027 0.258,-0.027C0.261,-0.027 0.263,-0.027 0.265,-0.026L0.265,-0.191C0.265,-0.194 0.262,-0.197 0.259,-0.197ZM0.737,-0.015C0.728,-0.015 0.72,-0.008 0.72,0.002C0.72,0.011 0.728,0.019 0.737,0.019C0.746,0.019 0.754,0.011 0.754,0.002C0.754,-0.008 0.746,-0.015 0.737,-0.015ZM0.737,0.031C0.735,0.031 0.732,0.03 0.73,0.03L0.73,0.194C0.73,0.198 0.733,0.201 0.737,0.201L0.737,0.201C0.741,0.201 0.744,0.198 0.744,0.194L0.744,0.03C0.742,0.03 0.739,0.031 0.737,0.031ZM0.737,-0.197L0.737,-0.197C0.733,-0.197 0.73,-0.194 0.73,-0.191L0.73,-0.026C0.732,-0.027 0.735,-0.027 0.737,-0.027C0.739,-0.027 0.742,-0.027 0.744,-0.026L0.744,-0.191C0.744,-0.194 0.741,-0.197 0.737,-0.197Z" style="fill:rgb(153,153,153);fill-rule:nonzero;"/>
            </g>
            <g transform="matrix(0,168.768,168.768,0,81.1017,322.859)">
                <path d="M0.296,-0.113L0.508,0.006L0.7,-0.113L0.7,0.113C0.691,0.109 0.682,0.104 0.673,0.101L0.673,0.081C0.673,0.079 0.671,0.077 0.669,0.077C0.667,0.077 0.665,0.079 0.665,0.081L0.665,0.097C0.613,0.076 0.557,0.065 0.498,0.065C0.441,0.065 0.387,0.076 0.337,0.095L0.337,0.081C0.337,0.079 0.335,0.077 0.333,0.077C0.33,0.077 0.328,0.079 0.328,0.081L0.328,0.098C0.317,0.103 0.306,0.108 0.296,0.113L0.296,-0.113ZM0.333,0.022C0.33,0.022 0.328,0.024 0.328,0.026L0.328,0.053C0.328,0.056 0.33,0.058 0.333,0.058C0.335,0.058 0.337,0.056 0.337,0.053L0.337,0.026C0.337,0.024 0.335,0.022 0.333,0.022ZM0.333,-0.033C0.33,-0.033 0.328,-0.032 0.328,-0.029L0.328,-0.002C0.328,0.001 0.33,0.002 0.333,0.002C0.335,0.002 0.337,0.001 0.337,-0.002L0.337,-0.029C0.337,-0.032 0.335,-0.033 0.333,-0.033ZM0.333,-0.089C0.33,-0.089 0.328,-0.087 0.328,-0.084L0.328,-0.057C0.328,-0.055 0.33,-0.053 0.333,-0.053C0.335,-0.053 0.337,-0.055 0.337,-0.057L0.337,-0.084C0.337,-0.087 0.335,-0.089 0.333,-0.089ZM0.669,0.022C0.667,0.022 0.665,0.024 0.665,0.026L0.665,0.053C0.665,0.056 0.667,0.058 0.669,0.058C0.671,0.058 0.673,0.056 0.673,0.053L0.673,0.026C0.673,0.024 0.671,0.022 0.669,0.022ZM0.669,-0.033C0.667,-0.033 0.665,-0.032 0.665,-0.029L0.665,-0.002C0.665,0.001 0.667,0.002 0.669,0.002C0.671,0.002 0.673,0.001 0.673,-0.002L0.673,-0.029C0.673,-0.032 0.671,-0.033 0.669,-0.033ZM0.669,-0.089C0.667,-0.089 0.665,-0.087 0.665,-0.084L0.665,-0.057C0.665,-0.055 0.667,-0.053 0.669,-0.053C0.671,-0.053 0.673,-0.055 0.673,-0.057L0.673,-0.084C0.673,-0.087 0.671,-0.089 0.669,-0.089Z" style="fill:rgb(153,153,153);fill-rule:nonzero;"/>
            </g>
            <g transform="matrix(53.8662,0,0,53.8662,127.259,412.481)">
                <path d="M0.206,-0.7L0.04,-0.7L0.04,0L0.213,0C0.323,0 0.38,-0.058 0.38,-0.166L0.38,-0.223C0.38,-0.297 0.357,-0.35 0.298,-0.373C0.347,-0.396 0.369,-0.442 0.369,-0.514L0.369,-0.539C0.369,-0.647 0.32,-0.7 0.206,-0.7ZM0.15,-0.6L0.203,-0.6C0.242,-0.6 0.259,-0.578 0.259,-0.528L0.259,-0.489C0.259,-0.433 0.234,-0.415 0.193,-0.415L0.15,-0.415L0.15,-0.6ZM0.15,-0.315L0.199,-0.315C0.249,-0.315 0.27,-0.295 0.27,-0.23L0.27,-0.169C0.27,-0.117 0.25,-0.1 0.213,-0.1L0.15,-0.1L0.15,-0.315Z" style="fill:rgb(153,153,153);fill-rule:nonzero;"/>
            </g>
            <g transform="matrix(53.8662,0,0,53.8662,149.129,412.481)">
                <path d="M0.15,-0.405L0.15,-0.6L0.34,-0.6L0.34,-0.7L0.04,-0.7L0.04,0L0.34,0L0.34,-0.1L0.15,-0.1L0.15,-0.305L0.301,-0.305L0.301,-0.405L0.15,-0.405Z" style="fill:rgb(153,153,153);fill-rule:nonzero;"/>
            </g>
            <g transform="matrix(53.8662,0,0,53.8662,168.952,412.481)">
                <path d="M0.026,-0.532C0.026,-0.332 0.241,-0.305 0.241,-0.161C0.241,-0.111 0.219,-0.093 0.184,-0.093C0.149,-0.093 0.127,-0.111 0.127,-0.161L0.127,-0.211L0.023,-0.211L0.023,-0.168C0.023,-0.056 0.079,0.008 0.187,0.008C0.295,0.008 0.351,-0.056 0.351,-0.168C0.351,-0.368 0.136,-0.395 0.136,-0.539C0.136,-0.589 0.156,-0.608 0.191,-0.608C0.226,-0.608 0.246,-0.589 0.246,-0.539L0.246,-0.51L0.35,-0.51L0.35,-0.532C0.35,-0.644 0.295,-0.708 0.188,-0.708C0.081,-0.708 0.026,-0.644 0.026,-0.532Z" style="fill:rgb(153,153,153);fill-rule:nonzero;"/>
            </g>
            <g transform="matrix(53.8662,0,0,53.8662,189.098,412.481)">
                <path d="M0.008,-0.7L0.008,-0.6L0.123,-0.6L0.123,0L0.233,0L0.233,-0.6L0.348,-0.6L0.348,-0.7L0.008,-0.7Z" style="fill:rgb(153,153,153);fill-rule:nonzero;"/>
            </g>
            <g>
                <g transform="matrix(53.8662,0,0,53.8662,127.259,412.481)">
                    <path d="M0.206,-0.7L0.04,-0.7L0.04,0L0.213,0C0.323,0 0.38,-0.058 0.38,-0.166L0.38,-0.223C0.38,-0.297 0.357,-0.35 0.298,-0.373C0.347,-0.396 0.369,-0.442 0.369,-0.514L0.369,-0.539C0.369,-0.647 0.32,-0.7 0.206,-0.7ZM0.15,-0.6L0.203,-0.6C0.242,-0.6 0.259,-0.578 0.259,-0.528L0.259,-0.489C0.259,-0.433 0.234,-0.415 0.193,-0.415L0.15,-0.415L0.15,-0.6ZM0.15,-0.315L0.199,-0.315C0.249,-0.315 0.27,-0.295 0.27,-0.23L0.27,-0.169C0.27,-0.117 0.25,-0.1 0.213,-0.1L0.15,-0.1L0.15,-0.315Z" style="fill:rgb(51,51,51);fill-rule:nonzero;"/>
                </g>
                <g transform="matrix(53.8662,0,0,53.8662,149.129,412.481)">
                    <path d="M0.15,-0.405L0.15,-0.6L0.34,-0.6L0.34,-0.7L0.04,-0.7L0.04,0L0.34,0L0.34,-0.1L0.15,-0.1L0.15,-0.305L0.301,-0.305L0.301,-0.405L0.15,-0.405Z" style="fill:rgb(51,51,51);fill-rule:nonzero;"/>
                </g>
                <g transform="matrix(53.8662,0,0,53.8662,168.952,412.481)">
                    <path d="M0.026,-0.532C0.026,-0.332 0.241,-0.305 0.241,-0.161C0.241,-0.111 0.219,-0.093 0.184,-0.093C0.149,-0.093 0.127,-0.111 0.127,-0.161L0.127,-0.211L0.023,-0.211L0.023,-0.168C0.023,-0.056 0.079,0.008 0.187,0.008C0.295,0.008 0.351,-0.056 0.351,-0.168C0.351,-0.368 0.136,-0.395 0.136,-0.539C0.136,-0.589 0.156,-0.608 0.191,-0.608C0.226,-0.608 0.246,-0.589 0.246,-0.539L0.246,-0.51L0.35,-0.51L0.35,-0.532C0.35,-0.644 0.295,-0.708 0.188,-0.708C0.081,-0.708 0.026,-0.644 0.026,-0.532Z" style="fill:rgb(51,51,51);fill-rule:nonzero;"/>
                </g>
                <g transform="matrix(53.8662,0,0,53.8662,189.098,412.481)">
                    <path d="M0.008,-0.7L0.008,-0.6L0.123,-0.6L0.123,0L0.233,0L0.233,-0.6L0.348,-0.6L0.348,-0.7L0.008,-0.7Z" style="fill:rgb(51,51,51);fill-rule:nonzero;"/>
                </g>
                <g transform="matrix(31.6393,0,0,31.6393,128.502,440.427)">
                    <path d="M0.031,-0.532L0.031,-0.168C0.031,-0.056 0.09,0.008 0.198,0.008C0.227,0.008 0.253,0.003 0.275,-0.005C0.29,0.025 0.321,0.043 0.37,0.043L0.385,0.043L0.385,-0.055L0.375,-0.055C0.357,-0.055 0.349,-0.057 0.344,-0.07C0.358,-0.096 0.365,-0.129 0.365,-0.168L0.365,-0.532C0.365,-0.644 0.306,-0.708 0.198,-0.708C0.09,-0.708 0.031,-0.644 0.031,-0.532ZM0.141,-0.161L0.141,-0.539C0.141,-0.589 0.163,-0.608 0.198,-0.608C0.233,-0.608 0.255,-0.589 0.255,-0.539L0.255,-0.161C0.255,-0.111 0.233,-0.092 0.198,-0.092C0.163,-0.092 0.141,-0.111 0.141,-0.161Z" style="fill:rgb(51,51,51);fill-rule:nonzero;"/>
                </g>
                <g transform="matrix(31.6393,0,0,31.6393,141.031,440.427)">
                    <path d="M0.145,-0.7L0.035,-0.7L0.035,-0.167C0.035,-0.055 0.091,0.009 0.199,0.009C0.307,0.009 0.363,-0.055 0.363,-0.167L0.363,-0.7L0.259,-0.7L0.259,-0.16C0.259,-0.11 0.237,-0.092 0.202,-0.092C0.167,-0.092 0.145,-0.11 0.145,-0.16L0.145,-0.7Z" style="fill:rgb(51,51,51);fill-rule:nonzero;"/>
                </g>
                <g transform="matrix(31.6393,0,0,31.6393,153.624,440.427)">
                    <path d="M0.396,0L0.284,-0.7L0.123,-0.7L0.011,0L0.112,0L0.131,-0.127L0.266,-0.127L0.285,0L0.396,0ZM0.145,-0.222L0.198,-0.576L0.251,-0.222L0.145,-0.222Z" style="fill:rgb(51,51,51);fill-rule:nonzero;"/>
                </g>
                <g transform="matrix(31.6393,0,0,31.6393,166.501,440.427)">
                    <path d="M0.04,-0.7L0.04,0L0.331,0L0.331,-0.1L0.15,-0.1L0.15,-0.7L0.04,-0.7Z" style="fill:rgb(51,51,51);fill-rule:nonzero;"/>
                </g>
                <g transform="matrix(31.6393,0,0,31.6393,177.227,440.427)">
                    <rect x="0.04" y="-0.7" width="0.11" height="0.7" style="fill:rgb(51,51,51);fill-rule:nonzero;"/>
                </g>
                <g transform="matrix(31.6393,0,0,31.6393,183.238,440.427)">
                    <path d="M0.008,-0.7L0.008,-0.6L0.123,-0.6L0.123,0L0.233,0L0.233,-0.6L0.348,-0.6L0.348,-0.7L0.008,-0.7Z" style="fill:rgb(51,51,51);fill-rule:nonzero;"/>
                </g>
                <g transform="matrix(31.6393,0,0,31.6393,194.502,440.427)">
                    <path d="M0.143,-0.232L0.143,0L0.253,0L0.253,-0.232L0.392,-0.7L0.287,-0.7L0.203,-0.381L0.119,-0.7L0.004,-0.7L0.143,-0.232Z" style="fill:rgb(51,51,51);fill-rule:nonzero;"/>
                </g>
            </g>
        </g>
    </g>
</svg>
