<?xml version="1.0" encoding="UTF-8" standalone="no"?>
<!DOCTYPE svg PUBLIC "-//W3C//DTD SVG 1.1//EN" "http://www.w3.org/Graphics/SVG/1.1/DTD/svg11.dtd">
<svg width="100%" height="100%" viewBox="0 0 199 197" version="1.1" xmlns="http://www.w3.org/2000/svg" xmlns:xlink="http://www.w3.org/1999/xlink" xml:space="preserve" xmlns:serif="http://www.serif.com/" style="fill-rule:evenodd;clip-rule:evenodd;stroke-linejoin:round;stroke-miterlimit:2;">
    <g transform="matrix(1,0,0,1,-305,-65)">
        <g id="Object">
            <g transform="matrix(0,206.905,206.905,0,403.73,60.4661)">
                <path d="M0.081,0L0.02,-0.063L0.095,-0.107L0.053,-0.184L0.137,-0.207L0.115,-0.292L0.203,-0.293L0.204,-0.381L0.288,-0.359L0.312,-0.443L0.389,-0.401L0.433,-0.476L0.496,-0.415L0.559,-0.476L0.603,-0.401L0.679,-0.443L0.703,-0.359L0.788,-0.381L0.789,-0.293L0.876,-0.292L0.855,-0.207L0.939,-0.184L0.897,-0.107L0.971,-0.063L0.911,0L0.971,0.063L0.897,0.107L0.939,0.184L0.855,0.207L0.876,0.292L0.789,0.293L0.788,0.381L0.703,0.359L0.679,0.443L0.603,0.401L0.559,0.476L0.496,0.415L0.433,0.476L0.389,0.401L0.312,0.443L0.288,0.359L0.204,0.381L0.203,0.293L0.115,0.292L0.137,0.207L0.053,0.184L0.095,0.107L0.02,0.063L0.081,0ZM0.076,0.072L0.056,0.06C0.055,0.059 0.053,0.06 0.052,0.061C0.051,0.063 0.051,0.065 0.053,0.066L0.072,0.077C0.074,0.078 0.076,0.078 0.077,0.076C0.077,0.076 0.077,0.075 0.077,0.075C0.077,0.073 0.077,0.072 0.076,0.072ZM0.073,-0.037L0.058,-0.054C0.057,-0.055 0.054,-0.055 0.053,-0.054C0.052,-0.052 0.052,-0.05 0.053,-0.049L0.069,-0.033C0.07,-0.031 0.072,-0.031 0.073,-0.033C0.074,-0.033 0.074,-0.034 0.074,-0.035C0.074,-0.036 0.074,-0.037 0.073,-0.037ZM0.08,-0.078C0.079,-0.08 0.077,-0.08 0.075,-0.079L0.056,-0.068C0.055,-0.067 0.054,-0.065 0.055,-0.063C0.056,-0.062 0.058,-0.061 0.06,-0.062L0.079,-0.074C0.08,-0.074 0.081,-0.075 0.081,-0.077C0.081,-0.077 0.08,-0.078 0.08,-0.078ZM0.076,0.03C0.075,0.029 0.073,0.029 0.071,0.03L0.056,0.046C0.054,0.047 0.054,0.05 0.056,0.051C0.057,0.052 0.059,0.052 0.06,0.051L0.076,0.035C0.077,0.034 0.077,0.033 0.077,0.032C0.077,0.031 0.077,0.031 0.076,0.03ZM0.09,0.151C0.089,0.15 0.087,0.151 0.086,0.153L0.075,0.171C0.075,0.172 0.075,0.173 0.075,0.174L0.079,0.177C0.08,0.177 0.082,0.176 0.083,0.174C0.083,0.173 0.083,0.173 0.083,0.172L0.092,0.156C0.092,0.155 0.092,0.155 0.092,0.154C0.092,0.153 0.092,0.152 0.09,0.151ZM0.086,-0.175C0.086,-0.177 0.084,-0.178 0.082,-0.178L0.078,-0.176C0.077,-0.176 0.076,-0.175 0.075,-0.174C0.075,-0.173 0.075,-0.172 0.075,-0.171L0.084,-0.156C0.085,-0.154 0.087,-0.154 0.089,-0.155C0.09,-0.155 0.09,-0.156 0.09,-0.158C0.09,-0.158 0.09,-0.159 0.09,-0.159L0.083,-0.171L0.084,-0.171C0.086,-0.171 0.087,-0.173 0.087,-0.174C0.087,-0.175 0.087,-0.175 0.086,-0.175ZM0.107,-0.002C0.107,-0.003 0.106,-0.003 0.106,-0.003C0.106,-0.004 0.105,-0.005 0.105,-0.005L0.089,-0.021C0.088,-0.023 0.086,-0.023 0.084,-0.021C0.083,-0.02 0.083,-0.018 0.084,-0.017L0.1,0L0.087,0.014C0.086,0.015 0.086,0.017 0.087,0.019C0.088,0.02 0.09,0.02 0.092,0.019L0.107,0.002C0.108,0.002 0.108,0.001 0.108,0C0.108,-0.001 0.108,-0.002 0.107,-0.002ZM0.114,0.095L0.095,0.083C0.093,0.082 0.091,0.083 0.09,0.084C0.089,0.086 0.09,0.088 0.092,0.089L0.111,0.101C0.112,0.102 0.114,0.101 0.115,0.099C0.116,0.099 0.116,0.098 0.116,0.098C0.116,0.097 0.115,0.095 0.114,0.095ZM0.119,-0.101C0.118,-0.103 0.116,-0.104 0.114,-0.103L0.095,-0.091C0.093,-0.09 0.093,-0.088 0.094,-0.086C0.095,-0.085 0.097,-0.084 0.098,-0.085L0.118,-0.097C0.119,-0.097 0.119,-0.099 0.119,-0.1C0.119,-0.1 0.119,-0.101 0.119,-0.101ZM0.112,-0.12L0.101,-0.14C0.1,-0.141 0.098,-0.142 0.096,-0.141C0.095,-0.14 0.094,-0.138 0.095,-0.136L0.106,-0.117C0.107,-0.115 0.109,-0.114 0.11,-0.115C0.112,-0.116 0.112,-0.117 0.112,-0.118C0.112,-0.119 0.112,-0.119 0.112,-0.12ZM0.112,0.112C0.111,0.111 0.109,0.112 0.108,0.113L0.097,0.133C0.096,0.135 0.096,0.137 0.098,0.138C0.1,0.138 0.102,0.138 0.103,0.136L0.114,0.117C0.114,0.116 0.114,0.116 0.114,0.115C0.114,0.114 0.113,0.113 0.112,0.112ZM0.124,0.182L0.102,0.176C0.1,0.176 0.098,0.177 0.098,0.179C0.097,0.18 0.098,0.182 0.1,0.183L0.122,0.189C0.124,0.189 0.126,0.188 0.126,0.187C0.126,0.186 0.126,0.186 0.126,0.186C0.126,0.184 0.125,0.183 0.124,0.182ZM0.13,-0.188C0.129,-0.189 0.127,-0.19 0.126,-0.19L0.104,-0.184C0.102,-0.183 0.101,-0.181 0.102,-0.18C0.102,-0.178 0.104,-0.177 0.106,-0.177L0.127,-0.183C0.129,-0.184 0.13,-0.185 0.13,-0.187C0.13,-0.187 0.13,-0.187 0.13,-0.188ZM0.158,-0.279L0.137,-0.278C0.136,-0.278 0.135,-0.278 0.135,-0.277C0.134,-0.276 0.134,-0.275 0.134,-0.274L0.135,-0.273C0.135,-0.271 0.137,-0.27 0.139,-0.27C0.14,-0.27 0.14,-0.271 0.141,-0.272L0.158,-0.272C0.16,-0.272 0.162,-0.274 0.162,-0.275L0.162,-0.276C0.161,-0.277 0.16,-0.279 0.158,-0.279ZM0.14,0.266C0.138,0.266 0.136,0.267 0.135,0.269L0.134,0.274C0.134,0.275 0.134,0.276 0.135,0.277C0.135,0.278 0.136,0.278 0.137,0.278L0.154,0.279C0.156,0.279 0.158,0.277 0.158,0.275L0.158,0.275C0.158,0.274 0.156,0.272 0.154,0.272L0.142,0.272L0.142,0.271C0.142,0.27 0.142,0.27 0.142,0.27C0.142,0.268 0.141,0.267 0.14,0.266ZM0.152,-0.231L0.147,-0.252C0.146,-0.254 0.144,-0.255 0.142,-0.255C0.141,-0.254 0.14,-0.253 0.14,-0.251L0.146,-0.229C0.146,-0.227 0.148,-0.226 0.15,-0.226C0.151,-0.227 0.152,-0.228 0.152,-0.23C0.152,-0.23 0.152,-0.23 0.152,-0.231ZM0.151,0.223C0.149,0.222 0.147,0.223 0.146,0.225L0.141,0.247C0.141,0.249 0.142,0.251 0.143,0.251C0.145,0.252 0.147,0.251 0.148,0.249L0.153,0.227C0.153,0.227 0.153,0.226 0.153,0.226C0.153,0.225 0.152,0.223 0.151,0.223ZM0.158,0.192L0.145,0.189C0.144,0.188 0.142,0.189 0.141,0.191C0.141,0.193 0.142,0.195 0.144,0.195L0.153,0.198L0.152,0.203C0.151,0.205 0.153,0.207 0.154,0.208C0.156,0.208 0.158,0.207 0.158,0.205L0.161,0.196C0.161,0.196 0.161,0.196 0.161,0.195C0.161,0.194 0.16,0.193 0.158,0.192ZM0.147,-0.196C0.145,-0.196 0.144,-0.194 0.145,-0.192C0.145,-0.19 0.147,-0.189 0.149,-0.19L0.158,-0.192C0.16,-0.193 0.161,-0.194 0.161,-0.195C0.161,-0.196 0.161,-0.196 0.161,-0.196L0.158,-0.209C0.157,-0.211 0.155,-0.212 0.153,-0.211C0.152,-0.211 0.151,-0.209 0.151,-0.207L0.153,-0.198L0.147,-0.196ZM0.158,-0.031C0.156,-0.031 0.155,-0.029 0.154,-0.028C0.154,-0.02 0.154,-0.012 0.154,-0.005C0.154,-0.003 0.156,-0.001 0.158,-0.002C0.16,-0.002 0.161,-0.003 0.161,-0.005C0.161,-0.012 0.161,-0.02 0.161,-0.027L0.161,-0.027C0.161,-0.029 0.16,-0.031 0.158,-0.031ZM0.166,0.04C0.164,0.032 0.163,0.025 0.163,0.017C0.162,0.015 0.161,0.014 0.159,0.014C0.157,0.014 0.156,0.016 0.156,0.018C0.157,0.026 0.158,0.033 0.159,0.041C0.159,0.042 0.161,0.044 0.163,0.043C0.164,0.043 0.166,0.042 0.166,0.04C0.166,0.04 0.166,0.04 0.166,0.04ZM0.163,-0.076C0.161,-0.076 0.159,-0.075 0.159,-0.073C0.158,-0.066 0.157,-0.058 0.156,-0.05C0.156,-0.049 0.157,-0.047 0.159,-0.047C0.161,-0.047 0.163,-0.048 0.163,-0.05L0.166,-0.072C0.166,-0.074 0.165,-0.075 0.163,-0.076ZM0.176,0.083C0.174,0.076 0.172,0.069 0.17,0.061C0.169,0.06 0.168,0.059 0.166,0.059C0.164,0.059 0.163,0.061 0.163,0.063C0.165,0.07 0.167,0.078 0.169,0.085C0.17,0.087 0.172,0.088 0.174,0.087C0.175,0.087 0.176,0.086 0.176,0.084C0.176,0.084 0.176,0.083 0.176,0.083ZM0.174,-0.12C0.172,-0.12 0.17,-0.119 0.17,-0.117C0.167,-0.11 0.165,-0.103 0.164,-0.095C0.163,-0.094 0.164,-0.092 0.166,-0.091C0.168,-0.091 0.17,-0.092 0.17,-0.094C0.172,-0.101 0.174,-0.108 0.176,-0.115C0.176,-0.116 0.176,-0.116 0.176,-0.116C0.176,-0.118 0.175,-0.119 0.174,-0.12ZM0.199,0.273L0.177,0.272C0.175,0.272 0.174,0.274 0.173,0.276L0.173,0.276C0.173,0.278 0.175,0.279 0.177,0.279L0.199,0.28C0.201,0.28 0.203,0.278 0.203,0.276L0.203,0.276C0.203,0.274 0.201,0.273 0.199,0.273ZM0.496,-0.336C0.319,-0.336 0.175,-0.193 0.175,-0.016C0.175,0.161 0.319,0.305 0.496,0.305C0.673,0.305 0.817,0.161 0.817,-0.016C0.817,-0.193 0.673,-0.336 0.496,-0.336ZM0.192,0.125C0.189,0.118 0.186,0.111 0.183,0.104C0.182,0.103 0.18,0.102 0.179,0.102C0.177,0.103 0.176,0.105 0.177,0.107C0.179,0.114 0.182,0.121 0.186,0.128C0.186,0.129 0.188,0.13 0.19,0.129C0.191,0.129 0.192,0.128 0.192,0.126C0.192,0.126 0.192,0.125 0.192,0.125ZM0.191,-0.162C0.189,-0.162 0.187,-0.162 0.186,-0.16C0.183,-0.153 0.18,-0.146 0.177,-0.139C0.177,-0.137 0.177,-0.135 0.179,-0.135C0.181,-0.134 0.183,-0.135 0.183,-0.137C0.186,-0.143 0.189,-0.15 0.192,-0.157C0.192,-0.158 0.193,-0.158 0.193,-0.158C0.193,-0.16 0.192,-0.161 0.191,-0.162ZM0.203,-0.28L0.181,-0.279C0.179,-0.279 0.177,-0.278 0.177,-0.276C0.177,-0.274 0.179,-0.272 0.181,-0.272L0.203,-0.273C0.205,-0.273 0.206,-0.274 0.206,-0.276L0.206,-0.276C0.206,-0.278 0.205,-0.28 0.203,-0.28ZM0.213,0.164C0.209,0.158 0.205,0.151 0.202,0.145C0.201,0.143 0.199,0.143 0.197,0.144C0.196,0.144 0.195,0.146 0.196,0.148C0.2,0.155 0.203,0.161 0.208,0.168C0.209,0.169 0.211,0.17 0.212,0.169C0.213,0.168 0.214,0.167 0.214,0.166C0.214,0.165 0.214,0.165 0.213,0.164ZM0.213,-0.201C0.211,-0.202 0.209,-0.201 0.208,-0.2C0.204,-0.193 0.2,-0.187 0.196,-0.18C0.196,-0.179 0.196,-0.177 0.198,-0.176C0.199,-0.175 0.201,-0.175 0.202,-0.177C0.206,-0.183 0.21,-0.19 0.214,-0.196C0.214,-0.197 0.214,-0.197 0.214,-0.198C0.214,-0.199 0.214,-0.2 0.213,-0.201ZM0.223,0.279C0.223,0.277 0.221,0.275 0.219,0.275C0.218,0.275 0.216,0.277 0.216,0.279L0.217,0.301C0.217,0.303 0.218,0.305 0.22,0.305C0.222,0.305 0.223,0.303 0.223,0.301L0.223,0.301L0.223,0.279ZM0.22,-0.308C0.218,-0.308 0.217,-0.307 0.217,-0.305L0.216,-0.283L0.216,-0.283C0.216,-0.281 0.218,-0.279 0.22,-0.279C0.221,-0.279 0.223,-0.281 0.223,-0.283L0.223,-0.305L0.223,-0.305C0.223,-0.307 0.222,-0.308 0.22,-0.308ZM0.224,0.324C0.224,0.322 0.222,0.32 0.22,0.32C0.218,0.32 0.217,0.322 0.217,0.324L0.217,0.346C0.217,0.348 0.219,0.35 0.221,0.35C0.223,0.35 0.224,0.348 0.224,0.346L0.224,0.346L0.224,0.324ZM0.221,-0.353C0.219,-0.353 0.217,-0.352 0.217,-0.35L0.217,-0.328C0.217,-0.326 0.218,-0.324 0.22,-0.324C0.222,-0.324 0.224,-0.326 0.224,-0.328L0.224,-0.35L0.224,-0.35C0.224,-0.352 0.223,-0.353 0.221,-0.353ZM0.24,0.2C0.235,0.195 0.23,0.189 0.226,0.183C0.225,0.181 0.223,0.181 0.221,0.182C0.22,0.183 0.219,0.185 0.22,0.187C0.225,0.193 0.23,0.199 0.235,0.205C0.236,0.206 0.238,0.206 0.239,0.205C0.24,0.204 0.241,0.203 0.241,0.202C0.241,0.202 0.24,0.201 0.24,0.2ZM0.24,-0.237C0.239,-0.238 0.236,-0.238 0.235,-0.237C0.23,-0.231 0.226,-0.225 0.221,-0.219C0.22,-0.217 0.22,-0.215 0.222,-0.214C0.223,-0.213 0.225,-0.213 0.227,-0.215C0.231,-0.221 0.236,-0.226 0.24,-0.232C0.241,-0.233 0.241,-0.234 0.241,-0.234C0.241,-0.235 0.241,-0.236 0.24,-0.237ZM0.256,0.35C0.255,0.348 0.254,0.347 0.252,0.347L0.23,0.353C0.228,0.353 0.227,0.355 0.227,0.357C0.228,0.359 0.23,0.36 0.232,0.359L0.253,0.354C0.255,0.353 0.256,0.352 0.256,0.351C0.256,0.35 0.256,0.35 0.256,0.35ZM0.257,-0.353L0.235,-0.358C0.233,-0.359 0.232,-0.358 0.231,-0.356C0.231,-0.354 0.232,-0.352 0.234,-0.352L0.255,-0.346C0.257,-0.346 0.259,-0.347 0.26,-0.349C0.26,-0.349 0.26,-0.349 0.26,-0.35C0.26,-0.351 0.259,-0.353 0.257,-0.353ZM0.271,0.232C0.265,0.227 0.26,0.222 0.255,0.217C0.253,0.216 0.251,0.215 0.25,0.217C0.249,0.218 0.249,0.22 0.25,0.222C0.255,0.227 0.261,0.232 0.266,0.237C0.268,0.239 0.27,0.239 0.271,0.237C0.272,0.237 0.272,0.236 0.272,0.235C0.272,0.234 0.272,0.233 0.271,0.232ZM0.272,-0.269C0.271,-0.27 0.268,-0.271 0.267,-0.269C0.261,-0.264 0.256,-0.259 0.251,-0.253C0.249,-0.252 0.249,-0.25 0.251,-0.249C0.252,-0.247 0.254,-0.247 0.255,-0.249C0.261,-0.254 0.266,-0.259 0.272,-0.264C0.272,-0.265 0.273,-0.266 0.273,-0.267C0.273,-0.268 0.272,-0.268 0.272,-0.269ZM0.299,0.339C0.299,0.337 0.297,0.336 0.295,0.336L0.274,0.342C0.272,0.342 0.271,0.344 0.271,0.346C0.272,0.348 0.273,0.349 0.275,0.348L0.297,0.343C0.299,0.343 0.3,0.341 0.3,0.34C0.3,0.339 0.3,0.339 0.299,0.339ZM0.301,-0.342L0.279,-0.347C0.277,-0.348 0.275,-0.347 0.275,-0.345C0.274,-0.343 0.275,-0.341 0.277,-0.341L0.299,-0.335C0.301,-0.335 0.303,-0.336 0.303,-0.338C0.303,-0.338 0.303,-0.338 0.303,-0.339C0.303,-0.34 0.302,-0.342 0.301,-0.342ZM0.306,0.26C0.3,0.256 0.294,0.252 0.288,0.247C0.286,0.246 0.284,0.246 0.283,0.247C0.282,0.249 0.282,0.251 0.284,0.252C0.29,0.257 0.296,0.261 0.302,0.266C0.304,0.267 0.306,0.266 0.307,0.265C0.307,0.264 0.307,0.264 0.307,0.263C0.307,0.262 0.307,0.261 0.306,0.26ZM0.308,-0.297C0.307,-0.298 0.304,-0.299 0.303,-0.298C0.297,-0.293 0.29,-0.289 0.284,-0.284C0.283,-0.283 0.283,-0.281 0.284,-0.279C0.285,-0.278 0.287,-0.278 0.289,-0.279C0.294,-0.283 0.301,-0.288 0.307,-0.292C0.308,-0.293 0.308,-0.294 0.308,-0.295C0.308,-0.295 0.308,-0.296 0.308,-0.297ZM0.315,0.377L0.309,0.355C0.308,0.353 0.306,0.352 0.305,0.353C0.303,0.353 0.302,0.355 0.302,0.357L0.308,0.379C0.309,0.38 0.311,0.381 0.313,0.381C0.314,0.38 0.315,0.379 0.315,0.378C0.315,0.377 0.315,0.377 0.315,0.377ZM0.314,-0.385C0.312,-0.385 0.31,-0.384 0.309,-0.382L0.303,-0.361C0.303,-0.359 0.304,-0.357 0.306,-0.356C0.307,-0.356 0.309,-0.357 0.31,-0.359L0.316,-0.38C0.316,-0.381 0.316,-0.381 0.316,-0.381C0.316,-0.383 0.315,-0.384 0.314,-0.385ZM0.329,0.414C0.328,0.413 0.327,0.412 0.325,0.413L0.321,0.398C0.321,0.397 0.319,0.396 0.317,0.396C0.315,0.397 0.314,0.398 0.315,0.4L0.32,0.418C0.32,0.419 0.321,0.42 0.322,0.421C0.323,0.421 0.324,0.421 0.325,0.42L0.328,0.419C0.329,0.418 0.329,0.417 0.329,0.416C0.329,0.415 0.329,0.415 0.329,0.414ZM0.331,-0.417L0.325,-0.42C0.324,-0.421 0.323,-0.421 0.322,-0.421C0.321,-0.42 0.32,-0.419 0.32,-0.418L0.316,-0.404C0.315,-0.402 0.316,-0.4 0.318,-0.4C0.32,-0.399 0.322,-0.4 0.322,-0.402L0.325,-0.413L0.328,-0.411C0.329,-0.41 0.331,-0.411 0.332,-0.412C0.333,-0.413 0.333,-0.413 0.333,-0.414C0.333,-0.415 0.332,-0.416 0.331,-0.417ZM0.344,0.283C0.338,0.28 0.331,0.276 0.325,0.272C0.323,0.271 0.321,0.272 0.32,0.274C0.319,0.275 0.32,0.277 0.321,0.278C0.328,0.282 0.334,0.286 0.341,0.289C0.343,0.29 0.345,0.289 0.346,0.288C0.346,0.287 0.346,0.287 0.346,0.286C0.346,0.285 0.345,0.284 0.344,0.283ZM0.347,-0.319C0.346,-0.321 0.344,-0.322 0.342,-0.321C0.335,-0.317 0.329,-0.314 0.322,-0.31C0.321,-0.309 0.32,-0.307 0.321,-0.305C0.322,-0.304 0.324,-0.303 0.326,-0.304C0.332,-0.308 0.339,-0.311 0.345,-0.315C0.346,-0.315 0.347,-0.317 0.347,-0.318C0.347,-0.318 0.347,-0.319 0.347,-0.319ZM0.368,0.392C0.367,0.391 0.365,0.39 0.364,0.391L0.344,0.402C0.342,0.403 0.342,0.405 0.343,0.407C0.344,0.408 0.346,0.409 0.347,0.408L0.367,0.397C0.368,0.396 0.369,0.395 0.369,0.394C0.369,0.393 0.369,0.393 0.368,0.392ZM0.37,-0.395L0.351,-0.406C0.349,-0.407 0.347,-0.406 0.346,-0.405C0.345,-0.403 0.346,-0.401 0.347,-0.4L0.367,-0.389C0.369,-0.388 0.371,-0.389 0.372,-0.39C0.372,-0.391 0.372,-0.392 0.372,-0.392C0.372,-0.393 0.371,-0.394 0.37,-0.395ZM0.385,0.301C0.378,0.298 0.371,0.296 0.365,0.293C0.363,0.292 0.361,0.293 0.36,0.294C0.359,0.296 0.36,0.298 0.362,0.299C0.369,0.302 0.376,0.305 0.383,0.307C0.385,0.308 0.387,0.307 0.387,0.305C0.388,0.305 0.388,0.304 0.388,0.304C0.388,0.302 0.387,0.301 0.385,0.301ZM0.389,-0.337C0.388,-0.338 0.386,-0.339 0.384,-0.339C0.377,-0.336 0.37,-0.333 0.363,-0.33C0.361,-0.33 0.36,-0.328 0.361,-0.326C0.362,-0.324 0.364,-0.324 0.366,-0.324C0.372,-0.327 0.379,-0.33 0.386,-0.332C0.388,-0.333 0.389,-0.334 0.389,-0.335C0.389,-0.336 0.389,-0.336 0.389,-0.337ZM0.404,0.386L0.398,0.376C0.397,0.374 0.395,0.374 0.393,0.375L0.383,0.38C0.382,0.381 0.381,0.383 0.382,0.385C0.383,0.386 0.385,0.387 0.387,0.386L0.394,0.382L0.398,0.389C0.399,0.391 0.401,0.391 0.402,0.39C0.403,0.39 0.404,0.389 0.404,0.387C0.404,0.387 0.404,0.386 0.404,0.386ZM0.404,-0.394C0.403,-0.395 0.401,-0.394 0.4,-0.392L0.394,-0.382L0.39,-0.384C0.388,-0.385 0.386,-0.384 0.385,-0.383C0.385,-0.381 0.385,-0.379 0.387,-0.378L0.393,-0.375C0.395,-0.374 0.397,-0.374 0.398,-0.376L0.405,-0.389C0.406,-0.389 0.406,-0.39 0.406,-0.391C0.406,-0.392 0.405,-0.393 0.404,-0.394ZM0.428,0.313C0.421,0.311 0.414,0.309 0.407,0.307C0.405,0.307 0.403,0.308 0.403,0.31C0.402,0.312 0.403,0.313 0.405,0.314C0.412,0.316 0.42,0.318 0.427,0.319C0.429,0.32 0.431,0.318 0.431,0.317C0.431,0.316 0.431,0.316 0.431,0.316C0.431,0.314 0.43,0.313 0.428,0.313ZM0.432,-0.348C0.432,-0.35 0.43,-0.351 0.428,-0.351C0.421,-0.349 0.413,-0.347 0.406,-0.345C0.404,-0.345 0.403,-0.343 0.404,-0.341C0.404,-0.339 0.406,-0.338 0.408,-0.339C0.415,-0.341 0.422,-0.343 0.43,-0.344C0.431,-0.344 0.432,-0.346 0.432,-0.347C0.432,-0.348 0.432,-0.348 0.432,-0.348ZM0.427,0.424L0.415,0.405C0.414,0.403 0.412,0.403 0.41,0.404C0.409,0.405 0.408,0.407 0.409,0.408L0.421,0.428C0.422,0.429 0.424,0.43 0.425,0.429C0.427,0.428 0.427,0.427 0.427,0.426C0.427,0.425 0.427,0.425 0.427,0.424ZM0.427,-0.432C0.426,-0.433 0.424,-0.433 0.423,-0.431L0.411,-0.412C0.41,-0.41 0.411,-0.408 0.412,-0.407C0.414,-0.406 0.416,-0.407 0.417,-0.408L0.429,-0.428C0.429,-0.428 0.429,-0.429 0.429,-0.429C0.429,-0.43 0.428,-0.432 0.427,-0.432ZM0.453,0.432C0.452,0.431 0.45,0.431 0.448,0.432L0.438,0.443C0.436,0.442 0.435,0.442 0.434,0.442C0.432,0.443 0.431,0.445 0.432,0.447L0.434,0.45C0.435,0.451 0.436,0.451 0.437,0.451C0.438,0.452 0.439,0.451 0.439,0.45L0.453,0.437C0.454,0.436 0.454,0.436 0.454,0.435C0.454,0.434 0.454,0.433 0.453,0.432ZM0.456,-0.434L0.44,-0.45C0.438,-0.451 0.436,-0.451 0.435,-0.45C0.434,-0.449 0.434,-0.447 0.435,-0.445L0.451,-0.43C0.453,-0.428 0.455,-0.428 0.456,-0.43C0.457,-0.43 0.457,-0.431 0.457,-0.432C0.457,-0.433 0.457,-0.434 0.456,-0.434ZM0.473,0.319C0.465,0.318 0.458,0.317 0.451,0.316C0.449,0.316 0.447,0.317 0.447,0.319C0.447,0.321 0.448,0.323 0.45,0.323C0.457,0.324 0.465,0.325 0.472,0.325C0.474,0.325 0.476,0.324 0.476,0.322C0.476,0.322 0.476,0.322 0.476,0.322C0.476,0.32 0.475,0.319 0.473,0.319ZM0.477,-0.353C0.477,-0.355 0.475,-0.357 0.474,-0.357C0.466,-0.356 0.458,-0.355 0.451,-0.354C0.449,-0.354 0.448,-0.352 0.448,-0.351C0.448,-0.349 0.45,-0.347 0.452,-0.348C0.459,-0.349 0.467,-0.349 0.474,-0.35C0.476,-0.35 0.477,-0.351 0.477,-0.353C0.477,-0.353 0.477,-0.353 0.477,-0.353ZM0.486,0.401C0.484,0.4 0.482,0.4 0.481,0.401L0.465,0.417C0.463,0.418 0.463,0.42 0.465,0.421C0.466,0.423 0.468,0.423 0.469,0.421L0.486,0.406C0.486,0.405 0.487,0.404 0.487,0.403C0.487,0.403 0.486,0.402 0.486,0.401ZM0.488,-0.403L0.472,-0.419C0.471,-0.42 0.469,-0.42 0.467,-0.419C0.466,-0.417 0.466,-0.415 0.467,-0.414L0.484,-0.398C0.485,-0.397 0.487,-0.397 0.488,-0.398C0.489,-0.399 0.489,-0.4 0.489,-0.401C0.489,-0.402 0.489,-0.403 0.488,-0.403ZM0.522,0.322C0.522,0.32 0.52,0.319 0.518,0.319C0.511,0.319 0.503,0.319 0.496,0.319L0.495,0.319C0.493,0.319 0.492,0.321 0.492,0.323C0.492,0.325 0.493,0.326 0.495,0.326L0.496,0.326C0.504,0.326 0.511,0.326 0.519,0.325C0.521,0.325 0.522,0.324 0.522,0.322C0.522,0.322 0.522,0.322 0.522,0.322ZM0.519,-0.357C0.512,-0.357 0.504,-0.357 0.496,-0.357C0.494,-0.357 0.493,-0.356 0.493,-0.354L0.493,-0.354C0.493,-0.352 0.494,-0.351 0.496,-0.351C0.504,-0.351 0.511,-0.35 0.519,-0.35C0.521,-0.35 0.522,-0.351 0.522,-0.353C0.522,-0.353 0.522,-0.353 0.522,-0.353C0.522,-0.355 0.521,-0.356 0.519,-0.357ZM0.518,0.407L0.502,0.392C0.5,0.391 0.498,0.391 0.497,0.392C0.496,0.393 0.496,0.395 0.497,0.397L0.513,0.412C0.514,0.414 0.517,0.414 0.518,0.412C0.519,0.412 0.519,0.411 0.519,0.41C0.519,0.409 0.519,0.408 0.518,0.407ZM0.521,-0.415C0.519,-0.416 0.517,-0.416 0.516,-0.415L0.5,-0.399C0.498,-0.398 0.498,-0.396 0.5,-0.395C0.501,-0.393 0.503,-0.393 0.504,-0.394L0.521,-0.41C0.521,-0.411 0.522,-0.412 0.522,-0.413C0.522,-0.413 0.521,-0.414 0.521,-0.415ZM0.55,0.439L0.534,0.423C0.533,0.422 0.531,0.422 0.529,0.423C0.528,0.425 0.528,0.427 0.529,0.428L0.545,0.444C0.547,0.445 0.549,0.445 0.55,0.443C0.551,0.443 0.551,0.442 0.551,0.441C0.551,0.44 0.551,0.439 0.55,0.439ZM0.553,-0.446C0.552,-0.447 0.55,-0.448 0.548,-0.446L0.532,-0.431C0.531,-0.429 0.531,-0.427 0.532,-0.426C0.533,-0.424 0.535,-0.424 0.537,-0.426L0.553,-0.441C0.554,-0.442 0.554,-0.443 0.554,-0.444C0.554,-0.445 0.554,-0.445 0.553,-0.446ZM0.567,0.315C0.566,0.314 0.564,0.312 0.563,0.313C0.555,0.314 0.548,0.315 0.541,0.316C0.539,0.317 0.537,0.318 0.538,0.32C0.538,0.322 0.54,0.323 0.541,0.323C0.549,0.322 0.557,0.321 0.564,0.319C0.566,0.319 0.567,0.318 0.567,0.316C0.567,0.316 0.567,0.316 0.567,0.315ZM0.564,-0.35C0.557,-0.352 0.549,-0.353 0.542,-0.354C0.54,-0.354 0.538,-0.353 0.538,-0.351C0.538,-0.35 0.539,-0.348 0.541,-0.348C0.548,-0.347 0.556,-0.345 0.563,-0.344C0.565,-0.343 0.567,-0.345 0.567,-0.346C0.567,-0.347 0.567,-0.347 0.567,-0.347C0.567,-0.349 0.566,-0.35 0.564,-0.35ZM0.575,0.415C0.573,0.414 0.571,0.415 0.57,0.416L0.559,0.436C0.558,0.437 0.558,0.439 0.56,0.44C0.561,0.441 0.563,0.441 0.564,0.439L0.576,0.42C0.576,0.419 0.576,0.419 0.576,0.418C0.576,0.417 0.576,0.416 0.575,0.415ZM0.578,-0.416L0.566,-0.436C0.565,-0.437 0.563,-0.438 0.562,-0.437C0.56,-0.436 0.559,-0.434 0.56,-0.432L0.572,-0.413C0.573,-0.411 0.575,-0.411 0.577,-0.412C0.578,-0.412 0.578,-0.414 0.578,-0.415C0.578,-0.415 0.578,-0.416 0.578,-0.416ZM0.598,0.377C0.596,0.376 0.594,0.376 0.593,0.378L0.582,0.397C0.581,0.399 0.581,0.401 0.583,0.402C0.584,0.403 0.586,0.402 0.587,0.4L0.599,0.381C0.599,0.381 0.599,0.38 0.599,0.379C0.599,0.378 0.599,0.377 0.598,0.377ZM0.61,0.303C0.609,0.301 0.608,0.3 0.606,0.301C0.599,0.303 0.592,0.306 0.584,0.308C0.583,0.308 0.582,0.31 0.582,0.312C0.583,0.314 0.584,0.315 0.586,0.314C0.594,0.312 0.601,0.31 0.608,0.307C0.609,0.307 0.61,0.306 0.61,0.304C0.61,0.304 0.61,0.303 0.61,0.303ZM0.608,-0.338C0.601,-0.341 0.594,-0.343 0.587,-0.345C0.585,-0.346 0.583,-0.345 0.582,-0.343C0.582,-0.341 0.583,-0.339 0.585,-0.339C0.592,-0.337 0.599,-0.334 0.606,-0.332C0.608,-0.331 0.61,-0.332 0.61,-0.334C0.611,-0.334 0.611,-0.335 0.611,-0.335C0.611,-0.337 0.61,-0.338 0.608,-0.338ZM0.602,-0.38C0.601,-0.381 0.6,-0.382 0.599,-0.382L0.589,-0.397C0.588,-0.399 0.586,-0.399 0.585,-0.398C0.583,-0.397 0.583,-0.395 0.584,-0.394L0.594,-0.376C0.595,-0.374 0.597,-0.374 0.599,-0.375L0.6,-0.376C0.601,-0.376 0.602,-0.377 0.602,-0.378C0.602,-0.379 0.602,-0.38 0.602,-0.38ZM0.636,0.396L0.617,0.385C0.615,0.384 0.613,0.384 0.612,0.386C0.611,0.388 0.612,0.39 0.613,0.391L0.633,0.401C0.635,0.402 0.637,0.402 0.638,0.4C0.638,0.4 0.638,0.399 0.638,0.399C0.638,0.397 0.637,0.396 0.636,0.396ZM0.641,-0.402C0.64,-0.404 0.638,-0.404 0.636,-0.403L0.617,-0.392C0.615,-0.391 0.614,-0.389 0.615,-0.388C0.616,-0.386 0.618,-0.386 0.62,-0.386L0.64,-0.397C0.641,-0.398 0.641,-0.399 0.641,-0.4C0.641,-0.401 0.641,-0.401 0.641,-0.402ZM0.652,0.285C0.651,0.283 0.649,0.283 0.647,0.283C0.64,0.287 0.634,0.29 0.627,0.293C0.625,0.294 0.624,0.296 0.625,0.297C0.626,0.299 0.628,0.3 0.629,0.299C0.636,0.296 0.643,0.293 0.65,0.289C0.651,0.289 0.652,0.288 0.652,0.286C0.652,0.286 0.652,0.285 0.652,0.285ZM0.65,-0.321C0.644,-0.324 0.637,-0.327 0.63,-0.33C0.628,-0.331 0.626,-0.33 0.625,-0.328C0.625,-0.327 0.625,-0.325 0.627,-0.324C0.634,-0.321 0.641,-0.318 0.647,-0.315C0.649,-0.314 0.651,-0.314 0.652,-0.316C0.652,-0.316 0.652,-0.317 0.652,-0.318C0.652,-0.319 0.652,-0.32 0.65,-0.321ZM0.671,0.409C0.67,0.408 0.668,0.409 0.667,0.411L0.667,0.413L0.656,0.406C0.654,0.406 0.652,0.406 0.651,0.408C0.65,0.409 0.651,0.411 0.653,0.412L0.667,0.42C0.668,0.421 0.669,0.421 0.67,0.421C0.671,0.42 0.672,0.419 0.672,0.418L0.674,0.413C0.674,0.413 0.674,0.412 0.674,0.412C0.674,0.41 0.673,0.409 0.671,0.409ZM0.675,-0.409L0.672,-0.418C0.672,-0.419 0.671,-0.42 0.67,-0.421C0.669,-0.421 0.668,-0.421 0.667,-0.42L0.656,-0.414C0.654,-0.413 0.654,-0.411 0.655,-0.41C0.656,-0.408 0.658,-0.407 0.659,-0.408L0.667,-0.413L0.668,-0.407C0.669,-0.406 0.671,-0.405 0.672,-0.405C0.674,-0.405 0.675,-0.407 0.675,-0.408C0.675,-0.409 0.675,-0.409 0.675,-0.409ZM0.69,0.261C0.689,0.26 0.687,0.26 0.686,0.261C0.679,0.265 0.673,0.269 0.667,0.273C0.665,0.274 0.665,0.276 0.665,0.277C0.666,0.279 0.669,0.279 0.67,0.278C0.677,0.275 0.683,0.27 0.689,0.266C0.69,0.265 0.691,0.264 0.691,0.263C0.691,0.263 0.691,0.262 0.69,0.261ZM0.69,-0.297C0.683,-0.302 0.677,-0.306 0.67,-0.31C0.669,-0.31 0.667,-0.31 0.666,-0.308C0.665,-0.307 0.665,-0.305 0.667,-0.304C0.673,-0.3 0.68,-0.296 0.686,-0.292C0.687,-0.291 0.689,-0.291 0.69,-0.293C0.691,-0.293 0.691,-0.294 0.691,-0.294C0.691,-0.296 0.69,-0.297 0.69,-0.297ZM0.684,0.365C0.682,0.365 0.68,0.366 0.68,0.368L0.673,0.389C0.673,0.391 0.674,0.393 0.676,0.394C0.678,0.394 0.679,0.393 0.68,0.391L0.686,0.37C0.686,0.369 0.686,0.369 0.686,0.369C0.686,0.367 0.685,0.366 0.684,0.365ZM0.687,-0.366L0.681,-0.388C0.68,-0.389 0.679,-0.39 0.677,-0.39C0.675,-0.389 0.674,-0.387 0.674,-0.386L0.681,-0.364C0.681,-0.362 0.683,-0.361 0.685,-0.362C0.686,-0.362 0.687,-0.364 0.687,-0.365C0.687,-0.365 0.687,-0.366 0.687,-0.366ZM0.706,0.339L0.692,0.335C0.69,0.335 0.689,0.336 0.688,0.338L0.686,0.346C0.685,0.348 0.686,0.35 0.688,0.35C0.69,0.351 0.692,0.35 0.692,0.348L0.694,0.343L0.704,0.345C0.706,0.346 0.708,0.345 0.708,0.343C0.708,0.342 0.708,0.342 0.708,0.342C0.708,0.34 0.707,0.339 0.706,0.339ZM0.712,-0.344C0.711,-0.345 0.709,-0.347 0.708,-0.346L0.694,-0.343L0.693,-0.344C0.693,-0.346 0.691,-0.347 0.689,-0.347C0.687,-0.346 0.686,-0.344 0.687,-0.342L0.688,-0.338C0.689,-0.336 0.69,-0.335 0.692,-0.335L0.709,-0.34C0.711,-0.34 0.712,-0.341 0.712,-0.343C0.712,-0.343 0.712,-0.343 0.712,-0.344ZM0.725,0.233C0.724,0.232 0.722,0.232 0.721,0.233C0.715,0.238 0.709,0.243 0.704,0.247C0.702,0.248 0.702,0.251 0.703,0.252C0.704,0.253 0.706,0.254 0.708,0.253C0.714,0.248 0.72,0.243 0.725,0.238C0.726,0.237 0.726,0.236 0.726,0.235C0.726,0.235 0.726,0.234 0.725,0.233ZM0.725,-0.269C0.72,-0.274 0.714,-0.279 0.708,-0.284C0.706,-0.285 0.704,-0.285 0.703,-0.283C0.702,-0.282 0.702,-0.28 0.704,-0.278C0.71,-0.274 0.715,-0.269 0.721,-0.264C0.722,-0.263 0.724,-0.263 0.726,-0.264C0.726,-0.265 0.726,-0.266 0.726,-0.266C0.726,-0.267 0.726,-0.268 0.725,-0.269ZM0.749,0.35L0.727,0.344C0.726,0.344 0.724,0.345 0.723,0.347C0.723,0.348 0.724,0.35 0.726,0.351L0.748,0.356C0.749,0.357 0.751,0.355 0.752,0.354C0.752,0.353 0.752,0.353 0.752,0.353C0.752,0.351 0.751,0.35 0.749,0.35ZM0.755,-0.355C0.755,-0.356 0.753,-0.358 0.751,-0.357L0.729,-0.352C0.728,-0.351 0.727,-0.349 0.727,-0.347C0.727,-0.346 0.729,-0.345 0.731,-0.345L0.753,-0.351C0.754,-0.351 0.755,-0.352 0.755,-0.354C0.755,-0.354 0.755,-0.354 0.755,-0.355ZM0.757,0.2C0.755,0.199 0.753,0.199 0.752,0.201C0.747,0.206 0.742,0.212 0.737,0.217C0.735,0.219 0.735,0.221 0.737,0.222C0.738,0.223 0.74,0.223 0.742,0.222C0.747,0.217 0.752,0.211 0.757,0.205C0.757,0.204 0.758,0.204 0.758,0.203C0.758,0.202 0.757,0.201 0.757,0.2ZM0.757,-0.236C0.752,-0.242 0.747,-0.248 0.742,-0.253C0.74,-0.254 0.738,-0.254 0.737,-0.253C0.736,-0.252 0.736,-0.25 0.737,-0.248C0.742,-0.243 0.747,-0.237 0.752,-0.232C0.753,-0.23 0.755,-0.23 0.757,-0.231C0.757,-0.232 0.758,-0.233 0.758,-0.234C0.758,-0.235 0.758,-0.235 0.757,-0.236ZM0.783,0.164C0.781,0.163 0.779,0.163 0.778,0.165C0.774,0.171 0.77,0.177 0.766,0.183C0.765,0.185 0.765,0.187 0.766,0.188C0.768,0.189 0.77,0.189 0.771,0.187C0.776,0.181 0.78,0.175 0.784,0.168C0.784,0.168 0.785,0.167 0.785,0.167C0.785,0.165 0.784,0.164 0.783,0.164ZM0.784,-0.199C0.78,-0.206 0.776,-0.212 0.771,-0.218C0.77,-0.22 0.768,-0.22 0.766,-0.219C0.765,-0.218 0.765,-0.216 0.766,-0.214C0.77,-0.208 0.774,-0.202 0.778,-0.196C0.779,-0.194 0.782,-0.194 0.783,-0.195C0.784,-0.195 0.785,-0.196 0.785,-0.198C0.785,-0.198 0.784,-0.199 0.784,-0.199ZM0.771,0.334C0.77,0.334 0.768,0.335 0.768,0.337L0.768,0.356C0.767,0.356 0.767,0.357 0.767,0.358C0.767,0.359 0.768,0.361 0.769,0.362L0.77,0.362C0.771,0.362 0.772,0.362 0.773,0.361C0.774,0.361 0.774,0.36 0.774,0.359L0.775,0.337L0.775,0.337C0.775,0.335 0.773,0.334 0.771,0.334ZM0.774,-0.356C0.774,-0.358 0.773,-0.359 0.771,-0.359C0.769,-0.359 0.768,-0.358 0.768,-0.356L0.768,-0.333C0.768,-0.331 0.77,-0.33 0.772,-0.33C0.773,-0.33 0.775,-0.331 0.775,-0.333L0.775,-0.333L0.774,-0.356ZM0.772,0.289C0.77,0.289 0.769,0.29 0.769,0.292L0.768,0.314L0.768,0.314C0.768,0.316 0.77,0.318 0.772,0.318C0.774,0.318 0.775,0.316 0.775,0.314L0.776,0.292L0.776,0.292C0.776,0.29 0.774,0.289 0.772,0.289ZM0.775,-0.311C0.775,-0.313 0.774,-0.314 0.772,-0.314C0.77,-0.314 0.768,-0.313 0.768,-0.311L0.769,-0.288C0.769,-0.286 0.77,-0.285 0.772,-0.285C0.774,-0.285 0.776,-0.286 0.776,-0.288L0.776,-0.288L0.775,-0.311ZM0.802,0.273L0.779,0.273C0.778,0.273 0.776,0.275 0.776,0.276L0.776,0.276C0.776,0.278 0.778,0.28 0.779,0.28L0.802,0.279C0.804,0.279 0.805,0.278 0.805,0.276L0.805,0.276C0.805,0.274 0.804,0.273 0.802,0.273ZM0.806,-0.279L0.783,-0.28C0.781,-0.28 0.78,-0.278 0.78,-0.276C0.78,-0.275 0.781,-0.273 0.783,-0.273L0.806,-0.273C0.808,-0.273 0.809,-0.274 0.809,-0.276L0.809,-0.276C0.809,-0.278 0.808,-0.279 0.806,-0.279ZM0.804,0.124C0.803,0.123 0.801,0.124 0.8,0.126C0.797,0.132 0.793,0.139 0.79,0.145C0.789,0.147 0.789,0.149 0.791,0.15C0.793,0.151 0.795,0.15 0.796,0.149C0.799,0.142 0.803,0.135 0.806,0.128C0.806,0.128 0.806,0.127 0.806,0.127C0.806,0.126 0.806,0.124 0.804,0.124ZM0.806,-0.159C0.803,-0.166 0.799,-0.173 0.796,-0.18C0.795,-0.181 0.793,-0.182 0.791,-0.181C0.79,-0.18 0.789,-0.178 0.79,-0.176C0.793,-0.17 0.797,-0.163 0.8,-0.156C0.801,-0.155 0.803,-0.154 0.804,-0.155C0.806,-0.155 0.806,-0.157 0.806,-0.158C0.806,-0.158 0.806,-0.159 0.806,-0.159ZM0.82,0.082C0.818,0.081 0.816,0.082 0.816,0.084C0.814,0.091 0.811,0.098 0.809,0.105C0.808,0.107 0.809,0.109 0.811,0.109C0.812,0.11 0.814,0.109 0.815,0.107C0.818,0.1 0.82,0.093 0.822,0.086C0.822,0.085 0.823,0.085 0.823,0.085C0.823,0.083 0.822,0.082 0.82,0.082ZM0.822,-0.117C0.82,-0.124 0.818,-0.131 0.815,-0.138C0.814,-0.14 0.812,-0.141 0.811,-0.14C0.809,-0.139 0.808,-0.138 0.809,-0.136C0.811,-0.129 0.814,-0.122 0.816,-0.115C0.817,-0.113 0.818,-0.112 0.82,-0.112C0.822,-0.113 0.823,-0.114 0.823,-0.116C0.823,-0.116 0.823,-0.116 0.822,-0.117ZM0.847,0.272L0.824,0.272C0.823,0.272 0.821,0.274 0.821,0.276L0.821,0.276C0.821,0.278 0.823,0.279 0.824,0.279L0.847,0.279C0.849,0.279 0.85,0.277 0.85,0.275L0.85,0.275C0.85,0.273 0.849,0.272 0.847,0.272ZM0.83,0.038C0.828,0.037 0.827,0.038 0.826,0.04C0.825,0.048 0.824,0.055 0.822,0.062C0.821,0.064 0.823,0.066 0.824,0.066C0.826,0.067 0.828,0.066 0.828,0.064C0.83,0.056 0.832,0.049 0.833,0.041C0.833,0.041 0.833,0.041 0.833,0.041C0.833,0.039 0.832,0.038 0.83,0.038ZM0.833,-0.072C0.832,-0.08 0.83,-0.087 0.828,-0.095C0.828,-0.096 0.826,-0.098 0.824,-0.097C0.823,-0.097 0.821,-0.095 0.822,-0.093C0.824,-0.086 0.825,-0.078 0.826,-0.071C0.827,-0.069 0.828,-0.068 0.83,-0.068C0.832,-0.069 0.833,-0.07 0.833,-0.072C0.833,-0.072 0.833,-0.072 0.833,-0.072ZM0.851,-0.279L0.828,-0.279C0.826,-0.279 0.825,-0.277 0.825,-0.276C0.825,-0.274 0.826,-0.272 0.828,-0.272L0.851,-0.272C0.852,-0.272 0.854,-0.273 0.854,-0.275L0.854,-0.275C0.854,-0.277 0.853,-0.279 0.851,-0.279ZM0.834,-0.007C0.832,-0.008 0.831,-0.006 0.831,-0.004C0.83,0.003 0.83,0.011 0.829,0.018C0.829,0.02 0.83,0.022 0.832,0.022C0.834,0.022 0.836,0.021 0.836,0.019L0.837,-0.004C0.837,-0.006 0.836,-0.007 0.834,-0.007ZM0.837,-0.027C0.837,-0.034 0.837,-0.042 0.836,-0.05C0.836,-0.051 0.834,-0.053 0.832,-0.053C0.83,-0.052 0.829,-0.051 0.829,-0.049C0.83,-0.042 0.831,-0.034 0.831,-0.027C0.831,-0.025 0.832,-0.023 0.834,-0.023C0.836,-0.023 0.837,-0.025 0.837,-0.027C0.837,-0.027 0.837,-0.027 0.837,-0.027ZM0.84,-0.217C0.838,-0.217 0.836,-0.216 0.836,-0.214L0.831,-0.196C0.831,-0.195 0.832,-0.193 0.834,-0.192L0.838,-0.191C0.839,-0.191 0.841,-0.192 0.842,-0.193C0.842,-0.195 0.841,-0.197 0.839,-0.198L0.839,-0.198L0.842,-0.213C0.842,-0.213 0.842,-0.213 0.842,-0.213C0.842,-0.215 0.841,-0.216 0.84,-0.217ZM0.838,0.195C0.837,0.193 0.836,0.192 0.834,0.192C0.832,0.193 0.831,0.195 0.831,0.196L0.837,0.218C0.837,0.22 0.839,0.221 0.841,0.22C0.842,0.22 0.843,0.219 0.843,0.217C0.843,0.217 0.843,0.216 0.843,0.216L0.838,0.196C0.838,0.196 0.838,0.195 0.838,0.195C0.838,0.195 0.838,0.195 0.838,0.195ZM0.851,-0.26C0.849,-0.261 0.847,-0.26 0.847,-0.258L0.841,-0.236C0.841,-0.234 0.842,-0.232 0.844,-0.232C0.845,-0.231 0.847,-0.233 0.848,-0.234L0.853,-0.256C0.853,-0.256 0.853,-0.257 0.853,-0.257C0.853,-0.259 0.852,-0.26 0.851,-0.26ZM0.854,0.26L0.849,0.238C0.848,0.236 0.846,0.235 0.845,0.236C0.843,0.236 0.842,0.238 0.842,0.24L0.848,0.261C0.848,0.263 0.85,0.264 0.852,0.264C0.853,0.264 0.854,0.262 0.854,0.261C0.854,0.26 0.854,0.26 0.854,0.26ZM0.881,0.182C0.881,0.18 0.879,0.179 0.877,0.18L0.856,0.186C0.854,0.186 0.853,0.188 0.853,0.19C0.854,0.192 0.856,0.193 0.857,0.192L0.879,0.186C0.881,0.186 0.881,0.185 0.881,0.183C0.881,0.183 0.881,0.182 0.881,0.182ZM0.883,-0.185L0.861,-0.191C0.859,-0.192 0.857,-0.191 0.857,-0.189C0.856,-0.187 0.857,-0.185 0.859,-0.185L0.881,-0.179C0.883,-0.178 0.884,-0.179 0.885,-0.181C0.885,-0.181 0.885,-0.182 0.885,-0.182C0.885,-0.183 0.884,-0.185 0.883,-0.185ZM0.89,0.091C0.889,0.09 0.887,0.089 0.886,0.09L0.872,0.098C0.87,0.099 0.87,0.101 0.871,0.103L0.874,0.108C0.875,0.11 0.877,0.111 0.878,0.11C0.88,0.109 0.881,0.107 0.88,0.105L0.878,0.102L0.889,0.096C0.89,0.095 0.891,0.094 0.891,0.093C0.891,0.092 0.891,0.092 0.89,0.091ZM0.877,-0.106C0.875,-0.107 0.873,-0.107 0.872,-0.105L0.871,-0.103C0.87,-0.101 0.87,-0.099 0.872,-0.098L0.889,-0.088C0.89,-0.087 0.893,-0.088 0.894,-0.089C0.894,-0.09 0.894,-0.09 0.894,-0.091C0.894,-0.092 0.893,-0.093 0.892,-0.094L0.878,-0.102C0.878,-0.103 0.878,-0.103 0.878,-0.104C0.878,-0.105 0.878,-0.106 0.877,-0.106ZM0.898,-0.146C0.897,-0.147 0.895,-0.146 0.894,-0.144L0.883,-0.125C0.882,-0.123 0.883,-0.121 0.884,-0.12C0.886,-0.119 0.888,-0.12 0.889,-0.122L0.9,-0.141C0.9,-0.142 0.9,-0.142 0.9,-0.143C0.9,-0.144 0.899,-0.145 0.898,-0.146ZM0.902,0.144L0.891,0.125C0.89,0.123 0.888,0.123 0.886,0.124C0.884,0.124 0.884,0.126 0.885,0.128L0.896,0.148C0.897,0.149 0.899,0.15 0.9,0.149C0.901,0.148 0.902,0.147 0.902,0.146C0.902,0.146 0.902,0.145 0.902,0.144ZM0.911,-0.025C0.91,-0.027 0.908,-0.027 0.907,-0.025L0.891,-0.009C0.89,-0.008 0.89,-0.006 0.891,-0.004C0.892,-0.003 0.895,-0.003 0.896,-0.004L0.912,-0.021C0.912,-0.021 0.912,-0.022 0.912,-0.023C0.912,-0.024 0.912,-0.025 0.911,-0.025ZM0.914,0.023L0.898,0.007C0.897,0.006 0.895,0.006 0.894,0.007C0.892,0.008 0.892,0.01 0.894,0.012L0.909,0.028C0.911,0.029 0.913,0.029 0.914,0.028C0.915,0.027 0.915,0.026 0.915,0.026C0.915,0.025 0.915,0.024 0.914,0.023ZM0.899,0.174C0.897,0.174 0.896,0.176 0.896,0.178C0.897,0.18 0.899,0.181 0.901,0.18L0.914,0.176C0.915,0.176 0.916,0.175 0.917,0.174C0.917,0.174 0.917,0.173 0.917,0.173C0.917,0.172 0.917,0.172 0.916,0.171L0.912,0.164C0.912,0.163 0.909,0.162 0.908,0.163C0.906,0.164 0.906,0.166 0.907,0.167L0.908,0.171L0.899,0.174ZM0.917,-0.174C0.916,-0.175 0.915,-0.176 0.914,-0.176L0.904,-0.179C0.902,-0.18 0.901,-0.179 0.9,-0.177C0.9,-0.175 0.901,-0.173 0.902,-0.173L0.908,-0.171L0.905,-0.164C0.904,-0.163 0.904,-0.16 0.906,-0.16C0.908,-0.159 0.91,-0.159 0.911,-0.161L0.916,-0.171C0.917,-0.172 0.917,-0.172 0.917,-0.173C0.917,-0.173 0.917,-0.174 0.917,-0.174ZM0.929,0.068C0.928,0.066 0.926,0.066 0.924,0.067L0.905,0.078C0.903,0.079 0.903,0.081 0.904,0.083C0.905,0.085 0.907,0.085 0.908,0.084L0.928,0.073C0.929,0.072 0.929,0.071 0.929,0.07C0.929,0.069 0.929,0.069 0.929,0.068ZM0.931,-0.071L0.912,-0.082C0.91,-0.083 0.908,-0.083 0.907,-0.081C0.906,-0.08 0.907,-0.077 0.908,-0.077L0.927,-0.065C0.929,-0.064 0.931,-0.065 0.932,-0.066C0.932,-0.067 0.933,-0.067 0.933,-0.068C0.933,-0.069 0.932,-0.07 0.931,-0.071ZM0.943,-0.058C0.941,-0.059 0.939,-0.059 0.938,-0.058L0.922,-0.041C0.921,-0.04 0.921,-0.038 0.922,-0.037C0.924,-0.035 0.926,-0.035 0.927,-0.037L0.943,-0.053C0.943,-0.054 0.944,-0.054 0.944,-0.055C0.944,-0.056 0.943,-0.057 0.943,-0.058ZM0.945,0.056L0.93,0.039C0.928,0.038 0.926,0.038 0.925,0.039C0.924,0.041 0.924,0.043 0.925,0.044L0.941,0.06C0.942,0.062 0.944,0.062 0.945,0.06C0.946,0.06 0.946,0.059 0.946,0.058C0.946,0.057 0.946,0.056 0.945,0.056Z" style="fill:rgb(153,153,153);fill-rule:nonzero;"/>
            </g>
            <g transform="matrix(0,206.906,206.906,0,400.503,60.4663)">
                <path d="M0.496,-0.307C0.665,-0.307 0.803,-0.169 0.803,0C0.803,0.169 0.665,0.307 0.496,0.307C0.326,0.307 0.189,0.169 0.189,0C0.189,-0.169 0.326,-0.307 0.496,-0.307ZM0.22,0L0.281,0.031L0.255,0.051L0.286,0.06L0.252,0.102L0.33,0.085L0.33,0L0.33,-0.085L0.252,-0.102L0.286,-0.06L0.255,-0.051L0.281,-0.031L0.22,0ZM0.707,0.108L0.688,0.083L0.688,0.114L0.658,0.124L0.688,0.134L0.688,0.165L0.707,0.14L0.737,0.149L0.718,0.124L0.737,0.098L0.707,0.108ZM0.732,-0.024L0.704,-0.063L0.704,-0.015L0.658,0L0.704,0.015L0.704,0.063L0.732,0.024L0.777,0.039L0.749,0L0.777,-0.039L0.732,-0.024ZM0.707,-0.136L0.688,-0.162L0.688,-0.13L0.658,-0.12L0.688,-0.111L0.688,-0.079L0.707,-0.105L0.737,-0.095L0.718,-0.12L0.737,-0.146L0.707,-0.136Z" style="fill:rgb(153,153,153);fill-rule:nonzero;"/>
            </g>
            <g>
                <g transform="matrix(36.6851,0,0,36.6851,348.834,161.325)">
                    <path d="M0.202,-0.7L0.04,-0.7L0.04,0L0.15,0L0.15,-0.263L0.202,-0.263C0.312,-0.263 0.366,-0.324 0.366,-0.436L0.366,-0.527C0.366,-0.639 0.312,-0.7 0.202,-0.7ZM0.15,-0.6L0.202,-0.6C0.237,-0.6 0.256,-0.584 0.256,-0.534L0.256,-0.429C0.256,-0.379 0.237,-0.363 0.202,-0.363L0.15,-0.363L0.15,-0.6Z" style="fill:rgb(51,51,51);fill-rule:nonzero;"/>
                </g>
                <g transform="matrix(36.6851,0,0,36.6851,362.664,161.325)">
                    <path d="M0.27,0L0.382,0C0.371,-0.026 0.37,-0.051 0.37,-0.085L0.37,-0.193C0.37,-0.266 0.352,-0.319 0.297,-0.342C0.346,-0.365 0.369,-0.412 0.369,-0.484L0.369,-0.539C0.369,-0.647 0.32,-0.7 0.206,-0.7L0.04,-0.7L0.04,0L0.15,0L0.15,-0.285L0.188,-0.285C0.238,-0.285 0.26,-0.261 0.26,-0.196L0.26,-0.086C0.26,-0.029 0.264,-0.018 0.27,0ZM0.15,-0.6L0.203,-0.6C0.242,-0.6 0.259,-0.578 0.259,-0.528L0.259,-0.459C0.259,-0.403 0.234,-0.385 0.193,-0.385L0.15,-0.385L0.15,-0.6Z" style="fill:rgb(51,51,51);fill-rule:nonzero;"/>
                </g>
                <g transform="matrix(36.6851,0,0,36.6851,377.412,161.325)">
                    <path d="M0.15,-0.405L0.15,-0.6L0.34,-0.6L0.34,-0.7L0.04,-0.7L0.04,0L0.34,0L0.34,-0.1L0.15,-0.1L0.15,-0.305L0.301,-0.305L0.301,-0.405L0.15,-0.405Z" style="fill:rgb(51,51,51);fill-rule:nonzero;"/>
                </g>
                <g transform="matrix(36.6851,0,0,36.6851,390.912,161.325)">
                    <path d="M0.273,-0.203L0.192,-0.7L0.039,-0.7L0.039,0L0.135,0L0.135,-0.495L0.217,0L0.321,0L0.397,-0.502L0.397,0L0.501,0L0.501,-0.7L0.348,-0.7L0.273,-0.203Z" style="fill:rgb(51,51,51);fill-rule:nonzero;"/>
                </g>
                <g transform="matrix(36.6851,0,0,36.6851,410.758,161.325)">
                    <rect x="0.04" y="-0.7" width="0.11" height="0.7" style="fill:rgb(51,51,51);fill-rule:nonzero;"/>
                </g>
                <g transform="matrix(36.6851,0,0,36.6851,417.729,161.325)">
                    <path d="M0.145,-0.7L0.035,-0.7L0.035,-0.167C0.035,-0.055 0.091,0.009 0.199,0.009C0.307,0.009 0.363,-0.055 0.363,-0.167L0.363,-0.7L0.259,-0.7L0.259,-0.16C0.259,-0.11 0.237,-0.092 0.202,-0.092C0.167,-0.092 0.145,-0.11 0.145,-0.16L0.145,-0.7Z" style="fill:rgb(51,51,51);fill-rule:nonzero;"/>
                </g>
                <g transform="matrix(36.6851,0,0,36.6851,432.329,161.325)">
                    <path d="M0.273,-0.203L0.192,-0.7L0.039,-0.7L0.039,0L0.135,0L0.135,-0.495L0.217,0L0.321,0L0.397,-0.502L0.397,0L0.501,0L0.501,-0.7L0.348,-0.7L0.273,-0.203Z" style="fill:rgb(51,51,51);fill-rule:nonzero;"/>
                </g>
                <g transform="matrix(36.6851,0,0,36.6851,354.96,191.517)">
                    <path d="M0.031,-0.532L0.031,-0.168C0.031,-0.056 0.09,0.008 0.198,0.008C0.227,0.008 0.253,0.003 0.275,-0.005C0.29,0.025 0.321,0.043 0.37,0.043L0.385,0.043L0.385,-0.055L0.375,-0.055C0.357,-0.055 0.349,-0.057 0.344,-0.07C0.358,-0.096 0.365,-0.129 0.365,-0.168L0.365,-0.532C0.365,-0.644 0.306,-0.708 0.198,-0.708C0.09,-0.708 0.031,-0.644 0.031,-0.532ZM0.141,-0.161L0.141,-0.539C0.141,-0.589 0.163,-0.608 0.198,-0.608C0.233,-0.608 0.255,-0.589 0.255,-0.539L0.255,-0.161C0.255,-0.111 0.233,-0.092 0.198,-0.092C0.163,-0.092 0.141,-0.111 0.141,-0.161Z" style="fill:rgb(51,51,51);fill-rule:nonzero;"/>
                </g>
                <g transform="matrix(36.6851,0,0,36.6851,369.488,191.517)">
                    <path d="M0.145,-0.7L0.035,-0.7L0.035,-0.167C0.035,-0.055 0.091,0.009 0.199,0.009C0.307,0.009 0.363,-0.055 0.363,-0.167L0.363,-0.7L0.259,-0.7L0.259,-0.16C0.259,-0.11 0.237,-0.092 0.202,-0.092C0.167,-0.092 0.145,-0.11 0.145,-0.16L0.145,-0.7Z" style="fill:rgb(51,51,51);fill-rule:nonzero;"/>
                </g>
                <g transform="matrix(36.6851,0,0,36.6851,384.088,191.517)">
                    <path d="M0.396,0L0.284,-0.7L0.123,-0.7L0.011,0L0.112,0L0.131,-0.127L0.266,-0.127L0.285,0L0.396,0ZM0.145,-0.222L0.198,-0.576L0.251,-0.222L0.145,-0.222Z" style="fill:rgb(51,51,51);fill-rule:nonzero;"/>
                </g>
                <g transform="matrix(36.6851,0,0,36.6851,399.019,191.517)">
                    <path d="M0.04,-0.7L0.04,0L0.331,0L0.331,-0.1L0.15,-0.1L0.15,-0.7L0.04,-0.7Z" style="fill:rgb(51,51,51);fill-rule:nonzero;"/>
                </g>
                <g transform="matrix(36.6851,0,0,36.6851,411.455,191.517)">
                    <rect x="0.04" y="-0.7" width="0.11" height="0.7" style="fill:rgb(51,51,51);fill-rule:nonzero;"/>
                </g>
                <g transform="matrix(36.6851,0,0,36.6851,418.426,191.517)">
                    <path d="M0.008,-0.7L0.008,-0.6L0.123,-0.6L0.123,0L0.233,0L0.233,-0.6L0.348,-0.6L0.348,-0.7L0.008,-0.7Z" style="fill:rgb(51,51,51);fill-rule:nonzero;"/>
                </g>
                <g transform="matrix(36.6851,0,0,36.6851,431.486,191.517)">
                    <path d="M0.143,-0.232L0.143,0L0.253,0L0.253,-0.232L0.392,-0.7L0.287,-0.7L0.203,-0.381L0.119,-0.7L0.004,-0.7L0.143,-0.232Z" style="fill:rgb(51,51,51);fill-rule:nonzero;"/>
                </g>
            </g>
        </g>
    </g>
</svg>
