<?xml version="1.0" encoding="UTF-8" standalone="no"?>
<!DOCTYPE svg PUBLIC "-//W3C//DTD SVG 1.1//EN" "http://www.w3.org/Graphics/SVG/1.1/DTD/svg11.dtd">
<svg width="100%" height="100%" viewBox="0 0 199 199" version="1.1" xmlns="http://www.w3.org/2000/svg" xmlns:xlink="http://www.w3.org/1999/xlink" xml:space="preserve" xmlns:serif="http://www.serif.com/" style="fill-rule:evenodd;clip-rule:evenodd;stroke-linejoin:round;stroke-miterlimit:2;">
    <g transform="matrix(1,0,0,1,-70,-535)">
        <g id="Object">
            <g transform="matrix(14.2976,0,0,14.2976,141.985,725.086)">
                <path d="M0.205,-0.39L0.205,-0.29L0.255,-0.29L0.255,-0.161C0.255,-0.111 0.233,-0.093 0.198,-0.093C0.163,-0.093 0.141,-0.111 0.141,-0.161L0.141,-0.539C0.141,-0.589 0.163,-0.608 0.198,-0.608C0.233,-0.608 0.255,-0.589 0.255,-0.539L0.255,-0.464L0.359,-0.464L0.359,-0.532C0.359,-0.644 0.303,-0.708 0.195,-0.708C0.087,-0.708 0.031,-0.644 0.031,-0.532L0.031,-0.168C0.031,-0.056 0.087,0.008 0.195,0.008C0.303,0.008 0.359,-0.056 0.359,-0.168L0.359,-0.39L0.205,-0.39Z" style="fill:rgb(153,153,153);fill-rule:nonzero;"/>
            </g>
            <g transform="matrix(14.2976,0,0,14.2976,147.561,725.086)">
                <path d="M0.145,-0.7L0.035,-0.7L0.035,-0.167C0.035,-0.055 0.091,0.009 0.199,0.009C0.307,0.009 0.363,-0.055 0.363,-0.167L0.363,-0.7L0.259,-0.7L0.259,-0.16C0.259,-0.11 0.237,-0.092 0.202,-0.092C0.167,-0.092 0.145,-0.11 0.145,-0.16L0.145,-0.7Z" style="fill:rgb(153,153,153);fill-rule:nonzero;"/>
            </g>
            <g transform="matrix(14.2976,0,0,14.2976,153.251,725.086)">
                <path d="M0.396,0L0.284,-0.7L0.123,-0.7L0.011,0L0.112,0L0.131,-0.127L0.266,-0.127L0.285,0L0.396,0ZM0.145,-0.222L0.198,-0.576L0.251,-0.222L0.145,-0.222Z" style="fill:rgb(153,153,153);fill-rule:nonzero;"/>
            </g>
            <g transform="matrix(14.2976,0,0,14.2976,159.071,725.086)">
                <path d="M0.27,0L0.382,0C0.371,-0.026 0.37,-0.051 0.37,-0.085L0.37,-0.193C0.37,-0.266 0.352,-0.319 0.297,-0.342C0.346,-0.365 0.369,-0.412 0.369,-0.484L0.369,-0.539C0.369,-0.647 0.32,-0.7 0.206,-0.7L0.04,-0.7L0.04,0L0.15,0L0.15,-0.285L0.188,-0.285C0.238,-0.285 0.26,-0.261 0.26,-0.196L0.26,-0.086C0.26,-0.029 0.264,-0.018 0.27,0ZM0.15,-0.6L0.203,-0.6C0.242,-0.6 0.259,-0.578 0.259,-0.528L0.259,-0.459C0.259,-0.403 0.234,-0.385 0.193,-0.385L0.15,-0.385L0.15,-0.6Z" style="fill:rgb(153,153,153);fill-rule:nonzero;"/>
            </g>
            <g transform="matrix(14.2976,0,0,14.2976,164.818,725.086)">
                <path d="M0.396,0L0.284,-0.7L0.123,-0.7L0.011,0L0.112,0L0.131,-0.127L0.266,-0.127L0.285,0L0.396,0ZM0.145,-0.222L0.198,-0.576L0.251,-0.222L0.145,-0.222Z" style="fill:rgb(153,153,153);fill-rule:nonzero;"/>
            </g>
            <g transform="matrix(14.2976,0,0,14.2976,170.637,725.086)">
                <path d="M0.138,-0.507L0.275,0L0.388,0L0.388,-0.7L0.29,-0.7L0.29,-0.281L0.177,-0.7L0.039,-0.7L0.039,0L0.138,0L0.138,-0.507Z" style="fill:rgb(153,153,153);fill-rule:nonzero;"/>
            </g>
            <g transform="matrix(14.2976,0,0,14.2976,176.742,725.086)">
                <path d="M0.008,-0.7L0.008,-0.6L0.123,-0.6L0.123,0L0.233,0L0.233,-0.6L0.348,-0.6L0.348,-0.7L0.008,-0.7Z" style="fill:rgb(153,153,153);fill-rule:nonzero;"/>
            </g>
            <g transform="matrix(14.2976,0,0,14.2976,181.832,725.086)">
                <path d="M0.15,-0.405L0.15,-0.6L0.34,-0.6L0.34,-0.7L0.04,-0.7L0.04,0L0.34,0L0.34,-0.1L0.15,-0.1L0.15,-0.305L0.301,-0.305L0.301,-0.405L0.15,-0.405Z" style="fill:rgb(153,153,153);fill-rule:nonzero;"/>
            </g>
            <g transform="matrix(14.2976,0,0,14.2976,187.094,725.086)">
                <path d="M0.15,-0.405L0.15,-0.6L0.34,-0.6L0.34,-0.7L0.04,-0.7L0.04,0L0.34,0L0.34,-0.1L0.15,-0.1L0.15,-0.305L0.301,-0.305L0.301,-0.405L0.15,-0.405Z" style="fill:rgb(153,153,153);fill-rule:nonzero;"/>
            </g>
            <g transform="matrix(14.2976,0,0,14.2976,192.355,725.086)">
                <path d="M0.04,-0.7L0.04,0L0.214,0C0.324,0 0.378,-0.061 0.378,-0.173L0.378,-0.527C0.378,-0.639 0.324,-0.7 0.214,-0.7L0.04,-0.7ZM0.15,-0.6L0.212,-0.6C0.247,-0.6 0.268,-0.582 0.268,-0.532L0.268,-0.168C0.268,-0.118 0.247,-0.1 0.212,-0.1L0.15,-0.1L0.15,-0.6Z" style="fill:rgb(153,153,153);fill-rule:nonzero;"/>
            </g>
            <g transform="matrix(14.2976,0,0,14.2976,140.384,711.83)">
                <path d="M0.026,-0.532C0.026,-0.332 0.241,-0.305 0.241,-0.161C0.241,-0.111 0.219,-0.093 0.184,-0.093C0.149,-0.093 0.127,-0.111 0.127,-0.161L0.127,-0.211L0.023,-0.211L0.023,-0.168C0.023,-0.056 0.079,0.008 0.187,0.008C0.295,0.008 0.351,-0.056 0.351,-0.168C0.351,-0.368 0.136,-0.395 0.136,-0.539C0.136,-0.589 0.156,-0.608 0.191,-0.608C0.226,-0.608 0.246,-0.589 0.246,-0.539L0.246,-0.51L0.35,-0.51L0.35,-0.532C0.35,-0.644 0.295,-0.708 0.188,-0.708C0.081,-0.708 0.026,-0.644 0.026,-0.532Z" style="fill:rgb(153,153,153);fill-rule:nonzero;"/>
            </g>
            <g transform="matrix(14.2976,0,0,14.2976,145.731,711.83)">
                <path d="M0.396,0L0.284,-0.7L0.123,-0.7L0.011,0L0.112,0L0.131,-0.127L0.266,-0.127L0.285,0L0.396,0ZM0.145,-0.222L0.198,-0.576L0.251,-0.222L0.145,-0.222Z" style="fill:rgb(153,153,153);fill-rule:nonzero;"/>
            </g>
            <g transform="matrix(14.2976,0,0,14.2976,151.007,711.83)">
                <path d="M0.008,-0.7L0.008,-0.6L0.123,-0.6L0.123,0L0.233,0L0.233,-0.6L0.348,-0.6L0.348,-0.7L0.008,-0.7Z" style="fill:rgb(153,153,153);fill-rule:nonzero;"/>
            </g>
            <g transform="matrix(14.2976,0,0,14.2976,156.097,711.83)">
                <rect x="0.04" y="-0.7" width="0.11" height="0.7" style="fill:rgb(153,153,153);fill-rule:nonzero;"/>
            </g>
            <g transform="matrix(14.2976,0,0,14.2976,158.813,711.83)">
                <path d="M0.026,-0.532C0.026,-0.332 0.241,-0.305 0.241,-0.161C0.241,-0.111 0.219,-0.093 0.184,-0.093C0.149,-0.093 0.127,-0.111 0.127,-0.161L0.127,-0.211L0.023,-0.211L0.023,-0.168C0.023,-0.056 0.079,0.008 0.187,0.008C0.295,0.008 0.351,-0.056 0.351,-0.168C0.351,-0.368 0.136,-0.395 0.136,-0.539C0.136,-0.589 0.156,-0.608 0.191,-0.608C0.226,-0.608 0.246,-0.589 0.246,-0.539L0.246,-0.51L0.35,-0.51L0.35,-0.532C0.35,-0.644 0.295,-0.708 0.188,-0.708C0.081,-0.708 0.026,-0.644 0.026,-0.532Z" style="fill:rgb(153,153,153);fill-rule:nonzero;"/>
            </g>
            <g transform="matrix(14.2976,0,0,14.2976,164.161,711.83)">
                <path d="M0.15,-0.389L0.15,-0.6L0.331,-0.6L0.331,-0.7L0.04,-0.7L0.04,0L0.15,0L0.15,-0.289L0.292,-0.289L0.292,-0.389L0.15,-0.389Z" style="fill:rgb(153,153,153);fill-rule:nonzero;"/>
            </g>
            <g transform="matrix(14.2976,0,0,14.2976,168.893,711.83)">
                <path d="M0.396,0L0.284,-0.7L0.123,-0.7L0.011,0L0.112,0L0.131,-0.127L0.266,-0.127L0.285,0L0.396,0ZM0.145,-0.222L0.198,-0.576L0.251,-0.222L0.145,-0.222Z" style="fill:rgb(153,153,153);fill-rule:nonzero;"/>
            </g>
            <g transform="matrix(14.2976,0,0,14.2976,174.698,711.83)">
                <path d="M0.359,-0.261L0.255,-0.261L0.255,-0.161C0.255,-0.111 0.233,-0.093 0.198,-0.093C0.163,-0.093 0.141,-0.111 0.141,-0.161L0.141,-0.539C0.141,-0.589 0.163,-0.608 0.198,-0.608C0.233,-0.608 0.255,-0.589 0.255,-0.539L0.255,-0.464L0.359,-0.464L0.359,-0.532C0.359,-0.644 0.303,-0.708 0.195,-0.708C0.087,-0.708 0.031,-0.644 0.031,-0.532L0.031,-0.168C0.031,-0.056 0.087,0.008 0.195,0.008C0.303,0.008 0.359,-0.056 0.359,-0.168L0.359,-0.261Z" style="fill:rgb(153,153,153);fill-rule:nonzero;"/>
            </g>
            <g transform="matrix(14.2976,0,0,14.2976,180.217,711.83)">
                <path d="M0.008,-0.7L0.008,-0.6L0.123,-0.6L0.123,0L0.233,0L0.233,-0.6L0.348,-0.6L0.348,-0.7L0.008,-0.7Z" style="fill:rgb(153,153,153);fill-rule:nonzero;"/>
            </g>
            <g transform="matrix(14.2976,0,0,14.2976,185.307,711.83)">
                <rect x="0.04" y="-0.7" width="0.11" height="0.7" style="fill:rgb(153,153,153);fill-rule:nonzero;"/>
            </g>
            <g transform="matrix(14.2976,0,0,14.2976,188.023,711.83)">
                <path d="M0.031,-0.532L0.031,-0.168C0.031,-0.056 0.09,0.008 0.198,0.008C0.306,0.008 0.365,-0.056 0.365,-0.168L0.365,-0.532C0.365,-0.644 0.306,-0.708 0.198,-0.708C0.09,-0.708 0.031,-0.644 0.031,-0.532ZM0.141,-0.161L0.141,-0.539C0.141,-0.589 0.163,-0.608 0.198,-0.608C0.233,-0.608 0.255,-0.589 0.255,-0.539L0.255,-0.161C0.255,-0.111 0.233,-0.092 0.198,-0.092C0.163,-0.092 0.141,-0.111 0.141,-0.161Z" style="fill:rgb(153,153,153);fill-rule:nonzero;"/>
            </g>
            <g transform="matrix(14.2976,0,0,14.2976,193.685,711.83)">
                <path d="M0.138,-0.507L0.275,0L0.388,0L0.388,-0.7L0.29,-0.7L0.29,-0.281L0.177,-0.7L0.039,-0.7L0.039,0L0.138,0L0.138,-0.507Z" style="fill:rgb(153,153,153);fill-rule:nonzero;"/>
            </g>
            <g transform="matrix(0,204.777,204.777,0,110.827,528.508)">
                <path d="M0.884,-0.125C0.884,-0.128 0.886,-0.13 0.89,-0.13L0.901,-0.13C0.904,-0.13 0.906,-0.128 0.906,-0.125L0.906,0.13L0.884,0.13L0.884,-0.125Z" style="fill:rgb(153,153,153);fill-rule:nonzero;"/>
            </g>
            <g transform="matrix(0,204.777,204.777,0,229.342,528.508)">
                <path d="M0.884,-0.13L0.906,-0.13L0.906,0.125C0.906,0.128 0.904,0.13 0.901,0.13L0.89,0.13C0.886,0.13 0.884,0.128 0.884,0.125L0.884,-0.13Z" style="fill:rgb(153,153,153);fill-rule:nonzero;"/>
            </g>
            <g transform="matrix(0,204.78,204.78,0,232.405,528.508)">
                <path d="M0.213,-0.109L0.236,-0.115L0.236,0.11C0.236,0.113 0.233,0.115 0.23,0.115L0.219,0.115C0.216,0.115 0.213,0.113 0.213,0.11L0.213,-0.109Z" style="fill:rgb(153,153,153);fill-rule:nonzero;"/>
            </g>
            <g transform="matrix(0,204.78,204.78,0,107.763,528.508)">
                <path d="M0.213,-0.11C0.213,-0.113 0.216,-0.115 0.219,-0.115L0.23,-0.115C0.233,-0.115 0.236,-0.113 0.236,-0.11L0.236,0.115L0.213,0.109L0.213,-0.11Z" style="fill:rgb(153,153,153);fill-rule:nonzero;"/>
            </g>
            <g transform="matrix(0,204.776,204.776,0,170.084,528.509)">
                <path d="M0.143,-0.057L0.135,-0.063L0.096,-0.095L0.11,-0.099L0.153,-0.112L0.139,-0.128L0.09,-0.19L0.236,-0.159L0.236,0.159L0.118,0.185L0.09,0.19L0.139,0.128L0.153,0.112L0.11,0.099L0.096,0.095L0.135,0.063L0.143,0.057L0.03,0L0.143,-0.057Z" style="fill:rgb(153,153,153);fill-rule:nonzero;"/>
            </g>
            <g transform="matrix(0,142.689,142.689,0,119.453,586.455)">
                <path d="M0.918,0.161L0.955,0.161C0.966,0.161 0.972,0.167 0.972,0.177C0.972,0.188 0.966,0.194 0.955,0.194L0.932,0.194L0.932,0.178L0.943,0.178L0.943,0.183L0.955,0.183C0.96,0.183 0.962,0.181 0.962,0.178C0.962,0.174 0.96,0.172 0.955,0.172L0.918,0.172C0.913,0.172 0.911,0.174 0.911,0.178C0.911,0.181 0.913,0.183 0.918,0.183L0.925,0.183L0.925,0.194L0.918,0.194C0.907,0.194 0.901,0.188 0.901,0.177C0.901,0.167 0.907,0.161 0.918,0.161Z" style="fill:rgb(153,153,153);fill-rule:nonzero;"/>
            </g>
            <g transform="matrix(0,142.689,142.689,0,130.719,586.455)">
                <path d="M0.901,0.144L0.956,0.144C0.961,0.144 0.962,0.142 0.962,0.138C0.962,0.135 0.961,0.133 0.956,0.133L0.901,0.133L0.901,0.122L0.955,0.122C0.966,0.122 0.972,0.127 0.972,0.138C0.972,0.149 0.966,0.154 0.955,0.154L0.901,0.154L0.901,0.144Z" style="fill:rgb(153,153,153);fill-rule:nonzero;"/>
            </g>
            <g transform="matrix(0,142.689,142.689,0,142.228,586.455)">
                <path d="M0.901,0.09L0.972,0.078L0.972,0.088L0.959,0.09L0.959,0.104L0.972,0.106L0.972,0.117L0.901,0.106L0.901,0.09ZM0.914,0.097L0.949,0.102L0.949,0.092L0.914,0.097Z" style="fill:rgb(153,153,153);fill-rule:nonzero;"/>
            </g>
            <g transform="matrix(0,142.689,142.689,0,154.08,586.455)">
                <path d="M0.901,0.039L0.972,0.039L0.972,0.05L0.943,0.05L0.943,0.054C0.943,0.059 0.945,0.061 0.952,0.061L0.963,0.061C0.969,0.061 0.97,0.061 0.972,0.062L0.972,0.073C0.969,0.072 0.966,0.072 0.963,0.072L0.952,0.072C0.945,0.072 0.94,0.07 0.937,0.065C0.935,0.07 0.93,0.072 0.923,0.072L0.918,0.072C0.907,0.072 0.901,0.067 0.901,0.056L0.901,0.039ZM0.911,0.05L0.911,0.055C0.911,0.059 0.914,0.061 0.919,0.061L0.926,0.061C0.931,0.061 0.933,0.058 0.933,0.054L0.933,0.05L0.911,0.05Z" style="fill:rgb(153,153,153);fill-rule:nonzero;"/>
            </g>
            <g transform="matrix(0,142.689,142.689,0,165.361,586.455)">
                <path d="M0.901,0.009L0.972,-0.003L0.972,0.007L0.959,0.009L0.959,0.023L0.972,0.025L0.972,0.036L0.901,0.025L0.901,0.009ZM0.914,0.016L0.949,0.021L0.949,0.011L0.914,0.016Z" style="fill:rgb(153,153,153);fill-rule:nonzero;"/>
            </g>
            <g transform="matrix(0,142.689,142.689,0,177.284,586.455)">
                <path d="M0.901,-0.018L0.943,-0.018L0.901,-0.029L0.901,-0.043L0.972,-0.043L0.972,-0.033L0.921,-0.033L0.972,-0.019L0.972,-0.008L0.901,-0.008L0.901,-0.018Z" style="fill:rgb(153,153,153);fill-rule:nonzero;"/>
            </g>
            <g transform="matrix(0,142.689,142.689,0,188.479,586.455)">
                <path d="M0.901,-0.081L0.911,-0.081L0.911,-0.07L0.972,-0.07L0.972,-0.059L0.911,-0.059L0.911,-0.047L0.901,-0.047L0.901,-0.081Z" style="fill:rgb(153,153,153);fill-rule:nonzero;"/>
            </g>
            <g transform="matrix(0,142.689,142.689,0,199.002,586.455)">
                <path d="M0.901,-0.116L0.972,-0.116L0.972,-0.086L0.962,-0.086L0.962,-0.105L0.941,-0.105L0.941,-0.09L0.931,-0.09L0.931,-0.105L0.911,-0.105L0.911,-0.086L0.901,-0.086L0.901,-0.116Z" style="fill:rgb(153,153,153);fill-rule:nonzero;"/>
            </g>
            <g transform="matrix(0,142.689,142.689,0,209.524,586.455)">
                <path d="M0.901,-0.153L0.972,-0.153L0.972,-0.123L0.962,-0.123L0.962,-0.142L0.941,-0.142L0.941,-0.127L0.931,-0.127L0.931,-0.142L0.911,-0.142L0.911,-0.123L0.901,-0.123L0.901,-0.153Z" style="fill:rgb(153,153,153);fill-rule:nonzero;"/>
            </g>
            <g transform="matrix(0,142.689,142.689,0,220.592,586.455)">
                <path d="M0.901,-0.194L0.972,-0.194L0.972,-0.176C0.972,-0.165 0.965,-0.16 0.954,-0.16L0.919,-0.16C0.908,-0.16 0.901,-0.165 0.901,-0.176L0.901,-0.194ZM0.911,-0.183L0.911,-0.177C0.911,-0.173 0.913,-0.171 0.918,-0.171L0.955,-0.171C0.96,-0.171 0.962,-0.173 0.962,-0.177L0.962,-0.183L0.911,-0.183Z" style="fill:rgb(153,153,153);fill-rule:nonzero;"/>
            </g>
            <g transform="matrix(0,142.485,142.485,0,116.142,582.606)">
                <path d="M0.854,0.173C0.874,0.173 0.876,0.194 0.891,0.194C0.896,0.194 0.898,0.192 0.898,0.189C0.898,0.185 0.896,0.183 0.891,0.183L0.886,0.183L0.886,0.172L0.89,0.172C0.901,0.172 0.908,0.178 0.908,0.189C0.908,0.2 0.901,0.205 0.89,0.205C0.87,0.205 0.867,0.184 0.853,0.184C0.848,0.184 0.846,0.186 0.846,0.189C0.846,0.193 0.848,0.195 0.853,0.195L0.856,0.195L0.856,0.205L0.854,0.205C0.842,0.205 0.836,0.2 0.836,0.189C0.836,0.178 0.842,0.173 0.854,0.173Z" style="fill:rgb(153,153,153);fill-rule:nonzero;"/>
            </g>
            <g transform="matrix(0,142.485,142.485,0,127.309,582.606)">
                <path d="M0.837,0.142L0.907,0.13L0.907,0.141L0.894,0.142L0.894,0.156L0.907,0.158L0.907,0.169L0.837,0.158L0.837,0.142ZM0.849,0.149L0.885,0.154L0.885,0.144L0.849,0.149Z" style="fill:rgb(153,153,153);fill-rule:nonzero;"/>
            </g>
            <g transform="matrix(0,142.485,142.485,0,137.132,582.606)">
                <path d="M0.837,0.098L0.847,0.098L0.847,0.11L0.907,0.11L0.907,0.121L0.847,0.121L0.847,0.132L0.837,0.132L0.837,0.098Z" style="fill:rgb(153,153,153);fill-rule:nonzero;"/>
            </g>
            <g transform="matrix(142.485,0,0,-142.485,33.2342,719.344)">
                <rect x="0.866" y="0.053" width="0.011" height="0.07" style="fill:rgb(153,153,153);"/>
            </g>
            <g transform="matrix(0,142.485,142.485,0,153.001,582.606)">
                <path d="M0.854,0.043C0.874,0.043 0.876,0.065 0.891,0.065C0.896,0.065 0.898,0.063 0.898,0.059C0.898,0.056 0.896,0.054 0.891,0.054L0.886,0.054L0.886,0.043L0.89,0.043C0.901,0.043 0.908,0.049 0.908,0.06C0.908,0.07 0.901,0.076 0.89,0.076C0.87,0.076 0.867,0.054 0.853,0.054C0.848,0.054 0.846,0.056 0.846,0.06C0.846,0.063 0.848,0.065 0.853,0.065L0.856,0.065L0.856,0.076L0.854,0.076C0.842,0.076 0.836,0.07 0.836,0.06C0.836,0.049 0.842,0.043 0.854,0.043Z" style="fill:rgb(153,153,153);fill-rule:nonzero;"/>
            </g>
            <g transform="matrix(0,142.485,142.485,0,163.651,582.606)">
                <path d="M0.837,0.008L0.907,0.008L0.907,0.019L0.878,0.019L0.878,0.033L0.868,0.033L0.868,0.019L0.847,0.019L0.847,0.037L0.837,0.037L0.837,0.008Z" style="fill:rgb(153,153,153);fill-rule:nonzero;"/>
            </g>
            <g transform="matrix(0,142.485,142.485,0,173.632,582.606)">
                <path d="M0.837,-0.021L0.907,-0.032L0.907,-0.022L0.894,-0.02L0.894,-0.007L0.907,-0.005L0.907,0.006L0.837,-0.005L0.837,-0.021ZM0.849,-0.013L0.885,-0.008L0.885,-0.019L0.849,-0.013Z" style="fill:rgb(153,153,153);fill-rule:nonzero;"/>
            </g>
            <g transform="matrix(0,142.485,142.485,0,185,582.606)">
                <path d="M0.854,-0.069L0.89,-0.069C0.901,-0.069 0.908,-0.064 0.908,-0.053C0.908,-0.042 0.901,-0.036 0.89,-0.036L0.881,-0.036L0.881,-0.047L0.891,-0.047C0.896,-0.047 0.898,-0.049 0.898,-0.052C0.898,-0.056 0.896,-0.058 0.891,-0.058L0.853,-0.058C0.848,-0.058 0.846,-0.056 0.846,-0.052C0.846,-0.049 0.848,-0.047 0.853,-0.047L0.86,-0.047L0.86,-0.036L0.854,-0.036C0.842,-0.036 0.836,-0.042 0.836,-0.053C0.836,-0.064 0.842,-0.069 0.854,-0.069Z" style="fill:rgb(153,153,153);fill-rule:nonzero;"/>
            </g>
            <g transform="matrix(0,142.485,142.485,0,195.55,582.606)">
                <path d="M0.837,-0.107L0.847,-0.107L0.847,-0.095L0.907,-0.095L0.907,-0.084L0.847,-0.084L0.847,-0.073L0.837,-0.073L0.837,-0.107Z" style="fill:rgb(153,153,153);fill-rule:nonzero;"/>
            </g>
            <g transform="matrix(142.485,0,0,-142.485,62.4442,690.134)">
                <rect x="0.866" y="-0.152" width="0.011" height="0.07" style="fill:rgb(153,153,153);"/>
            </g>
            <g transform="matrix(0,142.485,142.485,0,211.734,582.606)">
                <path d="M0.854,-0.163L0.89,-0.163C0.901,-0.163 0.908,-0.157 0.908,-0.147C0.908,-0.136 0.901,-0.13 0.89,-0.13L0.854,-0.13C0.842,-0.13 0.836,-0.136 0.836,-0.147C0.836,-0.157 0.842,-0.163 0.854,-0.163ZM0.891,-0.152L0.853,-0.152C0.848,-0.152 0.846,-0.15 0.846,-0.147C0.846,-0.143 0.848,-0.141 0.853,-0.141L0.891,-0.141C0.896,-0.141 0.898,-0.143 0.898,-0.147C0.898,-0.15 0.896,-0.152 0.891,-0.152Z" style="fill:rgb(153,153,153);fill-rule:nonzero;"/>
            </g>
            <g transform="matrix(0,142.485,142.485,0,223.501,582.606)">
                <path d="M0.837,-0.18L0.879,-0.18L0.837,-0.192L0.837,-0.205L0.907,-0.205L0.907,-0.195L0.856,-0.195L0.907,-0.182L0.907,-0.17L0.837,-0.17L0.837,-0.18Z" style="fill:rgb(153,153,153);fill-rule:nonzero;"/>
            </g>
            <g transform="matrix(0,149.458,149.458,0,28.3818,566.303)">
                <path d="M0.589,0.396L0.755,0.396C0.806,0.396 0.835,0.423 0.835,0.473C0.835,0.486 0.832,0.498 0.829,0.508C0.843,0.515 0.851,0.529 0.851,0.551L0.851,0.558L0.806,0.558L0.806,0.553C0.806,0.545 0.805,0.541 0.799,0.539C0.787,0.546 0.772,0.549 0.755,0.549L0.589,0.549C0.537,0.549 0.508,0.522 0.508,0.473C0.508,0.423 0.537,0.396 0.589,0.396ZM0.758,0.447L0.585,0.447C0.563,0.447 0.554,0.457 0.554,0.473C0.554,0.489 0.563,0.499 0.585,0.499L0.758,0.499C0.78,0.499 0.789,0.489 0.789,0.473C0.789,0.457 0.78,0.447 0.758,0.447Z" style="fill:rgb(51,51,51);fill-rule:nonzero;"/>
            </g>
            <g transform="matrix(0,149.458,149.458,0,81.1248,566.303)">
                <path d="M0.512,0.328L0.758,0.328C0.781,0.328 0.789,0.318 0.789,0.302C0.789,0.286 0.781,0.276 0.758,0.276L0.512,0.276L0.512,0.226L0.755,0.226C0.806,0.226 0.835,0.251 0.835,0.301C0.835,0.35 0.806,0.375 0.755,0.375L0.512,0.375L0.512,0.328Z" style="fill:rgb(51,51,51);fill-rule:nonzero;"/>
            </g>
            <g transform="matrix(0,149.458,149.458,0,135.981,566.303)">
                <path d="M0.512,0.08L0.831,0.029L0.831,0.075L0.773,0.084L0.773,0.146L0.831,0.154L0.831,0.205L0.512,0.154L0.512,0.08ZM0.568,0.115L0.73,0.139L0.73,0.09L0.568,0.115Z" style="fill:rgb(51,51,51);fill-rule:nonzero;"/>
            </g>
            <g transform="matrix(0,149.458,149.458,0,188.997,566.303)">
                <path d="M0.512,-0.127L0.831,-0.127L0.831,0.006L0.786,0.006L0.786,-0.076L0.512,-0.076L0.512,-0.127Z" style="fill:rgb(51,51,51);fill-rule:nonzero;"/>
            </g>
            <g transform="matrix(149.458,0,0,-149.458,96.5677,640.739)">
                <rect x="0.646" y="-0.333" width="0.05" height="0.319" style="fill:rgb(51,51,51);"/>
            </g>
            <g transform="matrix(0,149.458,149.458,0,260.069,566.303)">
                <path d="M0.512,-0.375L0.558,-0.375L0.558,-0.323L0.831,-0.323L0.831,-0.273L0.558,-0.273L0.558,-0.22L0.512,-0.22L0.512,-0.375Z" style="fill:rgb(51,51,51);fill-rule:nonzero;"/>
            </g>
            <g transform="matrix(0,149.458,149.458,0,311.311,566.303)">
                <path d="M0.512,-0.429L0.657,-0.467L0.512,-0.505L0.512,-0.558L0.725,-0.494L0.831,-0.494L0.831,-0.444L0.725,-0.444L0.512,-0.381L0.512,-0.429Z" style="fill:rgb(51,51,51);fill-rule:nonzero;"/>
            </g>
            <g transform="matrix(0,141.087,141.087,0,26.5303,554.697)">
                <path d="M0.271,0.44L0.566,0.44L0.566,0.486L0.455,0.486L0.455,0.508C0.455,0.555 0.43,0.578 0.382,0.578L0.344,0.578C0.297,0.578 0.271,0.555 0.271,0.508L0.271,0.44ZM0.313,0.486L0.313,0.508C0.313,0.523 0.32,0.531 0.341,0.531L0.385,0.531C0.406,0.531 0.413,0.523 0.413,0.508L0.413,0.486L0.313,0.486Z" style="fill:rgb(51,51,51);fill-rule:nonzero;"/>
            </g>
            <g transform="matrix(0,141.087,141.087,0,72.3773,554.697)">
                <path d="M0.271,0.274L0.566,0.274L0.566,0.321L0.446,0.321L0.446,0.337C0.446,0.358 0.456,0.367 0.484,0.367L0.53,0.367C0.554,0.367 0.559,0.369 0.566,0.371L0.566,0.418C0.555,0.414 0.545,0.413 0.53,0.413L0.485,0.413C0.454,0.413 0.432,0.406 0.422,0.383C0.412,0.403 0.392,0.413 0.362,0.413L0.339,0.413C0.293,0.413 0.271,0.392 0.271,0.344L0.271,0.274ZM0.313,0.321L0.313,0.343C0.313,0.359 0.322,0.367 0.343,0.367L0.373,0.367C0.396,0.367 0.404,0.356 0.404,0.339L0.404,0.321L0.313,0.321Z" style="fill:rgb(51,51,51);fill-rule:nonzero;"/>
            </g>
            <g transform="matrix(0,141.087,141.087,0,117.749,554.697)">
                <path d="M0.271,0.122L0.566,0.122L0.566,0.249L0.524,0.249L0.524,0.169L0.438,0.169L0.438,0.232L0.395,0.232L0.395,0.169L0.313,0.169L0.313,0.249L0.271,0.249L0.271,0.122Z" style="fill:rgb(51,51,51);fill-rule:nonzero;"/>
            </g>
            <g transform="matrix(0,141.087,141.087,0,171.099,554.697)">
                <path d="M0.271,0.029L0.481,-0.002L0.271,-0.037L0.271,-0.101L0.566,-0.101L0.566,-0.061L0.357,-0.061L0.566,-0.026L0.566,0.018L0.354,0.05L0.566,0.05L0.566,0.094L0.271,0.094L0.271,0.029Z" style="fill:rgb(51,51,51);fill-rule:nonzero;"/>
            </g>
            <g transform="matrix(141.087,0,0,-141.087,133.325,591.457)">
                <rect x="0.395" y="-0.306" width="0.046" height="0.295" style="fill:rgb(51,51,51);"/>
            </g>
            <g transform="matrix(0,141.087,141.087,0,249.693,554.697)">
                <path d="M0.271,-0.257L0.499,-0.257C0.52,-0.257 0.527,-0.266 0.527,-0.281C0.527,-0.296 0.52,-0.305 0.499,-0.305L0.271,-0.305L0.271,-0.351L0.496,-0.351C0.543,-0.351 0.57,-0.328 0.57,-0.282C0.57,-0.237 0.543,-0.213 0.496,-0.213L0.271,-0.213L0.271,-0.257Z" style="fill:rgb(51,51,51);fill-rule:nonzero;"/>
            </g>
            <g transform="matrix(0,141.087,141.087,0,305.543,554.697)">
                <path d="M0.271,-0.447L0.481,-0.479L0.271,-0.513L0.271,-0.578L0.566,-0.578L0.566,-0.537L0.357,-0.537L0.566,-0.502L0.566,-0.459L0.354,-0.426L0.566,-0.426L0.566,-0.383L0.271,-0.383L0.271,-0.447Z" style="fill:rgb(51,51,51);fill-rule:nonzero;"/>
            </g>
        </g>
    </g>
</svg>
