<?xml version="1.0" encoding="UTF-8" standalone="no"?>
<!-- Generator: Adobe Illustrator 17.0.0, SVG Export Plug-In . SVG Version: 6.00 Build 0)  -->

<svg
   xmlns:dc="http://purl.org/dc/elements/1.1/"
   xmlns:cc="http://creativecommons.org/ns#"
   xmlns:rdf="http://www.w3.org/1999/02/22-rdf-syntax-ns#"
   xmlns:svg="http://www.w3.org/2000/svg"
   xmlns="http://www.w3.org/2000/svg"
   xmlns:sodipodi="http://sodipodi.sourceforge.net/DTD/sodipodi-0.dtd"
   xmlns:inkscape="http://www.inkscape.org/namespaces/inkscape"
   version="1.1"
   id="Layer_1"
   x="0px"
   y="0px"
   width="700"
   height="81.588997"
   viewBox="0 0 700.00002 81.589"
   enable-background="new 0 0 833.686 81.589"
   xml:space="preserve"
   sodipodi:docname="header.svg"
   inkscape:version="0.92.5 (2060ec1f9f, 2020-04-08)"><metadata
   id="metadata168"><rdf:RDF><cc:Work
       rdf:about=""><dc:format>image/svg+xml</dc:format><dc:type
         rdf:resource="http://purl.org/dc/dcmitype/StillImage" /><dc:title></dc:title></cc:Work></rdf:RDF></metadata><defs
   id="defs166" /><sodipodi:namedview
   pagecolor="#ffffff"
   bordercolor="#666666"
   borderopacity="1"
   objecttolerance="10"
   gridtolerance="10"
   guidetolerance="10"
   inkscape:pageopacity="0"
   inkscape:pageshadow="2"
   inkscape:window-width="1848"
   inkscape:window-height="1010"
   id="namedview164"
   showgrid="false"
   inkscape:zoom="2.4445464"
   inkscape:cx="329.0766"
   inkscape:cy="40.794498"
   inkscape:window-x="0"
   inkscape:window-y="34"
   inkscape:window-maximized="1"
   inkscape:current-layer="Layer_1" />
<g
   id="g145"
   transform="translate(0.40907416,0.8181477)">
	<g
   id="g143">
		<path
   d="m 349.257,16.373 c -0.042,-2.885 0.44,-3.852 2.404,-4.44 3.217,-0.962 8.974,0.918 10.711,5.353 -0.63,0.043 -1.214,0.118 -1.799,0.118 -10.438,0.012 -20.875,0.018 -31.313,0.02 -4.236,0.001 -8.473,-0.038 -12.709,0.002 -1.18,0.011 -1.768,-0.361 -2.006,-1.587 -0.574,-2.949 1.083,-4.963 4.292,-4.876 3.771,0.102 6.714,2.07 9.446,4.444 0.399,0.347 0.844,0.64 1.268,0.959 0.066,-0.605 -0.067,-0.953 -0.3,-1.211 -3.658,-4.06 -7.725,-7.046 -13.699,-6.264 -2.977,0.39 -4.998,3.036 -3.849,5.838 0.334,0.815 0.852,1.556 1.482,2.681 -2.055,0 -3.812,0.109 -5.544,-0.052 -0.726,-0.067 -1.607,-0.545 -2.055,-1.119 -1.318,-1.689 -2.454,-3.519 -3.661,-5.294 -1.411,-2.075 -3.365,-2.366 -6.266,-1.62 1.042,0.971 1.831,2.316 2.561,2.285 3.987,-0.169 4.5,3.322 6.8,5.677 -1.182,0.059 -1.826,0.119 -2.471,0.119 -7.675,0.006 -15.35,-0.055 -23.024,0.05 -1.725,0.024 -2.532,-0.586 -3.067,-2.123 -0.46,-1.322 -1.164,-2.563 -1.803,-3.819 -1.434,-2.818 -2.272,-3.149 -5.598,-2.279 0.716,1.928 0.715,1.91 2.438,1.842 0.409,-0.016 1.017,-0.015 1.207,0.23 1.174,1.52 2.255,3.113 3.366,4.681 -2.501,-1.315 -4.576,-2.942 -6.831,-4.263 -0.787,-0.461 -2.015,-0.169 -3.042,-0.221 0.201,0.929 0.403,1.859 0.609,2.807 3.386,-1.047 7.04,0.409 8.069,3.145 -7.339,0 -14.597,0 -21.855,0 -0.108,0.203 -0.216,0.407 -0.324,0.61 1.038,0.886 2.076,1.771 3.546,3.026 -0.943,4.492 2.37,6.809 7.05,8.58 -2.873,1.564 -5.302,2.886 -7.772,4.23 0.285,1.306 0.786,1.747 2.04,1.043 2.487,-1.396 5.029,-2.694 7.875,-4.207 -0.354,2.719 1.026,3.806 3.327,4.508 0,-3.926 -0.046,-7.65 0.012,-11.373 0.066,-4.239 -0.903,-3.66 3.806,-3.774 1.435,-0.035 1.76,0.568 1.73,1.868 -0.071,3.13 -0.024,6.262 -0.023,9.393 0,2.301 0.523,2.947 3.147,3.689 0.036,-0.692 0.098,-1.336 0.099,-1.98 0.008,-3.807 -0.03,-7.614 0.04,-11.419 0.009,-0.504 0.524,-1.423 0.83,-1.433 3.065,-0.104 6.136,-0.074 9.205,-0.028 0.259,0.004 0.512,0.401 0.768,0.615 -0.27,0.269 -0.513,0.723 -0.817,0.77 -0.781,0.12 -1.648,-0.122 -2.374,0.111 -1.084,0.349 -2.444,0.741 -2.99,1.573 -0.413,0.629 -0.009,2.148 0.516,2.957 0.752,1.162 1.52,1.994 0.883,3.6 -0.275,0.695 0.391,2.084 1.042,2.762 1.679,1.749 3.828,2.739 6.312,2.212 1.223,-0.26 2.373,-1.378 3.523,-1.328 1.108,0.048 2.172,1.1 3.533,1.867 0.065,-0.894 0.142,-1.478 0.144,-2.062 0.012,-3.131 0.005,-6.263 0.005,-9.394 0,-3.909 -0.001,-3.871 3.969,-3.774 1.165,0.029 1.635,0.364 1.608,1.594 -0.069,3.13 -0.022,6.262 -0.023,9.393 -10e-4,2.632 0.327,3.073 3.203,4.077 0,-3.676 0,-7.277 0,-10.877 0,-4.379 -0.001,-4.348 4.318,-4.184 1.091,0.041 1.491,0.35 1.463,1.503 -0.079,3.252 -0.031,6.508 -0.032,9.762 -10e-4,2.324 0.582,3.014 3.295,3.707 0,-4.081 -0.015,-8.112 0.005,-12.142 0.014,-2.892 -0.492,-2.807 2.727,-2.811 3.536,-0.004 3.508,-0.003 3.518,3.499 0.003,0.928 -0.094,1.484 -1.22,1.574 -1.536,0.124 -1.713,1.09 -0.876,2.167 0.743,0.956 1.637,1.816 2.565,2.598 0.422,0.356 1.086,0.423 1.641,0.621 0.195,-0.554 0.54,-1.102 0.559,-1.662 0.068,-2.024 0.028,-4.051 0.027,-6.078 -0.002,-2.746 -0.003,-2.746 2.826,-2.72 0.184,0.002 0.37,0.018 0.552,0 1.127,-0.114 1.489,0.395 1.467,1.506 -0.059,3.069 -0.02,6.139 -0.02,9.209 0,2.964 0.176,3.215 3.202,4.377 0.029,-0.637 0.077,-1.23 0.078,-1.823 0.004,-3.929 0.013,-7.859 -0.016,-11.788 -0.006,-0.815 0.003,-1.479 1.085,-1.475 3.807,0.015 7.613,-0.008 11.419,0.035 0.33,0.004 0.926,0.375 0.94,0.604 0.087,1.424 0.044,2.855 0.044,4.674 -1.241,-1.04 -2.014,-1.827 -2.917,-2.416 -1.765,-1.151 -4.001,-0.748 -5.461,0.867 -1.259,1.393 -1.383,3.451 -0.116,5.063 2.162,2.753 4.272,4.194 7.515,2.315 0.189,-0.109 0.42,-0.145 0.848,-0.286 -0.182,2.538 1.177,3.619 3.449,4.166 0,-1.994 -0.038,-3.828 0.011,-5.661 0.047,-1.746 1.456,-2.35 2.764,-2.807 0.635,-0.222 2.114,0.113 2.119,0.24 0.043,1.083 -0.157,2.177 -0.302,3.266 -0.023,0.177 -0.118,0.349 -0.199,0.513 -1.222,2.475 -0.972,2.996 1.893,3.837 1.495,-2.599 2.353,-5.205 0.643,-8.109 -1.576,-2.677 -3.828,-3.214 -6.765,-2.072 -0.071,-0.829 -0.082,-1.364 -0.169,-1.887 -0.3,-1.818 0.332,-2.518 2.274,-2.392 2.69,0.174 5.402,0.103 8.101,0.02 1.394,-0.043 1.953,0.323 1.899,1.845 -0.117,3.311 -0.036,6.63 -0.036,9.945 0,2.604 0.395,3.025 3.268,3.321 0,-0.618 0,-1.221 0,-1.825 -10e-4,-3.868 0.057,-7.738 -0.036,-11.603 -0.032,-1.327 0.4,-1.768 1.665,-1.675 0.671,0.05 1.354,-0.079 2.032,-0.128 0.076,-0.188 0.152,-0.377 0.228,-0.565 -0.775,-0.665 -1.618,-1.956 -2.312,-1.879 -2.19,0.241 -3.239,-0.897 -4.197,-2.482 -0.283,-0.468 -0.657,-0.891 -1.038,-1.288 -2.669,-2.781 -5.718,-4.842 -9.757,-4.793 -2.331,0.028 -4.397,1.571 -4.907,3.49 -0.516,1.934 0.544,3.858 2.285,3.915 z M 488.075,31.01 c -0.203,2.436 0.942,3.572 3.167,4.056 0.041,-0.728 0.101,-1.314 0.103,-1.901 0.01,-3.008 -0.044,-6.018 0.016,-9.025 0.091,-4.586 -0.997,-3.937 4.103,-4.03 1.17,-0.021 1.624,0.342 1.596,1.578 -0.075,3.314 -0.03,6.63 -0.027,9.945 0.002,2.074 0.801,2.941 3.265,3.305 0,-0.687 0,-1.337 0,-1.987 -10e-4,-3.745 0.011,-7.49 -0.012,-11.235 -0.005,-0.886 0.056,-1.597 1.215,-1.59 3.192,0.019 6.385,-0.017 9.577,0.038 0.35,0.006 0.693,0.461 1.04,0.708 -0.346,0.255 -0.674,0.696 -1.04,0.73 -1.096,0.101 -2.254,-0.149 -3.298,0.106 -0.921,0.225 -2.186,0.77 -2.455,1.489 -0.31,0.83 0.195,2.049 0.572,3.011 0.159,0.407 0.895,0.588 1.265,0.81 -2.523,4.02 -2.35,6.284 0.791,8.492 1.716,1.206 3.812,1.882 5.768,2.725 0.245,0.106 0.681,-0.23 1.028,-0.361 -0.216,-0.302 -0.366,-0.741 -0.659,-0.883 -1.48,-0.716 -3.097,-1.196 -4.477,-2.059 -1.946,-1.218 -2.237,-3.649 -0.546,-5.187 0.98,-0.891 2.392,-1.417 3.7,-1.806 1.208,-0.359 1.781,0.514 1.401,1.606 -0.348,0.999 -1.042,1.878 -1.598,2.835 1.233,1.909 2.245,1.982 3.375,0.036 0.392,-0.676 0.552,-1.669 0.407,-2.44 -0.536,-2.856 -3.907,-4.677 -6.663,-3.792 -0.515,0.165 -1.155,0.104 -1.684,-0.044 -0.157,-0.044 -0.312,-0.968 -0.154,-1.095 0.432,-0.344 1.025,-0.643 1.566,-0.665 1.94,-0.076 3.885,-0.03 5.83,-0.03 0.157,-1.521 -0.158,-3.268 0.534,-3.883 0.747,-0.664 2.435,-0.269 3.713,-0.34 1.026,-0.057 1.367,0.394 1.347,1.437 -0.066,3.314 -0.034,6.63 -0.034,9.945 0,2.205 0.705,3 3.232,3.485 0,-0.631 0,-1.23 0,-1.829 0,-3.684 0.061,-7.369 -0.031,-11.05 -0.037,-1.476 0.333,-2.095 1.923,-2.024 2.573,0.116 5.156,-0.002 7.734,0.051 0.749,0.016 1.895,-0.437 1.949,0.975 0.044,1.153 -0.126,2.215 -1.538,2.564 -0.888,0.22 -1.785,0.487 -2.605,0.884 -2.201,1.066 -3.479,3.25 -3.015,5.156 0.806,3.312 3.245,4.916 6.307,5.752 2.753,0.752 4.804,-0.629 6.943,-2.352 -0.696,-0.824 -1.27,-1.504 -1.561,-1.849 -2.293,0.583 -4.255,1.339 -6.27,1.527 -2.307,0.216 -3.483,-1.961 -2.398,-4.019 1.055,-2.002 2.922,-2.722 4.989,-2.974 1.31,-0.16 1.997,-0.703 2.091,-2.051 0.254,-3.642 0.272,-3.641 3.939,-3.634 0.368,0.001 0.738,0.026 1.105,0 1.138,-0.08 1.422,0.414 1.39,1.543 -0.096,3.374 -0.05,6.752 -0.046,10.129 0.002,1.939 0.821,2.779 3.173,3.127 0.027,-0.608 0.074,-1.198 0.075,-1.787 0.007,-3.315 0.004,-6.631 0.003,-9.946 -0.002,-2.937 -0.003,-2.932 3.005,-3.076 0.28,-0.013 0.555,-0.148 0.829,-0.225 -0.466,-1.909 -1.533,-2.807 -3.464,-2.482 -1.038,0.175 -1.496,-0.294 -1.771,-1.324 -0.684,-2.56 -1.939,-4.794 -4.426,-6.038 -2.328,-1.164 -5.04,0.238 -5.52,2.784 -0.31,1.644 0.857,3.033 2.335,2.781 0.101,-2.197 0.974,-3.321 2.527,-3.255 1.846,0.079 3.577,2.491 3.458,5.108 -29.092,0 -58.197,0 -87.393,0 0.834,2.454 0.978,2.668 2.901,2.632 1.419,-0.027 1.874,0.516 1.695,1.853 -0.081,0.603 -0.055,1.23 0.005,1.839 0.089,0.915 -0.221,1.32 -1.194,1.405 -1.497,0.131 -1.784,1.045 -0.919,2.147 0.784,0.999 1.7,1.939 2.708,2.706 1.42,1.081 2.065,0.733 2.109,-1.069 0.058,-2.332 0.114,-4.671 -0.021,-6.997 -0.088,-1.515 0.463,-2.02 1.879,-1.86 0.424,0.048 0.864,0.051 1.287,-0.001 1.416,-0.174 1.783,0.483 1.746,1.817 -0.084,3.006 0.165,6.032 -0.086,9.019 -0.207,2.465 0.979,3.553 3.177,4.329 0.036,-0.671 0.095,-1.262 0.096,-1.852 0.008,-3.929 0.018,-7.859 -0.01,-11.788 -0.007,-0.907 0.076,-1.54 1.24,-1.529 4.174,0.039 8.35,-0.01 12.524,0.06 0.423,0.007 1.135,0.548 1.195,0.924 0.166,1.036 0.057,2.116 0.057,3.178 -0.171,0.053 -0.342,0.105 -0.513,0.158 -0.425,-0.392 -0.829,-0.811 -1.279,-1.173 -2.908,-2.335 -6.213,-2.129 -8.094,0.491 -1.294,1.803 -1.125,3.952 0.466,5.905 2.308,2.834 4.55,3.764 6.731,2.75 0.801,-0.375 1.568,-0.838 2.599,-1.394 z M 144.936,20.13 c 1.643,0 2.986,0.021 4.329,-0.007 1.064,-0.022 1.304,0.474 1.283,1.485 -0.071,3.437 -0.044,6.877 -0.036,10.316 0.005,1.856 1.073,2.85 3.074,2.911 0.044,-0.113 0.126,-0.226 0.127,-0.339 0.018,-4.175 0.106,-8.353 0,-12.525 -0.039,-1.527 0.489,-1.956 1.889,-1.865 1.223,0.08 2.455,0.01 3.684,0.018 1.027,0.006 2.205,-0.227 2.446,1.265 0.24,1.487 -0.592,2.31 -1.874,2.755 -0.716,0.248 -1.473,0.375 -2.258,0.568 0.994,2.838 2.292,5.205 4.742,6.794 2.064,1.338 3.945,0.236 6.117,-0.705 -0.537,2.865 1.095,3.713 3.213,4.473 0,-4.301 0,-8.408 0,-12.514 0,-2.597 0.001,-2.59 2.526,-2.643 0.507,-0.011 1.012,-0.096 1.423,-0.138 -0.384,-2.399 -1.896,-2.634 -3.81,-2.603 -5.71,0.093 -11.423,-0.028 -17.132,0.075 -1.52,0.027 -2.15,-0.452 -2.522,-1.887 -0.619,-2.39 -1.947,-4.373 -4.224,-5.52 -2.332,-1.175 -5.058,0.237 -5.505,2.782 -0.305,1.736 0.782,3.042 2.344,2.816 0.064,-2.249 0.882,-3.34 2.466,-3.289 1.843,0.059 3.563,2.408 3.538,5.139 -16.689,0 -33.383,0 -50.077,0 -0.094,0.231 -0.188,0.461 -0.282,0.692 0.92,0.646 1.774,1.694 2.773,1.858 2.499,0.411 2.525,0.25 2.526,2.708 0,0.307 0.003,0.614 0,0.921 -0.032,3.211 0.371,2.88 -2.822,2.884 -2.713,0.004 -2.465,0.115 -2.283,-2.393 0.214,-2.953 -0.636,-5.312 -3.268,-6.867 -1.658,-0.979 -3.111,-0.823 -4.33,0.462 -1.137,1.199 -1.394,3.01 -0.226,4.35 0.968,1.11 2.359,1.848 3.545,2.773 0.351,0.274 0.642,0.626 0.96,0.942 -0.349,0.248 -0.664,0.604 -1.053,0.724 -1.449,0.451 -1.828,1.38 -0.818,2.567 0.783,0.921 1.713,1.757 2.703,2.453 1.349,0.948 2.092,0.57 2.416,-1.026 0.08,-0.396 0.219,-1.104 0.363,-1.112 1.456,-0.082 2.938,-0.173 4.361,0.061 0.27,0.044 0.403,1.499 0.432,2.309 0.07,1.96 0.786,2.753 3.186,3.121 0,-3.632 0,-7.235 0,-10.839 0,-4.09 -0.001,-4.039 4.122,-3.985 1.324,0.017 1.639,0.47 1.602,1.736 -0.095,3.252 -0.036,6.509 -0.034,9.763 10e-4,2.13 0.711,2.918 3.161,3.345 0.031,-0.61 0.086,-1.197 0.088,-1.784 0.009,-3.071 0.004,-6.141 0.004,-9.212 0,-3.82 10e-4,-3.867 3.778,-3.808 4.233,0.066 3.514,-0.89 3.529,3.955 0,0.061 -0.007,0.123 -0.013,0.184 -0.086,0.905 -0.441,1.255 -1.46,1.067 -0.601,-0.111 -1.515,0.108 -1.88,0.531 -0.263,0.305 -0.052,1.342 0.289,1.792 2.039,2.686 4.155,5.314 6.293,7.922 0.842,1.027 1.427,0.314 2.268,-0.743 -1.366,-1.251 -2.704,-2.503 -4.074,-3.719 -0.703,-0.624 -0.829,-1.178 0.003,-1.776 1.511,-1.085 1.823,-2.673 1.824,-4.388 0.001,-1.167 -0.124,-2.354 0.062,-3.491 0.082,-0.5 0.786,-1.267 1.226,-1.28 3.62,-0.103 7.245,-0.089 10.867,-0.01 0.391,0.009 0.769,0.655 1.153,1.005 -0.373,0.358 -0.714,0.972 -1.126,1.024 -1.149,0.145 -2.329,0.023 -3.494,0.069 -1.943,0.078 -3.655,1.333 -4.064,2.92 -0.677,2.629 2.076,8.125 5.074,9.474 -0.27,-0.774 -0.376,-1.281 -0.615,-1.717 -0.38,-0.696 -1.048,-1.293 -1.233,-2.023 -0.309,-1.218 -0.543,-2.529 -0.422,-3.763 0.155,-1.581 1.435,-2.055 4.103,-2.111 1.327,-0.028 1.919,0.303 1.806,1.74 -0.115,1.465 -0.025,2.946 -0.026,4.42 -0.001,2.506 0.514,3.158 3.243,3.921 0,-4.931 0,-9.816 0,-15.008 z m 307.833,-0.212 c -0.511,-1.811 -1.428,-2.584 -3.411,-2.561 -9.638,0.114 -19.278,0.05 -28.917,0.055 -0.632,0 -1.264,0.053 -2.088,0.09 0.436,0.807 0.59,1.596 1.032,1.824 2.299,1.183 1.543,3.254 1.559,5.06 0.008,0.939 -0.057,2.048 -0.538,2.788 -1.41,2.171 -3.598,3.319 -6.138,3.581 -0.7,0.072 -1.469,-0.537 -2.36,-0.894 1.976,-1.564 3.715,-2.645 5.075,-4.083 2.234,-2.364 1.567,-5.706 -1.351,-7.96 -2.482,-1.917 -4.625,-1.521 -6.7,1.226 -0.054,0.071 -0.223,0.056 -0.557,0.129 -0.63,-2.17 -2.459,-1.769 -4.149,-1.767 -9.394,0.007 -18.787,0.003 -28.181,0.003 -0.639,0 -1.277,0 -2.02,0 0.541,2.087 1.554,2.973 3.509,2.76 0.592,-0.065 1.733,0.333 1.78,0.646 0.201,1.327 0.085,2.702 0.085,3.721 -1.235,0.199 -2.451,0.065 -2.754,0.528 -0.378,0.578 -0.101,1.669 0.076,2.499 0.122,0.573 0.48,1.139 0.86,1.605 1.743,2.138 3.499,4.267 5.336,6.323 0.262,0.293 0.994,0.166 1.508,0.233 0.043,-0.195 0.085,-0.39 0.128,-0.584 -1.483,-1.588 -2.965,-3.177 -4.432,-4.748 0.963,-1.077 1.761,-1.969 2.639,-2.951 1.798,1.455 3.814,1.282 5.954,0.398 0.685,2.763 -1.165,6.477 3.44,7.302 0,-3.272 0,-6.507 0,-9.741 0,-5.584 0,-5.584 5.588,-5.271 0.245,0.014 0.537,-0.047 0.723,0.065 0.277,0.167 0.674,0.449 0.684,0.696 0.062,1.547 0.031,3.098 0.031,4.337 -1.289,0.19 -2.125,0.313 -2.96,0.436 0.122,0.799 0.202,1.607 0.386,2.391 0.079,0.338 0.344,0.652 0.578,0.931 1.853,2.204 3.686,4.428 5.62,6.56 0.278,0.306 1.065,0.151 1.617,0.209 0.048,-0.197 0.097,-0.394 0.145,-0.591 -1.53,-1.62 -3.06,-3.241 -4.573,-4.843 0.897,-1.005 1.66,-1.86 2.492,-2.791 1.562,1.037 3.193,2.695 5.186,1.17 0.671,-0.513 0.658,-1.918 0.958,-2.916 -0.185,-0.075 -0.371,-0.15 -0.556,-0.224 -0.468,0.252 -0.918,0.545 -1.406,0.747 -1.301,0.537 -3.92,0.139 -4.047,-0.77 -0.231,-1.654 -0.043,-3.368 0.002,-5.057 0.002,-0.085 0.299,-0.232 0.459,-0.233 1.655,-0.011 3.347,-0.188 4.946,0.117 0.527,0.101 0.71,1.544 1.236,2.231 0.698,0.911 1.57,1.69 2.384,2.509 0.28,0.281 0.611,0.511 1.265,1.05 -1.479,0.539 -2.627,0.957 -3.862,1.408 0.824,2.025 2.233,3.412 3.981,4.482 2.774,1.698 5.273,0.364 8.005,-1.1 -0.457,2.497 0.698,3.562 2.861,4.15 0.05,-0.737 0.121,-1.318 0.123,-1.9 0.011,-3.07 -0.036,-6.14 0.014,-9.209 0.072,-4.398 -0.855,-3.747 3.898,-3.885 1.529,-0.045 1.861,0.565 1.822,1.949 -0.085,3.006 -0.026,6.016 -0.027,9.024 0,2.636 0.451,3.218 3.335,4.088 0,-4.987 0,-9.917 0,-15.033 3.143,0 6.081,-0.019 9.018,0.005 4.386,0.036 3.396,-0.465 3.583,3.618 0.048,1.039 -0.332,1.448 -1.364,1.423 -1.657,-0.04 -3.315,-0.018 -4.973,-0.005 -2.217,0.017 -2.926,1.235 -1.811,3.181 0.33,0.575 0.784,1.111 1.283,1.549 0.384,0.338 0.964,0.724 1.387,0.656 0.309,-0.05 0.685,-0.795 0.712,-1.248 0.067,-1.139 0.636,-1.41 1.667,-1.445 3.076,-0.102 3.074,-0.136 3.072,3.013 0,0.246 -0.001,0.491 0,0.737 0.008,2.16 0.614,2.841 3.127,3.355 0.04,-0.605 0.11,-1.194 0.112,-1.784 0.011,-3.193 0.005,-6.385 0.004,-9.578 0,-3.253 0,-3.25 3.171,-3.488 0.23,-0.022 0.45,-0.123 0.719,-0.198 z m -217.814,15.12 c 0,-3.648 0,-7.251 0,-10.854 0,-4.292 -0.001,-4.257 4.255,-4.081 1.116,0.046 1.492,0.422 1.474,1.531 -0.054,3.375 -0.027,6.751 -0.017,10.127 0.005,1.954 0.802,2.79 3.151,3.177 0.033,-0.672 0.089,-1.322 0.091,-1.972 0.009,-3.192 0.004,-6.384 0.004,-9.576 -0.001,-3.072 -0.001,-3.067 2.987,-3.278 0.284,-0.02 0.561,-0.139 0.942,-0.238 -0.702,-1.329 -1.087,-2.517 -3.002,-2.51 -20.931,0.073 -41.862,0.045 -62.793,0.053 -0.499,0 -0.998,0.1 -1.501,0.154 0.588,2.125 1.807,2.847 3.764,2.602 0.491,-0.062 1.475,0.414 1.516,0.735 0.173,1.343 0.073,2.72 0.073,3.934 -1.194,0 -2.562,-0.189 -2.632,0.034 -0.265,0.839 -0.27,1.85 -0.062,2.722 0.175,0.734 0.714,1.421 1.209,2.033 1.505,1.856 3.034,3.696 4.634,5.47 0.345,0.383 1.026,0.463 1.552,0.682 -0.148,-0.551 -0.138,-1.236 -0.473,-1.627 -1.136,-1.327 -2.394,-2.549 -3.593,-3.799 0.98,-1.04 1.797,-1.907 2.244,-2.382 2.339,0.176 4.343,0.327 6.573,0.495 0.466,2.218 -1.267,5.831 3.213,6.619 0.032,-0.651 0.086,-1.242 0.087,-1.833 0.008,-3.621 0.133,-7.25 -0.048,-10.862 -0.1,-1.981 0.621,-2.359 2.398,-2.306 3.925,0.117 7.856,0.036 11.784,0.036 3.173,0 2.941,0.027 3.296,3.186 0.409,3.638 -1.363,5.721 -4.325,7.035 -0.813,0.361 -2.524,0.251 -2.876,-0.275 -0.509,-0.763 -0.572,-2.389 -0.065,-3.12 0.626,-0.903 1.99,-1.37 3.117,-1.82 0.656,-0.262 1.473,-0.122 2.271,-0.166 -0.606,-2.136 -1.75,-2.951 -3.733,-2.723 -1.333,0.153 -2.697,0.029 -4.048,0.029 -1.254,0 -2.507,0 -3.825,0 0.401,2.174 1.51,3.054 3.493,2.962 -1.368,3.189 0.333,5.092 2.454,6.757 2.525,1.982 4.837,0.042 7.381,-0.725 -0.151,2.321 1.098,3.316 3.218,3.843 0.044,-0.766 0.111,-1.412 0.112,-2.057 0.008,-3.806 0.039,-7.612 -0.026,-11.417 -0.019,-1.127 0.346,-1.539 1.461,-1.519 2.454,0.045 4.91,0.011 7.365,0.01 3.711,-10e-4 3.673,-10e-4 3.619,3.737 -0.014,0.967 -0.303,1.329 -1.253,1.308 -1.656,-0.036 -3.318,-0.074 -4.97,0.024 -0.731,0.043 -1.973,0.294 -2.056,0.662 -0.192,0.845 0.093,1.846 0.365,2.729 0.15,0.487 0.601,0.943 1.028,1.265 0.451,0.34 1.037,0.676 1.559,0.667 0.231,-0.004 0.428,-0.869 0.679,-1.323 0.242,-0.438 0.442,-1.096 0.816,-1.233 2.484,-0.909 3.798,0.055 3.792,2.674 -10e-4,0.246 0,0.491 0,0.737 -0.002,2.296 0.639,3.041 3.321,3.667 z m 226.561,2.512 c -0.223,0.195 -0.446,0.391 -0.669,0.586 0.651,0.789 1.225,1.662 1.968,2.352 2.646,2.456 5.618,4.18 9.422,3.549 1.925,-0.319 3.468,-1.821 3.669,-3.392 0.211,-1.654 -1.08,-3.453 -3.025,-4.386 -1.832,-0.879 -3.127,-0.056 -4.548,1.216 0.572,0.609 1.051,1.12 1.512,1.611 0.732,-0.407 1.285,-0.907 1.902,-1.005 0.632,-0.1 1.614,-0.024 1.915,0.374 0.305,0.403 0.221,1.57 -0.148,1.916 -0.795,0.745 -1.831,1.522 -2.859,1.674 -3.166,0.468 -5.656,-1.072 -7.833,-3.211 -0.434,-0.429 -0.87,-0.856 -1.306,-1.284 z m -255.41,7.291 c 0.188,-0.233 0.377,-0.466 0.565,-0.699 -2.262,-3.151 -4.516,-6.332 -8.281,-7.953 -1.84,-0.792 -3.763,0.236 -4.29,2.151 -0.553,2.005 0.398,4.376 2.22,5.375 1.218,0.668 2.519,0.776 3.577,-0.227 0.422,-0.4 0.471,-1.194 0.69,-1.808 -0.56,0.031 -1.12,0.09 -1.679,0.087 -0.98,-0.005 -2.134,0.248 -2.872,-0.188 -0.429,-0.254 -0.503,-1.783 -0.181,-2.483 0.57,-1.237 1.768,-1.548 3.124,-1.034 2.684,1.016 4.258,3.177 5.775,5.43 0.348,0.517 0.896,0.902 1.352,1.349 z M 390.464,16.357 c 0.892,-0.818 1.599,-1.466 2.352,-2.157 -0.698,-0.818 -1.349,-1.581 -2.112,-2.475 -0.848,1.029 -1.45,1.76 -2.073,2.516 0.653,0.754 1.205,1.391 1.833,2.116 z"
   id="path109"
   inkscape:connector-curvature="0"
   style="fill:#ffffff" />
		<path
   d="m 349.257,16.373 c -1.741,-0.057 -2.801,-1.981 -2.288,-3.911 0.51,-1.92 2.576,-3.462 4.907,-3.49 4.039,-0.049 7.088,2.013 9.757,4.793 0.381,0.397 0.755,0.82 1.038,1.288 0.958,1.584 2.006,2.723 4.197,2.482 0.693,-0.076 1.537,1.214 2.312,1.879 -0.076,0.188 -0.152,0.377 -0.228,0.565 -0.678,0.048 -1.361,0.177 -2.032,0.128 -1.265,-0.094 -1.697,0.348 -1.665,1.675 0.094,3.866 0.035,7.735 0.036,11.603 0,0.604 0,1.208 0,1.825 -2.874,-0.296 -3.269,-0.717 -3.268,-3.321 0,-3.316 -0.081,-6.634 0.036,-9.945 0.054,-1.522 -0.505,-1.888 -1.899,-1.845 -2.699,0.083 -5.411,0.154 -8.101,-0.02 -1.942,-0.125 -2.573,0.574 -2.274,2.392 0.086,0.523 0.097,1.058 0.169,1.887 2.937,-1.142 5.189,-0.605 6.765,2.072 1.71,2.904 0.852,5.51 -0.643,8.109 -2.865,-0.84 -3.114,-1.362 -1.893,-3.837 0.081,-0.165 0.176,-0.336 0.199,-0.513 0.145,-1.089 0.345,-2.183 0.302,-3.266 -0.005,-0.127 -1.484,-0.462 -2.119,-0.24 -1.308,0.457 -2.717,1.061 -2.764,2.807 -0.049,1.832 -0.011,3.667 -0.011,5.661 -2.271,-0.547 -3.63,-1.628 -3.449,-4.166 -0.427,0.141 -0.659,0.177 -0.848,0.286 -3.243,1.879 -5.353,0.437 -7.515,-2.315 -1.267,-1.613 -1.143,-3.671 0.116,-5.063 1.46,-1.615 3.696,-2.018 5.461,-0.867 0.903,0.589 1.677,1.376 2.917,2.416 0,-1.818 0.043,-3.25 -0.044,-4.674 -0.014,-0.229 -0.61,-0.6 -0.94,-0.604 -3.806,-0.044 -7.613,-0.021 -11.419,-0.035 -1.082,-0.004 -1.091,0.66 -1.085,1.475 0.029,3.929 0.02,7.859 0.016,11.788 -10e-4,0.593 -0.049,1.185 -0.078,1.823 -3.026,-1.162 -3.202,-1.413 -3.202,-4.377 0,-3.07 -0.039,-6.141 0.02,-9.209 0.022,-1.112 -0.34,-1.62 -1.467,-1.506 -0.182,0.018 -0.368,0.002 -0.552,0 -2.829,-0.025 -2.828,-0.026 -2.826,2.72 0.002,2.026 0.042,4.054 -0.027,6.078 -0.019,0.56 -0.364,1.108 -0.559,1.662 -0.554,-0.198 -1.219,-0.265 -1.641,-0.621 -0.928,-0.783 -1.822,-1.642 -2.565,-2.598 -0.837,-1.077 -0.66,-2.043 0.876,-2.167 1.126,-0.091 1.223,-0.646 1.22,-1.574 -0.01,-3.502 0.018,-3.503 -3.518,-3.499 -3.218,0.004 -2.712,-0.081 -2.727,2.811 -0.02,4.031 -0.005,8.061 -0.005,12.142 -2.713,-0.693 -3.296,-1.384 -3.295,-3.707 10e-4,-3.254 -0.047,-6.509 0.032,-9.762 0.028,-1.153 -0.372,-1.462 -1.463,-1.503 -4.32,-0.164 -4.318,-0.195 -4.318,4.184 0,3.601 0,7.201 0,10.877 -2.876,-1.004 -3.204,-1.446 -3.203,-4.077 10e-4,-3.131 -0.046,-6.264 0.023,-9.393 0.027,-1.23 -0.442,-1.565 -1.608,-1.594 -3.97,-0.097 -3.969,-0.135 -3.969,3.774 0,3.131 0.007,6.263 -0.005,9.394 -0.002,0.584 -0.079,1.168 -0.144,2.062 -1.361,-0.767 -2.425,-1.819 -3.533,-1.867 -1.149,-0.05 -2.299,1.068 -3.523,1.328 -2.483,0.527 -4.633,-0.462 -6.312,-2.212 -0.651,-0.678 -1.317,-2.067 -1.042,-2.762 0.637,-1.606 -0.131,-2.438 -0.883,-3.6 -0.524,-0.81 -0.929,-2.328 -0.516,-2.957 0.546,-0.831 1.905,-1.224 2.99,-1.573 0.726,-0.234 1.593,0.008 2.374,-0.111 0.304,-0.047 0.547,-0.501 0.817,-0.77 -0.256,-0.214 -0.509,-0.611 -0.768,-0.615 -3.068,-0.047 -6.139,-0.077 -9.205,0.028 -0.305,0.01 -0.82,0.929 -0.83,1.433 -0.069,3.805 -0.032,7.613 -0.04,11.419 -0.001,0.644 -0.063,1.288 -0.099,1.98 -2.624,-0.741 -3.146,-1.387 -3.147,-3.689 -10e-4,-3.131 -0.048,-6.264 0.023,-9.393 0.03,-1.3 -0.295,-1.903 -1.73,-1.868 -4.709,0.115 -3.74,-0.465 -3.806,3.774 -0.058,3.723 -0.012,7.447 -0.012,11.373 -2.301,-0.702 -3.681,-1.789 -3.327,-4.508 -2.846,1.512 -5.388,2.811 -7.875,4.207 -1.254,0.704 -1.754,0.263 -2.04,-1.043 2.47,-1.344 4.898,-2.666 7.772,-4.23 -4.68,-1.772 -7.993,-4.089 -7.05,-8.58 -1.47,-1.254 -2.508,-2.14 -3.546,-3.026 0.108,-0.203 0.216,-0.407 0.324,-0.61 7.258,0 14.515,0 21.855,0 -1.029,-2.736 -4.683,-4.192 -8.069,-3.145 -0.206,-0.948 -0.407,-1.877 -0.609,-2.807 1.027,0.052 2.255,-0.24 3.042,0.221 2.255,1.321 4.33,2.948 6.831,4.263 -1.112,-1.568 -2.192,-3.161 -3.366,-4.681 -0.19,-0.246 -0.797,-0.246 -1.207,-0.23 -1.722,0.067 -1.722,0.085 -2.438,-1.842 3.325,-0.87 4.164,-0.539 5.598,2.279 0.639,1.255 1.342,2.497 1.803,3.819 0.535,1.536 1.342,2.146 3.067,2.123 7.673,-0.105 15.349,-0.043 23.024,-0.05 0.644,-0.001 1.289,-0.06 2.471,-0.119 -2.299,-2.356 -2.813,-5.847 -6.8,-5.677 -0.73,0.031 -1.518,-1.313 -2.561,-2.285 2.9,-0.747 4.855,-0.455 6.266,1.62 1.207,1.775 2.344,3.605 3.661,5.294 0.448,0.574 1.329,1.052 2.055,1.119 1.732,0.161 3.49,0.052 5.544,0.052 -0.63,-1.125 -1.147,-1.865 -1.482,-2.681 -1.148,-2.802 0.873,-5.448 3.849,-5.838 5.974,-0.782 10.041,2.204 13.699,6.264 0.233,0.258 0.366,0.607 0.3,1.211 -0.424,-0.318 -0.869,-0.612 -1.268,-0.959 -2.732,-2.374 -5.675,-4.342 -9.446,-4.444 -3.209,-0.087 -4.866,1.927 -4.292,4.876 0.239,1.226 0.826,1.598 2.006,1.587 4.236,-0.04 8.473,-0.001 12.709,-0.002 10.438,-0.002 20.875,-0.007 31.313,-0.02 0.584,-0.001 1.168,-0.075 1.799,-0.118 -1.737,-4.434 -7.494,-6.315 -10.711,-5.353 -1.961,0.584 -2.443,1.551 -2.401,4.436 z m -58.524,12.585 c -1.517,0.381 -2.995,0.553 -4.289,1.133 -1.255,0.562 -1.256,1.608 -0.121,2.199 1.958,1.02 3.974,0.762 5.8,-0.304 1.54,-0.899 2.928,-1.998 2.8,-4.162 -0.116,-1.956 -0.107,-3.93 0.003,-5.887 0.078,-1.393 -0.413,-1.765 -1.772,-1.795 -1.836,-0.04 -1.624,1.133 -1.506,2.196 0.178,1.603 -0.363,2.267 -2.027,2.08 -1.09,-0.123 -2.219,-0.126 -3.306,0.015 -0.714,0.092 -1.464,0.432 -2.027,0.877 -0.191,0.151 0.009,1.307 0.263,1.407 0.592,0.231 1.364,0.25 1.995,0.089 2.805,-0.715 3.297,-0.497 4.187,2.152 z M 265.238,28.47 c 0.098,-0.226 0.185,-0.334 0.186,-0.442 0.014,-1.708 0.036,-3.416 0.018,-5.123 -0.03,-2.9 0.502,-2.731 -2.747,-2.713 -3.49,0.019 -3.045,-0.451 -3.042,3.17 0.003,3.26 2.172,5.23 5.585,5.108 z m 76.814,1.539 c 1.709,-1.169 2.991,-2.046 4.273,-2.922 -1.09,-0.657 -2.107,-1.593 -3.288,-1.899 -1.349,-0.349 -3.092,1.157 -2.853,2.357 0.156,0.775 1.03,1.406 1.868,2.464 z"
   id="path111"
   inkscape:connector-curvature="0"
   style="fill:#003366" />
		<path
   d="m 488.075,31.01 c -1.031,0.556 -1.798,1.02 -2.605,1.395 -2.182,1.014 -4.423,0.084 -6.731,-2.75 -1.591,-1.953 -1.76,-4.102 -0.466,-5.905 1.881,-2.62 5.186,-2.827 8.094,-0.491 0.45,0.361 0.854,0.78 1.279,1.173 0.171,-0.053 0.342,-0.105 0.513,-0.158 0,-1.062 0.109,-2.142 -0.057,-3.178 -0.06,-0.376 -0.773,-0.917 -1.195,-0.924 -4.174,-0.07 -8.349,-0.022 -12.524,-0.06 -1.165,-0.011 -1.247,0.622 -1.24,1.529 0.028,3.929 0.017,7.858 0.01,11.788 -0.001,0.591 -0.06,1.181 -0.096,1.852 -2.198,-0.776 -3.384,-1.864 -3.177,-4.329 0.251,-2.987 0.002,-6.013 0.086,-9.019 0.037,-1.335 -0.33,-1.991 -1.746,-1.817 -0.423,0.052 -0.863,0.049 -1.287,0.001 -1.416,-0.16 -1.967,0.345 -1.879,1.86 0.135,2.325 0.079,4.665 0.021,6.997 -0.045,1.803 -0.689,2.15 -2.109,1.069 -1.009,-0.768 -1.924,-1.707 -2.708,-2.706 -0.865,-1.102 -0.577,-2.016 0.919,-2.147 0.974,-0.085 1.283,-0.49 1.194,-1.405 -0.059,-0.608 -0.085,-1.236 -0.005,-1.839 0.179,-1.337 -0.275,-1.88 -1.695,-1.853 -1.922,0.036 -2.067,-0.178 -2.901,-2.632 29.196,0 58.301,0 87.393,0 0.119,-2.617 -1.612,-5.03 -3.458,-5.108 -1.552,-0.066 -2.425,1.058 -2.527,3.255 -1.478,0.253 -2.644,-1.136 -2.335,-2.781 0.479,-2.546 3.192,-3.948 5.52,-2.784 2.487,1.244 3.742,3.478 4.426,6.038 0.275,1.03 0.733,1.498 1.771,1.324 1.931,-0.325 2.998,0.574 3.464,2.482 -0.274,0.077 -0.548,0.212 -0.829,0.225 -3.008,0.144 -3.006,0.139 -3.005,3.076 0.002,3.315 0.005,6.631 -0.003,9.946 -10e-4,0.59 -0.048,1.179 -0.075,1.787 -2.351,-0.348 -3.171,-1.188 -3.173,-3.127 -0.004,-3.377 -0.05,-6.755 0.046,-10.129 0.032,-1.129 -0.253,-1.623 -1.39,-1.543 -0.366,0.026 -0.736,0.001 -1.105,0 -3.667,-0.007 -3.684,-0.008 -3.939,3.634 -0.094,1.348 -0.781,1.891 -2.091,2.051 -2.067,0.252 -3.934,0.972 -4.989,2.974 -1.085,2.058 0.091,4.235 2.398,4.019 2.015,-0.188 3.977,-0.944 6.27,-1.527 0.291,0.345 0.865,1.025 1.561,1.849 -2.139,1.723 -4.19,3.104 -6.943,2.352 -3.061,-0.836 -5.5,-2.44 -6.307,-5.752 -0.464,-1.905 0.814,-4.09 3.015,-5.156 0.82,-0.397 1.717,-0.664 2.605,-0.884 1.412,-0.349 1.582,-1.411 1.538,-2.564 -0.054,-1.411 -1.2,-0.959 -1.949,-0.975 -2.577,-0.054 -5.161,0.064 -7.734,-0.051 -1.59,-0.072 -1.96,0.548 -1.923,2.024 0.092,3.681 0.03,7.367 0.031,11.05 0,0.599 0,1.197 0,1.829 -2.527,-0.485 -3.232,-1.28 -3.232,-3.485 0,-3.315 -0.032,-6.631 0.034,-9.945 0.021,-1.043 -0.321,-1.494 -1.347,-1.437 -1.277,0.071 -2.966,-0.325 -3.713,0.34 -0.692,0.615 -0.377,2.362 -0.534,3.883 -1.945,0 -3.89,-0.046 -5.83,0.03 -0.541,0.021 -1.134,0.32 -1.566,0.665 -0.159,0.126 -0.003,1.051 0.154,1.095 0.529,0.148 1.17,0.209 1.684,0.044 2.757,-0.885 6.127,0.936 6.663,3.792 0.145,0.771 -0.015,1.765 -0.407,2.44 -1.129,1.947 -2.142,1.873 -3.375,-0.036 0.556,-0.957 1.249,-1.835 1.598,-2.835 0.38,-1.091 -0.193,-1.964 -1.401,-1.606 -1.307,0.388 -2.72,0.914 -3.7,1.806 -1.69,1.538 -1.4,3.97 0.546,5.187 1.38,0.864 2.997,1.343 4.477,2.059 0.293,0.142 0.443,0.581 0.659,0.883 -0.347,0.131 -0.783,0.467 -1.028,0.361 -1.956,-0.843 -4.052,-1.518 -5.768,-2.725 -3.141,-2.208 -3.314,-4.472 -0.791,-8.492 -0.371,-0.222 -1.106,-0.403 -1.265,-0.81 -0.377,-0.962 -0.882,-2.181 -0.572,-3.011 0.268,-0.719 1.533,-1.265 2.455,-1.489 1.044,-0.255 2.202,-0.004 3.298,-0.106 0.366,-0.034 0.695,-0.475 1.04,-0.73 -0.346,-0.247 -0.689,-0.702 -1.04,-0.708 -3.191,-0.055 -6.384,-0.019 -9.577,-0.038 -1.159,-0.007 -1.22,0.704 -1.215,1.59 0.023,3.745 0.011,7.49 0.012,11.235 0,0.65 0,1.299 0,1.987 -2.464,-0.363 -3.263,-1.231 -3.265,-3.305 -0.002,-3.315 -0.048,-6.632 0.027,-9.945 0.028,-1.236 -0.426,-1.599 -1.596,-1.578 -5.1,0.093 -4.011,-0.556 -4.103,4.03 -0.06,3.007 -0.006,6.016 -0.016,9.025 -0.002,0.587 -0.062,1.173 -0.103,1.901 -2.219,-0.485 -3.364,-1.621 -3.161,-4.057 z m 0.108,-3.82 c -0.011,-0.234 -0.021,-0.467 -0.032,-0.701 -1.232,-0.633 -2.415,-1.401 -3.708,-1.863 -1.533,-0.548 -3.037,-0.306 -4.23,0.961 -1.204,1.279 -1.059,3.136 0.54,3.82 1.027,0.439 2.452,0.613 3.468,0.254 1.433,-0.508 2.652,-1.619 3.962,-2.471 z"
   id="path113"
   inkscape:connector-curvature="0"
   style="fill:#003366" />
		<path
   d="m 144.936,20.13 c 0,5.192 0,10.077 0,15.008 -2.729,-0.763 -3.244,-1.415 -3.243,-3.921 10e-4,-1.474 -0.089,-2.955 0.026,-4.42 0.113,-1.437 -0.479,-1.768 -1.806,-1.74 -2.667,0.056 -3.948,0.529 -4.103,2.111 -0.121,1.234 0.113,2.545 0.422,3.763 0.185,0.73 0.853,1.328 1.233,2.023 0.238,0.436 0.345,0.943 0.615,1.717 -2.998,-1.348 -5.751,-6.845 -5.074,-9.474 0.409,-1.587 2.121,-2.842 4.064,-2.92 1.165,-0.047 2.345,0.076 3.494,-0.069 0.412,-0.052 0.753,-0.666 1.126,-1.024 -0.384,-0.351 -0.762,-0.997 -1.153,-1.005 -3.622,-0.079 -7.247,-0.093 -10.867,0.01 -0.44,0.013 -1.145,0.78 -1.226,1.28 -0.186,1.137 -0.062,2.324 -0.062,3.491 -0.001,1.715 -0.313,3.303 -1.824,4.388 -0.832,0.598 -0.706,1.151 -0.003,1.776 1.37,1.216 2.708,2.468 4.074,3.719 -0.841,1.057 -1.426,1.77 -2.268,0.743 -2.138,-2.608 -4.254,-5.237 -6.293,-7.922 -0.342,-0.45 -0.552,-1.487 -0.289,-1.792 0.365,-0.423 1.278,-0.642 1.88,-0.531 1.019,0.188 1.373,-0.161 1.46,-1.067 0.006,-0.061 0.013,-0.122 0.013,-0.184 -0.015,-4.845 0.704,-3.889 -3.529,-3.955 -3.777,-0.059 -3.778,-0.012 -3.778,3.808 0,3.071 0.005,6.141 -0.004,9.212 -0.002,0.587 -0.056,1.175 -0.088,1.784 -2.45,-0.426 -3.16,-1.215 -3.161,-3.345 -0.002,-3.255 -0.061,-6.511 0.034,-9.763 0.037,-1.267 -0.279,-1.719 -1.602,-1.736 -4.123,-0.054 -4.122,-0.105 -4.122,3.985 0,3.603 0,7.207 0,10.839 -2.4,-0.368 -3.116,-1.161 -3.186,-3.121 -0.029,-0.81 -0.163,-2.265 -0.432,-2.309 -1.422,-0.234 -2.905,-0.143 -4.361,-0.061 -0.143,0.008 -0.283,0.716 -0.363,1.112 -0.324,1.597 -1.067,1.975 -2.416,1.026 -0.99,-0.696 -1.92,-1.532 -2.703,-2.453 -1.009,-1.187 -0.631,-2.116 0.818,-2.567 0.389,-0.121 0.704,-0.477 1.053,-0.724 -0.318,-0.316 -0.609,-0.667 -0.96,-0.942 -1.186,-0.926 -2.578,-1.663 -3.545,-2.773 -1.168,-1.34 -0.911,-3.151 0.226,-4.35 1.219,-1.285 2.672,-1.442 4.33,-0.462 2.632,1.555 3.482,3.914 3.268,6.867 -0.182,2.508 -0.429,2.397 2.283,2.393 3.193,-0.005 2.79,0.327 2.822,-2.884 0.003,-0.307 0,-0.614 0,-0.921 -10e-4,-2.459 -0.028,-2.298 -2.526,-2.708 -0.999,-0.164 -1.853,-1.212 -2.773,-1.858 0.094,-0.231 0.188,-0.461 0.282,-0.692 16.694,0 33.388,0 50.077,0 0.025,-2.732 -1.695,-5.08 -3.538,-5.139 -1.583,-0.051 -2.401,1.04 -2.466,3.289 -1.562,0.227 -2.649,-1.08 -2.344,-2.816 0.447,-2.545 3.173,-3.957 5.505,-2.782 2.277,1.147 3.605,3.13 4.224,5.52 0.372,1.436 1.002,1.915 2.522,1.887 5.709,-0.103 11.423,0.018 17.132,-0.075 1.914,-0.031 3.425,0.204 3.81,2.603 -0.411,0.042 -0.916,0.127 -1.423,0.138 -2.526,0.053 -2.526,0.046 -2.526,2.643 0,4.107 0,8.213 0,12.514 -2.118,-0.76 -3.751,-1.608 -3.213,-4.473 -2.172,0.941 -4.053,2.044 -6.117,0.705 -2.45,-1.589 -3.748,-3.956 -4.742,-6.794 0.785,-0.193 1.543,-0.319 2.258,-0.568 1.282,-0.445 2.114,-1.269 1.874,-2.755 -0.241,-1.491 -1.419,-1.258 -2.446,-1.265 -1.228,-0.007 -2.461,0.062 -3.684,-0.018 -1.4,-0.091 -1.927,0.337 -1.889,1.865 0.106,4.172 0.018,8.35 0,12.525 0,0.113 -0.083,0.226 -0.127,0.339 -2.001,-0.061 -3.069,-1.055 -3.074,-2.911 -0.008,-3.439 -0.035,-6.878 0.036,-10.316 0.021,-1.011 -0.219,-1.507 -1.283,-1.485 -1.342,0.029 -2.686,0.007 -4.329,0.007 z m 15.535,7.435 c 0.916,1.664 2.394,1.947 4.06,1.643 1.761,-0.321 3.743,-2.126 3.818,-3.505 0.079,-1.462 0.067,-2.935 -0.009,-4.397 -0.019,-0.372 -0.409,-1.018 -0.663,-1.035 -1.469,-0.1 -2.948,-0.049 -4.563,-0.049 2.081,4.69 2.081,4.69 -2.643,7.343 z M 97.483,23.488 c 0.066,-1.13 0.261,-2.206 0.134,-3.242 -0.063,-0.515 -0.697,-1.317 -1.107,-1.339 -0.493,-0.026 -1.243,0.53 -1.494,1.029 -0.726,1.445 0.206,2.837 2.467,3.552 z"
   id="path115"
   inkscape:connector-curvature="0"
   style="fill:#003366" />
		<path
   d="m 452.769,19.918 c -0.269,0.075 -0.489,0.176 -0.715,0.193 -3.171,0.238 -3.171,0.235 -3.171,3.488 0,3.193 0.006,6.385 -0.004,9.578 -0.002,0.59 -0.072,1.179 -0.112,1.784 -2.513,-0.514 -3.119,-1.196 -3.127,-3.355 -10e-4,-0.246 0,-0.491 0,-0.737 0.003,-3.149 0.004,-3.116 -3.072,-3.013 -1.03,0.034 -1.6,0.306 -1.667,1.445 -0.027,0.454 -0.403,1.198 -0.712,1.248 -0.422,0.069 -1.003,-0.318 -1.387,-0.656 -0.499,-0.438 -0.952,-0.973 -1.283,-1.549 -1.116,-1.945 -0.407,-3.164 1.811,-3.181 1.658,-0.013 3.316,-0.035 4.973,0.005 1.032,0.025 1.412,-0.384 1.364,-1.423 -0.187,-4.083 0.803,-3.583 -3.583,-3.618 -2.937,-0.024 -5.875,-0.005 -9.018,-0.005 0,5.116 0,10.046 0,15.033 -2.884,-0.87 -3.335,-1.451 -3.335,-4.088 0.001,-3.008 -0.059,-6.018 0.027,-9.024 0.039,-1.384 -0.292,-1.993 -1.822,-1.949 -4.754,0.139 -3.826,-0.512 -3.898,3.885 -0.05,3.069 -0.003,6.139 -0.014,9.209 -0.002,0.581 -0.073,1.163 -0.123,1.9 -2.163,-0.588 -3.318,-1.653 -2.861,-4.15 -2.732,1.464 -5.23,2.798 -8.005,1.1 -1.748,-1.07 -3.157,-2.457 -3.981,-4.482 1.235,-0.45 2.383,-0.869 3.862,-1.408 -0.655,-0.539 -0.986,-0.769 -1.265,-1.05 -0.814,-0.819 -1.686,-1.598 -2.384,-2.509 -0.526,-0.687 -0.709,-2.13 -1.236,-2.231 -1.599,-0.305 -3.291,-0.128 -4.946,-0.117 -0.16,0.001 -0.457,0.148 -0.459,0.233 -0.045,1.688 -0.233,3.402 -0.002,5.057 0.127,0.909 2.746,1.307 4.047,0.77 0.488,-0.201 0.938,-0.495 1.406,-0.747 0.185,0.075 0.371,0.15 0.556,0.224 -0.3,0.997 -0.288,2.402 -0.958,2.916 -1.993,1.525 -3.624,-0.133 -5.186,-1.17 -0.832,0.932 -1.595,1.787 -2.492,2.791 1.513,1.602 3.043,3.223 4.573,4.843 -0.048,0.197 -0.097,0.394 -0.145,0.591 -0.552,-0.058 -1.339,0.098 -1.617,-0.209 -1.934,-2.132 -3.767,-4.356 -5.62,-6.56 -0.235,-0.279 -0.499,-0.593 -0.578,-0.931 -0.184,-0.784 -0.264,-1.593 -0.386,-2.391 0.836,-0.123 1.671,-0.246 2.96,-0.436 0,-1.238 0.031,-2.789 -0.031,-4.337 -0.01,-0.247 -0.406,-0.529 -0.684,-0.696 -0.187,-0.112 -0.478,-0.051 -0.723,-0.065 -5.588,-0.313 -5.588,-0.313 -5.588,5.271 0,3.235 0,6.469 0,9.741 -4.605,-0.825 -2.755,-4.539 -3.44,-7.302 -2.14,0.883 -4.157,1.056 -5.954,-0.398 -0.879,0.982 -1.676,1.874 -2.639,2.951 1.467,1.571 2.949,3.16 4.432,4.748 -0.043,0.195 -0.085,0.39 -0.128,0.584 -0.514,-0.067 -1.246,0.06 -1.508,-0.233 -1.837,-2.056 -3.593,-4.185 -5.336,-6.323 -0.38,-0.466 -0.738,-1.032 -0.86,-1.605 -0.177,-0.83 -0.454,-1.921 -0.076,-2.499 0.303,-0.463 1.519,-0.329 2.754,-0.528 0,-1.018 0.116,-2.393 -0.085,-3.721 -0.047,-0.313 -1.188,-0.71 -1.78,-0.646 -1.955,0.213 -2.968,-0.673 -3.509,-2.76 0.743,0 1.381,0 2.02,0 9.394,0 18.787,0.004 28.181,-0.003 1.69,-0.001 3.519,-0.402 4.149,1.767 0.334,-0.073 0.503,-0.058 0.557,-0.129 2.074,-2.747 4.218,-3.143 6.7,-1.226 2.917,2.254 3.585,5.596 1.351,7.96 -1.36,1.439 -3.099,2.519 -5.075,4.083 0.89,0.358 1.66,0.966 2.36,0.894 2.541,-0.261 4.728,-1.41 6.138,-3.581 0.481,-0.74 0.546,-1.85 0.538,-2.788 -0.016,-1.806 0.74,-3.877 -1.559,-5.06 -0.443,-0.228 -0.596,-1.017 -1.032,-1.824 0.824,-0.037 1.456,-0.089 2.088,-0.09 9.639,-0.005 19.279,0.059 28.917,-0.055 1.979,-0.018 2.896,0.755 3.407,2.566 z m -66.978,0.266 c -3.672,0.017 -3.074,-0.231 -3.125,3.12 -0.008,0.548 -0.113,1.13 0.036,1.635 0.14,0.475 0.461,1.061 0.869,1.265 1.767,0.881 3.179,-0.081 4.476,-1.135 1.448,-1.177 0.782,-2.849 0.62,-4.264 -0.035,-0.305 -1.751,-0.419 -2.694,-0.619 -0.058,-0.013 -0.121,-0.002 -0.182,-0.002 z m 28.213,4.901 c 0.611,-1.473 1.267,-2.747 1.641,-4.099 0.159,-0.575 -0.085,-1.693 -0.481,-1.888 -0.575,-0.284 -1.595,-0.196 -2.176,0.151 -2.107,1.258 -1.814,3.967 1.016,5.836 z"
   id="path117"
   inkscape:connector-curvature="0"
   style="fill:#003366" />
		<path
   d="m 234.955,35.038 c -2.683,-0.626 -3.323,-1.371 -3.323,-3.669 0,-0.246 0,-0.491 0,-0.737 0.006,-2.62 -1.308,-3.584 -3.792,-2.674 -0.374,0.137 -0.574,0.795 -0.816,1.233 -0.25,0.453 -0.447,1.319 -0.679,1.323 -0.522,0.008 -1.108,-0.327 -1.559,-0.667 -0.427,-0.322 -0.879,-0.778 -1.028,-1.265 -0.271,-0.883 -0.557,-1.885 -0.365,-2.729 0.084,-0.367 1.325,-0.618 2.056,-0.662 1.652,-0.098 3.313,-0.06 4.97,-0.024 0.951,0.021 1.239,-0.341 1.253,-1.308 0.054,-3.737 0.092,-3.737 -3.619,-3.737 -2.455,0 -4.911,0.035 -7.365,-0.01 -1.115,-0.02 -1.48,0.392 -1.461,1.519 0.065,3.805 0.034,7.611 0.026,11.417 -10e-4,0.646 -0.068,1.291 -0.112,2.057 -2.12,-0.528 -3.369,-1.522 -3.218,-3.843 -2.544,0.767 -4.856,2.707 -7.381,0.725 -2.121,-1.665 -3.822,-3.568 -2.454,-6.757 -1.983,0.092 -3.092,-0.788 -3.493,-2.962 1.318,0 2.571,0 3.825,0 1.35,0 2.715,0.124 4.048,-0.029 1.983,-0.227 3.127,0.587 3.733,2.723 -0.798,0.044 -1.615,-0.096 -2.271,0.166 -1.127,0.45 -2.49,0.918 -3.117,1.82 -0.507,0.731 -0.444,2.357 0.065,3.12 0.351,0.526 2.063,0.636 2.876,0.275 2.962,-1.314 4.734,-3.397 4.325,-7.035 -0.355,-3.159 -0.123,-3.186 -3.296,-3.186 -3.928,0 -7.859,0.081 -11.784,-0.036 -1.777,-0.053 -2.498,0.325 -2.398,2.306 0.182,3.612 0.056,7.24 0.048,10.862 -0.001,0.591 -0.055,1.182 -0.087,1.833 -4.48,-0.788 -2.747,-4.401 -3.213,-6.619 -2.229,-0.168 -4.234,-0.319 -6.573,-0.495 -0.447,0.474 -1.264,1.342 -2.244,2.382 1.199,1.25 2.457,2.472 3.593,3.799 0.335,0.391 0.325,1.076 0.473,1.627 -0.526,-0.219 -1.207,-0.299 -1.552,-0.682 -1.6,-1.774 -3.129,-3.614 -4.634,-5.47 -0.496,-0.612 -1.034,-1.298 -1.209,-2.033 -0.208,-0.872 -0.204,-1.883 0.062,-2.722 0.07,-0.222 1.438,-0.034 2.632,-0.034 0,-1.214 0.1,-2.591 -0.073,-3.934 -0.041,-0.321 -1.024,-0.797 -1.516,-0.735 -1.956,0.245 -3.176,-0.477 -3.764,-2.602 0.503,-0.054 1.002,-0.154 1.501,-0.154 20.931,-0.008 41.862,0.02 62.793,-0.053 1.915,-0.007 2.3,1.181 3.002,2.51 -0.382,0.099 -0.658,0.218 -0.942,0.238 -2.987,0.211 -2.987,0.207 -2.987,3.278 0.001,3.192 0.005,6.384 -0.004,9.576 -0.002,0.65 -0.059,1.3 -0.091,1.972 -2.349,-0.387 -3.145,-1.223 -3.151,-3.177 -0.009,-3.376 -0.036,-6.752 0.017,-10.127 0.018,-1.109 -0.358,-1.485 -1.474,-1.531 -4.257,-0.175 -4.255,-0.211 -4.255,4.081 0.002,3.605 0.002,7.208 0.002,10.856 z M 189.211,22.962 c -0.18,3.182 0.252,3.422 2.147,3.525 2.197,0.12 4.031,-1.783 4.033,-3.998 0.001,-2.302 0.001,-2.319 -2.693,-2.301 -3.934,0.026 -3.443,-0.413 -3.487,2.774 z"
   id="path119"
   inkscape:connector-curvature="0"
   style="fill:#003366" />
		<path
   d="m 461.516,37.55 c 0.436,0.428 0.871,0.855 1.307,1.283 2.177,2.139 4.667,3.679 7.833,3.211 1.028,-0.152 2.064,-0.929 2.859,-1.674 0.369,-0.346 0.452,-1.513 0.148,-1.916 -0.301,-0.398 -1.283,-0.474 -1.915,-0.374 -0.617,0.098 -1.171,0.598 -1.902,1.005 -0.461,-0.491 -0.94,-1.002 -1.512,-1.611 1.421,-1.271 2.716,-2.095 4.548,-1.216 1.945,0.933 3.236,2.732 3.025,4.386 -0.201,1.571 -1.743,3.073 -3.669,3.392 -3.804,0.631 -6.776,-1.093 -9.422,-3.549 -0.743,-0.69 -1.317,-1.563 -1.968,-2.352 0.222,-0.194 0.445,-0.389 0.668,-0.585 z"
   id="path121"
   inkscape:connector-curvature="0"
   style="fill:#003366" />
		<path
   d="m 206.106,44.841 c -0.457,-0.447 -1.004,-0.832 -1.354,-1.351 -1.517,-2.253 -3.091,-4.414 -5.775,-5.43 -1.356,-0.513 -2.554,-0.203 -3.124,1.034 -0.322,0.7 -0.248,2.229 0.181,2.483 0.737,0.436 1.892,0.183 2.872,0.188 0.56,0.003 1.12,-0.056 1.679,-0.087 -0.219,0.615 -0.267,1.408 -0.69,1.808 -1.058,1.003 -2.359,0.895 -3.577,0.227 -1.821,-0.999 -2.773,-3.369 -2.22,-5.375 0.528,-1.915 2.45,-2.943 4.29,-2.151 3.765,1.621 6.018,4.802 8.281,7.953 -0.186,0.235 -0.374,0.468 -0.563,0.701 z"
   id="path123"
   inkscape:connector-curvature="0"
   style="fill:#003366" />
		<path
   d="m 390.464,16.357 c -0.628,-0.725 -1.18,-1.362 -1.832,-2.116 0.622,-0.755 1.225,-1.487 2.073,-2.516 0.762,0.894 1.414,1.657 2.112,2.475 -0.754,0.691 -1.461,1.339 -2.353,2.157 z"
   id="path125"
   inkscape:connector-curvature="0"
   style="fill:#003366" />
		<path
   d="m 290.733,28.958 c -0.89,-2.649 -1.382,-2.867 -4.186,-2.153 -0.631,0.161 -1.404,0.143 -1.995,-0.089 -0.255,-0.1 -0.454,-1.256 -0.263,-1.407 0.563,-0.445 1.313,-0.785 2.027,-0.877 1.086,-0.14 2.215,-0.137 3.306,-0.015 1.663,0.187 2.205,-0.476 2.027,-2.08 -0.118,-1.064 -0.331,-2.237 1.506,-2.196 1.359,0.03 1.85,0.402 1.772,1.795 -0.11,1.957 -0.119,3.93 -0.003,5.887 0.128,2.163 -1.26,3.263 -2.8,4.162 -1.826,1.066 -3.842,1.324 -5.8,0.304 -1.135,-0.591 -1.134,-1.637 0.121,-2.199 1.293,-0.579 2.77,-0.751 4.288,-1.132 z"
   id="path127"
   inkscape:connector-curvature="0"
   style="fill:#ffffff" />
		<path
   d="m 265.238,28.47 c -3.413,0.122 -5.583,-1.848 -5.585,-5.108 -0.003,-3.622 -0.448,-3.151 3.042,-3.17 3.249,-0.018 2.717,-0.186 2.747,2.713 0.018,1.707 -0.004,3.415 -0.018,5.123 -10e-4,0.108 -0.088,0.216 -0.186,0.442 z"
   id="path129"
   inkscape:connector-curvature="0"
   style="fill:#ffffff" />
		<path
   d="m 342.052,30.009 c -0.839,-1.058 -1.712,-1.689 -1.867,-2.464 -0.24,-1.2 1.503,-2.707 2.853,-2.357 1.181,0.306 2.198,1.241 3.288,1.899 -1.282,0.876 -2.564,1.753 -4.274,2.922 z"
   id="path131"
   inkscape:connector-curvature="0"
   style="fill:#ffffff" />
		<path
   d="m 488.183,27.19 c -1.31,0.853 -2.529,1.964 -3.962,2.471 -1.016,0.36 -2.441,0.186 -3.468,-0.254 -1.599,-0.684 -1.744,-2.541 -0.54,-3.82 1.193,-1.267 2.698,-1.509 4.23,-0.961 1.293,0.462 2.476,1.23 3.708,1.863 0.011,0.233 0.022,0.467 0.032,0.701 z"
   id="path133"
   inkscape:connector-curvature="0"
   style="fill:#ffffff" />
		<path
   d="m 160.471,27.565 c 4.724,-2.653 4.724,-2.653 2.643,-7.344 1.616,0 3.095,-0.051 4.563,0.049 0.254,0.017 0.644,0.664 0.663,1.035 0.075,1.463 0.088,2.935 0.009,4.397 -0.075,1.379 -2.057,3.183 -3.818,3.505 -1.666,0.305 -3.144,0.023 -4.06,-1.642 z"
   id="path135"
   inkscape:connector-curvature="0"
   style="fill:#ffffff" />
		<path
   d="m 385.791,20.184 c 0.061,0 0.124,-0.011 0.182,0.002 0.942,0.199 2.659,0.314 2.694,0.619 0.161,1.415 0.828,3.087 -0.62,4.264 -1.297,1.054 -2.708,2.016 -4.476,1.135 -0.408,-0.203 -0.729,-0.789 -0.869,-1.265 -0.149,-0.505 -0.044,-1.087 -0.036,-1.635 0.05,-3.351 -0.547,-3.104 3.125,-3.12 z"
   id="path137"
   inkscape:connector-curvature="0"
   style="fill:#ffffff" />
		<path
   d="m 414.004,25.085 c -2.83,-1.869 -3.123,-4.579 -1.015,-5.836 0.581,-0.347 1.6,-0.435 2.176,-0.151 0.395,0.195 0.64,1.313 0.481,1.888 -0.375,1.353 -1.031,2.627 -1.642,4.099 z"
   id="path139"
   inkscape:connector-curvature="0"
   style="fill:#ffffff" />
		<path
   d="m 189.211,22.962 c 0.044,-3.187 -0.446,-2.747 3.487,-2.774 2.694,-0.018 2.694,-0.002 2.693,2.301 -0.001,2.215 -1.836,4.118 -4.033,3.998 -1.895,-0.104 -2.327,-0.343 -2.147,-3.525 z"
   id="path141"
   inkscape:connector-curvature="0"
   style="fill:#ffffff" />
	</g>
</g>
<g
   id="g157"
   transform="translate(0.40907416,0.8181477)">
	<g
   id="g149">
		<path
   d="m 73.252,15.894 c -11.105,0 -22.21,-0.07 -33.314,0.027 -6.241,0.055 -12.381,0.884 -18.164,3.472 -9.55,4.272 -15.049,12.449 -14.526,22.807 0.511,10.117 5.643,17.345 15.2,21.117 8.262,3.261 16.903,3.921 25.628,3.004 4.483,-0.471 9.024,-1.242 13.307,-2.606 9.53,-3.036 15.761,-9.33 17.202,-19.581 0.74,-5.26 -0.352,-10.232 -3.052,-14.814 -0.262,-0.445 -0.86,-0.969 -1.314,-0.979 -3.469,-0.081 -6.942,-0.045 -10.684,-0.045 0,11.023 0,21.887 0,32.861 -2.244,0 -4.216,0 -6.453,0 0,-10.93 0,-21.79 0,-32.682 -1.823,-0.168 -3.498,-0.03 -4.906,-0.577 -0.698,-0.271 -0.906,-1.802 -1.417,-2.946 0.817,-0.041 1.39,-0.094 1.964,-0.094 8.297,-0.005 16.594,0.035 24.891,-0.04 1.459,-0.013 2.143,0.477 2.61,1.809 5.392,15.406 3.042,29.39 -8.027,41.509 -5.381,5.891 -12.42,9.186 -20.249,10.578 C 39.597,80.909 27.949,79.145 17.702,71.533 8.85,64.957 4.145,55.927 3.186,44.95 2.118,32.719 5.615,22.064 14.525,13.494 21.175,7.097 29.357,3.964 38.497,3.065 48.47,2.083 57.791,3.93 66.24,9.377 c 2.646,1.706 4.944,3.953 7.401,5.952 -0.13,0.188 -0.26,0.376 -0.389,0.565 z"
   id="path147"
   inkscape:connector-curvature="0"
   style="fill:#003366" />
	</g>
	<path
   d="m 51.635,61.19 c -2.095,0 -4.014,0 -6.114,0 0,-9.255 0,-18.479 0,-27.817 2.037,0 4.007,0 6.114,0 0,9.235 0,18.415 0,27.817 z"
   id="path151"
   inkscape:connector-curvature="0"
   style="fill:#003366" />
	<path
   d="m 40.367,61.164 c -2.069,0 -4.039,0 -6.141,0 0,-7.144 0,-14.195 0,-21.402 2.037,0 4.008,0 6.141,0 0,7.043 0,14.098 0,21.402 z"
   id="path153"
   inkscape:connector-curvature="0"
   style="fill:#003366" />
	<path
   d="m 23.027,45.874 c 2.075,0 3.99,0 6.067,0 0,5.059 0,10.081 0,15.251 -1.961,0 -3.925,0 -6.067,0 0,-4.996 0,-10.019 0,-15.251 z"
   id="path155"
   inkscape:connector-curvature="0"
   style="fill:#003366" />
</g>
<rect
   x="91.623001"
   y="46.841999"
   width="100%"
   height="33.747002"
   id="rect159"
   style="fill:none" />
<text
   transform="scale(0.92097772,1.0858026)"
   font-size="24"
   style="font-weight:600;font-size:22.10346603px;font-family:LucidaFax-Demi;fill:#003366;stroke-width:0.92097771"
   id="text161"
   x="99.928986"
   y="65.906227">Indian Institute of Information Technology Guwahati</text>

</svg>