<?xml version="1.0" encoding="UTF-8" standalone="no"?>
<!DOCTYPE svg PUBLIC "-//W3C//DTD SVG 1.1//EN" "http://www.w3.org/Graphics/SVG/1.1/DTD/svg11.dtd">
<svg width="100%" height="100%" viewBox="0 0 41 41" version="1.1" xmlns="http://www.w3.org/2000/svg" xmlns:xlink="http://www.w3.org/1999/xlink" xml:space="preserve" xmlns:serif="http://www.serif.com/" style="fill-rule:evenodd;clip-rule:evenodd;stroke-linejoin:round;stroke-miterlimit:2;">
    <g transform="matrix(1,0,0,1,-419,-900)">
        <g>
            <g>
                <path d="M428.673,903.573C428.666,903.581 428.661,903.588 428.655,903.594C428.657,903.597 428.658,903.601 428.658,903.601L428.673,903.573Z" style="fill:rgb(97,110,125);fill-rule:nonzero;"/>
                <path d="M455.04,936.623C456.045,936.623 456.859,937.437 456.859,938.442C456.859,939.447 456.045,940.262 455.04,940.262C454.036,940.262 453.221,939.447 453.221,938.442C453.221,937.437 454.036,936.623 455.04,936.623ZM451.834,938.442C451.834,940.211 453.272,941.649 455.04,941.649C456.809,941.649 458.247,940.211 458.247,938.442C458.247,937.104 457.438,935.935 456.209,935.456L456.209,932.739C456.209,929.724 453.71,927.271 450.635,927.271L447.576,927.271C446.128,927.271 444.754,927.816 443.708,928.807C442.806,929.661 442.226,930.781 442.055,931.988L442.001,932.37C442.001,934.136 440.517,935.573 438.69,935.573L435.631,935.573C433.807,935.573 432.322,934.136 432.322,932.37L432.322,926.673C432.904,926.357 433.322,925.82 433.508,925.187C438.861,924.19 442.727,919.71 442.727,914.45L442.727,910.485C442.727,907.194 440.439,904.357 437.145,903.535C436.767,902.832 436.031,902.387 435.227,902.387C434.613,902.387 434.024,902.647 433.611,903.106L433.764,903.449C433.795,903.409 433.822,903.365 433.856,903.328C434.695,904.073 435.227,905.157 435.227,906.367L435.224,906.415C435.172,906.415 435.123,906.403 435.072,906.398L435.227,906.745C435.929,906.745 436.583,906.406 436.989,905.845C439.045,906.532 440.462,908.408 440.462,910.485L440.462,914.45C440.462,918.531 437.416,922.104 433.219,922.948L433.151,922.962C433.215,923.055 433.266,923.155 433.284,923.271L433.296,923.393L433.296,924.484C433.296,924.628 433.281,924.769 433.254,924.905C432.63,925.011 431.989,925.068 431.333,925.068L431.126,925.068C430.388,925.068 429.666,924.998 428.968,924.864C428.946,924.741 428.933,924.613 428.933,924.484L428.933,923.393C428.933,923.334 428.941,923.277 428.954,923.223C428.979,923.106 429.039,923.008 429.109,922.919L429.026,922.9C424.887,921.969 421.998,918.494 421.998,914.45L421.998,910.485C421.998,908.429 423.335,906.608 425.353,905.886C425.761,906.422 426.402,906.745 427.083,906.745L427.237,906.398C427.187,906.403 427.138,906.415 427.086,906.415L427.083,906.367C427.083,905.157 427.615,904.073 428.454,903.328C428.489,903.365 428.516,903.409 428.546,903.449L428.698,903.106C428.285,902.647 427.696,902.387 427.083,902.387C426.256,902.387 425.511,902.85 425.141,903.578C421.947,904.457 419.733,907.275 419.733,910.485L419.733,914.45C419.733,919.589 423.49,924.048 428.695,925.14C428.888,925.85 429.387,926.44 430.057,926.747L430.057,932.37C430.057,935.386 432.558,937.838 435.631,937.838L438.69,937.838C440.138,937.838 441.512,937.293 442.559,936.303C443.4,935.507 443.958,934.489 444.17,933.381L444.268,932.688C444.297,930.95 445.781,929.536 447.576,929.536L450.635,929.536C452.46,929.536 453.945,930.973 453.945,932.739L453.945,935.431C452.69,935.887 451.834,937.091 451.834,938.442Z" style="fill:rgb(97,110,125);fill-rule:nonzero;"/>
                <path d="M433.656,903.594C433.656,903.594 433.644,903.581 433.637,903.573L433.65,903.603C433.65,903.603 433.653,903.597 433.656,903.594Z" style="fill:rgb(97,110,125);fill-rule:nonzero;"/>
                <path d="M428.546,903.449C428.516,903.409 428.489,903.365 428.454,903.328C427.615,904.073 427.083,905.157 427.083,906.367L427.086,906.415C427.138,906.415 427.187,906.403 427.237,906.398C428.186,906.319 428.933,905.534 428.933,904.565C428.933,904.213 428.832,903.885 428.66,903.603C428.66,903.603 428.657,903.597 428.655,903.594C428.623,903.543 428.582,903.497 428.546,903.449Z" style="fill:rgb(170,212,200);fill-rule:nonzero;"/>
                <path d="M433.764,903.449C433.728,903.497 433.687,903.543 433.656,903.594C433.653,903.597 433.652,903.601 433.652,903.601C433.478,903.885 433.377,904.213 433.377,904.565C433.377,905.534 434.124,906.318 435.072,906.398C435.123,906.403 435.172,906.415 435.224,906.415L435.227,906.367C435.227,905.157 434.695,904.073 433.856,903.328C433.822,903.365 433.795,903.409 433.764,903.449Z" style="fill:rgb(170,212,200);fill-rule:nonzero;"/>
                <path d="M432.523,922.622L429.706,922.622C429.46,922.622 429.251,922.741 429.109,922.919C429.039,923.008 428.979,923.106 428.954,923.223C428.941,923.277 428.933,923.334 428.933,923.393L428.933,924.484C428.933,924.613 428.946,924.741 428.968,924.864C429.666,924.998 430.388,925.068 431.126,925.068L431.333,925.068C431.989,925.068 432.63,925.011 433.254,924.905C433.281,924.769 433.296,924.628 433.296,924.484L433.296,923.393L433.284,923.271C433.266,923.155 433.215,923.055 433.151,922.962C433.012,922.76 432.787,922.622 432.523,922.622Z" style="fill:rgb(130,191,171);fill-rule:nonzero;"/>
                <path d="M456.508,938.442C456.508,939.253 455.851,939.91 455.04,939.91C454.229,939.91 453.571,939.253 453.571,938.442C453.571,937.632 454.229,936.974 455.04,936.974C455.851,936.974 456.508,937.632 456.508,938.442ZM453.221,938.442C453.221,939.447 454.036,940.262 455.04,940.262C456.045,940.262 456.859,939.447 456.859,938.442C456.859,937.437 456.045,936.623 455.04,936.623C454.036,936.623 453.221,937.437 453.221,938.442Z" style="fill:rgb(130,191,171);fill-rule:nonzero;"/>
                <path d="M453.571,938.442C453.571,939.253 454.229,939.91 455.04,939.91C455.851,939.91 456.508,939.253 456.508,938.442C456.508,937.632 455.851,936.974 455.04,936.974C454.229,936.974 453.571,937.632 453.571,938.442Z" style="fill:rgb(170,212,200);fill-rule:nonzero;"/>
            </g>
        </g>
    </g>
</svg>
