<?xml version="1.0" encoding="UTF-8" standalone="no"?>
<!DOCTYPE svg PUBLIC "-//W3C//DTD SVG 1.1//EN" "http://www.w3.org/Graphics/SVG/1.1/DTD/svg11.dtd">
<svg width="100%" height="100%" viewBox="0 0 47 47" version="1.1" xmlns="http://www.w3.org/2000/svg" xmlns:xlink="http://www.w3.org/1999/xlink" xml:space="preserve" xmlns:serif="http://www.serif.com/" style="fill-rule:evenodd;clip-rule:evenodd;stroke-linejoin:round;stroke-miterlimit:2;">
    <g transform="matrix(1,0,0,1,-45,-900)">
        <g>
            <g>
                <path d="M52.987,923.591L52.987,923.179L51.519,923.179C51.483,923.31 51.454,923.45 51.424,923.591L52.987,923.591Z" style="fill:rgb(130,191,171);fill-rule:nonzero;"/>
                <path d="M53.004,924.26L53.004,923.848L51.352,923.848C51.33,923.979 51.313,924.121 51.295,924.26L53.004,924.26Z" style="fill:rgb(130,191,171);fill-rule:nonzero;"/>
                <path d="M53.016,924.929L53.016,924.516L51.25,924.516C51.236,924.648 51.225,924.789 51.214,924.929L53.016,924.929Z" style="fill:rgb(130,191,171);fill-rule:nonzero;"/>
                <path d="M53.021,925.597L53.021,925.185L51.186,925.185C51.176,925.317 51.17,925.458 51.164,925.597L53.021,925.597Z" style="fill:rgb(130,191,171);fill-rule:nonzero;"/>
                <path d="M53.025,926.265L53.025,925.852L51.151,925.852C51.147,925.989 51.142,926.124 51.137,926.265L53.025,926.265Z" style="fill:rgb(130,191,171);fill-rule:nonzero;"/>
                <path d="M59.209,924.002L57.599,924.002L57.599,914.675L59.209,914.675L59.209,924.002ZM56.96,924.002L55.352,924.002L55.352,914.675L56.96,914.675L56.96,924.002ZM54.309,920.321L51.622,920.321L51.622,914.675L54.309,914.675L54.309,920.321ZM60.36,914.629L66.538,914.629L66.538,919.155L60.36,919.155L60.36,914.629ZM67.98,914.629L74.159,914.629L74.159,919.155L67.98,919.155L67.98,914.629ZM75.602,914.629L81.779,914.629L81.779,919.155L75.602,919.155L75.602,914.629ZM83.222,914.629L88.678,914.629L88.678,919.155L83.222,919.155L83.222,914.629ZM90.177,921.495L90.177,912.663C90.177,912.272 89.86,911.956 89.469,911.956L54.669,911.956L54.669,909.292L52.432,909.292L52.432,911.956L51.861,911.956C51.471,911.956 51.155,912.272 51.155,912.663L51.155,920.386L51.011,920.425C48.521,920.501 47.334,921.466 46.784,923.589L48.253,923.589L48.253,924.002L46.69,924.002C46.659,924.151 46.627,924.299 46.601,924.458L48.253,924.458L48.253,924.87L46.544,924.87C46.525,925.019 46.505,925.169 46.488,925.327L48.253,925.327L48.253,925.739L46.453,925.739C46.439,925.89 46.427,926.039 46.418,926.196L48.253,926.196L48.253,926.608L46.397,926.608C46.389,926.754 46.386,926.914 46.381,927.065L48.253,927.065L48.253,927.477L46.366,927.477C46.353,927.979 46.343,928.501 46.343,929.068L45.794,929.068L45.794,930.229L52.282,930.229C52.271,930.099 52.261,929.968 52.261,929.834C52.261,927.127 54.464,924.925 57.171,924.925C59.878,924.925 62.081,927.127 62.081,929.834C62.081,929.968 62.071,930.099 62.061,930.229L77.282,930.229C77.271,930.099 77.262,929.968 77.262,929.834C77.262,927.127 79.463,924.925 82.17,924.925C84.878,924.925 87.08,927.127 87.08,929.834C87.08,929.968 87.071,930.099 87.061,930.229L89.469,930.229C89.86,930.229 90.177,929.913 90.177,929.522L90.177,924.664L59.931,924.664L59.931,923.556L90.177,923.556L90.177,922.544L59.931,922.544L59.931,921.495L90.177,921.495Z" style="fill:rgb(97,110,125);fill-rule:nonzero;"/>
                <path d="M84.299,929.834C84.299,931.007 83.344,931.962 82.17,931.962C80.998,931.962 80.043,931.007 80.043,929.834C80.043,928.661 80.998,927.707 82.17,927.707C83.344,927.707 84.299,928.661 84.299,929.834ZM77.752,929.834C77.752,932.274 79.731,934.253 82.17,934.253C84.612,934.253 86.59,932.274 86.59,929.834C86.59,927.393 84.612,925.415 82.17,925.415C79.731,925.415 77.752,927.393 77.752,929.834Z" style="fill:rgb(97,110,125);fill-rule:nonzero;"/>
                <path d="M86.59,929.834C86.59,932.274 84.612,934.253 82.17,934.253C79.731,934.253 77.752,932.274 77.752,929.834C77.752,927.393 79.731,925.415 82.17,925.415C84.612,925.415 86.59,927.393 86.59,929.834ZM77.262,929.834C77.262,929.968 77.271,930.099 77.282,930.229C77.484,932.752 79.597,934.743 82.17,934.743C84.745,934.743 86.858,932.752 87.061,930.229C87.071,930.099 87.08,929.968 87.08,929.834C87.08,927.127 84.878,924.925 82.17,924.925C79.463,924.925 77.262,927.127 77.262,929.834Z" style="fill:white;fill-rule:nonzero;"/>
                <path d="M80.043,929.834C80.043,931.007 80.998,931.962 82.17,931.962C83.344,931.962 84.299,931.007 84.299,929.834C84.299,928.661 83.344,927.707 82.17,927.707C80.998,927.707 80.043,928.661 80.043,929.834Z" style="fill:rgb(170,212,200);fill-rule:nonzero;"/>
                <path d="M59.299,929.834C59.299,931.007 58.345,931.962 57.171,931.962C55.999,931.962 55.044,931.007 55.044,929.834C55.044,928.661 55.999,927.707 57.171,927.707C58.345,927.707 59.299,928.661 59.299,929.834ZM52.752,929.834C52.752,932.274 54.731,934.253 57.171,934.253C59.611,934.253 61.59,932.274 61.59,929.834C61.59,927.393 59.611,925.415 57.171,925.415C54.731,925.415 52.752,927.393 52.752,929.834Z" style="fill:rgb(97,110,125);fill-rule:nonzero;"/>
                <path d="M61.59,929.834C61.59,932.274 59.611,934.253 57.171,934.253C54.731,934.253 52.752,932.274 52.752,929.834C52.752,927.393 54.731,925.415 57.171,925.415C59.611,925.415 61.59,927.393 61.59,929.834ZM52.261,929.834C52.261,929.968 52.271,930.099 52.282,930.229C52.485,932.752 54.597,934.743 57.171,934.743C59.744,934.743 61.858,932.752 62.061,930.229C62.071,930.099 62.081,929.968 62.081,929.834C62.081,927.127 59.878,924.925 57.171,924.925C54.464,924.925 52.261,927.127 52.261,929.834Z" style="fill:white;fill-rule:nonzero;"/>
                <path d="M55.044,929.834C55.044,931.007 55.999,931.962 57.171,931.962C58.345,931.962 59.299,931.007 59.299,929.834C59.299,928.661 58.345,927.707 57.171,927.707C55.999,927.707 55.044,928.661 55.044,929.834Z" style="fill:rgb(170,212,200);fill-rule:nonzero;"/>
                <rect x="55.352" y="914.675" width="1.608" height="9.327" style="fill:white;fill-rule:nonzero;"/>
                <rect x="57.599" y="914.675" width="1.61" height="9.327" style="fill:white;fill-rule:nonzero;"/>
                <rect x="60.36" y="914.629" width="6.178" height="4.526" style="fill:white;fill-rule:nonzero;"/>
                <rect x="67.98" y="914.629" width="6.179" height="4.526" style="fill:white;fill-rule:nonzero;"/>
                <rect x="75.602" y="914.629" width="6.177" height="4.526" style="fill:white;fill-rule:nonzero;"/>
                <rect x="83.222" y="914.629" width="5.456" height="4.526" style="fill:white;fill-rule:nonzero;"/>
                <rect x="59.931" y="921.495" width="30.246" height="1.049" style="fill:rgb(130,191,171);fill-rule:nonzero;"/>
                <rect x="59.931" y="923.556" width="30.246" height="1.108" style="fill:rgb(130,191,171);fill-rule:nonzero;"/>
                <rect x="51.622" y="914.675" width="2.687" height="5.646" style="fill:white;fill-rule:nonzero;"/>
            </g>
        </g>
    </g>
</svg>
