<?xml version="1.0" encoding="UTF-8" standalone="no"?>
<!DOCTYPE svg PUBLIC "-//W3C//DTD SVG 1.1//EN" "http://www.w3.org/Graphics/SVG/1.1/DTD/svg11.dtd">
<svg width="100%" height="100%" viewBox="0 0 31 31" version="1.1" xmlns="http://www.w3.org/2000/svg" xmlns:xlink="http://www.w3.org/1999/xlink" xml:space="preserve" xmlns:serif="http://www.serif.com/" style="fill-rule:evenodd;clip-rule:evenodd;stroke-linejoin:round;stroke-miterlimit:2;">
    <g transform="matrix(1,0,0,1,-114,-710)">
        <g>
            <g>
                <path d="M142.127,728.426C142.089,728.548 141.814,728.626 141.693,728.589C141.036,728.388 140.59,728.022 140.325,727.601C140.059,727.179 139.966,726.711 139.966,726.298C139.966,726.023 140.006,725.77 140.067,725.561C140.104,725.439 140.23,725.369 140.353,725.405C140.475,725.44 140.545,725.568 140.51,725.69C140.46,725.855 140.426,726.069 140.427,726.298C140.426,726.644 140.527,726.859 140.737,727.189C140.947,727.518 141.425,727.805 141.991,727.98C142.112,728.018 142.164,728.305 142.127,728.426ZM141.439,718.251C141.436,719.241 141.153,720.635 140.515,722.159C139.617,724.306 138.796,726.596 139.663,727.998C140.178,728.832 140.861,729.285 141.52,729.345C141.733,729.397 141.954,729.429 142.182,729.429C143.523,729.429 144.641,728.473 144.892,727.205C144.984,726.895 144.976,726.572 144.908,726.224C144.879,726.045 144.833,725.873 144.772,725.708C144.356,724.412 143.367,722.723 143.077,720.038C143.006,718.725 142.968,717.983 142.34,717.219C142.17,716.999 141.972,716.803 141.75,716.635C141.666,716.57 141.57,716.522 141.479,716.467L141.868,716.855C142.135,717.122 142.135,717.556 141.868,717.822L141.439,718.251Z" style="fill:rgb(170,212,200);fill-rule:nonzero;"/>
                <path d="M129.229,724.169C129.263,723.928 129.369,723.695 129.554,723.51C129.74,723.324 129.972,723.219 130.212,723.185C130.562,723.136 130.927,723.242 131.197,723.51C131.65,723.964 131.651,724.699 131.197,725.152C130.743,725.606 130.007,725.606 129.554,725.152C129.285,724.885 129.179,724.518 129.229,724.169ZM132.456,719.153C132.755,718.854 133.238,718.854 133.538,719.152C133.67,719.285 133.739,719.454 133.755,719.628C133.774,719.845 133.703,720.068 133.537,720.234C133.372,720.4 133.148,720.471 132.931,720.452C132.757,720.436 132.587,720.367 132.455,720.234C132.156,719.935 132.156,719.451 132.456,719.153ZM129.895,734.977C129.602,736.421 127.797,736.787 126.646,735.637L122.227,731.217L117.757,726.749C116.607,725.598 116.974,723.793 118.418,723.499L121.763,722.819C121.665,724.461 122.572,726.069 124.897,726.428C125.654,726.567 126.257,726.609 126.786,726.656C128.231,726.788 129.118,726.966 131.041,729.342L129.895,734.977ZM134.119,713.694C134.021,713.596 134.021,713.436 134.119,713.338L134.123,713.334C134.221,713.235 134.381,713.235 134.479,713.334L140.06,718.915C140.159,719.014 140.159,719.173 140.06,719.271L140.057,719.274C139.958,719.373 139.798,719.374 139.7,719.274L136.911,716.486L134.119,713.694ZM136.331,720.752C136.129,720.954 135.801,720.954 135.599,720.752C135.395,720.55 135.395,720.222 135.599,720.019C135.801,719.817 136.129,719.817 136.331,720.019C136.534,720.222 136.534,720.55 136.331,720.752ZM116.392,722.349C114.548,722.724 114.08,725.028 115.549,726.497L121.223,732.172L126.897,737.846C128.366,739.314 130.671,738.846 131.045,737.002L133.499,724.936L139.171,719.265L139.314,719.408C139.582,719.675 140.016,719.676 140.282,719.408L141.439,718.251L141.868,717.822C142.135,717.556 142.135,717.122 141.868,716.855L141.479,716.467L139.204,714.191L136.539,711.527C136.272,711.26 135.838,711.26 135.571,711.526L133.986,713.112C133.719,713.38 133.719,713.813 133.986,714.08L134.129,714.224L128.457,719.895L116.392,722.349Z" style="fill:rgb(97,110,125);fill-rule:nonzero;"/>
                <path d="M118.418,723.499C116.974,723.793 116.607,725.598 117.757,726.749L122.227,731.217L126.646,735.637C127.797,736.787 129.602,736.421 129.895,734.977L131.041,729.342C129.118,726.966 128.231,726.788 126.786,726.656C126.257,726.609 125.654,726.567 124.897,726.428C122.572,726.069 121.665,724.461 121.763,722.819L118.418,723.499Z" style="fill:rgb(170,212,200);fill-rule:nonzero;"/>
                <path d="M130.212,723.185C129.972,723.219 129.74,723.324 129.554,723.51C129.369,723.695 129.263,723.928 129.229,724.169C129.179,724.518 129.285,724.885 129.554,725.152C130.007,725.606 130.743,725.606 131.197,725.152C131.651,724.699 131.65,723.964 131.197,723.51C130.927,723.242 130.562,723.136 130.212,723.185Z" style="fill:white;fill-rule:nonzero;"/>
                <path d="M132.456,719.153C132.156,719.451 132.156,719.935 132.455,720.234C132.587,720.367 132.757,720.436 132.931,720.452C133.148,720.471 133.372,720.4 133.537,720.234C133.703,720.068 133.774,719.845 133.755,719.628C133.739,719.454 133.67,719.285 133.538,719.152C133.238,718.854 132.755,718.854 132.456,719.153Z" style="fill:rgb(170,212,200);fill-rule:nonzero;"/>
                <path d="M135.599,720.019C135.395,720.222 135.395,720.55 135.599,720.752C135.801,720.954 136.129,720.954 136.331,720.752C136.534,720.55 136.534,720.222 136.331,720.019C136.129,719.817 135.801,719.817 135.599,720.019Z" style="fill:white;fill-rule:nonzero;"/>
                <path d="M134.479,713.334C134.381,713.235 134.221,713.235 134.123,713.334L134.119,713.338C134.021,713.436 134.021,713.596 134.119,713.694L136.911,716.486L139.7,719.274C139.798,719.374 139.958,719.373 140.057,719.274L140.06,719.271C140.159,719.173 140.159,719.014 140.06,718.915L137.271,716.126L134.479,713.334Z" style="fill:rgb(240,237,226);fill-rule:nonzero;"/>
                <path d="M140.353,725.405C140.23,725.369 140.104,725.439 140.067,725.561C140.006,725.77 139.966,726.023 139.966,726.298C139.966,726.711 140.059,727.179 140.325,727.601C140.59,728.022 141.036,728.388 141.693,728.589C141.814,728.626 142.089,728.548 142.127,728.426C142.164,728.305 142.112,728.018 141.991,727.98C141.425,727.805 140.947,727.518 140.737,727.189C140.527,726.859 140.426,726.644 140.427,726.298C140.426,726.069 140.46,725.855 140.51,725.69C140.545,725.568 140.475,725.44 140.353,725.405Z" style="fill:white;fill-rule:nonzero;"/>
            </g>
        </g>
    </g>
</svg>
