<?xml version="1.0" encoding="UTF-8" standalone="no"?>
<!DOCTYPE svg PUBLIC "-//W3C//DTD SVG 1.1//EN" "http://www.w3.org/Graphics/SVG/1.1/DTD/svg11.dtd">
<svg width="100%" height="100%" viewBox="0 0 34 34" version="1.1" xmlns="http://www.w3.org/2000/svg" xmlns:xlink="http://www.w3.org/1999/xlink" xml:space="preserve" xmlns:serif="http://www.serif.com/" style="fill-rule:evenodd;clip-rule:evenodd;stroke-linejoin:round;stroke-miterlimit:2;">
    <g transform="matrix(1,0,0,1,-978,-579)">
        <g>
            <g>
                <path d="M986.709,598.578L1010.57,594.21L1010.57,584.709L983.888,583.076L986.709,598.578Z" style="fill:rgb(170,212,200);fill-rule:nonzero;"/>
                <path d="M986.709,598.578L986.707,598.58C986.681,598.584 986.656,598.595 986.63,598.602L986.935,600.314C986.965,600.313 986.994,600.313 987.024,600.308L1011.61,595.807C1012.02,595.73 1012.33,595.367 1012.33,594.942L1012.33,583.882C1012.33,583.418 1011.97,583.033 1011.5,583.005L983.779,581.309C983.706,581.305 983.635,581.311 983.566,581.324L983.876,583.075L983.888,583.076L1010.57,584.709L1010.57,594.21L986.709,598.578Z" style="fill:rgb(130,191,171);fill-rule:nonzero;"/>
                <path d="M990.512,604.665L1004.86,604.665C1005.05,603.899 1005.57,603.263 1006.26,602.907L989.117,602.907C989.803,603.263 990.318,603.899 990.512,604.665Z" style="fill:rgb(97,110,125);fill-rule:nonzero;"/>
                <path d="M1008.75,602.907C1009.44,603.263 1009.96,603.899 1010.15,604.665L1010.94,604.665C1011.43,604.665 1011.82,604.271 1011.82,603.786C1011.82,603.301 1011.43,602.907 1010.94,602.907L1008.75,602.907Z" style="fill:rgb(97,110,125);fill-rule:nonzero;"/>
                <path d="M986.63,598.602L983.876,583.075L983.566,581.324L983.389,580.324C983.32,579.935 982.999,579.641 982.606,579.603L979.627,579.322C979.143,579.276 978.715,579.632 978.669,580.115C978.623,580.598 978.978,581.026 979.462,581.072L981.775,581.29L985.738,603.63C986.136,603.133 986.701,602.778 987.35,602.653L986.935,600.314L986.63,598.602Z" style="fill:rgb(97,110,125);fill-rule:nonzero;"/>
                <path d="M1008.6,605.331C1008.6,605.935 1008.11,606.428 1007.5,606.428C1006.9,606.428 1006.41,605.935 1006.41,605.331C1006.41,604.726 1006.9,604.234 1007.5,604.234C1008.11,604.234 1008.6,604.726 1008.6,605.331ZM1005.23,605.331C1005.23,606.588 1006.25,607.608 1007.5,607.608C1008.76,607.608 1009.78,606.588 1009.78,605.331C1009.78,604.073 1008.76,603.053 1007.5,603.053C1006.25,603.053 1005.23,604.073 1005.23,605.331Z" style="fill:rgb(97,110,125);fill-rule:nonzero;"/>
                <path d="M1007.5,607.608C1006.25,607.608 1005.23,606.588 1005.23,605.331C1005.23,604.073 1006.25,603.053 1007.5,603.053C1008.76,603.053 1009.78,604.073 1009.78,605.331C1009.78,606.588 1008.76,607.608 1007.5,607.608ZM1008.75,602.907C1008.38,602.714 1007.96,602.602 1007.5,602.602C1007.05,602.602 1006.63,602.714 1006.26,602.907C1005.57,603.263 1005.05,603.899 1004.86,604.665C1004.81,604.878 1004.78,605.101 1004.78,605.331C1004.78,606.836 1006,608.06 1007.5,608.06C1009.01,608.06 1010.23,606.836 1010.23,605.331C1010.23,605.101 1010.2,604.878 1010.15,604.665C1009.96,603.899 1009.44,603.263 1008.75,602.907Z" style="fill:white;fill-rule:nonzero;"/>
                <path d="M1006.41,605.331C1006.41,605.935 1006.9,606.428 1007.5,606.428C1008.11,606.428 1008.6,605.935 1008.6,605.331C1008.6,604.726 1008.11,604.234 1007.5,604.234C1006.9,604.234 1006.41,604.726 1006.41,605.331Z" style="fill:rgb(130,191,171);fill-rule:nonzero;"/>
                <path d="M988.965,605.331C988.965,605.935 988.474,606.428 987.868,606.428C987.264,606.428 986.771,605.935 986.771,605.331C986.771,604.726 987.264,604.234 987.868,604.234C988.474,604.234 988.965,604.726 988.965,605.331ZM985.591,605.331C985.591,606.588 986.61,607.608 987.868,607.608C989.126,607.608 990.146,606.588 990.146,605.331C990.146,604.073 989.126,603.053 987.868,603.053C986.61,603.053 985.591,604.073 985.591,605.331Z" style="fill:rgb(97,110,125);fill-rule:nonzero;"/>
                <path d="M987.868,607.608C986.61,607.608 985.591,606.588 985.591,605.331C985.591,604.073 986.61,603.053 987.868,603.053C989.126,603.053 990.146,604.073 990.146,605.331C990.146,606.588 989.126,607.608 987.868,607.608ZM989.117,602.907C988.742,602.714 988.318,602.602 987.868,602.602C987.691,602.602 987.518,602.62 987.35,602.653C986.701,602.778 986.136,603.133 985.738,603.63C985.364,604.097 985.14,604.687 985.14,605.331C985.14,606.836 986.363,608.06 987.868,608.06C989.373,608.06 990.598,606.836 990.598,605.331C990.598,605.101 990.565,604.878 990.512,604.665C990.318,603.899 989.803,603.263 989.117,602.907Z" style="fill:white;fill-rule:nonzero;"/>
                <path d="M986.771,605.331C986.771,605.935 987.264,606.428 987.868,606.428C988.474,606.428 988.965,605.935 988.965,605.331C988.965,604.726 988.474,604.234 987.868,604.234C987.264,604.234 986.771,604.726 986.771,605.331Z" style="fill:rgb(130,191,171);fill-rule:nonzero;"/>
            </g>
        </g>
    </g>
</svg>
