<?xml version="1.0" encoding="UTF-8" standalone="no"?>
<!DOCTYPE svg PUBLIC "-//W3C//DTD SVG 1.1//EN" "http://www.w3.org/Graphics/SVG/1.1/DTD/svg11.dtd">
<svg width="100%" height="100%" viewBox="0 0 31 31" version="1.1" xmlns="http://www.w3.org/2000/svg" xmlns:xlink="http://www.w3.org/1999/xlink" xml:space="preserve" xmlns:serif="http://www.serif.com/" style="fill-rule:evenodd;clip-rule:evenodd;stroke-linejoin:round;stroke-miterlimit:2;">
    <g transform="matrix(1,0,0,1,-671,-446)">
        <g>
            <g>
                <path d="M677.001,466.866C674.527,466.866 672.523,464.862 672.523,462.39C672.523,459.918 674.527,457.913 677.001,457.913C679.473,457.913 681.477,459.918 681.477,462.39C681.477,464.862 679.473,466.866 677.001,466.866ZM682.759,462.39C682.759,459.179 680.147,456.568 676.938,456.568C673.728,456.568 671.116,459.179 671.116,462.39C671.116,465.006 672.852,467.224 675.231,467.956C675.353,468.325 675.488,468.692 675.651,469.051C676.813,471.604 678.9,473.55 681.528,474.534L681.529,474.534C684.157,475.517 687.01,475.417 689.563,474.254C689.862,474.117 690.153,473.966 690.437,473.804L691.561,476.271L695.152,469.769L687.9,468.237L689.347,471.412C689.068,471.584 688.781,471.743 688.481,471.88C686.565,472.753 684.423,472.827 682.449,472.089C680.514,471.365 678.975,469.948 678.09,468.096C680.75,467.56 682.759,465.206 682.759,462.39Z" style="fill:rgb(97,110,125);fill-rule:nonzero;"/>
                <path d="M676.225,461.176C676.224,461.003 676.323,460.869 676.523,460.773L676.563,460.758L676.563,461.613C676.339,461.527 676.226,461.381 676.225,461.176ZM677.634,462.873C677.911,462.96 678.051,463.121 678.049,463.358C678.046,463.579 677.946,463.75 677.746,463.871L677.634,463.93L677.634,462.873ZM676.842,465.805L677.354,465.805C677.509,465.805 677.634,465.68 677.634,465.525L677.634,465.049C678.044,464.988 678.401,464.86 678.704,464.661C679.182,464.345 679.428,463.911 679.438,463.355C679.445,463.009 679.35,462.714 679.149,462.473C678.826,462.086 678.32,461.845 677.634,461.749L677.634,460.784C677.754,460.841 677.871,460.917 677.983,461.014C678.052,461.071 678.131,461.1 678.223,461.101C678.297,461.101 678.397,461.05 678.397,461.05L678.398,461.049L678.974,460.689C679.052,460.639 679.092,460.576 679.093,460.499C679.095,460.438 679.068,460.383 679.018,460.336C678.66,459.93 678.198,459.676 677.634,459.578L677.634,459.036C677.634,458.881 677.509,458.755 677.354,458.755L676.842,458.755C676.688,458.755 676.563,458.881 676.563,459.036L676.563,459.564C676.297,459.601 676.057,459.668 675.844,459.766C675.155,460.08 674.817,460.55 674.829,461.172C674.835,461.479 674.927,461.751 675.105,461.987C675.404,462.389 675.891,462.64 676.563,462.744L676.563,463.948C676.271,463.845 675.998,463.655 675.739,463.375C675.683,463.301 675.606,463.264 675.513,463.264C675.461,463.264 675.359,463.308 675.359,463.308L675.357,463.309L674.835,463.616C674.746,463.667 674.702,463.736 674.704,463.821C674.705,463.876 674.725,463.925 674.766,463.97C674.901,464.16 675.084,464.341 675.313,464.515C675.682,464.799 676.099,464.976 676.563,465.05L676.563,465.525C676.563,465.68 676.688,465.805 676.842,465.805Z" style="fill:white;fill-rule:nonzero;"/>
                <path d="M676.225,461.176C676.226,461.381 676.339,461.527 676.563,461.613L676.563,460.758L676.523,460.773C676.323,460.869 676.224,461.003 676.225,461.176Z" style="fill:rgb(170,212,200);fill-rule:nonzero;"/>
                <path d="M677.634,463.93L677.746,463.871C677.946,463.75 678.046,463.579 678.049,463.358C678.051,463.121 677.911,462.96 677.634,462.873L677.634,463.93Z" style="fill:rgb(170,212,200);fill-rule:nonzero;"/>
                <path d="M678.704,464.661C678.401,464.86 678.044,464.988 677.634,465.049L677.634,465.525C677.634,465.68 677.509,465.805 677.354,465.805L676.842,465.805C676.688,465.805 676.563,465.68 676.563,465.525L676.563,465.05C676.099,464.976 675.682,464.799 675.313,464.515C675.084,464.341 674.901,464.16 674.766,463.97C674.725,463.925 674.705,463.876 674.704,463.821C674.702,463.736 674.746,463.667 674.835,463.616L675.357,463.309L675.359,463.308C675.359,463.308 675.461,463.264 675.513,463.264C675.606,463.264 675.683,463.301 675.739,463.375C675.998,463.655 676.271,463.845 676.563,463.948L676.563,462.744C675.891,462.64 675.404,462.389 675.105,461.987C674.927,461.751 674.835,461.479 674.829,461.172C674.817,460.55 675.155,460.08 675.844,459.766C676.057,459.668 676.297,459.601 676.563,459.564L676.563,459.036C676.563,458.881 676.688,458.755 676.842,458.755L677.354,458.755C677.509,458.755 677.634,458.881 677.634,459.036L677.634,459.578C678.198,459.676 678.66,459.93 679.018,460.336C679.068,460.383 679.095,460.438 679.093,460.499C679.092,460.576 679.052,460.639 678.974,460.689L678.398,461.049L678.397,461.05C678.397,461.05 678.297,461.101 678.223,461.101C678.131,461.1 678.052,461.071 677.983,461.014C677.871,460.917 677.754,460.841 677.634,460.784L677.634,461.749C678.32,461.845 678.826,462.086 679.149,462.473C679.35,462.714 679.445,463.009 679.438,463.355C679.428,463.911 679.182,464.345 678.704,464.661ZM677.001,457.913C674.527,457.913 672.523,459.918 672.523,462.39C672.523,464.862 674.527,466.866 677.001,466.866C679.473,466.866 681.477,464.862 681.477,462.39C681.477,459.918 679.473,457.913 677.001,457.913Z" style="fill:rgb(170,212,200);fill-rule:nonzero;"/>
                <path d="M695.776,457.913C698.249,457.913 700.253,459.918 700.253,462.39C700.253,464.862 698.249,466.866 695.776,466.866C693.305,466.866 691.301,464.862 691.301,462.39C691.301,459.918 693.305,457.913 695.776,457.913ZM689.894,462.39C689.894,465.6 692.505,468.212 695.715,468.212C698.925,468.212 701.536,465.6 701.536,462.39C701.536,459.585 699.544,457.239 696.9,456.69C696.784,456.343 696.654,456 696.502,455.663C695.339,453.11 693.251,451.164 690.624,450.18L690.623,450.18C687.995,449.197 685.143,449.297 682.59,450.459C682.289,450.596 681.999,450.747 681.715,450.909L680.592,448.443L677.001,454.945L684.252,456.477L682.806,453.302C683.084,453.13 683.371,452.97 683.671,452.833C685.587,451.961 687.729,451.887 689.703,452.625C691.684,453.366 693.255,454.829 694.128,456.745C694.134,456.759 694.139,456.774 694.145,456.789C691.696,457.477 689.894,459.724 689.894,462.39Z" style="fill:rgb(97,110,125);fill-rule:nonzero;"/>
                <path d="M696.826,461.444L696.823,461.431L696.826,461.444L696.826,461.445L696.826,461.444Z" style="fill:rgb(170,212,200);fill-rule:nonzero;"/>
                <path d="M696.863,459.364C697.036,459.386 697.192,459.415 697.332,459.449C697.473,459.484 697.589,459.52 697.685,459.558C697.777,459.595 697.845,459.627 697.897,459.661L697.906,459.667L697.914,459.674L698.009,459.763L698.017,459.777C698.043,459.818 698.061,459.863 698.074,459.91L698.074,459.909L698.075,459.913C698.087,459.96 698.097,460.015 698.104,460.079L698.104,460.08C698.111,460.147 698.115,460.225 698.115,460.316C698.115,460.396 698.111,460.463 698.104,460.52L698.104,460.521C698.095,460.577 698.081,460.628 698.056,460.677L698.049,460.692L698.037,460.705L697.953,460.794L697.916,460.803L697.826,460.823L697.812,460.823C697.726,460.822 697.644,460.794 697.559,460.75L697.557,460.749C697.487,460.712 697.398,460.67 697.292,460.625C697.19,460.582 697.065,460.541 696.919,460.504C696.778,460.47 696.61,460.451 696.414,460.451C696.229,460.451 696.07,460.472 695.94,460.512C695.809,460.551 695.699,460.608 695.606,460.681C695.513,460.755 695.438,460.843 695.381,460.948C695.345,461.012 695.315,461.084 695.289,461.161L696.559,461.161L696.573,461.164L696.68,461.189L696.706,461.217L696.772,461.287L696.781,461.303C696.802,461.345 696.816,461.391 696.826,461.444L696.823,461.431L696.826,461.444L696.826,461.445C696.837,461.502 696.842,461.566 696.842,461.638C696.84,461.781 696.83,461.887 696.777,461.979C696.734,462.059 696.641,462.123 696.544,462.12L695.136,462.12C695.135,462.125 695.135,462.13 695.135,462.13L695.135,462.134C695.133,462.179 695.132,462.229 695.132,462.285C695.132,462.333 695.133,462.38 695.135,462.428L695.135,462.429C695.135,462.439 695.136,462.451 695.136,462.462L696.561,462.462L696.577,462.466L696.682,462.495L696.707,462.521L696.772,462.593L696.781,462.608C696.803,462.651 696.816,462.697 696.826,462.751L696.826,462.75L696.825,462.742L696.826,462.751C696.837,462.807 696.842,462.869 696.842,462.939C696.841,463.079 696.829,463.186 696.778,463.278C696.736,463.36 696.644,463.428 696.544,463.425L695.28,463.425C695.302,463.495 695.329,463.561 695.364,463.621L695.365,463.622C695.421,463.72 695.496,463.802 695.592,463.871C695.686,463.939 695.805,463.994 695.949,464.033C696.094,464.072 696.271,464.092 696.481,464.092C696.678,464.092 696.846,464.073 696.982,464.038C697.128,464 697.253,463.957 697.356,463.913C697.465,463.865 697.555,463.823 697.625,463.786C697.71,463.742 697.785,463.713 697.869,463.712L697.883,463.712L697.897,463.715L698.013,463.741L698.04,463.772L698.109,463.851L698.116,463.867C698.14,463.919 698.152,463.975 698.162,464.041L698.162,464.042C698.169,464.107 698.173,464.188 698.173,464.287C698.173,464.42 698.158,464.531 698.123,464.625L698.123,464.626C698.089,464.713 698.039,464.79 697.97,464.846C697.907,464.896 697.828,464.939 697.731,464.983L697.73,464.984C697.63,465.027 697.512,465.068 697.374,465.104C697.234,465.141 697.076,465.17 696.9,465.194C696.723,465.217 696.527,465.229 696.315,465.229C695.915,465.229 695.557,465.187 695.243,465.102C694.929,465.017 694.656,464.894 694.427,464.73C694.198,464.567 694.012,464.364 693.869,464.125C693.745,463.917 693.657,463.68 693.595,463.425L693.19,463.425C693.09,463.428 692.998,463.359 692.956,463.279L692.955,463.278C692.906,463.186 692.895,463.079 692.893,462.939C692.893,462.872 692.896,462.812 692.901,462.76L692.901,462.759L692.901,462.76C692.908,462.707 692.917,462.659 692.938,462.614L692.944,462.6L692.954,462.588L693.026,462.497L693.066,462.485L693.152,462.462L693.504,462.462L693.504,462.461C693.502,462.412 693.501,462.364 693.501,462.318C693.501,462.261 693.502,462.204 693.504,462.146L693.504,462.147L693.504,462.12L693.171,462.12C693.123,462.12 693.072,462.107 693.031,462.078C692.989,462.05 692.96,462.01 692.94,461.968C692.902,461.88 692.895,461.779 692.893,461.638C692.893,461.565 692.897,461.502 692.908,461.444L692.908,461.445C692.919,461.391 692.934,461.342 692.959,461.298L692.967,461.285L692.977,461.274L693.057,461.19L693.094,461.181L693.176,461.161L693.635,461.161C693.705,460.918 693.798,460.688 693.922,460.482C694.063,460.244 694.246,460.039 694.467,459.868C694.69,459.695 694.957,459.563 695.262,459.47C695.569,459.377 695.924,459.332 696.326,459.332C696.51,459.332 696.689,459.342 696.863,459.364ZM691.301,462.39C691.301,464.862 693.305,466.866 695.776,466.866C698.249,466.866 700.253,464.862 700.253,462.39C700.253,459.918 698.249,457.913 695.776,457.913C693.305,457.913 691.301,459.918 691.301,462.39Z" style="fill:rgb(170,212,200);fill-rule:nonzero;"/>
                <path d="M696.826,461.445L696.826,461.444L696.826,461.445Z" style="fill:rgb(170,212,200);fill-rule:nonzero;"/>
                <path d="M693.171,462.462L693.152,462.462L693.066,462.485L693.026,462.497L692.954,462.588L692.944,462.6L692.938,462.614C692.917,462.659 692.908,462.707 692.901,462.76C692.896,462.812 692.893,462.872 692.893,462.939C692.895,463.079 692.906,463.186 692.955,463.278L692.956,463.279C692.998,463.359 693.09,463.428 693.19,463.425L693.595,463.425C693.657,463.68 693.745,463.917 693.869,464.125C694.012,464.364 694.198,464.567 694.427,464.73C694.656,464.894 694.929,465.017 695.243,465.102C695.557,465.187 695.915,465.229 696.315,465.229C696.527,465.229 696.723,465.217 696.9,465.194C697.076,465.17 697.234,465.141 697.374,465.104C697.512,465.068 697.63,465.027 697.73,464.984L697.731,464.983C697.828,464.939 697.907,464.896 697.97,464.846C698.039,464.79 698.089,464.713 698.123,464.626L698.123,464.625C698.158,464.531 698.173,464.42 698.173,464.287C698.173,464.188 698.169,464.107 698.162,464.042L698.162,464.041C698.152,463.975 698.14,463.919 698.116,463.867L698.109,463.851L698.04,463.772L698.013,463.741L697.897,463.715L697.883,463.712L697.869,463.712C697.785,463.713 697.71,463.742 697.625,463.786C697.555,463.823 697.465,463.865 697.356,463.913C697.253,463.957 697.128,464 696.982,464.038C696.846,464.073 696.678,464.092 696.481,464.092C696.271,464.092 696.094,464.072 695.949,464.033C695.805,463.994 695.686,463.939 695.592,463.871C695.496,463.802 695.421,463.72 695.365,463.622L695.364,463.621C695.329,463.561 695.302,463.495 695.28,463.425L696.544,463.425C696.644,463.428 696.736,463.36 696.778,463.278C696.829,463.186 696.841,463.079 696.842,462.939C696.842,462.869 696.837,462.807 696.826,462.751C696.816,462.697 696.803,462.651 696.781,462.608L696.772,462.593L696.707,462.521L696.682,462.495L696.577,462.466L696.561,462.462L695.136,462.462C695.136,462.451 695.135,462.439 695.135,462.429L695.135,462.428C695.133,462.38 695.132,462.333 695.132,462.285C695.132,462.229 695.133,462.179 695.135,462.134L695.135,462.136C695.135,462.136 695.135,462.125 695.136,462.12L696.544,462.12C696.641,462.123 696.734,462.059 696.777,461.979C696.83,461.887 696.84,461.781 696.842,461.638C696.842,461.566 696.837,461.502 696.826,461.445C696.816,461.392 696.803,461.346 696.781,461.303L696.772,461.287L696.706,461.217L696.68,461.189L696.573,461.164L696.559,461.161L695.289,461.161C695.315,461.084 695.345,461.012 695.381,460.948C695.438,460.843 695.513,460.755 695.606,460.681C695.699,460.608 695.809,460.551 695.94,460.512C696.07,460.472 696.229,460.451 696.414,460.451C696.61,460.451 696.778,460.47 696.919,460.504C697.065,460.541 697.19,460.582 697.292,460.625C697.398,460.67 697.487,460.712 697.557,460.749L697.559,460.75C697.644,460.794 697.726,460.822 697.812,460.823L697.826,460.823L697.916,460.803L697.953,460.794L698.037,460.705L698.049,460.692L698.056,460.677C698.081,460.628 698.095,460.577 698.104,460.521L698.104,460.52C698.111,460.463 698.115,460.396 698.115,460.316C698.115,460.225 698.111,460.147 698.104,460.08L698.104,460.079C698.097,460.015 698.087,459.96 698.075,459.913L698.074,459.909L698.074,459.91C698.061,459.863 698.043,459.818 698.017,459.777L698.009,459.763L697.914,459.674L697.906,459.667L697.897,459.661C697.845,459.627 697.777,459.595 697.685,459.558C697.589,459.52 697.473,459.484 697.332,459.449C697.192,459.415 697.036,459.386 696.863,459.364C696.689,459.342 696.51,459.332 696.326,459.332C695.924,459.332 695.569,459.377 695.262,459.47C694.957,459.563 694.69,459.695 694.467,459.868C694.246,460.039 694.063,460.244 693.922,460.482C693.798,460.688 693.705,460.918 693.635,461.161L693.19,461.161L693.176,461.161L693.094,461.181L693.057,461.19L692.977,461.274L692.967,461.285L692.959,461.298C692.934,461.342 692.919,461.391 692.908,461.445L692.908,461.444C692.897,461.502 692.893,461.565 692.893,461.638C692.895,461.779 692.902,461.88 692.94,461.968C692.96,462.01 692.989,462.05 693.031,462.078C693.072,462.107 693.123,462.12 693.171,462.12L693.504,462.12L693.504,462.147L693.504,462.146C693.502,462.204 693.501,462.261 693.501,462.318C693.501,462.364 693.502,462.412 693.504,462.461L693.504,462.462L693.171,462.462Z" style="fill:white;fill-rule:nonzero;"/>
                <path d="M696.778,463.278" style="fill:white;fill-rule:nonzero;"/>
                <path d="M692.901,462.759L692.901,462.76L692.901,462.759Z" style="fill:white;fill-rule:nonzero;"/>
                <path d="M696.826,461.445L696.826,461.444L696.823,461.431L696.826,461.445Z" style="fill:white;fill-rule:nonzero;"/>
                <path d="M696.826,462.75L696.825,462.742L696.826,462.75Z" style="fill:white;fill-rule:nonzero;"/>
                <path d="M696.826,462.75L696.826,462.751L696.826,462.75Z" style="fill:white;fill-rule:nonzero;"/>
            </g>
        </g>
    </g>
</svg>
