<?xml version="1.0" encoding="UTF-8" standalone="no"?>
<!DOCTYPE svg PUBLIC "-//W3C//DTD SVG 1.1//EN" "http://www.w3.org/Graphics/SVG/1.1/DTD/svg11.dtd">
<svg width="100%" height="100%" viewBox="0 0 42 42" version="1.1" xmlns="http://www.w3.org/2000/svg" xmlns:xlink="http://www.w3.org/1999/xlink" xml:space="preserve" xmlns:serif="http://www.serif.com/" style="fill-rule:evenodd;clip-rule:evenodd;stroke-linejoin:round;stroke-miterlimit:2;">
    <g transform="matrix(1,0,0,1,-851,-571)">
        <g>
            <g>
                <path d="M892.013,585.457L891.938,585.345L889.407,582.707C889.258,582.484 889.355,582.157 889.629,582.075C890.013,581.958 890.378,581.752 890.691,581.454C891.747,580.447 891.794,578.79 890.786,577.784C889.826,576.731 888.17,576.704 887.116,577.715C886.805,578.014 886.582,578.369 886.449,578.748C886.354,579.017 886.023,579.101 885.808,578.941L883.285,576.293L883.176,576.214C883.017,576.061 882.762,576.063 882.597,576.222L879.67,579.029C879.488,579.041 879.31,578.94 879.254,578.747C879.006,577.887 878.29,577.144 877.077,576.91C876.953,576.886 876.82,576.884 876.695,576.906C874.211,577.344 873.571,579.926 874.906,581.327C875.189,581.624 875.529,581.834 875.894,581.957C876.091,582.023 876.178,582.224 876.143,582.412L873.2,585.235C873.028,585.398 873.021,585.664 873.179,585.827L875.84,588.602L875.887,588.639L875.903,588.656C876.129,588.893 876.523,588.767 876.606,588.442C876.85,587.505 877.625,586.668 878.919,586.413C879.161,586.395 879.404,586.411 879.642,586.461C880.187,586.61 880.618,586.87 880.94,587.197C881.253,587.534 881.494,587.977 881.617,588.529C881.657,588.767 881.663,589.011 881.634,589.252C881.32,590.534 880.449,591.27 879.502,591.471C879.175,591.54 879.031,591.929 879.258,592.164L879.273,592.181L879.309,592.23L881.96,595.013C882.117,595.179 882.383,595.181 882.553,595.018L885.506,592.204C885.695,592.177 885.892,592.275 885.949,592.474C886.057,592.845 886.251,593.194 886.535,593.489C887.875,594.887 890.481,594.363 891.03,591.901C891.059,591.776 891.063,591.643 891.044,591.519C890.864,590.297 890.154,589.548 889.308,589.262C889.117,589.197 889.022,589.014 889.044,588.834L891.979,586.036C892.145,585.879 892.157,585.624 892.013,585.457Z" style="fill:rgb(170,212,200);fill-rule:nonzero;"/>
                <path d="M878.567,611.251L878.59,611.251L878.65,611.26L882.493,611.276C882.723,611.277 882.907,611.086 882.908,610.852L882.925,606.772C883.037,606.618 883.242,606.543 883.427,606.64C883.769,606.819 884.155,606.921 884.564,606.921C886.5,606.924 887.929,604.681 886.534,602.578C886.463,602.473 886.371,602.377 886.269,602.304C885.262,601.587 884.231,601.58 883.438,601.993C883.258,602.085 883.062,602.025 882.946,601.885L882.963,597.831C882.964,597.603 882.789,597.417 882.569,597.407L882.437,597.381L878.779,597.379C878.516,597.332 878.348,597.035 878.479,596.781C878.659,596.423 878.764,596.017 878.766,595.585C878.772,594.126 877.61,592.944 876.187,592.974C874.761,592.936 873.594,594.113 873.593,595.572C873.593,596.004 873.693,596.411 873.876,596.769C874.004,597.024 873.835,597.321 873.57,597.367L869.912,597.351L869.78,597.374C869.623,597.381 869.491,597.48 869.427,597.619C869.448,597.683 869.463,597.751 869.463,597.822L869.456,602.008L869.227,601.963C869.122,602.008 869.004,602.016 868.89,601.956L868.819,601.925C868.695,601.926 868.569,601.935 868.438,601.954L868.404,601.958L868.371,601.953C868.227,601.926 868.098,601.902 867.974,601.902C866.801,601.905 865.83,602.81 865.683,603.987C865.67,604.089 865.661,604.19 865.661,604.297C865.661,604.719 865.774,605.17 866.018,605.627C866.07,605.726 866.123,605.825 866.188,605.926C866.245,606.01 866.319,606.087 866.402,606.144C866.94,606.525 867.47,606.679 867.962,606.68C868.094,606.679 868.223,606.668 868.349,606.647L868.382,606.642L868.416,606.646C868.522,606.664 868.605,606.681 868.683,606.69C868.748,606.663 868.813,606.637 868.876,606.603C869.01,606.534 869.153,606.557 869.265,606.631L869.447,606.595L869.44,610.844C869.44,610.898 869.432,610.952 869.419,611.003C869.486,611.143 869.623,611.244 869.787,611.244L873.631,611.246L873.689,611.238L873.713,611.238C874.04,611.239 874.222,610.868 874.046,610.583C873.538,609.758 873.473,608.62 874.187,607.51C874.341,607.322 874.521,607.159 874.721,607.022C875.205,606.732 875.692,606.602 876.152,606.596C876.611,606.603 877.098,606.738 877.581,607.029C877.779,607.167 877.959,607.331 878.113,607.52C878.821,608.634 878.748,609.771 878.236,610.594C878.061,610.878 878.24,611.251 878.567,611.251Z" style="fill:rgb(97,110,125);fill-rule:nonzero;"/>
                <path d="M864.964,596.848L864.955,596.87L864.951,596.878L864.93,596.966C864.929,597.058 865.004,597.151 865.097,597.171L868.726,597.164C868.778,597.164 868.821,597.179 868.867,597.19L868.867,597.189C868.995,597.194 869.111,597.239 869.207,597.311L869.23,597.197L869.247,593.117C869.359,592.963 869.564,592.89 869.748,592.985C870.09,593.164 870.476,593.267 870.886,593.267C872.822,593.268 874.251,591.026 872.855,588.924C872.784,588.818 872.693,588.723 872.59,588.649C871.584,587.933 870.553,587.926 869.759,588.338C869.58,588.43 869.382,588.37 869.268,588.23L869.285,584.177C869.285,583.948 869.11,583.762 868.891,583.752L868.758,583.727L865.102,583.724C864.837,583.678 864.669,583.381 864.799,583.126C864.981,582.768 865.085,582.361 865.088,581.931C865.095,580.471 863.933,579.289 862.507,579.319C861.083,579.281 859.915,580.458 859.914,581.917C859.914,582.35 860.016,582.756 860.197,583.115C860.326,583.369 860.156,583.666 859.893,583.711L856.234,583.695L856.102,583.72C855.882,583.728 855.706,583.914 855.706,584.143L855.703,588.197C855.587,588.336 855.39,588.395 855.212,588.301C854.42,587.886 853.389,587.887 852.379,588.599C852.275,588.672 852.183,588.767 852.111,588.872C850.705,590.967 852.124,593.216 854.06,593.224C854.47,593.227 854.856,593.126 855.198,592.948C855.383,592.852 855.589,592.929 855.698,593.084L855.695,597.163C855.695,597.215 855.707,597.263 855.724,597.308C855.818,597.238 855.935,597.194 856.061,597.189L856.061,597.19C856.105,597.179 856.15,597.164 856.202,597.164L859.832,597.171C859.925,597.151 860,597.058 859.998,596.967L859.977,596.878L859.973,596.868L859.968,596.857L859.963,596.846C859.778,596.471 859.671,596.049 859.669,595.601L859.668,595.601L859.668,595.589L859.668,595.587L859.668,595.58C859.668,595.297 859.722,595.033 859.792,594.786C860.125,593.63 861.159,592.771 862.403,592.771L862.47,592.772L862.525,592.771C863.769,592.771 864.803,593.63 865.137,594.786C865.207,595.033 865.26,595.297 865.26,595.581L865.26,595.587C865.26,596.041 865.151,596.469 864.964,596.848Z" style="fill:rgb(97,110,125);fill-rule:nonzero;"/>
                <path d="M866.225,602.136C866.702,601.71 867.326,601.448 868.011,601.446L868.011,601.65L868.011,601.446C868.177,601.446 868.323,601.475 868.458,601.498C868.596,601.48 868.733,601.469 868.871,601.468C868.939,601.468 869.007,601.471 869.075,601.477L869.08,597.785C869.08,597.669 868.997,597.585 868.9,597.573L868.887,597.57L868.855,597.569L868.825,597.558L868.764,597.546L865.089,597.552L865.07,597.549C864.783,597.497 864.585,597.26 864.559,596.983L864.549,596.928C864.549,596.841 864.569,596.752 864.61,596.667L864.608,596.667L864.616,596.645L864.621,596.639C864.784,596.31 864.879,595.942 864.879,595.549L864.879,595.543C864.879,595.312 864.836,595.089 864.771,594.865C864.484,593.874 863.607,593.153 862.563,593.153L862.509,593.154L862.503,593.154L862.497,593.154L862.441,593.153C861.95,593.153 861.499,593.316 861.125,593.589C860.705,593.895 860.384,594.34 860.232,594.865C860.195,594.992 860.169,595.12 860.15,595.249C860.136,595.346 860.124,595.442 860.124,595.541L860.124,595.549C860.124,595.942 860.219,596.31 860.383,596.638L860.388,596.646L860.392,596.656L860.396,596.669L860.395,596.67C860.434,596.753 860.455,596.842 860.455,596.929L860.445,596.978C860.42,597.258 860.222,597.497 859.933,597.549L859.915,597.552L856.24,597.546L856.211,597.552L856.179,597.558L856.148,597.569L856.117,597.57C856.014,597.574 855.923,597.663 855.922,597.785L855.929,601.914L855.881,601.973C855.766,602.11 855.596,602.198 855.409,602.198C855.315,602.198 855.219,602.176 855.131,602.13C854.818,601.968 854.468,601.875 854.093,601.875C853.599,601.875 853.06,602.035 852.518,602.421C852.436,602.478 852.359,602.555 852.304,602.64C851.932,603.196 851.776,603.753 851.776,604.268C851.776,605.592 852.815,606.659 854.087,606.661L854.091,606.661C854.464,606.661 854.816,606.57 855.13,606.406C855.215,606.362 855.308,606.34 855.398,606.34C855.604,606.34 855.785,606.447 855.897,606.603L855.938,606.659L855.944,610.805C855.944,610.928 856.04,611.02 856.147,611.02L859.976,611.014L860.037,611.005L860.074,611.005C860.136,611.004 860.176,610.982 860.21,610.947C860.243,610.909 860.265,610.855 860.265,610.797L860.229,610.67C859.96,610.236 859.805,609.721 859.805,609.169C859.805,608.591 859.977,607.973 860.36,607.372L860.368,607.361L860.375,607.352C860.543,607.149 860.738,606.972 860.954,606.823L860.959,606.82L860.964,606.816C861.477,606.508 862.002,606.364 862.499,606.355L862.505,606.355C863.002,606.364 863.526,606.508 864.039,606.816L864.044,606.819L864.05,606.823C864.266,606.972 864.46,607.149 864.628,607.352L864.636,607.362L864.643,607.372C865.026,607.973 865.199,608.591 865.198,609.17C865.198,609.721 865.044,610.236 864.774,610.671L864.737,610.797C864.737,610.855 864.759,610.909 864.793,610.947C864.827,610.982 864.867,611.004 864.929,611.005L864.966,611.005L864.98,611.007L865.026,611.014L868.855,611.02C868.963,611.02 869.06,610.928 869.06,610.805L869.066,607.061C868.98,607.072 868.891,607.08 868.798,607.08L868.796,607.08C868.638,607.079 868.514,607.044 868.409,607.026C868.274,607.047 868.139,607.061 867.999,607.061C867.439,607.061 866.844,606.883 866.262,606.489L866.196,606.449C866.073,606.36 865.964,606.249 865.878,606.12C865.659,605.792 865.508,605.458 865.41,605.127C865.38,605.023 865.357,604.92 865.338,604.817C865.303,604.629 865.279,604.442 865.279,604.259C865.279,603.412 865.645,602.652 866.225,602.136Z" style="fill:rgb(97,110,125);fill-rule:nonzero;"/>
            </g>
        </g>
    </g>
</svg>
