<?xml version="1.0" encoding="UTF-8" standalone="no"?>
<!DOCTYPE svg PUBLIC "-//W3C//DTD SVG 1.1//EN" "http://www.w3.org/Graphics/SVG/1.1/DTD/svg11.dtd">
<svg width="100%" height="100%" viewBox="0 0 44 44" version="1.1" xmlns="http://www.w3.org/2000/svg" xmlns:xlink="http://www.w3.org/1999/xlink" xml:space="preserve" xmlns:serif="http://www.serif.com/" style="fill-rule:evenodd;clip-rule:evenodd;stroke-linejoin:round;stroke-miterlimit:2;">
    <g transform="matrix(1,0,0,1,-665,-176)">
        <g>
            <g>
                <path d="M691.693,185.332L691.527,185.3C691.208,185.287 690.938,185.536 690.924,185.854L690.831,187.972C690.82,188.208 690.963,188.43 691.185,188.521C694.49,189.871 697.077,192.577 698.282,195.945C698.361,196.163 698.561,196.31 698.79,196.319L700.946,196.413C701.133,196.421 701.313,196.336 701.428,196.19C701.544,196.042 701.579,195.85 701.527,195.671C700.095,190.872 696.418,187.007 691.693,185.332Z" style="fill:rgb(130,191,171);fill-rule:nonzero;"/>
                <path d="M692.509,179.256C692.19,179.242 691.919,179.489 691.906,179.808L691.815,181.894C691.804,182.152 691.971,182.386 692.223,182.462C698.317,184.265 703.005,189.231 704.458,195.429C704.516,195.676 704.732,195.857 704.984,195.868L707.075,195.958C707.254,195.966 707.425,195.891 707.541,195.755C707.656,195.618 707.703,195.439 707.666,195.266C706.094,187.583 700.193,181.307 692.634,179.274L692.509,179.256Z" style="fill:rgb(97,110,125);fill-rule:nonzero;"/>
                <path d="M670.837,194.05L675.868,189.02L674.261,187.412L669.229,192.442L670.837,194.05Z" style="fill:rgb(130,191,171);fill-rule:nonzero;"/>
                <path d="M667.669,190.882L672.699,185.851L671.091,184.243L666.061,189.274L667.669,190.882Z" style="fill:rgb(130,191,171);fill-rule:nonzero;"/>
                <path d="M681.479,193.356L671.41,183.288C671.326,183.204 671.211,183.156 671.091,183.156C670.974,183.156 670.858,183.204 670.773,183.288L665.105,188.956C665.021,189.04 664.974,189.155 664.974,189.274C664.974,189.393 665.021,189.509 665.105,189.593L675.295,199.781C675.378,199.865 675.494,199.914 675.612,199.914C675.731,199.914 675.848,199.865 675.932,199.781L677.524,198.189L677.94,198.605C678.069,197.335 678.527,196.126 679.324,195.115L675.612,198.826L674.053,197.267L672.396,195.61L670.837,194.05L669.229,192.442L667.669,190.882L666.061,189.274L671.091,184.243L672.699,185.851L674.261,187.412L675.868,189.02L677.429,190.58L680.644,193.795L680.393,194.046C680.733,193.777 681.098,193.548 681.479,193.356Z" style="fill:rgb(97,110,125);fill-rule:nonzero;"/>
                <path d="M692.663,215.877L697.695,210.846L696.087,209.238L691.056,214.269L692.663,215.877Z" style="fill:rgb(130,191,171);fill-rule:nonzero;"/>
                <path d="M694.225,217.438L695.832,219.045L700.862,214.014L699.255,212.407L694.225,217.438Z" style="fill:rgb(130,191,171);fill-rule:nonzero;"/>
                <path d="M689.495,212.708L694.527,207.678L692.871,206.022L687.84,211.053L689.495,212.708Z" style="fill:rgb(130,191,171);fill-rule:nonzero;"/>
                <path d="M688.09,207.682C687.615,207.794 687.125,207.857 686.629,207.871L685.324,209.174C685.24,209.258 685.192,209.375 685.192,209.493C685.192,209.611 685.24,209.728 685.324,209.812L695.514,220C695.598,220.084 695.713,220.132 695.832,220.132C695.95,220.132 696.065,220.084 696.15,220L701.817,214.333C701.902,214.249 701.95,214.133 701.95,214.014C701.95,213.896 701.902,213.78 701.817,213.696L692.418,204.296C692.279,204.572 692.122,204.839 691.942,205.094L692.871,206.022L698.475,211.626L699.255,212.407L700.862,214.014L695.832,219.045L694.225,217.438L692.663,215.877L691.056,214.269L689.495,212.708L687.84,211.053L686.279,209.493L687.554,208.219L688.09,207.682Z" style="fill:rgb(97,110,125);fill-rule:nonzero;"/>
                <path d="M691.056,214.269L696.087,209.238L694.527,207.678L689.495,212.708L691.056,214.269Z" style="fill:rgb(170,212,200);fill-rule:nonzero;"/>
                <path d="M692.663,215.877L694.225,217.438L699.255,212.407L698.475,211.626L697.695,210.846L692.663,215.877Z" style="fill:rgb(170,212,200);fill-rule:nonzero;"/>
                <path d="M688.09,207.682L687.554,208.219L686.279,209.493L687.84,211.053L692.871,206.022L691.942,205.094C691.731,205.395 691.493,205.681 691.226,205.948C690.344,206.83 689.261,207.404 688.09,207.682Z" style="fill:rgb(170,212,200);fill-rule:nonzero;"/>
                <path d="M674.053,197.267L679.084,192.235L677.429,190.58L672.396,195.61L674.053,197.267Z" style="fill:rgb(130,191,171);fill-rule:nonzero;"/>
                <path d="M672.396,195.61L677.429,190.58L675.868,189.02L670.837,194.05L672.396,195.61Z" style="fill:rgb(170,212,200);fill-rule:nonzero;"/>
                <path d="M669.229,192.442L674.261,187.412L672.699,185.851L667.669,190.882L669.229,192.442Z" style="fill:rgb(170,212,200);fill-rule:nonzero;"/>
                <path d="M675.612,198.826L679.324,195.115C679.479,194.918 679.646,194.729 679.827,194.549C680.008,194.368 680.197,194.201 680.393,194.046L680.644,193.795L679.084,192.235L674.053,197.267L675.612,198.826Z" style="fill:rgb(170,212,200);fill-rule:nonzero;"/>
                <path d="M678.141,201.285C676.563,203.051 676.621,205.763 678.316,207.458C680.013,209.153 682.724,209.211 684.489,207.634C683.038,207.271 681.628,206.496 680.453,205.322C679.279,204.147 678.504,202.737 678.141,201.285Z" style="fill:rgb(97,110,125);fill-rule:nonzero;"/>
                <path d="M689.081,195.612C689.045,195.538 689.003,195.469 688.977,195.389L688.93,195.234C688.883,195.05 688.865,194.864 688.87,194.682C686.091,192.797 682.522,192.873 680.337,195.058C677.816,197.579 678.097,201.946 680.961,204.813C683.828,207.679 688.195,207.959 690.717,205.438C692.953,203.201 692.981,199.512 690.956,196.706C690.915,196.708 690.876,196.717 690.837,196.717C690.691,196.717 690.548,196.701 690.403,196.669C690.334,196.654 690.266,196.632 690.195,196.608C690.116,196.581 690.046,196.539 689.972,196.503L685.877,200.599C685.63,200.845 685.231,200.845 684.985,200.599C684.739,200.353 684.739,199.953 684.985,199.707L689.081,195.612Z" style="fill:rgb(97,110,125);fill-rule:nonzero;"/>
                <path d="M684.985,199.707C684.739,199.953 684.739,200.353 684.985,200.599C685.231,200.845 685.63,200.845 685.877,200.599L689.972,196.503C689.775,196.408 689.594,196.295 689.441,196.144C689.29,195.993 689.176,195.809 689.081,195.612L684.985,199.707Z" style="fill:rgb(170,212,200);fill-rule:nonzero;"/>
                <path d="M689.814,193.731C689.442,194.104 689.321,194.628 689.442,195.104L689.476,195.217C689.545,195.419 689.653,195.609 689.814,195.77C689.976,195.93 690.166,196.04 690.366,196.108L690.521,196.154C690.624,196.177 690.73,196.188 690.837,196.188C691.205,196.188 691.571,196.05 691.852,195.77C692.414,195.207 692.414,194.294 691.852,193.732C691.57,193.451 691.202,193.31 690.833,193.31C690.464,193.31 690.096,193.451 689.814,193.731Z" style="fill:rgb(170,212,200);fill-rule:nonzero;"/>
                <path d="M691.852,195.77C691.571,196.05 691.205,196.188 690.837,196.188C690.73,196.188 690.624,196.177 690.521,196.154L690.366,196.108C690.166,196.04 689.976,195.93 689.814,195.77C689.653,195.609 689.545,195.419 689.476,195.217L689.442,195.104C689.321,194.628 689.442,194.104 689.814,193.731C690.096,193.451 690.464,193.31 690.833,193.31C691.202,193.31 691.57,193.451 691.852,193.732C692.414,194.294 692.414,195.207 691.852,195.77ZM689.441,193.358C689.082,193.717 688.884,194.188 688.87,194.682C688.865,194.864 688.883,195.05 688.93,195.234L688.977,195.389C689.003,195.469 689.045,195.538 689.081,195.612C689.176,195.809 689.29,195.993 689.441,196.144C689.594,196.295 689.775,196.408 689.972,196.503C690.046,196.539 690.116,196.581 690.195,196.608C690.266,196.632 690.334,196.654 690.403,196.669C690.548,196.701 690.691,196.717 690.837,196.717C690.876,196.717 690.915,196.708 690.956,196.706C691.436,196.677 691.884,196.485 692.226,196.143C692.598,195.771 692.803,195.276 692.803,194.751C692.803,194.225 692.598,193.73 692.225,193.358C691.854,192.986 691.358,192.781 690.833,192.781C690.308,192.781 689.813,192.986 689.441,193.358Z" style="fill:rgb(130,191,171);fill-rule:nonzero;"/>
            </g>
        </g>
    </g>
</svg>
