<?xml version="1.0" encoding="UTF-8" standalone="no"?>
<!DOCTYPE svg PUBLIC "-//W3C//DTD SVG 1.1//EN" "http://www.w3.org/Graphics/SVG/1.1/DTD/svg11.dtd">
<svg width="100%" height="100%" viewBox="0 0 34 34" version="1.1" xmlns="http://www.w3.org/2000/svg" xmlns:xlink="http://www.w3.org/1999/xlink" xml:space="preserve" xmlns:serif="http://www.serif.com/" style="fill-rule:evenodd;clip-rule:evenodd;stroke-linejoin:round;stroke-miterlimit:2;">
    <g transform="matrix(1,0,0,1,-607,-117)">
        <g>
            <g>
                <path d="M633.704,127.808L633.704,124.816L615.279,124.816L615.279,127.457L619.305,127.457C619.37,126.933 619.812,126.526 620.353,126.526C620.938,126.526 621.413,127.002 621.413,127.588C621.413,128.174 620.938,128.649 620.353,128.649C619.812,128.649 619.37,128.243 619.305,127.72L615.279,127.72L615.279,129.422L618.42,129.422L618.42,129.685L615.279,129.685L615.279,133.318L622.959,133.318C622.97,133.32 623.719,133.328 624.214,132.844C624.511,132.553 624.661,132.141 624.661,131.616L624.661,130.049C624.138,129.984 623.73,129.542 623.73,129.001C623.73,128.415 624.206,127.94 624.792,127.94C625.378,127.94 625.854,128.415 625.854,129.001C625.854,129.542 625.447,129.984 624.924,130.049L624.924,131.616C624.924,132.215 624.746,132.692 624.396,133.033C623.857,133.559 623.099,133.582 622.973,133.582L622.956,133.582L615.279,133.582L615.279,135.879L624.411,135.879C624.478,135.355 624.919,134.949 625.459,134.949C626.045,134.949 626.521,135.425 626.521,136.011C626.521,136.597 626.045,137.072 625.459,137.072C624.919,137.072 624.477,136.666 624.411,136.143L615.279,136.143L615.279,137.683L621.597,137.683C621.615,137.684 623.024,137.75 623.024,139.424L623.024,143.241L627.123,143.241L627.123,140.419L627.387,140.419L627.387,143.241L628.818,143.241L628.818,139.682C628.295,139.617 627.889,139.175 627.889,138.634C627.889,138.048 628.363,137.573 628.949,137.573C629.535,137.573 630.011,138.048 630.011,138.634C630.011,139.175 629.605,139.617 629.082,139.682L629.082,143.241L630.395,143.241L630.395,141.135L630.657,141.135L630.657,143.241L633.704,143.241L633.704,130.812L629.68,130.812C629.614,131.335 629.173,131.742 628.631,131.742C628.045,131.742 627.57,131.267 627.57,130.681C627.57,130.094 628.045,129.62 628.631,129.62C629.173,129.62 629.614,130.025 629.68,130.549L633.704,130.549L633.704,128.071L630.754,128.071L630.754,127.808L633.704,127.808Z" style="fill:rgb(97,110,125);fill-rule:nonzero;"/>
                <path d="M618.42,140.757C617.878,140.757 617.437,140.351 617.371,139.827L615.279,139.827L615.279,143.241L622.762,143.241L622.762,139.424C622.762,138.001 621.64,137.948 621.592,137.947L615.279,137.947L615.279,139.564L617.371,139.564C617.437,139.041 617.878,138.634 618.42,138.634C619.006,138.634 619.479,139.109 619.479,139.695C619.479,140.282 619.006,140.757 618.42,140.757Z" style="fill:rgb(97,110,125);fill-rule:nonzero;"/>
                <path d="M634.23,143.767L614.753,143.767L614.753,124.29L634.23,124.29L634.23,143.767ZM639.198,126.921L639.198,126.132L636.073,126.132L636.073,124.178C636.073,123.222 635.299,122.447 634.343,122.447L632.388,122.447L632.388,119.321L631.598,119.321L631.598,122.447L629.887,122.447L629.887,119.321L629.098,119.321L629.098,122.447L627.387,122.447L627.387,119.321L626.598,119.321L626.598,122.447L624.887,122.447L624.887,119.321L624.097,119.321L624.097,122.447L622.386,122.447L622.386,119.321L621.597,119.321L621.597,122.447L619.886,122.447L619.886,119.321L619.097,119.321L619.097,122.447L617.386,122.447L617.386,119.321L616.596,119.321L616.596,122.447L614.642,122.447C613.686,122.447 612.911,123.222 612.911,124.178L612.911,126.132L609.785,126.132L609.785,126.921L612.911,126.921L612.911,128.632L609.785,128.632L609.785,129.422L612.911,129.422L612.911,131.133L609.785,131.133L609.785,131.922L612.911,131.922L612.911,133.633L609.785,133.633L609.785,134.423L612.911,134.423L612.911,136.134L609.785,136.134L609.785,136.924L612.911,136.924L612.911,138.634L609.785,138.634L609.785,139.424L612.911,139.424L612.911,141.135L609.785,141.135L609.785,141.925L612.911,141.925L612.911,143.879C612.911,144.835 613.686,145.609 614.642,145.609L616.596,145.609L616.596,148.735L617.386,148.735L617.386,145.609L619.097,145.609L619.097,148.735L619.886,148.735L619.886,145.609L621.597,145.609L621.597,148.735L622.386,148.735L622.386,145.609L624.097,145.609L624.097,148.735L624.887,148.735L624.887,145.609L626.598,145.609L626.598,148.735L627.387,148.735L627.387,145.609L629.098,145.609L629.098,148.735L629.887,148.735L629.887,145.609L631.598,145.609L631.598,148.735L632.388,148.735L632.388,145.609L634.343,145.609C635.299,145.609 636.073,144.835 636.073,143.879L636.073,141.925L639.198,141.925L639.198,141.135L636.073,141.135L636.073,139.424L639.198,139.424L639.198,138.634L636.073,138.634L636.073,136.924L639.198,136.924L639.198,136.134L636.073,136.134L636.073,134.423L639.198,134.423L639.198,133.633L636.073,133.633L636.073,131.922L639.198,131.922L639.198,131.133L636.073,131.133L636.073,129.422L639.198,129.422L639.198,128.632L636.073,128.632L636.073,126.921L639.198,126.921Z" style="fill:rgb(97,110,125);fill-rule:nonzero;"/>
                <path d="M628.631,129.62C628.045,129.62 627.57,130.094 627.57,130.681C627.57,131.267 628.045,131.742 628.631,131.742C629.173,131.742 629.614,131.335 629.68,130.812L633.704,130.812L633.704,130.549L629.68,130.549C629.614,130.025 629.173,129.62 628.631,129.62Z" style="fill:white;fill-rule:nonzero;"/>
                <path d="M617.371,139.564L615.279,139.564L615.279,139.827L617.371,139.827C617.437,140.351 617.878,140.757 618.42,140.757C619.006,140.757 619.479,140.282 619.479,139.695C619.479,139.109 619.006,138.634 618.42,138.634C617.878,138.634 617.437,139.041 617.371,139.564Z" style="fill:white;fill-rule:nonzero;"/>
                <path d="M624.214,132.844C623.719,133.328 622.97,133.32 622.959,133.318L615.279,133.318L615.279,133.582L622.973,133.582C623.099,133.582 623.857,133.559 624.396,133.033C624.746,132.692 624.924,132.215 624.924,131.616L624.924,130.049C625.447,129.984 625.854,129.542 625.854,129.001C625.854,128.415 625.378,127.94 624.792,127.94C624.206,127.94 623.73,128.415 623.73,129.001C623.73,129.542 624.138,129.984 624.661,130.049L624.661,131.616C624.661,132.141 624.511,132.553 624.214,132.844Z" style="fill:white;fill-rule:nonzero;"/>
                <path d="M615.279,135.879L615.279,136.143L624.411,136.143C624.406,136.099 624.397,136.056 624.397,136.011C624.397,135.966 624.406,135.923 624.411,135.879L615.279,135.879Z" style="fill:white;fill-rule:nonzero;"/>
                <path d="M623.024,143.241L623.024,139.424C623.024,137.75 621.615,137.684 621.597,137.683L615.279,137.683L615.279,137.947L621.592,137.947C621.64,137.948 622.762,138.001 622.762,139.424L622.762,143.241L623.024,143.241Z" style="fill:white;fill-rule:nonzero;"/>
                <path d="M628.818,143.241L629.082,143.241L629.082,139.682C629.038,139.687 628.995,139.695 628.949,139.695C628.905,139.695 628.861,139.687 628.818,139.682L628.818,143.241Z" style="fill:white;fill-rule:nonzero;"/>
                <rect x="627.123" y="140.419" width="0.264" height="2.822" style="fill:white;fill-rule:nonzero;"/>
                <rect x="630.395" y="141.135" width="0.262" height="2.106" style="fill:white;fill-rule:nonzero;"/>
                <rect x="630.754" y="127.808" width="2.95" height="0.263" style="fill:white;fill-rule:nonzero;"/>
                <path d="M615.279,127.457L615.279,127.72L619.305,127.72C619.299,127.676 619.291,127.633 619.291,127.588C619.291,127.543 619.299,127.5 619.305,127.457L615.279,127.457Z" style="fill:white;fill-rule:nonzero;"/>
                <rect x="615.279" y="129.422" width="3.141" height="0.263" style="fill:white;fill-rule:nonzero;"/>
                <path d="M615.279,139.827L615.279,139.564L615.279,137.947L615.279,137.683L615.279,136.143L615.279,135.879L615.279,133.582L615.279,133.318L615.279,129.685L615.279,129.422L615.279,127.72L615.279,127.457L615.279,124.816L633.704,124.816L633.704,143.241L630.657,143.241L630.395,143.241L629.082,143.241L628.818,143.241L627.387,143.241L627.123,143.241L623.024,143.241L622.762,143.241L615.279,143.241L615.279,139.827ZM634.23,143.767L634.23,124.29L614.753,124.29L614.753,143.767L634.23,143.767Z" style="fill:rgb(130,191,171);fill-rule:nonzero;"/>
                <path d="M619.305,127.457C619.299,127.5 619.291,127.543 619.291,127.588C619.291,127.633 619.299,127.676 619.305,127.72C619.37,128.243 619.812,128.649 620.353,128.649C620.938,128.649 621.413,128.174 621.413,127.588C621.413,127.002 620.938,126.526 620.353,126.526C619.812,126.526 619.37,126.933 619.305,127.457Z" style="fill:rgb(170,212,200);fill-rule:nonzero;"/>
                <path d="M624.411,135.879C624.406,135.923 624.397,135.966 624.397,136.011C624.397,136.056 624.406,136.099 624.411,136.143C624.477,136.666 624.919,137.072 625.459,137.072C626.045,137.072 626.521,136.597 626.521,136.011C626.521,135.425 626.045,134.949 625.459,134.949C624.919,134.949 624.478,135.355 624.411,135.879Z" style="fill:rgb(170,212,200);fill-rule:nonzero;"/>
                <path d="M627.889,138.634C627.889,139.175 628.295,139.617 628.818,139.682C628.861,139.687 628.905,139.695 628.949,139.695C628.995,139.695 629.038,139.687 629.082,139.682C629.605,139.617 630.011,139.175 630.011,138.634C630.011,138.048 629.535,137.573 628.949,137.573C628.363,137.573 627.889,138.048 627.889,138.634Z" style="fill:rgb(130,191,171);fill-rule:nonzero;"/>
            </g>
        </g>
    </g>
</svg>
