<?xml version="1.0" encoding="UTF-8" standalone="no"?>
<!DOCTYPE svg PUBLIC "-//W3C//DTD SVG 1.1//EN" "http://www.w3.org/Graphics/SVG/1.1/DTD/svg11.dtd">
<svg width="100%" height="100%" viewBox="0 0 41 41" version="1.1" xmlns="http://www.w3.org/2000/svg" xmlns:xlink="http://www.w3.org/1999/xlink" xml:space="preserve" xmlns:serif="http://www.serif.com/" style="fill-rule:evenodd;clip-rule:evenodd;stroke-linejoin:round;stroke-miterlimit:2;">
    <g transform="matrix(1,0,0,1,-419,-248)">
        <g>
            <g>
                <path d="M451.849,271.304C449.827,271.304 448.134,272.715 447.7,274.605C447.37,274.507 447.021,274.454 446.66,274.454C444.643,274.454 443.008,276.089 443.008,278.106C443.008,280.122 444.643,281.757 446.66,281.757L456.347,281.757C457.919,281.745 459.188,280.467 459.188,278.893C459.188,277.311 457.907,276.029 456.325,276.029C456.243,276.029 456.163,276.034 456.083,276.04C456.099,275.884 456.11,275.726 456.11,275.564C456.11,273.211 454.202,271.304 451.849,271.304Z" style="fill:rgb(170,212,200);fill-rule:nonzero;"/>
                <path d="M446.66,273.243C446.736,273.243 446.813,273.245 446.89,273.249C447.771,271.346 449.676,270.093 451.849,270.093C454.653,270.093 456.971,272.212 457.285,274.933C457.464,274.976 457.636,275.04 457.807,275.107C457.989,274.396 458.098,273.655 458.098,272.887C458.098,267.988 454.126,264.018 449.228,264.018C448.349,264.018 447.501,264.147 446.701,264.384C445.643,259.791 441.532,256.364 436.619,256.364C430.903,256.364 426.271,260.998 426.271,266.713C426.271,267.104 426.293,267.489 426.336,267.87C426.142,267.854 425.946,267.843 425.749,267.843C421.906,267.843 418.792,270.958 418.792,274.8C418.792,278.624 421.877,281.727 425.694,281.756L425.694,281.757L443.459,281.757C442.443,280.865 441.796,279.561 441.796,278.106C441.796,275.424 443.978,273.243 446.66,273.243Z" style="fill:rgb(97,110,125);fill-rule:nonzero;"/>
                <path d="M443.223,253.344L443.104,253.327C442.875,253.327 442.687,253.513 442.687,253.743L442.687,255.263C442.687,255.434 442.796,255.588 442.958,255.646C445.371,256.511 447.309,258.371 448.278,260.749C448.341,260.902 448.489,261 448.654,261L450.203,261C450.337,261 450.463,260.935 450.541,260.826C450.619,260.716 450.64,260.578 450.596,260.451C449.419,257.055 446.663,254.397 443.223,253.344Z" style="fill:rgb(130,191,171);fill-rule:nonzero;"/>
                <path d="M443.709,248.971L443.62,248.962C443.39,248.962 443.204,249.147 443.204,249.377L443.204,250.875C443.204,251.061 443.331,251.223 443.514,251.27C447.94,252.372 451.456,255.788 452.69,260.186C452.739,260.362 452.899,260.485 453.081,260.485L454.583,260.485C454.712,260.485 454.831,260.426 454.91,260.324C454.989,260.223 455.017,260.092 454.986,259.969C453.619,254.509 449.192,250.193 443.709,248.971Z" style="fill:rgb(97,110,125);fill-rule:nonzero;"/>
            </g>
        </g>
    </g>
</svg>
