<?xml version="1.0" encoding="UTF-8" standalone="no"?>
<!DOCTYPE svg PUBLIC "-//W3C//DTD SVG 1.1//EN" "http://www.w3.org/Graphics/SVG/1.1/DTD/svg11.dtd">
<svg width="100%" height="100%" viewBox="0 0 34 34" version="1.1" xmlns="http://www.w3.org/2000/svg" xmlns:xlink="http://www.w3.org/1999/xlink" xml:space="preserve" xmlns:serif="http://www.serif.com/" style="fill-rule:evenodd;clip-rule:evenodd;stroke-linejoin:round;stroke-miterlimit:2;">
    <g transform="matrix(1,0,0,1,-298,-53)">
        <g>
            <g>
                <path d="M322.906,61.844L322.906,79.26L301.891,79.26L301.891,61.844L322.906,61.844ZM324.411,78.589L329.499,78.589L329.499,78.974L324.411,78.974L324.411,78.589ZM324.411,77.607L329.499,77.607L329.499,77.992L324.411,77.992L324.411,77.607ZM324.411,76.625L329.499,76.625L329.499,77.01L324.411,77.01L324.411,76.625ZM324.411,75.643L329.499,75.643L329.499,76.028L324.411,76.028L324.411,75.643ZM324.411,74.662L329.499,74.662L329.499,75.046L324.411,75.046L324.411,74.662ZM324.411,72.274L329.499,72.274L329.499,73.621L326.981,73.621L324.411,73.621L324.411,72.274ZM327.953,68.142C327.953,68.693 327.506,69.14 326.955,69.14C326.403,69.14 325.957,68.693 325.957,68.142C325.957,67.591 326.403,67.144 326.955,67.144C327.506,67.144 327.953,67.591 327.953,68.142ZM326.955,62.712C327.777,62.712 328.444,63.378 328.444,64.2C328.444,65.023 327.777,65.69 326.955,65.69C326.132,65.69 325.466,65.023 325.466,64.2C325.466,63.378 326.132,62.712 326.955,62.712ZM311.095,57.958L310.932,58.647L300.235,58.647C299.61,58.647 299.103,59.154 299.103,59.779L299.103,81.399C299.103,82.025 299.61,82.532 300.235,82.532L330.408,82.532C331.034,82.532 331.542,82.025 331.542,81.399L331.542,59.779C331.542,59.154 331.034,58.647 330.408,58.647L319.472,58.647L319.308,57.958C319.225,57.608 318.833,57.335 318.428,57.335L317.947,57.335L319.208,54.746C319.302,54.555 319.222,54.325 319.032,54.232C318.841,54.14 318.612,54.219 318.519,54.409L317.093,57.335L313.311,57.335L311.885,54.409C311.791,54.219 311.561,54.139 311.372,54.232C311.181,54.325 311.102,54.555 311.195,54.746L312.457,57.335L311.976,57.335C311.571,57.335 311.178,57.608 311.095,57.958Z" style="fill:rgb(97,110,125);fill-rule:nonzero;"/>
                <path d="M305.882,71.123L305.894,71.134L305.905,71.123L307.751,72.969L309.597,71.123L309.608,71.134L309.619,71.123L311.465,72.969L313.311,71.123L313.322,71.134L313.333,71.123L315.179,72.969L317.025,71.123L317.037,71.134L317.048,71.123L318.894,72.969L320.74,71.123L321.156,71.54L318.905,73.791L318.894,73.78L318.882,73.791L317.037,71.945L315.191,73.791L315.179,73.78L315.168,73.791L313.322,71.945L311.477,73.791L311.465,73.78L311.454,73.791L309.608,71.945L307.762,73.791L307.751,73.78L307.74,73.791L305.894,71.945L304.048,73.791L303.631,73.374L305.882,71.123ZM305.882,67.141L305.894,67.151L305.905,67.141L307.751,68.986L309.597,67.141L309.608,67.151L309.619,67.141L311.465,68.986L313.311,67.141L313.322,67.151L313.333,67.141L315.179,68.986L317.025,67.141L317.037,67.151L317.048,67.141L318.894,68.986L320.74,67.141L321.156,67.558L318.905,69.809L318.894,69.797L318.882,69.809L317.037,67.963L315.191,69.809L315.179,69.797L315.168,69.809L313.322,67.963L311.477,69.809L311.465,69.797L311.454,69.809L309.608,67.963L307.762,69.809L307.751,69.797L307.74,69.809L305.894,67.963L304.048,69.809L303.631,69.392L305.882,67.141ZM301.891,79.26L322.906,79.26L322.906,61.844L301.891,61.844L301.891,79.26Z" style="fill:white;fill-rule:nonzero;"/>
                <path d="M325.957,68.142C325.957,68.693 326.403,69.14 326.955,69.14C327.506,69.14 327.953,68.693 327.953,68.142C327.953,67.591 327.506,67.144 326.955,67.144C326.403,67.144 325.957,67.591 325.957,68.142Z" style="fill:white;fill-rule:nonzero;"/>
                <path d="M325.466,64.2C325.466,65.023 326.132,65.69 326.955,65.69C327.777,65.69 328.444,65.023 328.444,64.2C328.444,63.378 327.777,62.712 326.955,62.712C326.132,62.712 325.466,63.378 325.466,64.2Z" style="fill:rgb(170,212,200);fill-rule:nonzero;"/>
                <rect x="324.411" y="78.589" width="5.088" height="0.385" style="fill:white;fill-rule:nonzero;"/>
                <rect x="324.411" y="77.607" width="5.088" height="0.385" style="fill:white;fill-rule:nonzero;"/>
                <rect x="324.411" y="76.625" width="5.088" height="0.385" style="fill:white;fill-rule:nonzero;"/>
                <rect x="324.411" y="75.643" width="5.088" height="0.385" style="fill:white;fill-rule:nonzero;"/>
                <rect x="324.411" y="74.662" width="5.088" height="0.384" style="fill:white;fill-rule:nonzero;"/>
                <rect x="324.411" y="72.274" width="2.57" height="1.347" style="fill:rgb(130,191,171);fill-rule:nonzero;"/>
                <rect x="326.981" y="72.274" width="2.518" height="1.347" style="fill:rgb(170,212,200);fill-rule:nonzero;"/>
                <path d="M317.048,67.141L317.037,67.151L317.025,67.141L315.179,68.986L313.333,67.141L313.322,67.151L313.311,67.141L311.465,68.986L309.619,67.141L309.608,67.151L309.597,67.141L307.751,68.986L305.905,67.141L305.894,67.151L305.882,67.141L303.631,69.392L304.048,69.809L305.894,67.963L307.74,69.809L307.751,69.797L307.762,69.809L309.608,67.963L311.454,69.809L311.465,69.797L311.477,69.809L313.322,67.963L315.168,69.809L315.179,69.797L315.191,69.809L317.037,67.963L318.882,69.809L318.894,69.797L318.905,69.809L321.156,67.558L320.74,67.141L318.894,68.986L317.048,67.141Z" style="fill:rgb(170,212,200);fill-rule:nonzero;"/>
                <path d="M317.048,71.123L317.037,71.134L317.025,71.123L315.179,72.969L313.333,71.123L313.322,71.134L313.311,71.123L311.465,72.969L309.619,71.123L309.608,71.134L309.597,71.123L307.751,72.969L305.905,71.123L305.894,71.134L305.882,71.123L303.631,73.374L304.048,73.791L305.894,71.945L307.74,73.791L307.751,73.78L307.762,73.791L309.608,71.945L311.454,73.791L311.465,73.78L311.477,73.791L313.322,71.945L315.168,73.791L315.179,73.78L315.191,73.791L317.037,71.945L318.882,73.791L318.894,73.78L318.905,73.791L321.156,71.54L320.74,71.123L318.894,72.969L317.048,71.123Z" style="fill:rgb(170,212,200);fill-rule:nonzero;"/>
            </g>
        </g>
    </g>
</svg>
