<?xml version="1.0" encoding="UTF-8" standalone="no"?>
<!DOCTYPE svg PUBLIC "-//W3C//DTD SVG 1.1//EN" "http://www.w3.org/Graphics/SVG/1.1/DTD/svg11.dtd">
<svg width="100%" height="100%" viewBox="0 0 34 34" version="1.1" xmlns="http://www.w3.org/2000/svg" xmlns:xlink="http://www.w3.org/1999/xlink" xml:space="preserve" xmlns:serif="http://www.serif.com/" style="fill-rule:evenodd;clip-rule:evenodd;stroke-linejoin:round;stroke-miterlimit:2;">
    <g transform="matrix(1,0,0,1,-174,-117)">
        <g>
            <g>
                <path d="M191.323,138.479L191.604,138.48L195.071,138.488C195.446,138.489 195.751,138.187 195.751,137.811L195.762,133.76C195.764,133.385 195.461,133.08 195.085,133.079L188.166,133.062C187.792,133.061 187.487,133.365 187.486,133.739L187.475,137.791C187.474,138.166 187.776,138.47 188.152,138.472L188.787,138.473L193.028,134.231C193.379,133.88 193.948,133.88 194.299,134.231C194.65,134.583 194.65,135.152 194.299,135.502L191.323,138.479Z" style="fill:rgb(170,212,200);fill-rule:nonzero;"/>
                <path d="M197.226,133.09C196.947,133.09 196.722,132.864 196.722,132.584C196.722,132.307 196.947,132.081 197.226,132.081C197.504,132.081 197.73,132.307 197.73,132.584C197.73,132.864 197.504,133.09 197.226,133.09ZM197.226,134.473C196.947,134.473 196.722,134.247 196.722,133.968C196.722,133.689 196.947,133.463 197.226,133.463C197.504,133.463 197.73,133.689 197.73,133.968C197.73,134.247 197.504,134.473 197.226,134.473ZM195.751,137.811C195.751,138.187 195.446,138.489 195.071,138.488L191.604,138.48L191.323,138.479L194.299,135.502C194.65,135.152 194.65,134.583 194.299,134.231C193.948,133.88 193.379,133.88 193.028,134.231L188.787,138.473L188.152,138.472C187.776,138.47 187.474,138.166 187.475,137.791L187.486,133.739C187.487,133.365 187.792,133.061 188.166,133.062L195.085,133.079C195.461,133.08 195.764,133.385 195.762,133.76L195.751,137.811ZM184.914,130.506C184.495,130.503 184.153,130.843 184.153,131.262L184.13,140.654C184.129,141.073 184.467,141.413 184.887,141.414L198.324,141.447C198.743,141.449 199.084,141.11 199.085,140.69L199.108,131.299C199.109,130.88 198.77,130.54 198.351,130.538L184.914,130.506Z" style="fill:rgb(97,110,125);fill-rule:nonzero;"/>
                <path d="M181.325,130.533C181.146,130.533 180.999,130.677 180.999,130.857L180.977,140.031C180.976,140.211 181.121,140.356 181.301,140.357L183.179,140.361C183.359,140.363 183.505,140.217 183.505,140.037L183.528,130.863C183.528,130.684 183.383,130.538 183.203,130.537L181.325,130.533Z" style="fill:rgb(97,110,125);fill-rule:nonzero;"/>
                <path d="M182.265,142.303C182.927,142.304 183.463,142.844 183.462,143.505C183.461,143.924 183.799,144.265 184.219,144.266C184.637,144.268 184.978,143.928 184.979,143.509C184.983,142.011 183.767,140.789 182.269,140.786C180.77,140.782 179.549,141.998 179.544,143.496C179.541,144.994 180.757,146.216 182.255,146.22C182.674,146.221 183.015,145.881 183.016,145.463C183.017,145.043 182.677,144.704 182.259,144.703C181.598,144.701 181.06,144.161 181.062,143.5C181.063,142.837 181.604,142.3 182.265,142.303Z" style="fill:rgb(97,110,125);fill-rule:nonzero;"/>
                <path d="M200.109,130.434C199.929,130.434 199.784,130.579 199.783,130.758L199.76,139.933C199.76,140.112 199.906,140.258 200.084,140.259L201.964,140.263C202.143,140.264 202.29,140.119 202.29,139.939L202.311,130.765C202.313,130.585 202.167,130.439 201.987,130.439L200.109,130.434Z" style="fill:rgb(97,110,125);fill-rule:nonzero;"/>
                <path d="M201.042,144.749C200.624,144.748 200.284,145.086 200.283,145.506C200.282,145.924 200.621,146.265 201.038,146.266C202.537,146.27 203.759,145.053 203.763,143.556C203.767,142.057 202.551,140.834 201.052,140.832C199.555,140.828 198.332,142.044 198.329,143.542C198.328,143.961 198.667,144.302 199.085,144.303C199.504,144.304 199.845,143.965 199.846,143.546C199.847,142.884 200.387,142.347 201.049,142.349C201.71,142.35 202.248,142.89 202.246,143.552C202.244,144.214 201.704,144.75 201.042,144.749Z" style="fill:rgb(97,110,125);fill-rule:nonzero;"/>
                <path d="M187.499,142.143C187.32,142.143 187.174,142.288 187.173,142.467L187.162,146.73C187.162,146.91 187.308,147.055 187.487,147.056L190.16,147.062C190.34,147.062 190.486,146.917 190.486,146.738L190.496,142.476C190.496,142.296 190.352,142.15 190.172,142.149L187.499,142.143Z" style="fill:rgb(97,110,125);fill-rule:nonzero;"/>
                <path d="M193.17,142.157C192.99,142.157 192.845,142.302 192.845,142.481L192.833,146.744C192.833,146.923 192.978,147.07 193.158,147.07L195.831,147.077C196.011,147.077 196.156,146.932 196.157,146.752L196.167,142.489C196.168,142.31 196.022,142.165 195.843,142.164L193.17,142.157Z" style="fill:rgb(97,110,125);fill-rule:nonzero;"/>
                <path d="M186.207,147.847C186.028,147.847 185.881,148.074 185.881,148.355L185.877,149.938C185.875,150.219 186.021,150.447 186.2,150.448L190.317,150.458C190.499,150.458 190.644,150.231 190.645,149.95L190.648,148.367C190.649,148.086 190.504,147.858 190.325,147.857L186.207,147.847Z" style="fill:rgb(97,110,125);fill-rule:nonzero;"/>
                <path d="M192.961,147.864C192.782,147.863 192.636,148.09 192.635,148.372L192.632,149.955C192.63,150.235 192.775,150.465 192.955,150.465L197.072,150.475C197.252,150.476 197.398,150.248 197.399,149.966L197.403,148.384C197.404,148.103 197.259,147.874 197.08,147.874L192.961,147.864Z" style="fill:rgb(97,110,125);fill-rule:nonzero;"/>
                <path d="M197.966,126.488L197.966,126.804L185.602,126.804L185.602,126.488L197.966,126.488ZM195.853,122.641C196.462,122.641 196.957,123.134 196.957,123.744C196.957,124.354 196.462,124.848 195.853,124.848C195.243,124.848 194.749,124.354 194.749,123.744C194.749,123.134 195.243,122.641 195.853,122.641ZM187.589,122.641C188.198,122.641 188.693,123.134 188.693,123.744C188.693,124.354 188.198,124.848 187.589,124.848C186.979,124.848 186.486,124.354 186.486,123.744C186.486,123.134 186.979,122.641 187.589,122.641ZM188.528,117.583L188.239,117.582C188.059,117.582 187.914,117.726 187.913,117.906L187.908,119.567L186.156,119.562L186.155,119.562L186.031,119.562C185.56,119.562 185.178,119.942 185.176,120.414L185.155,128.967C185.153,129.438 185.534,129.821 186.005,129.822L197.456,129.85C197.927,129.851 198.309,129.471 198.31,128.999L198.332,120.445C198.332,119.975 197.951,119.593 197.48,119.591L197.123,119.591L195.603,119.586L195.607,117.925C195.607,117.745 195.462,117.6 195.283,117.599L194.994,117.598C194.814,117.598 194.667,117.743 194.667,117.923L194.663,119.584L188.848,119.569L188.853,117.909C188.853,117.729 188.707,117.583 188.528,117.583Z" style="fill:rgb(97,110,125);fill-rule:nonzero;"/>
                <path d="M182.504,123.004L182.496,126.363C182.496,126.543 182.641,126.689 182.82,126.689L184.085,126.692L184.085,122.683L182.831,122.68C182.651,122.679 182.504,122.824 182.504,123.004Z" style="fill:rgb(97,110,125);fill-rule:nonzero;"/>
                <path d="M184.085,122.683L184.085,126.692L184.446,126.693C184.625,126.693 184.771,126.548 184.771,126.369L184.78,123.009C184.781,122.83 184.635,122.684 184.455,122.684L184.085,122.683Z" style="fill:rgb(170,212,200);fill-rule:nonzero;"/>
                <path d="M199.486,122.681L199.486,126.689L200.741,126.693C200.92,126.693 201.067,126.548 201.067,126.369L201.076,123.009C201.076,122.83 200.93,122.684 200.751,122.683L199.486,122.681Z" style="fill:rgb(97,110,125);fill-rule:nonzero;"/>
                <path d="M198.8,123.004L198.792,126.364C198.791,126.542 198.936,126.689 199.116,126.689L199.486,126.689L199.486,122.681L199.125,122.68C198.946,122.68 198.8,122.824 198.8,123.004Z" style="fill:rgb(170,212,200);fill-rule:nonzero;"/>
                <path d="M186.486,123.744C186.486,124.354 186.979,124.848 187.589,124.848C188.198,124.848 188.693,124.354 188.693,123.744C188.693,123.134 188.198,122.641 187.589,122.641C186.979,122.641 186.486,123.134 186.486,123.744Z" style="fill:white;fill-rule:nonzero;"/>
                <path d="M194.749,123.744C194.749,124.354 195.243,124.848 195.853,124.848C196.462,124.848 196.957,124.354 196.957,123.744C196.957,123.134 196.462,122.641 195.853,122.641C195.243,122.641 194.749,123.134 194.749,123.744Z" style="fill:white;fill-rule:nonzero;"/>
                <rect x="185.602" y="126.488" width="12.364" height="0.316" style="fill:white;fill-rule:nonzero;"/>
                <path d="M196.722,132.584C196.722,132.864 196.947,133.09 197.226,133.09C197.504,133.09 197.73,132.864 197.73,132.584C197.73,132.307 197.504,132.081 197.226,132.081C196.947,132.081 196.722,132.307 196.722,132.584Z" style="fill:rgb(130,191,171);fill-rule:nonzero;"/>
                <path d="M196.722,133.968C196.722,134.247 196.947,134.473 197.226,134.473C197.504,134.473 197.73,134.247 197.73,133.968C197.73,133.689 197.504,133.463 197.226,133.463C196.947,133.463 196.722,133.689 196.722,133.968Z" style="fill:rgb(130,191,171);fill-rule:nonzero;"/>
            </g>
        </g>
    </g>
</svg>
