<?xml version="1.0" encoding="UTF-8" standalone="no"?>
<!DOCTYPE svg PUBLIC "-//W3C//DTD SVG 1.1//EN" "http://www.w3.org/Graphics/SVG/1.1/DTD/svg11.dtd">
<svg width="100%" height="100%" viewBox="0 0 40 40" version="1.1" xmlns="http://www.w3.org/2000/svg" xmlns:xlink="http://www.w3.org/1999/xlink" xml:space="preserve" xmlns:serif="http://www.serif.com/" style="fill-rule:evenodd;clip-rule:evenodd;stroke-linejoin:round;stroke-miterlimit:2;">
    <g transform="matrix(1,0,0,1,-731,-508)">
        <g>
            <g>
                <path d="M732.604,518.73C732.604,513.357 736.975,508.986 742.348,508.986C745.794,508.986 748.821,510.789 750.554,513.498L751.048,513.209C749.216,510.332 746.005,508.413 742.348,508.413C736.659,508.413 732.03,513.042 732.03,518.73C732.03,524.418 736.659,529.047 742.348,529.047C742.898,529.047 743.436,528.991 743.963,528.908C744.675,532.67 747.974,535.518 751.943,535.518C756.433,535.518 760.072,531.879 760.072,527.39C760.072,523.135 756.8,519.648 752.637,519.296C752.647,519.107 752.665,518.921 752.665,518.73C752.665,517.026 752.243,515.421 751.507,514.004L751.012,514.292C751.697,515.625 752.092,517.132 752.092,518.73C752.092,518.912 752.073,519.088 752.063,519.267C752.023,519.267 751.984,519.261 751.943,519.261C751.801,519.261 751.663,519.275 751.523,519.282C751.534,519.099 751.552,518.917 751.552,518.73C751.552,517.229 751.185,515.816 750.546,514.563L748.554,515.724C748.996,516.634 749.251,517.65 749.251,518.73C749.251,519.081 749.216,519.422 749.166,519.758C746.656,520.673 744.728,522.785 744.069,525.408C743.519,525.549 742.943,525.633 742.348,525.633C738.535,525.633 735.444,522.542 735.444,518.73C735.444,514.918 738.535,511.828 742.348,511.828C744.753,511.828 746.867,513.058 748.104,514.924L750.09,513.767C748.453,511.218 745.601,509.526 742.348,509.526C737.266,509.526 733.144,513.647 733.144,518.73C733.144,523.813 737.266,527.934 742.348,527.934C742.856,527.934 743.351,527.883 743.837,527.803C743.846,527.984 743.855,528.165 743.877,528.342C743.377,528.422 742.869,528.474 742.348,528.474C736.975,528.474 732.604,524.103 732.604,518.73Z" style="fill:rgb(97,110,125);fill-rule:nonzero;"/>
                <path d="M742.348,514.128C743.903,514.128 745.276,514.903 746.109,516.085L748.104,514.924C746.867,513.058 744.753,511.828 742.348,511.828C738.535,511.828 735.444,514.918 735.444,518.73C735.444,522.542 738.535,525.633 742.348,525.633C742.943,525.633 743.519,525.549 744.069,525.408C744.728,522.785 746.656,520.673 749.166,519.758C749.216,519.422 749.251,519.081 749.251,518.73C749.251,517.65 748.996,516.634 748.554,515.724L746.562,516.884C746.81,517.45 746.949,518.073 746.949,518.73C746.949,521.272 744.89,523.332 742.348,523.332C739.806,523.332 737.745,521.272 737.745,518.73C737.745,516.188 739.806,514.128 742.348,514.128Z" style="fill:white;fill-rule:nonzero;"/>
                <path d="M742.348,516.43C743.054,516.43 743.678,516.754 744.1,517.255L746.109,516.085C745.276,514.903 743.903,514.128 742.348,514.128C739.806,514.128 737.745,516.188 737.745,518.73C737.745,521.272 739.806,523.332 742.348,523.332C744.89,523.332 746.949,521.272 746.949,518.73C746.949,518.073 746.81,517.45 746.562,516.884L744.537,518.062C744.603,518.275 744.647,518.496 744.647,518.73C744.647,520.001 743.619,521.031 742.348,521.031C741.077,521.031 740.046,520.001 740.046,518.73C740.046,517.459 741.077,516.43 742.348,516.43Z" style="fill:rgb(97,110,125);fill-rule:nonzero;"/>
                <path d="M742.662,518.092L744.1,517.255C743.678,516.754 743.054,516.43 742.348,516.43C741.077,516.43 740.046,517.459 740.046,518.73C740.046,520.001 741.077,521.031 742.348,521.031C743.619,521.031 744.647,520.001 744.647,518.73C744.647,518.496 744.603,518.275 744.537,518.062L743.067,518.918C742.881,519.028 742.64,518.969 742.522,518.785L742.501,518.751C742.358,518.526 742.432,518.226 742.662,518.092Z" style="fill:white;fill-rule:nonzero;"/>
                <path d="M755.647,513.134C755.738,513.183 755.849,513.182 755.938,513.128L756.244,512.951C756.29,512.924 756.317,512.874 756.317,512.821C756.316,512.767 756.288,512.718 756.24,512.692L754.851,511.932L755.009,511.838L755.078,511.747L755.062,511.634L754.87,511.314C754.827,511.245 754.736,511.221 754.666,511.262L754.502,511.358L754.494,509.789C754.493,509.736 754.465,509.688 754.418,509.662L754.271,509.662L753.967,509.839C753.875,509.892 753.819,509.99 753.819,510.095L753.829,511.75L753.749,511.798L753.739,510.229C753.739,510.176 753.711,510.126 753.665,510.101L753.516,510.102L753.211,510.278C753.12,510.332 753.064,510.429 753.064,510.535L753.075,512.189L752.993,512.237L752.984,510.667C752.984,510.615 752.955,510.566 752.909,510.54L752.762,510.541L752.457,510.717C752.366,510.771 752.31,510.869 752.311,510.974L752.318,512.384C752.318,512.436 752.293,512.484 752.247,512.512L751.048,513.209L750.554,513.498L750.09,513.767L748.104,514.924L746.109,516.085L744.1,517.255L742.662,518.092C742.432,518.226 742.358,518.526 742.501,518.751L742.522,518.785C742.64,518.969 742.881,519.028 743.067,518.918L744.537,518.062L746.562,516.884L748.554,515.724L750.546,514.563L751.012,514.292L751.507,514.004L752.704,513.307L752.848,513.305L754.139,514.012C754.229,514.061 754.34,514.06 754.428,514.009L754.734,513.831C754.781,513.803 754.809,513.754 754.808,513.7C754.808,513.646 754.778,513.598 754.731,513.572L753.341,512.811L753.419,512.766L754.894,513.572C754.984,513.623 755.094,513.621 755.183,513.569L755.489,513.391C755.536,513.363 755.563,513.313 755.563,513.261C755.563,513.207 755.533,513.157 755.486,513.132L754.097,512.371L754.174,512.326L755.647,513.134Z" style="fill:rgb(170,212,200);fill-rule:nonzero;"/>
                <path d="M751.02,540.134L750.096,538.435L750.095,538.435L751.02,540.134Z" style="fill:rgb(97,110,125);fill-rule:nonzero;"/>
                <path d="M754.972,546.322L753.843,546.322L750.044,546.322L748.916,546.322L747.163,537.118C747.336,537.105 747.508,537.093 747.682,537.093L756.205,537.093C756.381,537.093 756.553,537.105 756.724,537.118L754.972,546.322ZM747.238,536.286C743.02,536.286 739.599,539.706 739.599,543.926L739.599,547.633L764.29,547.633L764.29,543.926C764.29,539.706 760.869,536.286 756.648,536.286L747.238,536.286Z" style="fill:rgb(97,110,125);fill-rule:nonzero;"/>
                <path d="M752.902,540.134L753.843,546.322L754.972,546.322L756.724,537.118C756.553,537.105 756.381,537.093 756.205,537.093L747.682,537.093C747.508,537.093 747.336,537.105 747.163,537.118L748.916,546.322L750.044,546.322L750.986,540.134L751.02,540.134L750.095,538.435L753.793,538.435L752.868,540.134L752.902,540.134Z" style="fill:white;fill-rule:nonzero;"/>
                <path d="M750.044,546.322L753.843,546.322L752.902,540.134L752.868,540.134L753.793,538.435L750.096,538.435L751.02,540.134L750.986,540.134L750.044,546.322Z" style="fill:rgb(170,212,200);fill-rule:nonzero;"/>
            </g>
        </g>
    </g>
</svg>
