<?xml version="1.0" encoding="UTF-8" standalone="no"?>
<!DOCTYPE svg PUBLIC "-//W3C//DTD SVG 1.1//EN" "http://www.w3.org/Graphics/SVG/1.1/DTD/svg11.dtd">
<svg width="100%" height="100%" viewBox="0 0 34 34" version="1.1" xmlns="http://www.w3.org/2000/svg" xmlns:xlink="http://www.w3.org/1999/xlink" xml:space="preserve" xmlns:serif="http://www.serif.com/" style="fill-rule:evenodd;clip-rule:evenodd;stroke-linejoin:round;stroke-miterlimit:2;">
    <g transform="matrix(1,0,0,1,-1040,-314)">
        <g>
            <g>
                <rect x="1054.79" y="326.203" width="3.67" height="1.172" style="fill:rgb(130,191,171);fill-rule:nonzero;"/>
                <path d="M1056.63,337.25C1057.31,337.25 1057.94,337.46 1058.46,337.819L1058.46,335.24L1054.79,335.24L1054.79,337.819C1055.32,337.461 1055.95,337.25 1056.63,337.25Z" style="fill:rgb(130,191,171);fill-rule:nonzero;"/>
                <path d="M1047.88,338.625C1047.52,338.625 1047.57,338.758 1047.57,338.922L1047.57,341.988C1047.57,342.153 1047.52,342.287 1047.88,342.287L1053.94,342.287C1053.6,341.771 1053.39,341.15 1053.39,340.482C1053.39,339.79 1053.61,339.15 1053.98,338.625L1047.88,338.625Z" style="fill:rgb(130,191,171);fill-rule:nonzero;"/>
                <path d="M1064.71,338.625L1059.27,338.625C1059.64,339.15 1059.86,339.79 1059.86,340.482C1059.86,341.15 1059.66,341.771 1059.31,342.287L1064.71,342.287C1065.06,342.287 1065.01,342.153 1065.01,341.988L1065.01,338.922C1065.01,338.758 1065.06,338.625 1064.71,338.625Z" style="fill:rgb(130,191,171);fill-rule:nonzero;"/>
                <path d="M1069.75,320.413C1069.75,320.588 1069.62,320.73 1069.46,320.73L1059.48,320.73C1059.31,320.73 1059.18,320.588 1059.18,320.413L1059.18,320.128C1059.18,319.953 1059.31,319.81 1059.48,319.81L1069.46,319.81C1069.62,319.81 1069.75,319.953 1069.75,320.128L1069.75,320.413ZM1069.75,322.569C1069.75,322.745 1069.62,322.887 1069.46,322.887L1059.48,322.887C1059.31,322.887 1059.18,322.745 1059.18,322.569L1059.18,322.285C1059.18,322.108 1059.31,321.967 1059.48,321.967L1069.46,321.967C1069.62,321.967 1069.75,322.108 1069.75,322.285L1069.75,322.569ZM1069.75,324.725C1069.75,324.901 1069.62,325.044 1069.46,325.044L1059.48,325.044C1059.31,325.044 1059.18,324.901 1059.18,324.725L1059.18,324.441C1059.18,324.266 1059.31,324.123 1059.48,324.123L1069.46,324.123C1069.62,324.123 1069.75,324.266 1069.75,324.441L1069.75,324.725ZM1049.79,322.038C1049.09,322.038 1048.51,321.467 1048.51,320.762C1048.51,320.057 1049.09,319.486 1049.79,319.486C1050.5,319.486 1051.07,320.057 1051.07,320.762C1051.07,321.467 1050.5,322.038 1049.79,322.038ZM1046.54,322.038C1045.83,322.038 1045.26,321.467 1045.26,320.762C1045.26,320.057 1045.83,319.486 1046.54,319.486C1047.24,319.486 1047.82,320.057 1047.82,320.762C1047.82,321.467 1047.24,322.038 1046.54,322.038ZM1044.23,318.336C1043.87,318.336 1043.59,318.623 1043.59,318.976L1043.59,325.563C1043.59,325.917 1043.87,326.203 1044.23,326.203L1070.44,326.203C1070.79,326.203 1071.08,325.917 1071.08,325.563L1071.08,318.976C1071.08,318.623 1070.79,318.336 1070.44,318.336L1044.23,318.336Z" style="fill:rgb(97,110,125);fill-rule:nonzero;"/>
                <path d="M1046.54,319.486C1045.83,319.486 1045.26,320.057 1045.26,320.762C1045.26,321.467 1045.83,322.038 1046.54,322.038C1047.24,322.038 1047.82,321.467 1047.82,320.762C1047.82,320.057 1047.24,319.486 1046.54,319.486Z" style="fill:rgb(170,212,200);fill-rule:nonzero;"/>
                <path d="M1048.51,320.762C1048.51,321.467 1049.09,322.038 1049.79,322.038C1050.5,322.038 1051.07,321.467 1051.07,320.762C1051.07,320.057 1050.5,319.486 1049.79,319.486C1049.09,319.486 1048.51,320.057 1048.51,320.762Z" style="fill:rgb(130,191,171);fill-rule:nonzero;"/>
                <path d="M1059.48,319.81C1059.31,319.81 1059.18,319.953 1059.18,320.128L1059.18,320.413C1059.18,320.588 1059.31,320.73 1059.48,320.73L1069.46,320.73C1069.62,320.73 1069.75,320.588 1069.75,320.413L1069.75,320.128C1069.75,319.953 1069.62,319.81 1069.46,319.81L1059.48,319.81Z" style="fill:white;fill-rule:nonzero;"/>
                <path d="M1059.48,321.967C1059.31,321.967 1059.18,322.108 1059.18,322.285L1059.18,322.569C1059.18,322.745 1059.31,322.887 1059.48,322.887L1069.46,322.887C1069.62,322.887 1069.75,322.745 1069.75,322.569L1069.75,322.285C1069.75,322.108 1069.62,321.967 1069.46,321.967L1059.48,321.967Z" style="fill:white;fill-rule:nonzero;"/>
                <path d="M1059.48,324.123C1059.31,324.123 1059.18,324.266 1059.18,324.441L1059.18,324.725C1059.18,324.901 1059.31,325.044 1059.48,325.044L1069.46,325.044C1069.62,325.044 1069.75,324.901 1069.75,324.725L1069.75,324.441C1069.75,324.266 1069.62,324.123 1069.46,324.123L1059.48,324.123Z" style="fill:white;fill-rule:nonzero;"/>
                <path d="M1069.75,329.45C1069.75,329.626 1069.62,329.769 1069.46,329.769L1059.48,329.769C1059.31,329.769 1059.18,329.626 1059.18,329.45L1059.18,329.166C1059.18,328.99 1059.31,328.848 1059.48,328.848L1069.46,328.848C1069.62,328.848 1069.75,328.99 1069.75,329.166L1069.75,329.45ZM1069.75,331.607C1069.75,331.783 1069.62,331.925 1069.46,331.925L1059.48,331.925C1059.31,331.925 1059.18,331.783 1059.18,331.607L1059.18,331.322C1059.18,331.147 1059.31,331.004 1059.48,331.004L1069.46,331.004C1069.62,331.004 1069.75,331.147 1069.75,331.322L1069.75,331.607ZM1069.75,333.763C1069.75,333.939 1069.62,334.082 1069.46,334.082L1059.48,334.082C1059.31,334.082 1059.18,333.939 1059.18,333.763L1059.18,333.479C1059.18,333.304 1059.31,333.161 1059.48,333.161L1069.46,333.161C1069.62,333.161 1069.75,333.304 1069.75,333.479L1069.75,333.763ZM1049.79,331.076C1049.09,331.076 1048.51,330.504 1048.51,329.8C1048.51,329.095 1049.09,328.523 1049.79,328.523C1050.5,328.523 1051.07,329.095 1051.07,329.8C1051.07,330.504 1050.5,331.076 1049.79,331.076ZM1046.54,331.076C1045.83,331.076 1045.26,330.504 1045.26,329.8C1045.26,329.095 1045.83,328.523 1046.54,328.523C1047.24,328.523 1047.82,329.095 1047.82,329.8C1047.82,330.504 1047.24,331.076 1046.54,331.076ZM1058.46,327.375L1054.79,327.375L1044.23,327.375C1043.87,327.375 1043.59,327.661 1043.59,328.014L1043.59,334.601C1043.59,334.954 1043.87,335.24 1044.23,335.24L1070.44,335.24C1070.79,335.24 1071.08,334.954 1071.08,334.601L1071.08,328.014C1071.08,327.661 1070.79,327.375 1070.44,327.375L1058.46,327.375Z" style="fill:rgb(97,110,125);fill-rule:nonzero;"/>
                <path d="M1046.54,328.523C1045.83,328.523 1045.26,329.095 1045.26,329.8C1045.26,330.504 1045.83,331.076 1046.54,331.076C1047.24,331.076 1047.82,330.504 1047.82,329.8C1047.82,329.095 1047.24,328.523 1046.54,328.523Z" style="fill:rgb(170,212,200);fill-rule:nonzero;"/>
                <path d="M1048.51,329.8C1048.51,330.504 1049.09,331.076 1049.79,331.076C1050.5,331.076 1051.07,330.504 1051.07,329.8C1051.07,329.095 1050.5,328.523 1049.79,328.523C1049.09,328.523 1048.51,329.095 1048.51,329.8Z" style="fill:rgb(130,191,171);fill-rule:nonzero;"/>
                <path d="M1059.48,328.848C1059.31,328.848 1059.18,328.99 1059.18,329.166L1059.18,329.45C1059.18,329.626 1059.31,329.769 1059.48,329.769L1069.46,329.769C1069.62,329.769 1069.75,329.626 1069.75,329.45L1069.75,329.166C1069.75,328.99 1069.62,328.848 1069.46,328.848L1059.48,328.848Z" style="fill:white;fill-rule:nonzero;"/>
                <path d="M1059.48,331.004C1059.31,331.004 1059.18,331.147 1059.18,331.322L1059.18,331.607C1059.18,331.783 1059.31,331.925 1059.48,331.925L1069.46,331.925C1069.62,331.925 1069.75,331.783 1069.75,331.607L1069.75,331.322C1069.75,331.147 1069.62,331.004 1069.46,331.004L1059.48,331.004Z" style="fill:white;fill-rule:nonzero;"/>
                <path d="M1059.48,333.161C1059.31,333.161 1059.18,333.304 1059.18,333.479L1059.18,333.763C1059.18,333.939 1059.31,334.082 1059.48,334.082L1069.46,334.082C1069.62,334.082 1069.75,333.939 1069.75,333.763L1069.75,333.479C1069.75,333.304 1069.62,333.161 1069.46,333.161L1059.48,333.161Z" style="fill:white;fill-rule:nonzero;"/>
                <path d="M1059.54,340.482C1059.54,342.089 1058.23,343.391 1056.63,343.391C1055.02,343.391 1053.72,342.089 1053.72,340.482C1053.72,338.875 1055.02,337.573 1056.63,337.573C1058.23,337.573 1059.54,338.875 1059.54,340.482ZM1058.46,337.819C1057.94,337.46 1057.31,337.25 1056.63,337.25C1055.95,337.25 1055.32,337.461 1054.79,337.819C1054.48,338.037 1054.2,338.311 1053.98,338.625C1053.61,339.15 1053.39,339.79 1053.39,340.482C1053.39,341.15 1053.6,341.771 1053.94,342.287C1054.53,343.148 1055.51,343.715 1056.63,343.715C1057.74,343.715 1058.73,343.148 1059.31,342.287C1059.66,341.771 1059.86,341.15 1059.86,340.482C1059.86,339.79 1059.64,339.15 1059.27,338.625C1059.05,338.31 1058.77,338.037 1058.46,337.819Z" style="fill:rgb(97,110,125);fill-rule:nonzero;"/>
                <path d="M1059.18,340.482C1059.18,341.893 1058.04,343.037 1056.63,343.037C1055.21,343.037 1054.07,341.893 1054.07,340.482C1054.07,339.071 1055.21,337.928 1056.63,337.928C1058.04,337.928 1059.18,339.071 1059.18,340.482ZM1053.72,340.482C1053.72,342.089 1055.02,343.391 1056.63,343.391C1058.23,343.391 1059.54,342.089 1059.54,340.482C1059.54,338.875 1058.23,337.573 1056.63,337.573C1055.02,337.573 1053.72,338.875 1053.72,340.482Z" style="fill:rgb(170,212,200);fill-rule:nonzero;"/>
                <path d="M1054.07,340.482C1054.07,341.893 1055.21,343.037 1056.63,343.037C1058.04,343.037 1059.18,341.893 1059.18,340.482C1059.18,339.071 1058.04,337.928 1056.63,337.928C1055.21,337.928 1054.07,339.071 1054.07,340.482Z" style="fill:rgb(97,110,125);fill-rule:nonzero;"/>
            </g>
        </g>
    </g>
</svg>
