<?xml version="1.0" encoding="UTF-8" standalone="no"?>
<!DOCTYPE svg PUBLIC "-//W3C//DTD SVG 1.1//EN" "http://www.w3.org/Graphics/SVG/1.1/DTD/svg11.dtd">
<svg width="100%" height="100%" viewBox="0 0 34 34" version="1.1" xmlns="http://www.w3.org/2000/svg" xmlns:xlink="http://www.w3.org/1999/xlink" xml:space="preserve" xmlns:serif="http://www.serif.com/" style="fill-rule:evenodd;clip-rule:evenodd;stroke-linejoin:round;stroke-miterlimit:2;">
    <g transform="matrix(1,0,0,1,-361,-52)">
        <g>
            <g>
                <path d="M367.244,55.384C366.883,55.083 366.455,54.941 366.037,55.034C365.176,55.226 364.688,56.326 364.946,57.492C365.205,58.658 366.114,59.448 366.976,59.257C367.233,59.2 367.452,59.054 367.632,58.857L367.602,58.721C367.457,58.608 367.326,58.455 367.236,58.251C366.965,57.644 366.818,56.988 366.807,56.323C366.8,55.894 366.992,55.557 367.244,55.384Z" style="fill:rgb(97,110,125);fill-rule:nonzero;"/>
                <path d="M368.563,58.783C368.318,59 367.922,58.97 367.602,58.721L367.632,58.857L367.894,60.033C367.94,60.243 368.1,60.391 368.292,60.446C368.379,60.471 368.472,60.483 368.567,60.461C368.742,60.423 368.872,60.304 368.944,60.154C368.999,60.043 369.024,59.918 368.996,59.788L368.729,58.588C368.683,58.658 368.63,58.726 368.563,58.783Z" style="fill:rgb(130,191,171);fill-rule:nonzero;"/>
                <path d="M367.785,55.279C367.603,55.225 367.41,55.269 367.244,55.384C366.992,55.557 366.8,55.894 366.807,56.323C366.818,56.988 366.965,57.644 367.236,58.251C367.326,58.455 367.457,58.608 367.602,58.721C367.922,58.97 368.318,59 368.563,58.783C368.63,58.726 368.683,58.658 368.729,58.588C368.935,58.276 368.952,57.867 368.814,57.547C368.638,57.152 368.543,56.725 368.536,56.292C368.522,55.866 368.245,55.412 367.785,55.279Z" style="fill:rgb(170,212,200);fill-rule:nonzero;"/>
                <path d="M381.849,76.444C379.96,76.444 378.424,74.907 378.424,73.019C378.424,71.129 379.96,69.593 381.849,69.593C383.737,69.593 385.274,71.129 385.274,73.019C385.274,74.907 383.737,76.444 381.849,76.444ZM376.313,58.321L387.385,58.321L387.385,67.634L376.313,67.634L376.313,58.321ZM374.269,83.963C375.258,84.423 376.348,84.651 377.405,84.651C378.609,84.651 379.768,84.355 380.686,83.77C381.588,83.194 382.647,82.091 382.811,80.063L388.005,80.063C388.795,80.063 389.435,79.424 389.435,78.634L389.435,57.624C389.435,56.835 388.795,56.196 388.005,56.196L375.691,56.196C374.902,56.196 374.263,56.835 374.263,57.624L374.263,78.634C374.263,79.424 374.902,80.063 375.691,80.063L382.12,80.063C381.993,81.438 381.377,82.513 380.316,83.19C378.784,84.168 376.471,84.228 374.544,83.333C370.184,81.559 369.479,75.189 370.034,68.315L370.045,68.18C370.317,64.897 370.874,61.508 371.454,58.452C371.36,58.493 371.258,58.519 371.148,58.505L371.137,58.504C370.993,58.485 370.873,58.411 370.782,58.311C370.326,60.715 369.886,63.316 369.585,65.922C369.437,64.895 369.333,63.799 369.234,62.775C369.143,61.827 369.056,60.921 368.944,60.154C368.872,60.304 368.742,60.423 368.567,60.461C368.472,60.483 368.379,60.471 368.292,60.446C368.389,61.155 368.468,61.98 368.55,62.841C368.725,64.675 368.923,66.74 369.355,68.271C368.792,75.396 369.57,82.051 374.269,83.963Z" style="fill:rgb(97,110,125);fill-rule:nonzero;"/>
                <path d="M381.849,75.239C380.622,75.239 379.628,74.245 379.628,73.019C379.628,71.791 380.622,70.797 381.849,70.797C383.076,70.797 384.07,71.791 384.07,73.019C384.07,74.245 383.076,75.239 381.849,75.239ZM381.849,69.937C380.15,69.937 378.768,71.32 378.768,73.019C378.768,74.717 380.15,76.1 381.849,76.1C383.548,76.1 384.93,74.717 384.93,73.019C384.93,71.32 383.548,69.937 381.849,69.937Z" style="fill:rgb(97,110,125);fill-rule:nonzero;"/>
                <path d="M377.623,65.834L379.731,65.834L379.731,66.95L377.623,66.95L377.623,65.834ZM377.623,64.49L379.731,64.49L379.731,65.605L377.623,65.605L377.623,64.49ZM380.785,65.834L382.892,65.834L382.892,66.95L380.785,66.95L380.785,65.834ZM380.785,64.49L382.892,64.49L382.892,65.605L380.785,65.605L380.785,64.49ZM380.785,63.145L382.892,63.145L382.892,64.26L380.785,64.26L380.785,63.145ZM380.785,61.8L382.892,61.8L382.892,62.915L380.785,62.915L380.785,61.8ZM380.785,60.455L382.892,60.455L382.892,61.571L380.785,61.571L380.785,60.455ZM383.946,65.834L386.053,65.834L386.053,66.95L383.946,66.95L383.946,65.834ZM383.946,64.49L386.053,64.49L386.053,65.605L383.946,65.605L383.946,64.49ZM383.946,63.145L386.053,63.145L386.053,64.26L383.946,64.26L383.946,63.145ZM376.313,67.634L387.385,67.634L387.385,58.321L376.313,58.321L376.313,67.634Z" style="fill:white;fill-rule:nonzero;"/>
                <path d="M382.068,72.227L383.192,72.938L382.923,73.105L382.068,73.632L381.288,74.115L381.288,71.733L382.03,72.203L382.068,72.227ZM379.628,73.019C379.628,74.245 380.622,75.239 381.849,75.239C383.076,75.239 384.07,74.245 384.07,73.019C384.07,71.791 383.076,70.797 381.849,70.797C380.622,70.797 379.628,71.791 379.628,73.019Z" style="fill:white;fill-rule:nonzero;"/>
                <path d="M381.849,76.1C380.15,76.1 378.768,74.717 378.768,73.019C378.768,71.32 380.15,69.937 381.849,69.937C383.548,69.937 384.93,71.32 384.93,73.019C384.93,74.717 383.548,76.1 381.849,76.1ZM381.849,69.593C379.96,69.593 378.424,71.129 378.424,73.019C378.424,74.907 379.96,76.444 381.849,76.444C383.737,76.444 385.274,74.907 385.274,73.019C385.274,71.129 383.737,69.593 381.849,69.593Z" style="fill:rgb(130,191,171);fill-rule:nonzero;"/>
                <path d="M381.288,71.733L381.288,74.115L382.068,73.632L382.923,73.105L383.192,72.938L382.068,72.227L382.03,72.203L381.288,71.733Z" style="fill:rgb(170,212,200);fill-rule:nonzero;"/>
                <rect x="377.623" y="65.834" width="2.108" height="1.116" style="fill:rgb(130,191,171);fill-rule:nonzero;"/>
                <rect x="380.785" y="65.834" width="2.107" height="1.116" style="fill:rgb(170,212,200);fill-rule:nonzero;"/>
                <rect x="383.946" y="65.834" width="2.107" height="1.116" style="fill:rgb(170,212,200);fill-rule:nonzero;"/>
                <rect x="377.623" y="64.49" width="2.108" height="1.115" style="fill:rgb(130,191,171);fill-rule:nonzero;"/>
                <rect x="380.785" y="64.49" width="2.107" height="1.115" style="fill:rgb(170,212,200);fill-rule:nonzero;"/>
                <rect x="383.946" y="64.49" width="2.107" height="1.115" style="fill:rgb(170,212,200);fill-rule:nonzero;"/>
                <rect x="380.785" y="63.145" width="2.107" height="1.115" style="fill:rgb(170,212,200);fill-rule:nonzero;"/>
                <rect x="383.946" y="63.145" width="2.107" height="1.115" style="fill:rgb(170,212,200);fill-rule:nonzero;"/>
                <rect x="380.785" y="61.8" width="2.107" height="1.115" style="fill:rgb(170,212,200);fill-rule:nonzero;"/>
                <rect x="380.785" y="60.455" width="2.107" height="1.116" style="fill:rgb(170,212,200);fill-rule:nonzero;"/>
                <path d="M371.316,57.083C371.089,57.054 370.896,56.936 370.764,56.771L370.626,57.845C370.604,58.023 370.67,58.188 370.782,58.311C370.873,58.411 370.993,58.485 371.137,58.504L371.148,58.505C371.258,58.519 371.36,58.493 371.454,58.452C371.638,58.372 371.781,58.209 371.808,57.996L371.945,56.922C371.775,57.049 371.559,57.114 371.333,57.084L371.316,57.083Z" style="fill:rgb(130,191,171);fill-rule:nonzero;"/>
                <path d="M372.276,56.354C372.269,56.411 372.256,56.464 372.239,56.516C373.107,56.29 373.794,55.561 373.915,54.619C374.072,53.382 373.198,52.251 371.961,52.093C370.725,51.936 369.593,52.81 369.437,54.047C369.315,54.99 369.798,55.868 370.581,56.303C370.577,56.249 370.578,56.194 370.585,56.139L370.824,54.268C370.883,53.806 371.306,53.478 371.769,53.538L371.786,53.54C372.247,53.599 372.574,54.021 372.515,54.484L372.276,56.354Z" style="fill:rgb(97,110,125);fill-rule:nonzero;"/>
                <path d="M371.769,53.538C371.306,53.478 370.883,53.806 370.824,54.268L370.585,56.139C370.578,56.194 370.577,56.249 370.581,56.303C370.593,56.478 370.659,56.64 370.764,56.771C370.896,56.936 371.089,57.054 371.316,57.083L371.333,57.084C371.559,57.114 371.775,57.049 371.945,56.922C372.08,56.821 372.184,56.681 372.239,56.516C372.256,56.464 372.269,56.411 372.276,56.354L372.515,54.484C372.574,54.021 372.247,53.599 371.786,53.54L371.769,53.538Z" style="fill:rgb(170,212,200);fill-rule:nonzero;"/>
            </g>
        </g>
    </g>
</svg>
