<?xml version="1.0" encoding="UTF-8" standalone="no"?>
<!DOCTYPE svg PUBLIC "-//W3C//DTD SVG 1.1//EN" "http://www.w3.org/Graphics/SVG/1.1/DTD/svg11.dtd">
<svg width="100%" height="100%" viewBox="0 0 38 38" version="1.1" xmlns="http://www.w3.org/2000/svg" xmlns:xlink="http://www.w3.org/1999/xlink" xml:space="preserve" xmlns:serif="http://www.serif.com/" style="fill-rule:evenodd;clip-rule:evenodd;stroke-linejoin:round;stroke-miterlimit:2;">
    <g transform="matrix(1,0,0,1,-111,-116)">
        <g>
            <g>
                <path d="M139.679,119.954L139.579,119.905C139.378,119.844 139.165,119.958 139.104,120.158L138.696,121.49C138.651,121.639 138.704,121.802 138.83,121.897C140.711,123.3 141.911,125.447 142.121,127.789C142.136,127.94 142.239,128.066 142.384,128.11L143.739,128.525C143.857,128.561 143.985,128.538 144.083,128.463C144.179,128.387 144.235,128.27 144.23,128.149C144.109,124.86 142.408,121.797 139.679,119.954Z" style="fill:rgb(130,191,171);fill-rule:nonzero;"/>
                <path d="M141.2,116.223C140.999,116.162 140.786,116.274 140.725,116.475L140.324,117.786C140.274,117.949 140.341,118.125 140.489,118.214C144.068,120.364 146.231,124.297 146.134,128.478C146.13,128.644 146.239,128.795 146.397,128.844L147.712,129.246C147.824,129.28 147.944,129.261 148.041,129.192C148.137,129.125 148.197,129.019 148.202,128.902C148.468,123.757 145.749,118.793 141.276,116.255L141.2,116.223Z" style="fill:rgb(97,110,125);fill-rule:nonzero;"/>
                <path d="M125.225,116.177C126.417,120.314 128.358,124.621 131.043,128.785C133.73,132.949 136.854,136.493 140.131,139.285C138.938,135.148 136.999,130.841 134.312,126.677C131.625,122.513 128.501,118.969 125.225,116.177Z" style="fill:rgb(170,212,200);fill-rule:nonzero;"/>
                <path d="M123.948,116.795C123.754,116.904 123.563,117.014 123.374,117.134C124.548,121.532 126.456,125.938 129.154,130.12C131.811,134.24 134.983,137.751 138.446,140.612C138.677,140.461 138.898,140.303 139.117,140.141C135.588,137.254 132.355,133.696 129.653,129.508C127.012,125.413 125.129,121.103 123.948,116.795Z" style="fill:rgb(130,191,171);fill-rule:nonzero;"/>
                <path d="M131.043,128.785C128.358,124.621 126.417,120.314 125.225,116.177L125.201,116.156C124.776,116.344 124.359,116.562 123.948,116.795C125.129,121.103 127.012,125.413 129.653,129.508C132.355,133.696 135.588,137.254 139.117,140.141C139.473,139.877 139.817,139.605 140.141,139.315L140.131,139.285C136.854,136.493 133.73,132.949 131.043,128.785Z" style="fill:rgb(97,110,125);fill-rule:nonzero;"/>
                <path d="M111.42,151.872L111.42,151.9L130.886,151.9L130.886,151.872C130.886,150.368 128.847,149.148 126.333,149.148L122.107,149.148L121.816,147.936L117.217,147.936L117.22,149.148L115.971,149.148C113.458,149.148 111.42,150.368 111.42,151.872Z" style="fill:rgb(97,110,125);fill-rule:nonzero;"/>
                <path d="M121.406,139.236C125.971,143.411 132.939,144.168 138.382,140.657L138.446,140.612C134.983,137.751 131.811,134.24 129.154,130.12C126.456,125.938 124.548,121.532 123.374,117.134L123.254,117.204C117.404,120.978 115.318,128.39 118.049,134.563C117.707,134.642 117.371,134.776 117.059,134.979C115.61,135.913 115.192,137.845 116.127,139.293C116.406,139.727 116.775,140.065 117.193,140.305L117.208,145.304L121.183,145.304L120.014,140.452C120.159,140.387 120.304,140.314 120.442,140.225C120.847,139.963 121.169,139.621 121.406,139.236Z" style="fill:rgb(97,110,125);fill-rule:nonzero;"/>
                <path d="M117.211,146.357L121.436,146.357L121.183,145.304L117.208,145.304L117.211,146.357Z" style="fill:rgb(170,212,200);fill-rule:nonzero;"/>
                <path d="M117.211,146.357L117.217,147.936L121.816,147.936L121.437,146.357L121.436,146.357L117.211,146.357Z" style="fill:rgb(130,191,171);fill-rule:nonzero;"/>
            </g>
        </g>
    </g>
</svg>
